<svg width="240" height="90" viewBox="0 0 240 90" fill="none" xmlns="http://www.w3.org/2000/svg">
<rect x="1" y="1" width="238" height="88" rx="3" fill="none" stroke="#1D1D1D" stroke-width="2"/>
<path d="M235.177 77.1768C235.274 77.0792 235.274 76.9209 235.177 76.8232L233.586 75.2322C233.488 75.1346 233.33 75.1346 233.232 75.2322C233.135 75.3299 233.135 75.4882 233.232 75.5858L234.646 77L233.232 78.4142C233.135 78.5119 233.135 78.6701 233.232 78.7678C233.33 78.8654 233.488 78.8654 233.586 78.7678L235.177 77.1768ZM135 77.25L235 77.25L235 76.75L135 76.75L135 77.25Z" fill="#757474"/>
<path d="M4.82323 76.8232C4.72559 76.9209 4.72559 77.0791 4.82323 77.1768L6.41422 78.7678C6.51185 78.8654 6.67014 78.8654 6.76777 78.7678C6.86539 78.6701 6.86539 78.5118 6.76777 78.4142L5.35355 77L6.76777 75.5858C6.86539 75.4882 6.86539 75.3299 6.76777 75.2322C6.67014 75.1346 6.51185 75.1346 6.41422 75.2322L4.82323 76.8232ZM105 76.75L5 76.75V77.25L105 77.25V76.75Z" fill="#757474"/>
<path d="M112.433 72.2466V79.0601H111.639V73.1116H111.601L110 74.2161V73.3778L111.639 72.2466H112.433Z" fill="#757474"/>
<path d="M116.497 79.1533C116.228 79.1489 115.959 79.0956 115.69 78.9936C115.421 78.8916 115.175 78.7197 114.953 78.4779C114.731 78.234 114.553 77.9046 114.419 77.4898C114.284 77.0729 114.217 76.5494 114.217 75.9195C114.217 75.3162 114.271 74.7817 114.38 74.3159C114.489 73.848 114.647 73.4543 114.854 73.1349C115.061 72.8133 115.311 72.5693 115.603 72.403C115.898 72.2366 116.23 72.1534 116.599 72.1534C116.966 72.1534 117.293 72.23 117.579 72.383C117.867 72.5338 118.102 72.7445 118.283 73.0151C118.465 73.2857 118.582 73.5973 118.636 73.95H117.854C117.782 73.6439 117.641 73.39 117.432 73.1881C117.222 72.9863 116.945 72.8854 116.599 72.8854C116.091 72.8854 115.691 73.1149 115.398 73.574C115.108 74.0332 114.962 74.6775 114.96 75.507H115.011C115.131 75.3185 115.272 75.1577 115.437 75.0246C115.603 74.8893 115.787 74.785 115.988 74.7119C116.188 74.6387 116.401 74.6021 116.625 74.6021C117 74.6021 117.344 74.6997 117.656 74.8948C117.967 75.0878 118.217 75.3551 118.405 75.6966C118.593 76.036 118.687 76.4252 118.687 76.8644C118.687 77.2858 118.596 77.6717 118.415 78.0221C118.233 78.3704 117.978 78.6476 117.649 78.8539C117.323 79.0579 116.939 79.1577 116.497 79.1533ZM116.497 78.4214C116.766 78.4214 117.007 78.3515 117.22 78.2118C117.436 78.072 117.606 77.8846 117.729 77.6495C117.855 77.4144 117.918 77.1527 117.918 76.8644C117.918 76.5827 117.858 76.3265 117.736 76.0959C117.616 75.863 117.451 75.6778 117.24 75.5403C117.03 75.4027 116.791 75.334 116.522 75.334C116.32 75.334 116.131 75.3761 115.956 75.4604C115.781 75.5425 115.627 75.6556 115.494 75.7998C115.364 75.9439 115.262 76.1092 115.187 76.2955C115.112 76.4796 115.075 76.6736 115.075 76.8777C115.075 77.1483 115.136 77.4011 115.258 77.6362C115.381 77.8713 115.55 78.061 115.763 78.2051C115.979 78.3493 116.223 78.4214 116.497 78.4214Z" fill="#757474"/>
<path d="M122.085 79.1533C121.602 79.1533 121.192 79.0169 120.852 78.7441C120.513 78.4691 120.253 78.0709 120.074 77.5497C119.895 77.0263 119.805 76.3942 119.805 75.6534C119.805 74.917 119.895 74.2882 120.074 73.767C120.255 73.2436 120.516 72.8443 120.855 72.5693C121.197 72.2921 121.607 72.1534 122.085 72.1534C122.563 72.1534 122.972 72.2921 123.311 72.5693C123.653 72.8443 123.913 73.2436 124.092 73.767C124.274 74.2882 124.365 74.917 124.365 75.6534C124.365 76.3942 124.275 77.0263 124.096 77.5497C123.916 78.0709 123.657 78.4691 123.318 78.7441C122.978 79.0169 122.567 79.1533 122.085 79.1533ZM122.085 78.4214C122.563 78.4214 122.934 78.1818 123.199 77.7028C123.464 77.2237 123.596 76.5406 123.596 75.6534C123.596 75.0634 123.535 74.561 123.414 74.1463C123.294 73.7315 123.121 73.4155 122.895 73.1981C122.671 72.9807 122.401 72.8721 122.085 72.8721C121.611 72.8721 121.241 73.1149 120.974 73.6007C120.707 74.0842 120.574 74.7684 120.574 75.6534C120.574 76.2433 120.633 76.7446 120.753 77.1571C120.872 77.5697 121.044 77.8835 121.268 78.0987C121.495 78.3138 121.767 78.4214 122.085 78.4214Z" fill="#757474"/>
<path d="M127.72 79.1533C127.238 79.1533 126.827 79.0169 126.487 78.7441C126.148 78.4691 125.889 78.0709 125.709 77.5497C125.53 77.0263 125.44 76.3942 125.44 75.6534C125.44 74.917 125.53 74.2882 125.709 73.767C125.891 73.2436 126.151 72.8443 126.491 72.5693C126.832 72.2921 127.242 72.1534 127.72 72.1534C128.198 72.1534 128.607 72.2921 128.947 72.5693C129.288 72.8443 129.549 73.2436 129.728 73.767C129.909 74.2882 130 74.917 130 75.6534C130 76.3942 129.91 77.0263 129.731 77.5497C129.552 78.0709 129.292 78.4691 128.953 78.7441C128.614 79.0169 128.203 79.1533 127.72 79.1533ZM127.72 78.4214C128.198 78.4214 128.57 78.1818 128.835 77.7028C129.099 77.2237 129.232 76.5406 129.232 75.6534C129.232 75.0634 129.171 74.561 129.049 74.1463C128.929 73.7315 128.757 73.4155 128.53 73.1981C128.306 72.9807 128.036 72.8721 127.72 72.8721C127.246 72.8721 126.876 73.1149 126.609 73.6007C126.342 74.0842 126.209 74.7684 126.209 75.6534C126.209 76.2433 126.269 76.7446 126.388 77.1571C126.508 77.5697 126.68 77.8835 126.904 78.0987C127.13 78.3138 127.402 78.4214 127.72 78.4214Z" fill="#757474"/>
<path d="M227.022 87.1768C227.12 87.2744 227.278 87.2744 227.376 87.1768L228.967 85.5858C229.065 85.4882 229.065 85.3299 228.967 85.2322C228.869 85.1346 228.711 85.1346 228.613 85.2322L227.199 86.6464L225.785 85.2322C225.687 85.1346 225.529 85.1346 225.431 85.2322C225.334 85.3299 225.334 85.4882 225.431 85.5858L227.022 87.1768ZM226.949 57L226.949 87L227.449 87L227.449 57L226.949 57Z" fill="#757474"/>
<path d="M227.177 2.82322C227.079 2.72559 226.921 2.72559 226.823 2.82322L225.232 4.41421C225.135 4.51184 225.135 4.67014 225.232 4.76777C225.33 4.8654 225.488 4.8654 225.586 4.76777L227 3.35355L228.414 4.76777C228.512 4.8654 228.67 4.8654 228.768 4.76777C228.865 4.67014 228.865 4.51184 228.768 4.41421L227.177 2.82322ZM227.25 33V3H226.75V33H227.25Z" fill="#757474"/>
<path d="M230 50.6889C229.995 50.9616 229.942 51.2342 229.84 51.5069C229.738 51.7795 229.566 52.0284 229.324 52.2534C229.081 52.4785 228.751 52.6592 228.336 52.7955C227.919 52.9318 227.396 53 226.766 53C226.163 53 225.628 52.9448 225.163 52.8345C224.695 52.7241 224.301 52.564 223.981 52.3541C223.66 52.1442 223.416 51.891 223.25 51.5945C223.083 51.2959 223 50.9594 223 50.585C223 50.2128 223.077 49.8817 223.23 49.5918C223.38 49.2996 223.591 49.0616 223.862 48.8777C224.132 48.6937 224.444 48.5747 224.797 48.5206V49.3126C224.49 49.3862 224.237 49.529 224.035 49.7411C223.833 49.9532 223.732 50.2345 223.732 50.585C223.732 51.1001 223.961 51.5058 224.421 51.8023C224.88 52.0965 225.524 52.2448 226.354 52.2469V52.195C226.165 52.0738 226.004 51.9299 225.871 51.7633C225.736 51.5945 225.632 51.4084 225.558 51.205C225.485 51.0016 225.449 50.7863 225.449 50.5591C225.449 50.1782 225.546 49.8298 225.741 49.5139C225.934 49.1979 226.202 48.9448 226.543 48.7543C226.883 48.5639 227.272 48.4687 227.711 48.4687C228.132 48.4687 228.518 48.5606 228.869 48.7446C229.217 48.9285 229.494 49.1871 229.7 49.5204C229.904 49.8514 230.004 50.241 230 50.6889ZM229.268 50.6889C229.268 50.4162 229.198 50.1717 229.058 49.9553C228.919 49.7368 228.731 49.5647 228.496 49.4392C228.261 49.3115 227.999 49.2477 227.711 49.2477C227.429 49.2477 227.173 49.3094 226.942 49.4327C226.71 49.5539 226.524 49.7216 226.387 49.9358C226.249 50.1479 226.181 50.3903 226.181 50.6629C226.181 50.8685 226.223 51.06 226.307 51.2375C226.389 51.4149 226.502 51.5707 226.646 51.7049C226.79 51.8369 226.956 51.9407 227.142 52.0165C227.326 52.0922 227.52 52.1301 227.724 52.1301C227.995 52.1301 228.248 52.0684 228.483 51.9451C228.718 51.8196 228.908 51.6486 229.052 51.4322C229.196 51.2137 229.268 50.9659 229.268 50.6889Z" fill="#757474"/>
<path d="M230 45.0239C230 45.513 229.863 45.9296 229.591 46.2736C229.316 46.6177 228.917 46.8806 228.396 47.0624C227.873 47.2442 227.241 47.335 226.5 47.335C225.764 47.335 225.135 47.2442 224.614 47.0624C224.09 46.8784 223.691 46.6144 223.416 46.2704C223.139 45.9241 223 45.5087 223 45.0239C223 44.5392 223.139 44.1248 223.416 43.7807C223.691 43.4345 224.09 43.1705 224.614 42.9887C225.135 42.8048 225.764 42.7128 226.5 42.7128C227.241 42.7128 227.873 42.8037 228.396 42.9855C228.917 43.1673 229.316 43.4302 229.591 43.7743C229.863 44.1183 230 44.5349 230 45.0239ZM229.268 45.0239C229.268 44.5392 229.028 44.1627 228.549 43.8944C228.07 43.626 227.387 43.4919 226.5 43.4919C225.91 43.4919 225.408 43.5535 224.993 43.6769C224.578 43.7981 224.262 43.9733 224.045 44.2027C223.827 44.4299 223.719 44.7037 223.719 45.0239C223.719 45.5043 223.961 45.8798 224.447 46.1503C224.931 46.4208 225.615 46.556 226.5 46.556C227.09 46.556 227.591 46.4954 228.004 46.3742C228.416 46.2531 228.73 46.0789 228.945 45.8517C229.16 45.6223 229.268 45.3464 229.268 45.0239Z" fill="#757474"/>
<path d="M230 39.3111C230 39.8002 229.863 40.2167 229.591 40.5608C229.316 40.9049 228.917 41.1678 228.396 41.3495C227.873 41.5313 227.241 41.6222 226.5 41.6222C225.764 41.6222 225.135 41.5313 224.614 41.3495C224.09 41.1656 223.691 40.9016 223.416 40.5575C223.139 40.2113 223 39.7958 223 39.3111C223 38.8264 223.139 38.412 223.416 38.0679C223.691 37.7217 224.09 37.4577 224.614 37.2759C225.135 37.092 225.764 37 226.5 37C227.241 37 227.873 37.0909 228.396 37.2727C228.917 37.4544 229.316 37.7174 229.591 38.0614C229.863 38.4055 230 38.822 230 39.3111ZM229.268 39.3111C229.268 38.8264 229.028 38.4498 228.549 38.1815C228.07 37.9132 227.387 37.779 226.5 37.779C225.91 37.779 225.408 37.8407 224.993 37.964C224.578 38.0852 224.262 38.2605 224.045 38.4899C223.827 38.7171 223.719 38.9908 223.719 39.3111C223.719 39.7915 223.961 40.1669 224.447 40.4374C224.931 40.7079 225.615 40.8432 226.5 40.8432C227.09 40.8432 227.591 40.7826 228.004 40.6614C228.416 40.5402 228.73 40.366 228.945 40.1388C229.16 39.9094 229.268 39.6335 229.268 39.3111Z" fill="#757474"/>
<path d="M118.524 38.4026C119.017 38.1698 119.59 38.1725 120.081 38.41L131.784 44.0646C133.513 44.9003 132.918 47.4999 130.997 47.4999H107.304C105.374 47.4999 104.787 44.8805 106.533 44.0572L118.524 38.4026Z" stroke="#1D1D1D"/>
<path d="M119.268 36.8039C119.388 36.9085 119.542 36.9689 119.699 36.9457C120.44 36.8366 121.496 36.3171 122.032 35.9721C122.631 35.587 123.086 35.0447 123.337 34.418C123.588 33.7912 123.622 33.11 123.435 32.4654C123.249 31.8208 122.85 31.2436 122.292 30.8112C121.734 30.3788 121.045 30.1118 120.315 30.046C119.586 29.9801 118.852 30.1186 118.211 30.4428C117.57 30.767 117.053 31.2614 116.729 31.8599C116.502 32.2801 116.378 32.7375 116.362 33.2009C116.35 33.5307 116.66 33.7558 116.987 33.7108C117.327 33.664 117.551 33.3414 117.603 33.0029C117.638 32.777 117.712 32.5561 117.824 32.349C118.038 31.9535 118.38 31.6268 118.803 31.4126C119.227 31.1984 119.712 31.1069 120.194 31.1504C120.676 31.1939 121.131 31.3704 121.5 31.6561C121.868 31.9418 122.132 32.3231 122.255 32.7491C122.379 33.175 122.356 33.6251 122.19 34.0393C122.025 34.4534 121.724 34.8117 121.328 35.0662C121.039 35.2523 120.484 35.4323 119.538 35.6801C119.031 35.813 118.874 36.4587 119.268 36.8039Z" fill="#1D1D1D"/>
<path d="M118.672 36.5901C118.672 36.1009 119.062 35.6839 119.55 35.7113C119.806 35.7257 119.941 36.0844 119.941 36.0844V38.4158H118.672V36.5901Z" fill="#1D1D1D"/>
</svg>
