<svg width="90" height="91" viewBox="0 0 90 91" fill="none" xmlns="http://www.w3.org/2000/svg">
<rect x="1" y="1.5647" width="88" height="88" rx="3" fill="none" stroke="#181818" stroke-width="2"/>
<path d="M87.1768 77.7415C87.2744 77.6438 87.2744 77.4855 87.1768 77.3879L85.5858 75.7969C85.4882 75.6993 85.3299 75.6993 85.2322 75.7969C85.1346 75.8946 85.1346 76.0529 85.2322 76.1505L86.6464 77.5647L85.2322 78.9789C85.1346 79.0765 85.1346 79.2348 85.2322 79.3325C85.3299 79.4301 85.4882 79.4301 85.5858 79.3325L87.1768 77.7415ZM57 77.8147L87 77.8147L87 77.3147L57 77.3147L57 77.8147Z" fill="#757474"/>
<path d="M2.82322 77.3879C2.72559 77.4856 2.72559 77.6438 2.82322 77.7415L4.41421 79.3325C4.51184 79.4301 4.67013 79.4301 4.76777 79.3325C4.8654 79.2348 4.8654 79.0765 4.76777 78.9789L3.35355 77.5647L4.76777 76.1505C4.8654 76.0529 4.8654 75.8946 4.76777 75.7969C4.67013 75.6993 4.51184 75.6993 4.41421 75.7969L2.82322 77.3879ZM33 77.3147H3V77.8147H33V77.3147Z" fill="#757474"/>
<path d="M39.3111 80.5646C39.0384 80.5601 38.7658 80.5069 38.4931 80.4049C38.2205 80.3028 37.9716 80.1309 37.7466 79.8892C37.5215 79.6452 37.3408 79.3158 37.2045 78.9011C37.0682 78.4841 37 77.9607 37 77.3308C37 76.7275 37.0552 76.193 37.1655 75.7272C37.2759 75.2592 37.436 74.8655 37.6459 74.5461C37.8558 74.2245 38.109 73.9806 38.4055 73.8142C38.7041 73.6479 39.0406 73.5647 39.415 73.5647C39.7872 73.5647 40.1183 73.6412 40.4082 73.7943C40.7004 73.9451 40.9384 74.1558 41.1223 74.4264C41.3063 74.697 41.4253 75.0086 41.4794 75.3612H40.6874C40.6138 75.0552 40.471 74.8012 40.2589 74.5994C40.0468 74.3975 39.7655 74.2966 39.415 74.2966C38.9 74.2966 38.4942 74.5262 38.1977 74.9853C37.9035 75.4444 37.7552 76.0887 37.7531 76.9182H37.805C37.9262 76.7297 38.0701 76.5689 38.2367 76.4358C38.4055 76.3005 38.5916 76.1963 38.795 76.1231C38.9984 76.0499 39.2137 76.0133 39.4409 76.0133C39.8218 76.0133 40.1702 76.1109 40.4861 76.3061C40.8021 76.499 41.0552 76.7663 41.2457 77.1079C41.4361 77.4472 41.5313 77.8365 41.5313 78.2756C41.5313 78.697 41.4394 79.083 41.2554 79.4334C41.0715 79.7816 40.8129 80.0589 40.4796 80.2651C40.1486 80.4692 39.759 80.569 39.3111 80.5646ZM39.3111 79.8326C39.5838 79.8326 39.8283 79.7628 40.0447 79.623C40.2632 79.4833 40.4353 79.2959 40.5608 79.0608C40.6885 78.8257 40.7523 78.564 40.7523 78.2756C40.7523 77.9939 40.6906 77.7378 40.5673 77.5071C40.4461 77.2742 40.2784 77.089 40.0642 76.9515C39.8521 76.814 39.6097 76.7452 39.3371 76.7452C39.1315 76.7452 38.94 76.7874 38.7625 76.8717C38.5851 76.9537 38.4293 77.0668 38.2951 77.211C38.1631 77.3552 38.0593 77.5204 37.9835 77.7067C37.9078 77.8908 37.8699 78.0849 37.8699 78.2889C37.8699 78.5595 37.9316 78.8124 38.0549 79.0475C38.1804 79.2826 38.3514 79.4722 38.5678 79.6164C38.7863 79.7605 39.0341 79.8326 39.3111 79.8326Z" fill="#757474"/>
<path d="M44.9761 80.5646C44.487 80.5646 44.0704 80.4282 43.7264 80.1553C43.3823 79.8803 43.1194 79.4822 42.9376 78.961C42.7558 78.4375 42.665 77.8054 42.665 77.0646C42.665 76.3283 42.7558 75.6995 42.9376 75.1783C43.1216 74.6548 43.3856 74.2556 43.7296 73.9806C44.0759 73.7033 44.4913 73.5647 44.9761 73.5647C45.4608 73.5647 45.8752 73.7033 46.2193 73.9806C46.5655 74.2556 46.8295 74.6548 47.0113 75.1783C47.1952 75.6995 47.2872 76.3283 47.2872 77.0646C47.2872 77.8054 47.1963 78.4375 47.0145 78.961C46.8327 79.4822 46.5698 79.8803 46.2257 80.1553C45.8817 80.4282 45.4651 80.5646 44.9761 80.5646ZM44.9761 79.8326C45.4608 79.8326 45.8373 79.5931 46.1056 79.114C46.374 78.6349 46.5081 77.9518 46.5081 77.0646C46.5081 76.4747 46.4465 75.9723 46.3231 75.5575C46.2019 75.1428 46.0267 74.8267 45.7973 74.6094C45.5701 74.392 45.2963 74.2833 44.9761 74.2833C44.4957 74.2833 44.1202 74.5262 43.8497 75.0119C43.5792 75.4954 43.444 76.1797 43.444 77.0646C43.444 77.6546 43.5046 78.1559 43.6258 78.5684C43.7469 78.9809 43.9211 79.2948 44.1483 79.5099C44.3777 79.7251 44.6536 79.8326 44.9761 79.8326Z" fill="#757474"/>
<path d="M50.6889 80.5646C50.1998 80.5646 49.7833 80.4282 49.4392 80.1553C49.0951 79.8803 48.8322 79.4822 48.6505 78.961C48.4687 78.4375 48.3778 77.8054 48.3778 77.0646C48.3778 76.3283 48.4687 75.6995 48.6505 75.1783C48.8344 74.6548 49.0984 74.2556 49.4425 73.9806C49.7887 73.7033 50.2042 73.5647 50.6889 73.5647C51.1736 73.5647 51.588 73.7033 51.9321 73.9806C52.2783 74.2556 52.5423 74.6548 52.7241 75.1783C52.908 75.6995 53 76.3283 53 77.0646C53 77.8054 52.9091 78.4375 52.7273 78.961C52.5456 79.4822 52.2826 79.8803 51.9386 80.1553C51.5945 80.4282 51.178 80.5646 50.6889 80.5646ZM50.6889 79.8326C51.1736 79.8326 51.5502 79.5931 51.8185 79.114C52.0868 78.6349 52.221 77.9518 52.221 77.0646C52.221 76.4747 52.1593 75.9723 52.036 75.5575C51.9148 75.1428 51.7395 74.8267 51.5101 74.6094C51.2829 74.392 51.0092 74.2833 50.6889 74.2833C50.2085 74.2833 49.8331 74.5262 49.5626 75.0119C49.2921 75.4954 49.1568 76.1797 49.1568 77.0646C49.1568 77.6546 49.2174 78.1559 49.3386 78.5684C49.4598 78.9809 49.634 79.2948 49.8612 79.5099C50.0906 79.7251 50.3665 79.8326 50.6889 79.8326Z" fill="#757474"/>
<path d="M77.0224 87.7417C77.1201 87.8394 77.2784 87.8394 77.376 87.7417L78.967 86.1507C79.0646 86.0531 79.0646 85.8948 78.967 85.7972C78.8694 85.6995 78.7111 85.6995 78.6134 85.7972L77.1992 87.2114L75.785 85.7972C75.6874 85.6995 75.5291 85.6995 75.4315 85.7972C75.3338 85.8948 75.3338 86.0531 75.4315 86.1507L77.0224 87.7417ZM76.9492 57.5649L76.9492 87.5649L77.4492 87.5649L77.4492 57.5649L76.9492 57.5649Z" fill="#757474"/>
<path d="M77.2276 3.39012C77.1299 3.29248 76.9716 3.29248 76.874 3.39012L75.283 4.98111C75.1854 5.07874 75.1854 5.23703 75.283 5.33466C75.3806 5.43229 75.5389 5.43229 75.6366 5.33466L77.0508 3.92045L78.465 5.33466C78.5626 5.43229 78.7209 5.43229 78.8185 5.33466C78.9162 5.23703 78.9162 5.07874 78.8185 4.98111L77.2276 3.39012ZM77.3008 33.5669V3.56689H76.8008V33.5669H77.3008Z" fill="#757474"/>
<path d="M79.9999 51.2536C79.9954 51.5263 79.9422 51.7989 79.8402 52.0716C79.7381 52.3442 79.5662 52.5931 79.3245 52.8181C79.0805 53.0432 78.7512 53.2239 78.3364 53.3602C77.9194 53.4965 77.396 53.5647 76.7661 53.5647C76.1628 53.5647 75.6283 53.5095 75.1625 53.3992C74.6945 53.2888 74.3008 53.1287 73.9814 52.9188C73.6598 52.7089 73.4159 52.4557 73.2495 52.1592C73.0832 51.8606 73 51.5241 73 51.1497C73 50.7775 73.0765 50.4464 73.2296 50.1565C73.3804 49.8643 73.5911 49.6263 73.8617 49.4424C74.1323 49.2584 74.4439 49.1394 74.7965 49.0853V49.8773C74.4905 49.9509 74.2365 50.0937 74.0347 50.3058C73.8328 50.5179 73.7319 50.7992 73.7319 51.1497C73.7319 51.6647 73.9615 52.0705 74.4206 52.3669C74.8797 52.6612 75.524 52.8095 76.3535 52.8116V52.7597C76.165 52.6385 76.0042 52.4946 75.8711 52.328C75.7358 52.1592 75.6316 51.9731 75.5584 51.7697C75.4852 51.5663 75.4486 51.351 75.4486 51.1238C75.4486 50.7429 75.5462 50.3945 75.7414 50.0786C75.9344 49.7626 76.2016 49.5094 76.5432 49.319C76.8825 49.1286 77.2718 49.0334 77.7109 49.0334C78.1323 49.0334 78.5183 49.1253 78.8687 49.3093C79.2169 49.4932 79.4942 49.7518 79.7004 50.0851C79.9045 50.4161 80.0043 50.8057 79.9999 51.2536ZM79.2679 51.2536C79.2679 50.9809 79.1981 50.7364 79.0583 50.52C78.9186 50.3015 78.7312 50.1294 78.4961 50.0039C78.261 49.8762 77.9993 49.8124 77.7109 49.8124C77.4293 49.8124 77.1731 49.8741 76.9424 49.9974C76.7095 50.1186 76.5243 50.2863 76.3868 50.5005C76.2493 50.7126 76.1805 50.955 76.1805 51.2276C76.1805 51.4332 76.2227 51.6247 76.307 51.8022C76.389 51.9796 76.5021 52.1354 76.6463 52.2696C76.7905 52.4016 76.9557 52.5054 77.142 52.5812C77.3261 52.6569 77.5202 52.6948 77.7242 52.6948C77.9948 52.6948 78.2477 52.6331 78.4828 52.5098C78.7179 52.3843 78.9075 52.2133 79.0517 51.9969C79.1959 51.7784 79.2679 51.5306 79.2679 51.2536Z" fill="#757474"/>
<path d="M79.9999 45.5886C79.9999 46.0777 79.8635 46.4943 79.5906 46.8383C79.3156 47.1824 78.9175 47.4453 78.3963 47.6271C77.8728 47.8089 77.2407 47.8997 76.4999 47.8997C75.7636 47.8997 75.1348 47.8089 74.6136 47.6271C74.0901 47.4431 73.6909 47.1791 73.4159 46.8351C73.1386 46.4888 73 46.0734 73 45.5886C73 45.1039 73.1386 44.6895 73.4159 44.3454C73.6909 43.9992 74.0901 43.7352 74.6136 43.5534C75.1348 43.3695 75.7636 43.2775 76.4999 43.2775C77.2407 43.2775 77.8728 43.3684 78.3963 43.5502C78.9175 43.732 79.3156 43.9949 79.5906 44.339C79.8635 44.683 79.9999 45.0996 79.9999 45.5886ZM79.2679 45.5886C79.2679 45.1039 79.0284 44.7274 78.5493 44.4591C78.0702 44.1907 77.3871 44.0566 76.4999 44.0566C75.91 44.0566 75.4076 44.1182 74.9928 44.2416C74.5781 44.3628 74.262 44.538 74.0447 44.7674C73.8273 44.9946 73.7186 45.2684 73.7186 45.5886C73.7186 46.069 73.9615 46.4445 74.4472 46.715C74.9307 46.9855 75.615 47.1207 76.4999 47.1207C77.0899 47.1207 77.5912 47.0601 78.0037 46.9389C78.4162 46.8178 78.7301 46.6436 78.9452 46.4163C79.1604 46.187 79.2679 45.9111 79.2679 45.5886Z" fill="#757474"/>
<path d="M79.9999 39.8758C79.9999 40.3649 79.8635 40.7814 79.5906 41.1255C79.3156 41.4696 78.9175 41.7325 78.3963 41.9142C77.8728 42.096 77.2407 42.1869 76.4999 42.1869C75.7636 42.1869 75.1348 42.096 74.6136 41.9142C74.0901 41.7303 73.6909 41.4663 73.4159 41.1222C73.1386 40.776 73 40.3605 73 39.8758C73 39.3911 73.1386 38.9767 73.4159 38.6326C73.6909 38.2864 74.0901 38.0224 74.6136 37.8406C75.1348 37.6567 75.7636 37.5647 76.4999 37.5647C77.2407 37.5647 77.8728 37.6556 78.3963 37.8374C78.9175 38.0191 79.3156 38.282 79.5906 38.6261C79.8635 38.9702 79.9999 39.3867 79.9999 39.8758ZM79.2679 39.8758C79.2679 39.3911 79.0284 39.0145 78.5493 38.7462C78.0702 38.4779 77.3871 38.3437 76.4999 38.3437C75.91 38.3437 75.4076 38.4054 74.9928 38.5287C74.5781 38.6499 74.262 38.8252 74.0447 39.0546C73.8273 39.2818 73.7186 39.5555 73.7186 39.8758C73.7186 40.3562 73.9615 40.7316 74.4472 41.0021C74.9307 41.2726 75.615 41.4079 76.4999 41.4079C77.0899 41.4079 77.5912 41.3473 78.0037 41.2261C78.4162 41.1049 78.7301 40.9307 78.9452 40.7035C79.1604 40.4741 79.2679 40.1982 79.2679 39.8758Z" fill="#757474"/>
<path d="M42.5238 38.9673C43.0174 38.7345 43.5899 38.7372 44.0813 38.9747L55.7836 44.6293C57.5131 45.465 56.9179 48.0646 54.9971 48.0646H31.3039C29.3738 48.0646 28.7871 45.4452 30.5329 44.6219L42.5238 38.9673Z" stroke="#181818"/>
<path d="M42.9382 37.3686C43.0579 37.4732 43.2121 37.5336 43.3692 37.5104C44.1104 37.4013 45.1659 36.8818 45.7021 36.5368C46.3008 36.1517 46.7561 35.6094 47.0068 34.9827C47.2576 34.3559 47.2919 33.6747 47.1052 33.0301C46.9184 32.3855 46.5196 31.8083 45.962 31.3759C45.4044 30.9435 44.7147 30.6765 43.9853 30.6107C43.2558 30.5448 42.5215 30.6833 41.8806 31.0075C41.2397 31.3316 40.7228 31.8261 40.3992 32.4246C40.172 32.8448 40.0476 33.3022 40.0315 33.7656C40.02 34.0954 40.3303 34.3205 40.6572 34.2755C40.9965 34.2287 41.2208 33.9061 41.2731 33.5676C41.3079 33.3417 41.3821 33.1208 41.4941 32.9137C41.708 32.5182 42.0495 32.1915 42.473 31.9773C42.8965 31.7631 43.3817 31.6716 43.8636 31.7151C44.3456 31.7586 44.8013 31.9351 45.1698 32.2208C45.5382 32.5065 45.8018 32.8878 45.9252 33.3137C46.0485 33.7397 46.0259 34.1898 45.8602 34.604C45.6945 35.0181 45.3937 35.3764 44.998 35.6309C44.7087 35.817 44.1536 35.997 43.208 36.2448C42.701 36.3777 42.5435 37.0234 42.9382 37.3686Z" fill="#181818"/>
<path d="M42.6719 37.226C42.6719 36.7197 43.045 36.2474 43.5505 36.2758C43.8058 36.2901 43.941 36.6488 43.941 36.6488V38.9802H42.6719V37.226Z" fill="#181818"/>
</svg>
