<svg width="270" height="90" viewBox="0 0 270 90" fill="none" xmlns="http://www.w3.org/2000/svg">
<rect x="1" y="1" width="268" height="88" rx="3" fill="none" stroke="#1D1D1D" stroke-width="2"/>
<path d="M267.177 77.1768C267.274 77.0792 267.274 76.9209 267.177 76.8232L265.586 75.2322C265.488 75.1346 265.33 75.1346 265.232 75.2322C265.135 75.3299 265.135 75.4882 265.232 75.5858L266.646 77L265.232 78.4142C265.135 78.5119 265.135 78.6701 265.232 78.7678C265.33 78.8654 265.488 78.8654 265.586 78.7678L267.177 77.1768ZM152 77.25L267 77.25L267 76.75L152 76.75L152 77.25Z" fill="#757474"/>
<path d="M2.82323 76.8232C2.72559 76.9209 2.72559 77.0791 2.82323 77.1768L4.41422 78.7678C4.51185 78.8654 4.67014 78.8654 4.76777 78.7678C4.86539 78.6701 4.86539 78.5118 4.76777 78.4142L3.35355 77L4.76777 75.5858C4.86539 75.4882 4.86539 75.3299 4.76777 75.2322C4.67014 75.1346 4.51185 75.1346 4.41422 75.2322L2.82323 76.8232ZM118 76.75L3 76.75V77.25L118 77.25V76.75Z" fill="#757474"/>
<path d="M127.442 72.2466V79.0603H126.645V73.1116H126.607L125 74.2162V73.3778L126.645 72.2466H127.442Z" fill="#757474"/>
<path d="M131.443 79.1534C131.001 79.1534 130.611 79.0725 130.273 78.9106C129.937 78.7464 129.674 78.5213 129.486 78.2352C129.297 77.9469 129.204 77.6186 129.206 77.2504C129.204 76.9621 129.259 76.6959 129.37 76.4519C129.481 76.2057 129.633 76.0006 129.826 75.8364C130.021 75.6701 130.239 75.5647 130.479 75.5204V75.4804C130.164 75.3962 129.913 75.2132 129.727 74.9315C129.54 74.6476 129.448 74.3249 129.45 73.9633C129.448 73.6173 129.533 73.3079 129.704 73.0351C129.876 72.7623 130.111 72.5471 130.411 72.3897C130.713 72.2322 131.057 72.1534 131.443 72.1534C131.824 72.1534 132.164 72.2322 132.464 72.3897C132.764 72.5471 133 72.7623 133.171 73.0351C133.345 73.3079 133.433 73.6173 133.435 73.9633C133.433 74.3249 133.337 74.6476 133.149 74.9315C132.962 75.2132 132.715 75.3962 132.407 75.4804V75.5204C132.644 75.5647 132.859 75.6701 133.049 75.8364C133.24 76.0006 133.392 76.2057 133.505 76.4519C133.619 76.6959 133.677 76.9621 133.679 77.2504C133.677 77.6186 133.58 77.9469 133.39 78.2352C133.201 78.5213 132.939 78.7464 132.603 78.9106C132.268 79.0725 131.882 79.1534 131.443 79.1534ZM131.443 78.4215C131.74 78.4215 131.997 78.3716 132.214 78.2718C132.43 78.172 132.597 78.0311 132.715 77.8493C132.833 77.6674 132.893 77.4545 132.895 77.2105C132.893 76.9532 132.829 76.7258 132.702 76.5284C132.576 76.331 132.403 76.1758 132.185 76.0627C131.968 75.9495 131.721 75.893 131.443 75.893C131.162 75.893 130.911 75.9495 130.691 76.0627C130.472 76.1758 130.3 76.331 130.173 76.5284C130.049 76.7258 129.988 76.9532 129.99 77.2105C129.988 77.4545 130.045 77.6674 130.16 77.8493C130.278 78.0311 130.446 78.172 130.665 78.2718C130.883 78.3716 131.143 78.4215 131.443 78.4215ZM131.443 75.1877C131.678 75.1877 131.887 75.1389 132.069 75.0413C132.253 74.9437 132.398 74.8073 132.503 74.6321C132.608 74.4568 132.661 74.2517 132.664 74.0166C132.661 73.7859 132.609 73.5852 132.506 73.4144C132.403 73.2414 132.261 73.1083 132.079 73.0151C131.897 72.9198 131.685 72.8721 131.443 72.8721C131.196 72.8721 130.981 72.9198 130.797 73.0151C130.612 73.1083 130.47 73.2414 130.369 73.4144C130.269 73.5852 130.219 73.7859 130.222 74.0166C130.219 74.2517 130.27 74.4568 130.373 74.6321C130.478 74.8073 130.622 74.9437 130.806 75.0413C130.991 75.1389 131.203 75.1877 131.443 75.1877Z" fill="#757474"/>
<path d="M137.057 79.1534C136.573 79.1534 136.16 79.017 135.82 78.7442C135.479 78.4692 135.219 78.0711 135.039 77.5498C134.859 77.0264 134.769 76.3943 134.769 75.6534C134.769 74.9171 134.859 74.2883 135.039 73.767C135.221 73.2436 135.482 72.8443 135.823 72.5693C136.166 72.2921 136.577 72.1534 137.057 72.1534C137.537 72.1534 137.947 72.2921 138.288 72.5693C138.63 72.8443 138.892 73.2436 139.072 73.767C139.254 74.2883 139.345 74.9171 139.345 75.6534C139.345 76.3943 139.255 77.0264 139.075 77.5498C138.895 78.0711 138.635 78.4692 138.294 78.7442C137.953 79.017 137.541 79.1534 137.057 79.1534ZM137.057 78.4215C137.537 78.4215 137.909 78.182 138.175 77.7029C138.441 77.2238 138.574 76.5406 138.574 75.6534C138.574 75.0635 138.512 74.5611 138.39 74.1463C138.27 73.7315 138.097 73.4155 137.87 73.1981C137.645 72.9808 137.374 72.8721 137.057 72.8721C136.581 72.8721 136.21 73.1149 135.942 73.6007C135.674 74.0842 135.54 74.7685 135.54 75.6534C135.54 76.2434 135.6 76.7447 135.72 77.1572C135.84 77.5698 136.013 77.8836 136.237 78.0988C136.465 78.3139 136.738 78.4215 137.057 78.4215Z" fill="#757474"/>
<path d="M142.712 79.1534C142.228 79.1534 141.816 79.017 141.475 78.7442C141.134 78.4692 140.874 78.0711 140.694 77.5498C140.514 77.0264 140.424 76.3943 140.424 75.6534C140.424 74.9171 140.514 74.2883 140.694 73.767C140.876 73.2436 141.138 72.8443 141.478 72.5693C141.821 72.2921 142.232 72.1534 142.712 72.1534C143.192 72.1534 143.602 72.2921 143.943 72.5693C144.286 72.8443 144.547 73.2436 144.727 73.767C144.909 74.2883 145 74.9171 145 75.6534C145 76.3943 144.91 77.0264 144.73 77.5498C144.55 78.0711 144.29 78.4692 143.949 78.7442C143.609 79.017 143.196 79.1534 142.712 79.1534ZM142.712 78.4215C143.192 78.4215 143.565 78.182 143.83 77.7029C144.096 77.2238 144.229 76.5406 144.229 75.6534C144.229 75.0635 144.168 74.5611 144.046 74.1463C143.926 73.7315 143.752 73.4155 143.525 73.1981C143.3 72.9808 143.029 72.8721 142.712 72.8721C142.237 72.8721 141.865 73.1149 141.597 73.6007C141.329 74.0842 141.196 74.7685 141.196 75.6534C141.196 76.2434 141.256 76.7447 141.375 77.1572C141.495 77.5698 141.668 77.8836 141.893 78.0988C142.12 78.3139 142.393 78.4215 142.712 78.4215Z" fill="#757474"/>
<path d="M257.425 87.1768C257.522 87.2744 257.681 87.2744 257.778 87.1768L259.369 85.5858C259.467 85.4882 259.467 85.3299 259.369 85.2322C259.272 85.1346 259.113 85.1346 259.016 85.2322L257.602 86.6464L256.187 85.2322C256.09 85.1346 255.931 85.1346 255.834 85.2322C255.736 85.3299 255.736 85.4882 255.834 85.5858L257.425 87.1768ZM257.352 57L257.352 87L257.852 87L257.852 57L257.352 57Z" fill="#757474"/>
<path d="M257.552 2.82322C257.454 2.72559 257.296 2.72559 257.198 2.82322L255.607 4.41421C255.51 4.51184 255.51 4.67014 255.607 4.76777C255.705 4.8654 255.863 4.8654 255.961 4.76777L257.375 3.35355L258.789 4.76777C258.887 4.8654 259.045 4.8654 259.143 4.76777C259.24 4.67014 259.24 4.51184 259.143 4.41421L257.552 2.82322ZM257.625 33V3H257.125V33H257.625Z" fill="#757474"/>
<path d="M260 50.6889C259.995 50.9616 259.942 51.2342 259.84 51.5069C259.738 51.7795 259.566 52.0284 259.324 52.2534C259.081 52.4785 258.751 52.6592 258.336 52.7955C257.919 52.9318 257.396 53 256.766 53C256.163 53 255.628 52.9448 255.163 52.8345C254.695 52.7241 254.301 52.564 253.981 52.3541C253.66 52.1442 253.416 51.891 253.25 51.5945C253.083 51.2959 253 50.9594 253 50.585C253 50.2128 253.077 49.8817 253.23 49.5918C253.38 49.2996 253.591 49.0616 253.862 48.8777C254.132 48.6937 254.444 48.5747 254.797 48.5206V49.3126C254.49 49.3862 254.237 49.529 254.035 49.7411C253.833 49.9532 253.732 50.2345 253.732 50.585C253.732 51.1001 253.961 51.5058 254.421 51.8023C254.88 52.0965 255.524 52.2448 256.354 52.2469V52.195C256.165 52.0738 256.004 51.9299 255.871 51.7633C255.736 51.5945 255.632 51.4084 255.558 51.205C255.485 51.0016 255.449 50.7863 255.449 50.5591C255.449 50.1782 255.546 49.8298 255.741 49.5139C255.934 49.1979 256.202 48.9448 256.543 48.7543C256.883 48.5639 257.272 48.4687 257.711 48.4687C258.132 48.4687 258.518 48.5606 258.869 48.7446C259.217 48.9285 259.494 49.1871 259.7 49.5204C259.904 49.8514 260.004 50.241 260 50.6889ZM259.268 50.6889C259.268 50.4162 259.198 50.1717 259.058 49.9553C258.919 49.7368 258.731 49.5647 258.496 49.4392C258.261 49.3115 257.999 49.2477 257.711 49.2477C257.429 49.2477 257.173 49.3094 256.942 49.4327C256.71 49.5539 256.524 49.7216 256.387 49.9358C256.249 50.1479 256.181 50.3903 256.181 50.6629C256.181 50.8685 256.223 51.06 256.307 51.2375C256.389 51.4149 256.502 51.5707 256.646 51.7049C256.79 51.8369 256.956 51.9407 257.142 52.0165C257.326 52.0922 257.52 52.1301 257.724 52.1301C257.995 52.1301 258.248 52.0684 258.483 51.9451C258.718 51.8196 258.908 51.6486 259.052 51.4322C259.196 51.2137 259.268 50.9659 259.268 50.6889Z" fill="#757474"/>
<path d="M260 45.0239C260 45.513 259.863 45.9296 259.591 46.2736C259.316 46.6177 258.917 46.8806 258.396 47.0624C257.873 47.2442 257.241 47.335 256.5 47.335C255.764 47.335 255.135 47.2442 254.614 47.0624C254.09 46.8784 253.691 46.6144 253.416 46.2704C253.139 45.9241 253 45.5087 253 45.0239C253 44.5392 253.139 44.1248 253.416 43.7807C253.691 43.4345 254.09 43.1705 254.614 42.9887C255.135 42.8048 255.764 42.7128 256.5 42.7128C257.241 42.7128 257.873 42.8037 258.396 42.9855C258.917 43.1673 259.316 43.4302 259.591 43.7743C259.863 44.1183 260 44.5349 260 45.0239ZM259.268 45.0239C259.268 44.5392 259.028 44.1627 258.549 43.8944C258.07 43.626 257.387 43.4919 256.5 43.4919C255.91 43.4919 255.408 43.5535 254.993 43.6769C254.578 43.7981 254.262 43.9733 254.045 44.2027C253.827 44.4299 253.719 44.7037 253.719 45.0239C253.719 45.5043 253.961 45.8798 254.447 46.1503C254.931 46.4208 255.615 46.556 256.5 46.556C257.09 46.556 257.591 46.4954 258.004 46.3742C258.416 46.2531 258.73 46.0789 258.945 45.8517C259.16 45.6223 259.268 45.3464 259.268 45.0239Z" fill="#757474"/>
<path d="M260 39.3111C260 39.8002 259.863 40.2167 259.591 40.5608C259.316 40.9049 258.917 41.1678 258.396 41.3495C257.873 41.5313 257.241 41.6222 256.5 41.6222C255.764 41.6222 255.135 41.5313 254.614 41.3495C254.09 41.1656 253.691 40.9016 253.416 40.5575C253.139 40.2113 253 39.7958 253 39.3111C253 38.8264 253.139 38.412 253.416 38.0679C253.691 37.7217 254.09 37.4577 254.614 37.2759C255.135 37.092 255.764 37 256.5 37C257.241 37 257.873 37.0909 258.396 37.2727C258.917 37.4544 259.316 37.7174 259.591 38.0614C259.863 38.4055 260 38.822 260 39.3111ZM259.268 39.3111C259.268 38.8264 259.028 38.4498 258.549 38.1815C258.07 37.9132 257.387 37.779 256.5 37.779C255.91 37.779 255.408 37.8407 254.993 37.964C254.578 38.0852 254.262 38.2605 254.045 38.4899C253.827 38.7171 253.719 38.9908 253.719 39.3111C253.719 39.7915 253.961 40.1669 254.447 40.4374C254.931 40.7079 255.615 40.8432 256.5 40.8432C257.09 40.8432 257.591 40.7826 258.004 40.6614C258.416 40.5402 258.73 40.366 258.945 40.1388C259.16 39.9094 259.268 39.6335 259.268 39.3111Z" fill="#757474"/>
<path d="M134.524 38.6256C135.017 38.3928 135.59 38.3955 136.081 38.633L147.784 44.2876C149.513 45.1233 148.918 47.723 146.997 47.723H123.304C121.374 47.723 120.787 45.1035 122.533 44.2803L134.524 38.6256Z" stroke="#1D1D1D"/>
<path d="M135.266 36.8039C135.386 36.9085 135.54 36.9689 135.697 36.9457C136.438 36.8366 137.494 36.3171 138.03 35.9721C138.629 35.587 139.084 35.0447 139.335 34.418C139.586 33.7912 139.62 33.11 139.433 32.4654C139.247 31.8208 138.848 31.2436 138.29 30.8112C137.732 30.3788 137.043 30.1118 136.313 30.046C135.584 29.9801 134.85 30.1186 134.209 30.4428C133.568 30.767 133.051 31.2614 132.727 31.8599C132.5 32.2801 132.376 32.7375 132.36 33.2009C132.348 33.5307 132.658 33.7558 132.985 33.7108C133.325 33.664 133.549 33.3414 133.601 33.0029C133.636 32.777 133.71 32.5561 133.822 32.349C134.036 31.9535 134.378 31.6268 134.801 31.4126C135.225 31.1984 135.71 31.1069 136.192 31.1504C136.674 31.1939 137.129 31.3704 137.498 31.6561C137.866 31.9418 138.13 32.3231 138.253 32.7491C138.377 33.175 138.354 33.6251 138.188 34.0393C138.023 34.4534 137.722 34.8117 137.326 35.0662C137.037 35.2523 136.482 35.4323 135.536 35.6801C135.029 35.813 134.872 36.4587 135.266 36.8039Z" fill="#1D1D1D"/>
<path d="M134.672 36.8778C134.672 36.3886 135.062 35.9716 135.55 35.9991C135.806 36.0134 135.941 36.3721 135.941 36.3721V38.7035H134.672V36.8778Z" fill="#1D1D1D"/>
</svg>
