<svg width="210" height="91" viewBox="0 0 210 91" fill="none" xmlns="http://www.w3.org/2000/svg">
<rect x="1" y="1.5647" width="208" height="88" rx="3" fill="none" stroke="#1D1D1D" stroke-width="2"/>
<path d="M207.177 78.7415C207.274 78.6438 207.274 78.4856 207.177 78.3879L205.586 76.7969C205.488 76.6993 205.33 76.6993 205.232 76.7969C205.135 76.8946 205.135 77.0529 205.232 77.1505L206.646 78.5647L205.232 79.9789C205.135 80.0765 205.135 80.2348 205.232 80.3325C205.33 80.4301 205.488 80.4301 205.586 80.3325L207.177 78.7415ZM122 78.8147L207 78.8147L207 78.3147L122 78.3147L122 78.8147Z" fill="#757474"/>
<path d="M2.82323 78.3879C2.7256 78.4856 2.7256 78.6438 2.82323 78.7415L4.41422 80.3325C4.51186 80.4301 4.67014 80.4301 4.76778 80.3325C4.8654 80.2348 4.8654 80.0765 4.76778 79.9789L3.35356 78.5647L4.76778 77.1505C4.8654 77.0529 4.8654 76.8946 4.76778 76.7969C4.67014 76.6993 4.51186 76.6993 4.41422 76.7969L2.82323 78.3879ZM88 78.3147L3.00001 78.3147V78.8147L88 78.8147V78.3147Z" fill="#757474"/>
<path d="M97.4143 73.6579V80.4715H96.6265V74.5229H96.5884L95 75.6274V74.789L96.6265 73.6579H97.4143Z" fill="#757474"/>
<path d="M99.1329 79.0742V78.3955L101.992 73.6579H102.462V74.7092H102.145L99.9843 78.289V78.3423H103.835V79.0742H99.1329ZM102.195 80.4715V73.6579H102.945V80.4715H102.195Z" fill="#757474"/>
<path d="M107.147 80.5647C106.668 80.5647 106.261 80.4283 105.924 80.1555C105.587 79.8804 105.33 79.4823 105.152 78.9611C104.974 78.4376 104.885 77.8055 104.885 77.0647C104.885 76.3283 104.974 75.6995 105.152 75.1783C105.332 74.6548 105.59 74.2556 105.927 73.9806C106.266 73.7033 106.673 73.5647 107.147 73.5647C107.621 73.5647 108.027 73.7033 108.364 73.9806C108.703 74.2556 108.961 74.6548 109.139 75.1783C109.319 75.6995 109.409 76.3283 109.409 77.0647C109.409 77.8055 109.32 78.4376 109.142 78.9611C108.964 79.4823 108.707 79.8804 108.37 80.1555C108.033 80.4283 107.626 80.5647 107.147 80.5647ZM107.147 79.8328C107.621 79.8328 107.99 79.5932 108.253 79.1141C108.515 78.635 108.647 77.9519 108.647 77.0647C108.647 76.4747 108.586 75.9723 108.465 75.5576C108.347 75.1428 108.175 74.8267 107.951 74.6094C107.728 74.392 107.461 74.2833 107.147 74.2833C106.677 74.2833 106.309 74.5262 106.045 75.0119C105.78 75.4955 105.648 76.1797 105.648 77.0647C105.648 77.6547 105.707 78.156 105.826 78.5685C105.944 78.981 106.115 79.2949 106.337 79.51C106.562 79.7252 106.832 79.8328 107.147 79.8328Z" fill="#757474"/>
<path d="M112.738 80.5647C112.26 80.5647 111.852 80.4283 111.515 80.1555C111.178 79.8804 110.921 79.4823 110.743 78.9611C110.565 78.4376 110.476 77.8055 110.476 77.0647C110.476 76.3283 110.565 75.6995 110.743 75.1783C110.923 74.6548 111.182 74.2556 111.518 73.9806C111.857 73.7033 112.264 73.5647 112.738 73.5647C113.213 73.5647 113.618 73.7033 113.955 73.9806C114.294 74.2556 114.552 74.6548 114.73 75.1783C114.91 75.6995 115 76.3283 115 77.0647C115 77.8055 114.911 78.4376 114.733 78.9611C114.555 79.4823 114.298 79.8804 113.961 80.1555C113.624 80.4283 113.217 80.5647 112.738 80.5647ZM112.738 79.8328C113.213 79.8328 113.581 79.5932 113.844 79.1141C114.106 78.635 114.238 77.9519 114.238 77.0647C114.238 76.4747 114.177 75.9723 114.057 75.5576C113.938 75.1428 113.766 74.8267 113.542 74.6094C113.32 74.392 113.052 74.2833 112.738 74.2833C112.268 74.2833 111.901 74.5262 111.636 75.0119C111.371 75.4955 111.239 76.1797 111.239 77.0647C111.239 77.6547 111.298 78.156 111.417 78.5685C111.535 78.981 111.706 79.2949 111.928 79.51C112.153 79.7252 112.423 79.8328 112.738 79.8328Z" fill="#757474"/>
<path d="M196.624 87.7417C196.722 87.8394 196.88 87.8394 196.978 87.7417L198.569 86.1507C198.666 86.0531 198.666 85.8948 198.569 85.7972C198.471 85.6995 198.313 85.6995 198.215 85.7972L196.801 87.2114L195.387 85.7972C195.289 85.6995 195.131 85.6995 195.033 85.7972C194.935 85.8948 194.935 86.0531 195.033 86.1507L196.624 87.7417ZM196.551 57.5649L196.551 87.5649L197.051 87.5649L197.051 57.5649L196.551 57.5649Z" fill="#757474"/>
<path d="M196.626 3.39012C196.528 3.29249 196.37 3.29249 196.272 3.39012L194.681 4.98111C194.584 5.07874 194.584 5.23703 194.681 5.33466C194.779 5.43229 194.937 5.43229 195.035 5.33466L196.449 3.92045L197.863 5.33466C197.961 5.43229 198.119 5.43229 198.217 5.33466C198.315 5.23703 198.315 5.07874 198.217 4.98111L196.626 3.39012ZM196.699 33.5669V3.56689H196.199V33.5669H196.699Z" fill="#757474"/>
<path d="M200 51.2536C199.995 51.5263 199.942 51.7989 199.84 52.0716C199.738 52.3442 199.566 52.5931 199.324 52.8181C199.081 53.0432 198.751 53.2239 198.336 53.3602C197.919 53.4965 197.396 53.5647 196.766 53.5647C196.163 53.5647 195.628 53.5095 195.163 53.3992C194.695 53.2888 194.301 53.1287 193.981 52.9188C193.66 52.7089 193.416 52.4557 193.25 52.1592C193.083 51.8606 193 51.5241 193 51.1497C193 50.7775 193.077 50.4464 193.23 50.1565C193.38 49.8643 193.591 49.6263 193.862 49.4424C194.132 49.2584 194.444 49.1394 194.797 49.0853V49.8773C194.49 49.9509 194.237 50.0937 194.035 50.3058C193.833 50.5179 193.732 50.7992 193.732 51.1497C193.732 51.6647 193.961 52.0705 194.421 52.367C194.88 52.6612 195.524 52.8095 196.354 52.8116V52.7597C196.165 52.6385 196.004 52.4946 195.871 52.328C195.736 52.1592 195.632 51.9731 195.558 51.7697C195.485 51.5663 195.449 51.351 195.449 51.1238C195.449 50.7429 195.546 50.3945 195.741 50.0786C195.934 49.7626 196.202 49.5094 196.543 49.319C196.883 49.1286 197.272 49.0334 197.711 49.0334C198.132 49.0334 198.518 49.1253 198.869 49.3093C199.217 49.4932 199.494 49.7518 199.7 50.0851C199.904 50.4161 200.004 50.8057 200 51.2536ZM199.268 51.2536C199.268 50.9809 199.198 50.7364 199.058 50.52C198.919 50.3015 198.731 50.1294 198.496 50.0039C198.261 49.8762 197.999 49.8124 197.711 49.8124C197.429 49.8124 197.173 49.8741 196.942 49.9974C196.71 50.1186 196.524 50.2863 196.387 50.5005C196.249 50.7126 196.181 50.955 196.181 51.2276C196.181 51.4332 196.223 51.6247 196.307 51.8022C196.389 51.9796 196.502 52.1354 196.646 52.2696C196.79 52.4016 196.956 52.5054 197.142 52.5812C197.326 52.6569 197.52 52.6948 197.724 52.6948C197.995 52.6948 198.248 52.6331 198.483 52.5098C198.718 52.3843 198.908 52.2133 199.052 51.9969C199.196 51.7784 199.268 51.5306 199.268 51.2536Z" fill="#757474"/>
<path d="M200 45.5886C200 46.0777 199.863 46.4943 199.591 46.8383C199.316 47.1824 198.917 47.4453 198.396 47.6271C197.873 47.8089 197.241 47.8997 196.5 47.8997C195.764 47.8997 195.135 47.8089 194.614 47.6271C194.09 47.4431 193.691 47.1791 193.416 46.8351C193.139 46.4888 193 46.0734 193 45.5886C193 45.1039 193.139 44.6895 193.416 44.3454C193.691 43.9992 194.09 43.7352 194.614 43.5534C195.135 43.3695 195.764 43.2775 196.5 43.2775C197.241 43.2775 197.873 43.3684 198.396 43.5502C198.917 43.732 199.316 43.9949 199.591 44.339C199.863 44.683 200 45.0996 200 45.5886ZM199.268 45.5886C199.268 45.1039 199.028 44.7274 198.549 44.4591C198.07 44.1907 197.387 44.0566 196.5 44.0566C195.91 44.0566 195.408 44.1182 194.993 44.2416C194.578 44.3628 194.262 44.538 194.045 44.7674C193.827 44.9946 193.719 45.2684 193.719 45.5886C193.719 46.069 193.961 46.4445 194.447 46.715C194.931 46.9855 195.615 47.1207 196.5 47.1207C197.09 47.1207 197.591 47.0601 198.004 46.9389C198.416 46.8178 198.73 46.6436 198.945 46.4163C199.16 46.187 199.268 45.9111 199.268 45.5886Z" fill="#757474"/>
<path d="M200 39.8758C200 40.3649 199.863 40.7814 199.591 41.1255C199.316 41.4696 198.917 41.7325 198.396 41.9142C197.873 42.096 197.241 42.1869 196.5 42.1869C195.764 42.1869 195.135 42.096 194.614 41.9142C194.09 41.7303 193.691 41.4663 193.416 41.1222C193.139 40.776 193 40.3605 193 39.8758C193 39.3911 193.139 38.9767 193.416 38.6326C193.691 38.2864 194.09 38.0224 194.614 37.8406C195.135 37.6567 195.764 37.5647 196.5 37.5647C197.241 37.5647 197.873 37.6556 198.396 37.8374C198.917 38.0191 199.316 38.282 199.591 38.6261C199.863 38.9702 200 39.3867 200 39.8758ZM199.268 39.8758C199.268 39.3911 199.028 39.0145 198.549 38.7462C198.07 38.4779 197.387 38.3437 196.5 38.3437C195.91 38.3437 195.408 38.4054 194.993 38.5287C194.578 38.6499 194.262 38.8252 194.045 39.0546C193.827 39.2818 193.719 39.5555 193.719 39.8758C193.719 40.3562 193.961 40.7316 194.447 41.0021C194.931 41.2726 195.615 41.4079 196.5 41.4079C197.09 41.4079 197.591 41.3473 198.004 41.2261C198.416 41.1049 198.73 40.9307 198.945 40.7035C199.16 40.4741 199.268 40.1982 199.268 39.8758Z" fill="#757474"/>
<path d="M104.524 38.9673C105.017 38.7345 105.59 38.7372 106.081 38.9747L117.784 44.6293C119.513 45.465 118.918 48.0646 116.997 48.0646H93.3039C91.3738 48.0646 90.7871 45.4452 92.5329 44.6219L104.524 38.9673Z" stroke="#1D1D1D"/>
<path d="M105.266 37.3686C105.386 37.4732 105.54 37.5336 105.697 37.5104C106.438 37.4013 107.494 36.8818 108.03 36.5368C108.629 36.1517 109.084 35.6094 109.335 34.9827C109.586 34.3559 109.62 33.6747 109.433 33.0301C109.247 32.3855 108.848 31.8083 108.29 31.3759C107.732 30.9435 107.043 30.6765 106.313 30.6107C105.584 30.5448 104.85 30.6833 104.209 31.0075C103.568 31.3316 103.051 31.8261 102.727 32.4246C102.5 32.8448 102.376 33.3022 102.36 33.7656C102.348 34.0954 102.658 34.3205 102.985 34.2755C103.325 34.2287 103.549 33.9061 103.601 33.5676C103.636 33.3417 103.71 33.1208 103.822 32.9137C104.036 32.5182 104.378 32.1915 104.801 31.9773C105.225 31.7631 105.71 31.6716 106.192 31.7151C106.674 31.7586 107.129 31.9351 107.498 32.2208C107.866 32.5065 108.13 32.8878 108.253 33.3137C108.377 33.7397 108.354 34.1898 108.188 34.604C108.023 35.0181 107.722 35.3764 107.326 35.6309C107.037 35.817 106.482 35.997 105.536 36.2448C105.029 36.3777 104.872 37.0234 105.266 37.3686Z" fill="#1D1D1D"/>
<path d="M104.672 37.1548C104.672 36.6656 105.062 36.2486 105.55 36.276C105.806 36.2904 105.941 36.6491 105.941 36.6491V38.9805H104.672V37.1548Z" fill="#1D1D1D"/>
</svg>
