<svg width="182" height="182" viewBox="0 0 182 182" fill="none" xmlns="http://www.w3.org/2000/svg">
<mask id="path-1-inside-1_2868_11056" fill="white">
<path fill-rule="none" clip-rule="evenodd" d="M90.7814 90.7824L91.5322 4.7856C91.5515 2.57655 93.358 0.801386 95.567 0.820674L177.564 1.5366C179.773 1.55589 181.548 3.36232 181.529 5.57137L180.027 177.565C180.008 179.716 178.294 181.456 176.164 181.528C176.107 181.53 176.049 181.53 175.992 181.53L3.99817 180.028C1.78912 180.009 0.0139617 178.202 0.0332493 175.993L0.749175 93.9964C0.768462 91.7874 2.57489 90.0122 4.78395 90.0315L90.7814 90.7824Z"/>
</mask>
<path fill-rule="evenodd" clip-rule="evenodd" d="M90.7814 90.7824L91.5322 4.7856C91.5515 2.57655 93.358 0.801386 95.567 0.820674L177.564 1.5366C179.773 1.55589 181.548 3.36232 181.529 5.57137L180.027 177.565C180.008 179.716 178.294 181.456 176.164 181.528C176.107 181.53 176.049 181.53 175.992 181.53L3.99817 180.028C1.78912 180.009 0.0139617 178.202 0.0332493 175.993L0.749175 93.9964C0.768462 91.7874 2.57489 90.0122 4.78395 90.0315L90.7814 90.7824Z" fill="none"/>
<path d="M90.7814 90.7824L90.7639 92.7823L92.7638 92.7997L92.7813 90.7998L90.7814 90.7824ZM176.164 181.528L176.097 179.529L176.097 179.529L176.164 181.528ZM175.992 181.53L176.009 179.53L175.992 181.53ZM3.99817 180.028L3.98071 182.028L3.99817 180.028ZM92.7813 90.7998L93.5322 4.80306L89.5323 4.76814L88.7815 90.7649L92.7813 90.7998ZM93.5322 4.80306C93.5418 3.69853 94.445 2.81095 95.5495 2.8206L95.5845 -1.17925C92.2709 -1.20818 89.5612 1.45456 89.5323 4.76814L93.5322 4.80306ZM95.5495 2.8206L177.546 3.53652L177.581 -0.463325L95.5845 -1.17925L95.5495 2.8206ZM177.546 3.53652C178.651 3.54617 179.539 4.44938 179.529 5.55391L183.529 5.58883C183.558 2.27525 180.895 -0.434393 177.581 -0.463325L177.546 3.53652ZM179.529 5.55391L178.027 177.547L182.027 177.582L183.529 5.58883L179.529 5.55391ZM178.027 177.547C178.018 178.623 177.161 179.493 176.097 179.529L176.231 183.526C179.428 183.419 181.999 180.81 182.027 177.582L178.027 177.547ZM176.097 179.529C176.068 179.53 176.039 179.53 176.009 179.53L175.974 183.53C176.06 183.53 176.146 183.529 176.232 183.526L176.097 179.529ZM176.009 179.53L4.01564 178.028L3.98071 182.028L175.974 183.53L176.009 179.53ZM4.01564 178.028C2.91111 178.019 2.02353 177.115 2.03317 176.011L-1.96667 175.976C-1.99561 179.289 0.667133 181.999 3.98071 182.028L4.01564 178.028ZM2.03317 176.011L2.7491 94.0139L-1.25075 93.979L-1.96667 175.976L2.03317 176.011ZM2.7491 94.0139C2.75874 92.9094 3.66196 92.0218 4.76648 92.0314L4.80141 88.0316C1.48783 88.0026 -1.22182 90.6654 -1.25075 93.979L2.7491 94.0139ZM4.76648 92.0314L90.7639 92.7823L90.7988 88.7824L4.80141 88.0316L4.76648 92.0314Z" fill="#1D1D1D" mask="url(#path-1-inside-1_2868_11056)"/>
<path d="M2.95244 164.842C2.85396 164.938 2.85258 165.097 2.94936 165.195L4.52639 166.8C4.62317 166.898 4.78145 166.9 4.87993 166.803C4.97841 166.706 4.97979 166.548 4.88302 166.45L3.48121 165.023L4.90771 163.621C5.00619 163.524 5.00757 163.366 4.9108 163.268C4.81402 163.169 4.65574 163.168 4.55726 163.265L2.95244 164.842ZM73.1272 165.381L3.12985 164.77L3.12548 165.27L73.1228 165.881L73.1272 165.381Z" fill="#757474"/>
<path d="M177.298 166.717C177.396 166.621 177.397 166.462 177.301 166.364L175.724 164.759C175.627 164.661 175.469 164.659 175.37 164.756C175.272 164.853 175.27 165.011 175.367 165.11L176.769 166.536L175.342 167.938C175.244 168.035 175.242 168.193 175.339 168.291C175.436 168.39 175.594 168.391 175.693 168.294L177.298 166.717ZM107.123 166.178L177.12 166.789L177.125 166.289L107.127 165.678L107.123 166.178Z" fill="#757474"/>
<path d="M82.5634 163.873L82.5634 170.686L81.7626 170.686L81.7626 164.738L81.7238 164.738L80.1094 165.842L80.1094 165.004L81.7626 163.873L82.5634 163.873Z" fill="#757474"/>
<path d="M84.4652 170.686L84.4652 170.088L86.648 167.626C86.9041 167.337 87.1151 167.087 87.2808 166.874C87.4466 166.659 87.5693 166.457 87.6489 166.268C87.7307 166.077 87.7716 165.878 87.7716 165.669C87.7716 165.43 87.7157 165.222 87.6037 165.047C87.4939 164.872 87.3433 164.737 87.1517 164.641C86.9601 164.546 86.7448 164.498 86.5059 164.498C86.2519 164.498 86.0302 164.553 85.8407 164.661C85.6535 164.768 85.5081 164.917 85.4048 165.11C85.3036 165.303 85.2531 165.53 85.2531 165.789L84.491 165.789C84.491 165.39 84.5804 165.039 84.759 164.738C84.9377 164.436 85.181 164.201 85.4888 164.032C85.7988 163.864 86.1464 163.78 86.5317 163.78C86.9192 163.78 87.2625 163.864 87.5617 164.032C87.861 164.201 88.0956 164.428 88.2657 164.714C88.4357 165.001 88.5207 165.319 88.5207 165.669C88.5207 165.92 88.4766 166.165 88.3884 166.405C88.3023 166.642 88.1516 166.907 87.9363 167.2C87.7232 167.49 87.4272 167.845 87.0483 168.264L85.563 169.901L85.563 169.954L88.637 169.954L88.637 170.686L84.4652 170.686Z" fill="#757474"/>
<path d="M92.1275 170.78C91.641 170.78 91.2266 170.643 90.8843 170.37C90.5421 170.095 90.2805 169.697 90.0997 169.176C89.9189 168.652 89.8285 168.02 89.8285 167.28C89.8285 166.543 89.9189 165.914 90.0997 165.393C90.2827 164.87 90.5453 164.47 90.8875 164.195C91.232 163.918 91.6453 163.78 92.1275 163.78C92.6096 163.78 93.0219 163.918 93.3641 164.195C93.7086 164.47 93.9712 164.87 94.152 165.393C94.335 165.914 94.4265 166.543 94.4265 167.28C94.4265 168.02 94.336 168.652 94.1552 169.176C93.9744 169.697 93.7129 170.095 93.3706 170.37C93.0283 170.643 92.6139 170.78 92.1275 170.78ZM92.1275 170.048C92.6096 170.048 92.9842 169.808 93.2511 169.329C93.5181 168.85 93.6515 168.167 93.6515 167.28C93.6515 166.69 93.5902 166.187 93.4675 165.772C93.3469 165.358 93.1726 165.042 92.9444 164.824C92.7184 164.607 92.446 164.498 92.1275 164.498C91.6496 164.498 91.2761 164.741 91.007 165.227C90.7379 165.71 90.6034 166.395 90.6034 167.28C90.6034 167.87 90.6637 168.371 90.7842 168.783C90.9048 169.196 91.0781 169.51 91.3041 169.725C91.5323 169.94 91.8067 170.048 92.1275 170.048Z" fill="#757474"/>
<path d="M97.8104 170.78C97.3239 170.78 96.9095 170.643 96.5672 170.37C96.225 170.095 95.9634 169.697 95.7826 169.176C95.6018 168.652 95.5114 168.02 95.5114 167.28C95.5114 166.543 95.6018 165.914 95.7826 165.393C95.9656 164.87 96.2282 164.47 96.5705 164.195C96.9149 163.918 97.3282 163.78 97.8104 163.78C98.2926 163.78 98.7048 163.918 99.0471 164.195C99.3915 164.47 99.6541 164.87 99.8349 165.393C100.018 165.914 100.109 166.543 100.109 167.28C100.109 168.02 100.019 168.652 99.8381 169.176C99.6573 169.697 99.3958 170.095 99.0535 170.37C98.7112 170.643 98.2969 170.78 97.8104 170.78ZM97.8104 170.048C98.2926 170.048 98.6671 169.808 98.934 169.329C99.201 168.85 99.3344 168.167 99.3344 167.28C99.3344 166.69 99.2731 166.187 99.1504 165.772C99.0298 165.358 98.8555 165.042 98.6273 164.824C98.4013 164.607 98.129 164.498 97.8104 164.498C97.3325 164.498 96.959 164.741 96.6899 165.227C96.4209 165.71 96.2863 166.395 96.2863 167.28C96.2863 167.87 96.3466 168.371 96.4671 168.783C96.5877 169.196 96.761 169.51 96.987 169.725C97.2152 169.94 97.4896 170.048 97.8104 170.048Z" fill="#757474"/>
<path d="M13.3191 92.9316C13.2224 92.8331 13.0641 92.8318 12.9656 92.9285L11.3608 94.5056C11.2623 94.6024 11.2609 94.7606 11.3577 94.8591C11.4545 94.9576 11.6128 94.959 11.7112 94.8622L13.1377 93.4604L14.5396 94.8869C14.6363 94.9854 14.7946 94.9868 14.8931 94.89C14.9916 94.7932 14.993 94.6349 14.8962 94.5364L13.3191 92.9316ZM13.1289 123.108L13.3908 93.109L12.8908 93.1047L12.6289 123.104L13.1289 123.108Z" fill="#757474"/>
<path d="M12.5285 177.279C12.6253 177.378 12.7836 177.379 12.8821 177.282L14.4869 175.705C14.5854 175.609 14.5867 175.45 14.49 175.352C14.3932 175.253 14.2349 175.252 14.1364 175.349L12.7099 176.751L11.3081 175.324C11.2113 175.226 11.053 175.224 10.9546 175.321C10.8561 175.418 10.8547 175.576 10.9515 175.674L12.5285 177.279ZM12.7188 147.103L12.4568 177.102L12.9568 177.106L13.2187 147.107L12.7188 147.103Z" fill="#757474"/>
<path d="M17.3905 140.802C17.386 141.074 17.3328 141.347 17.2308 141.62C17.1288 141.892 16.9569 142.141 16.7151 142.366C16.4711 142.591 16.1418 142.772 15.727 142.908C15.31 143.045 14.7866 143.113 14.1567 143.113C13.5534 143.113 13.0189 143.058 12.5531 142.947C12.0851 142.837 11.6915 142.677 11.3721 142.467C11.0505 142.257 10.8065 142.004 10.6401 141.707C10.4738 141.409 10.3906 141.072 10.3906 140.698C10.3906 140.326 10.4671 139.995 10.6202 139.705C10.771 139.412 10.9817 139.174 11.2523 138.99C11.5229 138.807 11.8345 138.688 12.1872 138.633V139.425C11.8811 139.499 11.6271 139.642 11.4253 139.854C11.2235 140.066 11.1225 140.347 11.1225 140.698C11.1225 141.213 11.3521 141.619 11.8112 141.915C12.2703 142.209 12.9147 142.358 13.7442 142.36V142.308C13.5556 142.187 13.3948 142.043 13.2618 141.876C13.1265 141.707 13.0222 141.521 12.949 141.318C12.8758 141.114 12.8392 140.899 12.8392 140.672C12.8392 140.291 12.9368 139.943 13.132 139.627C13.325 139.311 13.5922 139.058 13.9338 138.867C14.2732 138.677 14.6624 138.581 15.1016 138.581C15.523 138.581 15.9089 138.673 16.2593 138.857C16.6075 139.041 16.8848 139.3 17.0911 139.633C17.2951 139.964 17.3949 140.354 17.3905 140.802ZM16.6586 140.802C16.6586 140.529 16.5887 140.285 16.449 140.068C16.3092 139.85 16.1218 139.678 15.8867 139.552C15.6516 139.424 15.3899 139.36 15.1016 139.36C14.8199 139.36 14.5637 139.422 14.333 139.546C14.1002 139.667 13.915 139.834 13.7774 140.049C13.6399 140.261 13.5712 140.503 13.5712 140.776C13.5712 140.981 13.6133 141.173 13.6976 141.35C13.7797 141.528 13.8928 141.684 14.0369 141.818C14.1811 141.95 14.3463 142.054 14.5327 142.129C14.7167 142.205 14.9108 142.243 15.1149 142.243C15.3855 142.243 15.6383 142.181 15.8734 142.058C16.1085 141.932 16.2981 141.761 16.4423 141.545C16.5865 141.326 16.6586 141.079 16.6586 140.802Z" fill="#757474"/>
<path d="M17.3905 135.137C17.3905 135.626 17.2541 136.042 16.9813 136.386C16.7062 136.73 16.3081 136.993 15.7869 137.175C15.2635 137.357 14.6314 137.448 13.8906 137.448C13.1542 137.448 12.5254 137.357 12.0042 137.175C11.4807 136.991 11.0815 136.727 10.8065 136.383C10.5292 136.037 10.3906 135.621 10.3906 135.137C10.3906 134.652 10.5292 134.238 10.8065 133.894C11.0815 133.547 11.4807 133.283 12.0042 133.102C12.5254 132.918 13.1542 132.826 13.8906 132.826C14.6314 132.826 15.2635 132.917 15.7869 133.098C16.3081 133.28 16.7062 133.543 16.9813 133.887C17.2541 134.231 17.3905 134.648 17.3905 135.137ZM16.6586 135.137C16.6586 134.652 16.419 134.275 15.9399 134.007C15.4609 133.739 14.7777 133.605 13.8906 133.605C13.3006 133.605 12.7982 133.666 12.3835 133.79C11.9687 133.911 11.6526 134.086 11.4353 134.316C11.2179 134.543 11.1092 134.816 11.1092 135.137C11.1092 135.617 11.3521 135.993 11.8378 136.263C12.3214 136.534 13.0056 136.669 13.8906 136.669C14.4805 136.669 14.9818 136.608 15.3943 136.487C15.8069 136.366 16.1207 136.192 16.3358 135.964C16.551 135.735 16.6586 135.459 16.6586 135.137Z" fill="#757474"/>
<path d="M17.3905 129.424C17.3905 129.913 17.2541 130.33 16.9813 130.674C16.7062 131.018 16.3081 131.281 15.7869 131.462C15.2635 131.644 14.6314 131.735 13.8906 131.735C13.1542 131.735 12.5254 131.644 12.0042 131.462C11.4807 131.278 11.0815 131.014 10.8065 130.67C10.5292 130.324 10.3906 129.909 10.3906 129.424C10.3906 128.939 10.5292 128.525 10.8065 128.181C11.0815 127.834 11.4807 127.57 12.0042 127.389C12.5254 127.205 13.1542 127.113 13.8906 127.113C14.6314 127.113 15.2635 127.204 15.7869 127.385C16.3081 127.567 16.7062 127.83 16.9813 128.174C17.2541 128.518 17.3905 128.935 17.3905 129.424ZM16.6586 129.424C16.6586 128.939 16.419 128.563 15.9399 128.294C15.4609 128.026 14.7777 127.892 13.8906 127.892C13.3006 127.892 12.7982 127.953 12.3835 128.077C11.9687 128.198 11.6526 128.373 11.4353 128.603C11.2179 128.83 11.1092 129.104 11.1092 129.424C11.1092 129.904 11.3521 130.28 11.8378 130.55C12.3214 130.821 13.0056 130.956 13.8906 130.956C14.4805 130.956 14.9818 130.895 15.3943 130.774C15.8069 130.653 16.1207 130.479 16.3358 130.252C16.551 130.022 16.6586 129.746 16.6586 129.424Z" fill="#757474"/>
<path d="M178.627 14.107C178.726 14.0102 178.727 13.8519 178.63 13.7534L177.053 12.1486C176.956 12.0501 176.798 12.0488 176.7 12.1455C176.601 12.2423 176.6 12.4006 176.697 12.4991L178.098 13.9256L176.672 15.3274C176.573 15.4242 176.572 15.5825 176.669 15.6809C176.766 15.7794 176.924 15.7808 177.022 15.684L178.627 14.107ZM148.451 13.9167L178.45 14.1787L178.454 13.6787L148.455 13.4168L148.451 13.9167Z" fill="#757474"/>
<path d="M94.2829 13.3172C94.1845 13.414 94.1831 13.5723 94.2799 13.6707L95.8569 15.2756C95.9537 15.374 96.112 15.3754 96.2104 15.2787C96.3089 15.1819 96.3103 15.0236 96.2135 14.9251L94.8117 13.4986L96.2382 12.0968C96.3367 12 96.3381 11.8417 96.2413 11.7433C96.1445 11.6448 95.9862 11.6434 95.8878 11.7402L94.2829 13.3172ZM124.459 13.5075L94.4604 13.2455L94.456 13.7455L124.455 14.0074L124.459 13.5075Z" fill="#757474"/>
<path d="M130.753 18.1781C130.48 18.1736 130.207 18.1204 129.935 18.0184C129.662 17.9164 129.413 17.7445 129.188 17.5027C128.963 17.2587 128.782 16.9294 128.646 16.5146C128.51 16.0976 128.441 15.5742 128.441 14.9443C128.441 14.341 128.497 13.8065 128.607 13.3407C128.717 12.8727 128.877 12.4791 129.087 12.1597C129.297 11.8381 129.55 11.5941 129.847 11.4277C130.146 11.2614 130.482 11.1782 130.856 11.1782C131.229 11.1782 131.56 11.2547 131.85 11.4078C132.142 11.5586 132.38 11.7693 132.564 12.0399C132.748 12.3105 132.867 12.6221 132.921 12.9748L132.129 12.9748C132.055 12.6687 131.912 12.4147 131.7 12.2129C131.488 12.0111 131.207 11.9101 130.856 11.9101C130.341 11.9101 129.936 12.1397 129.639 12.5988C129.345 13.0579 129.197 13.7023 129.194 14.5318L129.246 14.5318C129.368 14.3432 129.511 14.1824 129.678 14.0494C129.847 13.9141 130.033 13.8098 130.236 13.7366C130.44 13.6634 130.655 13.6268 130.882 13.6268C131.263 13.6268 131.612 13.7244 131.928 13.9196C132.243 14.1126 132.497 14.3798 132.687 14.7214C132.878 15.0607 132.973 15.45 132.973 15.8892C132.973 16.3106 132.881 16.6965 132.697 17.0469C132.513 17.3951 132.254 17.6724 131.921 17.8787C131.59 18.0827 131.2 18.1825 130.753 18.1781ZM130.753 17.4462C131.025 17.4462 131.27 17.3763 131.486 17.2366C131.705 17.0968 131.877 16.9094 132.002 16.6743C132.13 16.4392 132.194 16.1775 132.194 15.8892C132.194 15.6075 132.132 15.3513 132.009 15.1206C131.888 14.8877 131.72 14.7025 131.506 14.565C131.293 14.4275 131.051 14.3588 130.778 14.3588C130.573 14.3588 130.381 14.4009 130.204 14.4852C130.027 14.5673 129.871 14.6804 129.737 14.8245C129.605 14.9687 129.501 15.1339 129.425 15.3202C129.349 15.5043 129.311 15.6984 129.311 15.9025C129.311 16.1731 129.373 16.4259 129.496 16.661C129.622 16.8961 129.793 17.0857 130.009 17.2299C130.228 17.3741 130.476 17.4462 130.753 17.4462Z" fill="#757474"/>
<path d="M136.417 18.1781C135.928 18.1781 135.512 18.0417 135.168 17.7689C134.824 17.4938 134.561 17.0957 134.379 16.5745C134.197 16.0511 134.106 15.4189 134.106 14.6782C134.106 13.9418 134.197 13.313 134.379 12.7918C134.563 12.2683 134.827 11.8691 135.171 11.5941C135.517 11.3168 135.933 11.1782 136.417 11.1782C136.902 11.1782 137.317 11.3168 137.661 11.5941C138.007 11.8691 138.271 12.2683 138.453 12.7918C138.637 13.313 138.729 13.9418 138.729 14.6782C138.729 15.4189 138.638 16.0511 138.456 16.5745C138.274 17.0957 138.011 17.4938 137.667 17.7689C137.323 18.0417 136.907 18.1781 136.417 18.1781ZM136.417 17.4462C136.902 17.4462 137.279 17.2066 137.547 16.7275C137.815 16.2485 137.95 15.5653 137.95 14.6782C137.95 14.0882 137.888 13.5858 137.765 13.1711C137.643 12.7563 137.468 12.4402 137.239 12.2229C137.011 12.0055 136.738 11.8968 136.417 11.8968C135.937 11.8968 135.562 12.1397 135.291 12.6254C135.021 13.109 134.885 13.7932 134.885 14.6782C134.885 15.2681 134.946 15.7694 135.067 16.1819C135.188 16.5945 135.363 16.9083 135.59 17.1234C135.819 17.3386 136.095 17.4462 136.417 17.4462Z" fill="#757474"/>
<path d="M142.13 18.1781C141.641 18.1781 141.225 18.0417 140.881 17.7689C140.537 17.4938 140.274 17.0957 140.092 16.5745C139.91 16.0511 139.819 15.4189 139.819 14.6782C139.819 13.9418 139.91 13.313 140.092 12.7918C140.276 12.2683 140.54 11.8691 140.884 11.5941C141.23 11.3168 141.646 11.1782 142.13 11.1782C142.615 11.1782 143.029 11.3168 143.373 11.5941C143.72 11.8691 143.984 12.2683 144.166 12.7918C144.349 13.313 144.441 13.9418 144.441 14.6782C144.441 15.4189 144.351 16.0511 144.169 16.5745C143.987 17.0957 143.724 17.4938 143.38 17.7689C143.036 18.0417 142.619 18.1781 142.13 18.1781ZM142.13 17.4462C142.615 17.4462 142.992 17.2066 143.26 16.7275C143.528 16.2485 143.662 15.5653 143.662 14.6782C143.662 14.0882 143.601 13.5858 143.477 13.1711C143.356 12.7563 143.181 12.4402 142.952 12.2229C142.724 12.0055 142.451 11.8968 142.13 11.8968C141.65 11.8968 141.274 12.1397 141.004 12.6254C140.733 13.109 140.598 13.7932 140.598 14.6782C140.598 15.2681 140.659 15.7694 140.78 16.1819C140.901 16.5945 141.075 16.9083 141.303 17.1234C141.532 17.3386 141.808 17.4462 142.13 17.4462Z" fill="#757474"/>
<path d="M165.003 177.61C165.1 177.709 165.259 177.71 165.357 177.614L166.962 176.036C167.06 175.94 167.062 175.781 166.965 175.683C166.868 175.584 166.71 175.583 166.611 175.68L165.185 177.082L163.783 175.655C163.686 175.557 163.528 175.555 163.43 175.652C163.331 175.749 163.33 175.907 163.426 176.006L165.003 177.61ZM165.543 107.436L164.932 177.433L165.432 177.437L166.043 107.44L165.543 107.436Z" fill="#757474"/>
<path d="M166.864 5.26677C166.767 5.16829 166.609 5.16691 166.51 5.26369L164.905 6.84072C164.807 6.9375 164.805 7.09578 164.902 7.19426C164.999 7.29274 165.157 7.29412 165.256 7.19735L166.682 5.79554L168.084 7.22205C168.181 7.32052 168.339 7.3219 168.438 7.22513C168.536 7.12836 168.538 6.97007 168.441 6.87159L166.864 5.26677ZM166.324 75.4415L166.935 5.44418L166.435 5.43981L165.824 75.4371L166.324 75.4415Z" fill="#757474"/>
<path d="M163.874 98.9961L170.688 98.9961L170.688 99.7969L164.739 99.7969L164.739 99.8356L165.844 101.45L165.006 101.45L163.874 99.7969L163.874 98.9961Z" fill="#757474"/>
<path d="M170.688 97.0942L170.089 97.0942L167.627 94.9115C167.339 94.6553 167.088 94.4444 166.875 94.2786C166.66 94.1129 166.458 93.9902 166.27 93.9105C166.079 93.8287 165.879 93.7878 165.671 93.7878C165.431 93.7878 165.224 93.8438 165.049 93.9557C164.874 94.0655 164.738 94.2162 164.643 94.4078C164.548 94.5994 164.5 94.8146 164.5 95.0536C164.5 95.3076 164.554 95.5293 164.663 95.7187C164.769 95.906 164.919 96.0513 165.112 96.1546C165.305 96.2558 165.531 96.3064 165.791 96.3064L165.791 97.0684C165.392 97.0684 165.041 96.9791 164.739 96.8004C164.438 96.6217 164.203 96.3785 164.034 96.0707C163.866 95.7607 163.781 95.413 163.781 95.0277C163.781 94.6403 163.866 94.2969 164.034 93.9977C164.203 93.6985 164.43 93.4638 164.716 93.2938C165.002 93.1237 165.321 93.0387 165.671 93.0387C165.922 93.0387 166.167 93.0828 166.406 93.1711C166.644 93.2572 166.909 93.4079 167.201 93.6231C167.492 93.8363 167.847 94.1322 168.266 94.5111L169.903 95.9964L169.956 95.9964L169.956 92.9225L170.688 92.9225L170.688 97.0942Z" fill="#757474"/>
<path d="M170.781 89.432C170.781 89.9185 170.645 90.3329 170.372 90.6751C170.097 91.0174 169.699 91.2789 169.178 91.4598C168.654 91.6406 168.022 91.731 167.281 91.731C166.545 91.731 165.916 91.6406 165.395 91.4598C164.871 91.2768 164.472 91.0142 164.197 90.6719C163.92 90.3275 163.781 89.9142 163.781 89.432C163.781 88.9498 163.92 88.5376 164.197 88.1953C164.472 87.8509 164.871 87.5883 165.395 87.4075C165.916 87.2245 166.545 87.133 167.281 87.133C168.022 87.133 168.654 87.2234 169.178 87.4042C169.699 87.585 170.097 87.8466 170.372 88.1889C170.645 88.5311 170.781 88.9455 170.781 89.432ZM170.049 89.432C170.049 88.9498 169.81 88.5752 169.331 88.3083C168.852 88.0414 168.168 87.9079 167.281 87.9079C166.691 87.9079 166.189 87.9693 165.774 88.092C165.359 88.2125 165.043 88.3869 164.826 88.6151C164.609 88.8411 164.5 89.1134 164.5 89.432C164.5 89.9099 164.743 90.2834 165.228 90.5524C165.712 90.8215 166.396 90.956 167.281 90.956C167.871 90.956 168.373 90.8958 168.785 90.7752C169.198 90.6547 169.511 90.4814 169.727 90.2554C169.942 90.0272 170.049 89.7527 170.049 89.432Z" fill="#757474"/>
<path d="M170.781 83.7491C170.781 84.2356 170.645 84.6499 170.372 84.9922C170.097 85.3345 169.699 85.596 169.178 85.7768C168.654 85.9577 168.022 86.0481 167.281 86.0481C166.545 86.0481 165.916 85.9577 165.395 85.7768C164.871 85.5939 164.472 85.3312 164.197 84.989C163.92 84.6446 163.781 84.2313 163.781 83.7491C163.781 83.2669 163.92 82.8547 164.197 82.5124C164.472 82.168 164.871 81.9054 165.395 81.7245C165.916 81.5416 166.545 81.4501 167.281 81.4501C168.022 81.4501 168.654 81.5405 169.178 81.7213C169.699 81.9021 170.097 82.1637 170.372 82.5059C170.645 82.8482 170.781 83.2626 170.781 83.7491ZM170.049 83.7491C170.049 83.2669 169.81 82.8923 169.331 82.6254C168.852 82.3585 168.168 82.225 167.281 82.225C166.691 82.225 166.189 82.2864 165.774 82.4091C165.359 82.5296 165.043 82.704 164.826 82.9322C164.609 83.1582 164.5 83.4305 164.5 83.7491C164.5 84.227 164.743 84.6004 165.228 84.8695C165.712 85.1386 166.396 85.2731 167.281 85.2731C167.871 85.2731 168.373 85.2129 168.785 85.0923C169.198 84.9718 169.511 84.7985 169.727 84.5724C169.942 84.3443 170.049 84.0698 170.049 83.7491Z" fill="#757474"/>
<path d="M104.516 113.402C105.01 113.17 105.582 113.172 106.073 113.41L117.776 119.064C119.505 119.9 118.91 122.5 116.989 122.5L93.2961 122.5C91.366 122.5 90.7793 119.88 92.5251 119.057L104.516 113.402Z" stroke="#1D1D1D"/>
<path d="M105.262 111.804C105.382 111.908 105.536 111.969 105.693 111.946C106.435 111.836 107.49 111.317 108.026 110.972C108.625 110.587 109.08 110.044 109.331 109.418C109.582 108.791 109.616 108.11 109.429 107.465C109.243 106.821 108.844 106.243 108.286 105.811C107.729 105.379 107.039 105.112 106.309 105.046C105.58 104.98 104.846 105.118 104.205 105.443C103.564 105.767 103.047 106.261 102.723 106.86C102.496 107.28 102.372 107.737 102.356 108.201C102.344 108.53 102.654 108.756 102.981 108.711C103.321 108.664 103.545 108.341 103.597 108.003C103.632 107.777 103.706 107.556 103.818 107.349C104.032 106.953 104.374 106.627 104.797 106.412C105.221 106.198 105.706 106.107 106.188 106.15C106.67 106.194 107.126 106.37 107.494 106.656C107.862 106.942 108.126 107.323 108.249 107.749C108.373 108.175 108.35 108.625 108.184 109.039C108.019 109.453 107.718 109.811 107.322 110.066C107.033 110.252 106.478 110.432 105.532 110.68C105.025 110.813 104.868 111.458 105.262 111.804Z" fill="#1D1D1D"/>
<path d="M104.664 111.589C104.664 111.1 105.054 110.683 105.543 110.711C105.798 110.725 105.933 111.084 105.933 111.084L105.933 113.415L104.664 113.415L104.664 111.589Z" fill="#1D1D1D"/>
</svg>
