<svg width="270" height="90" viewBox="0 0 270 90" fill="none" xmlns="http://www.w3.org/2000/svg">
<rect x="1" y="1" width="268" height="88" rx="3" fill="none" stroke="#1D1D1D" stroke-width="2"/>
<path d="M267.177 77.1768C267.274 77.0792 267.274 76.9209 267.177 76.8232L265.586 75.2322C265.488 75.1346 265.33 75.1346 265.232 75.2322C265.135 75.3299 265.135 75.4882 265.232 75.5858L266.646 77L265.232 78.4142C265.135 78.5119 265.135 78.6701 265.232 78.7678C265.33 78.8654 265.488 78.8654 265.586 78.7678L267.177 77.1768ZM152 77.25L267 77.25L267 76.75L152 76.75L152 77.25Z" fill="#757474"/>
<path d="M2.82323 76.8232C2.72559 76.9209 2.72559 77.0791 2.82323 77.1768L4.41422 78.7678C4.51185 78.8654 4.67014 78.8654 4.76777 78.7678C4.86539 78.6701 4.86539 78.5118 4.76777 78.4142L3.35355 77L4.76777 75.5858C4.86539 75.4882 4.86539 75.3299 4.76777 75.2322C4.67014 75.1346 4.51185 75.1346 4.41422 75.2322L2.82323 76.8232ZM118 76.75L3 76.75V77.25L118 77.25V76.75Z" fill="#757474"/>
<path d="M125 79.0603V78.4614L127.047 75.9995C127.287 75.7111 127.485 75.4605 127.64 75.2475C127.796 75.0324 127.911 74.8306 127.986 74.642C128.062 74.4513 128.101 74.2517 128.101 74.0432C128.101 73.8036 128.048 73.5963 127.943 73.421C127.84 73.2458 127.699 73.1105 127.519 73.0151C127.34 72.9198 127.138 72.8721 126.914 72.8721C126.675 72.8721 126.468 72.9264 126.29 73.0351C126.114 73.1416 125.978 73.2913 125.881 73.4842C125.786 73.6772 125.739 73.9034 125.739 74.1629H125.024C125.024 73.7637 125.108 73.4133 125.276 73.1116C125.443 72.81 125.671 72.5749 125.96 72.4063C126.251 72.2377 126.577 72.1534 126.938 72.1534C127.301 72.1534 127.623 72.2377 127.904 72.4063C128.184 72.5749 128.404 72.8022 128.564 73.0883C128.723 73.3745 128.803 73.6927 128.803 74.0432C128.803 74.2938 128.762 74.5389 128.679 74.7784C128.598 75.0158 128.457 75.2808 128.255 75.5736C128.055 75.8642 127.778 76.219 127.422 76.6382L126.03 78.2751V78.3283H128.912V79.0603H125Z" fill="#757474"/>
<path d="M132.185 79.1534C131.729 79.1534 131.341 79.017 131.02 78.7442C130.699 78.4692 130.453 78.0711 130.284 77.5498C130.114 77.0264 130.03 76.3943 130.03 75.6534C130.03 74.9171 130.114 74.2883 130.284 73.767C130.455 73.2436 130.702 72.8443 131.023 72.5693C131.346 72.2921 131.733 72.1534 132.185 72.1534C132.638 72.1534 133.024 72.2921 133.345 72.5693C133.668 72.8443 133.914 73.2436 134.084 73.767C134.256 74.2883 134.341 74.9171 134.341 75.6534C134.341 76.3943 134.257 77.0264 134.087 77.5498C133.917 78.0711 133.672 78.4692 133.351 78.7442C133.03 79.017 132.642 79.1534 132.185 79.1534ZM132.185 78.4215C132.638 78.4215 132.989 78.182 133.239 77.7029C133.49 77.2238 133.615 76.5406 133.615 75.6534C133.615 75.0635 133.557 74.5611 133.442 74.1463C133.329 73.7315 133.166 73.4155 132.952 73.1981C132.74 72.9808 132.484 72.8721 132.185 72.8721C131.737 72.8721 131.387 73.1149 131.135 73.6007C130.882 74.0842 130.756 74.7685 130.756 75.6534C130.756 76.2434 130.813 76.7447 130.926 77.1572C131.039 77.5698 131.201 77.8836 131.413 78.0988C131.627 78.3139 131.885 78.4215 132.185 78.4215Z" fill="#757474"/>
<path d="M137.515 79.1534C137.059 79.1534 136.67 79.017 136.349 78.7442C136.028 78.4692 135.783 78.0711 135.613 77.5498C135.444 77.0264 135.359 76.3943 135.359 75.6534C135.359 74.9171 135.444 74.2883 135.613 73.767C135.785 73.2436 136.031 72.8443 136.352 72.5693C136.675 72.2921 137.063 72.1534 137.515 72.1534C137.967 72.1534 138.354 72.2921 138.674 72.5693C138.997 72.8443 139.244 73.2436 139.413 73.767C139.585 74.2883 139.671 74.9171 139.671 75.6534C139.671 76.3943 139.586 77.0264 139.416 77.5498C139.247 78.0711 139.002 78.4692 138.681 78.7442C138.36 79.017 137.971 79.1534 137.515 79.1534ZM137.515 78.4215C137.967 78.4215 138.318 78.182 138.569 77.7029C138.819 77.2238 138.944 76.5406 138.944 75.6534C138.944 75.0635 138.886 74.5611 138.771 74.1463C138.658 73.7315 138.495 73.4155 138.281 73.1981C138.069 72.9808 137.814 72.8721 137.515 72.8721C137.067 72.8721 136.716 73.1149 136.464 73.6007C136.212 74.0842 136.086 74.7685 136.086 75.6534C136.086 76.2434 136.142 76.7447 136.255 77.1572C136.368 77.5698 136.531 77.8836 136.743 78.0988C136.957 78.3139 137.214 78.4215 137.515 78.4215Z" fill="#757474"/>
<path d="M142.844 79.1534C142.388 79.1534 141.999 79.017 141.678 78.7442C141.357 78.4692 141.112 78.0711 140.942 77.5498C140.773 77.0264 140.688 76.3943 140.688 75.6534C140.688 74.9171 140.773 74.2883 140.942 73.767C141.114 73.2436 141.36 72.8443 141.681 72.5693C142.004 72.2921 142.392 72.1534 142.844 72.1534C143.296 72.1534 143.683 72.2921 144.004 72.5693C144.327 72.8443 144.573 73.2436 144.743 73.767C144.914 74.2883 145 74.9171 145 75.6534C145 76.3943 144.915 77.0264 144.746 77.5498C144.576 78.0711 144.331 78.4692 144.01 78.7442C143.689 79.017 143.3 79.1534 142.844 79.1534ZM142.844 78.4215C143.296 78.4215 143.647 78.182 143.898 77.7029C144.148 77.2238 144.273 76.5406 144.273 75.6534C144.273 75.0635 144.216 74.5611 144.101 74.1463C143.988 73.7315 143.824 73.4155 143.61 73.1981C143.398 72.9808 143.143 72.8721 142.844 72.8721C142.396 72.8721 142.046 73.1149 141.793 73.6007C141.541 74.0842 141.415 74.7685 141.415 75.6534C141.415 76.2434 141.471 76.7447 141.584 77.1572C141.697 77.5698 141.86 77.8836 142.072 78.0988C142.286 78.3139 142.543 78.4215 142.844 78.4215Z" fill="#757474"/>
<path d="M257.675 87.1768C257.772 87.2744 257.931 87.2744 258.028 87.1768L259.619 85.5858C259.717 85.4882 259.717 85.3299 259.619 85.2322C259.522 85.1346 259.363 85.1346 259.266 85.2322L257.852 86.6464L256.437 85.2322C256.34 85.1346 256.181 85.1346 256.084 85.2322C255.986 85.3299 255.986 85.4882 256.084 85.5858L257.675 87.1768ZM257.602 57L257.602 87L258.102 87L258.102 57L257.602 57Z" fill="#757474"/>
<path d="M257.802 2.82322C257.704 2.72559 257.546 2.72559 257.448 2.82322L255.857 4.41421C255.76 4.51184 255.76 4.67014 255.857 4.76777C255.955 4.8654 256.113 4.8654 256.211 4.76777L257.625 3.35355L259.039 4.76777C259.137 4.8654 259.295 4.8654 259.393 4.76777C259.49 4.67014 259.49 4.51184 259.393 4.41421L257.802 2.82322ZM257.875 33V3H257.375V33H257.875Z" fill="#757474"/>
<path d="M260 51.6889C259.995 51.9616 259.942 52.2342 259.84 52.5069C259.738 52.7795 259.566 53.0284 259.324 53.2534C259.081 53.4785 258.751 53.6592 258.336 53.7955C257.919 53.9318 257.396 54 256.766 54C256.163 54 255.628 53.9448 255.163 53.8345C254.695 53.7241 254.301 53.564 253.981 53.3541C253.66 53.1442 253.416 52.891 253.25 52.5945C253.083 52.2959 253 51.9594 253 51.585C253 51.2128 253.077 50.8817 253.23 50.5918C253.38 50.2996 253.591 50.0616 253.862 49.8777C254.132 49.6937 254.444 49.5747 254.797 49.5206V50.3126C254.49 50.3862 254.237 50.529 254.035 50.7411C253.833 50.9532 253.732 51.2345 253.732 51.585C253.732 52.1001 253.961 52.5058 254.421 52.8023C254.88 53.0965 255.524 53.2448 256.354 53.2469V53.195C256.165 53.0738 256.004 52.9299 255.871 52.7633C255.736 52.5945 255.632 52.4084 255.558 52.205C255.485 52.0016 255.449 51.7863 255.449 51.5591C255.449 51.1782 255.546 50.8298 255.741 50.5139C255.934 50.1979 256.202 49.9448 256.543 49.7543C256.883 49.5639 257.272 49.4687 257.711 49.4687C258.132 49.4687 258.518 49.5606 258.869 49.7446C259.217 49.9285 259.494 50.1871 259.7 50.5204C259.904 50.8514 260.004 51.241 260 51.6889ZM259.268 51.6889C259.268 51.4162 259.198 51.1717 259.058 50.9553C258.919 50.7368 258.731 50.5647 258.496 50.4392C258.261 50.3115 257.999 50.2477 257.711 50.2477C257.429 50.2477 257.173 50.3094 256.942 50.4327C256.71 50.5539 256.524 50.7216 256.387 50.9358C256.249 51.1479 256.181 51.3903 256.181 51.6629C256.181 51.8685 256.223 52.06 256.307 52.2375C256.389 52.4149 256.502 52.5707 256.646 52.7049C256.79 52.8369 256.956 52.9407 257.142 53.0165C257.326 53.0922 257.52 53.1301 257.724 53.1301C257.995 53.1301 258.248 53.0684 258.483 52.9451C258.718 52.8196 258.908 52.6486 259.052 52.4322C259.196 52.2137 259.268 51.9659 259.268 51.6889Z" fill="#757474"/>
<path d="M260 46.0239C260 46.513 259.863 46.9296 259.591 47.2736C259.316 47.6177 258.917 47.8806 258.396 48.0624C257.873 48.2442 257.241 48.335 256.5 48.335C255.764 48.335 255.135 48.2442 254.614 48.0624C254.09 47.8784 253.691 47.6144 253.416 47.2704C253.139 46.9241 253 46.5087 253 46.0239C253 45.5392 253.139 45.1248 253.416 44.7807C253.691 44.4345 254.09 44.1705 254.614 43.9887C255.135 43.8048 255.764 43.7128 256.5 43.7128C257.241 43.7128 257.873 43.8037 258.396 43.9855C258.917 44.1673 259.316 44.4302 259.591 44.7743C259.863 45.1183 260 45.5349 260 46.0239ZM259.268 46.0239C259.268 45.5392 259.028 45.1627 258.549 44.8944C258.07 44.626 257.387 44.4919 256.5 44.4919C255.91 44.4919 255.408 44.5535 254.993 44.6769C254.578 44.7981 254.262 44.9733 254.045 45.2027C253.827 45.4299 253.719 45.7037 253.719 46.0239C253.719 46.5043 253.961 46.8798 254.447 47.1503C254.931 47.4208 255.615 47.556 256.5 47.556C257.09 47.556 257.591 47.4954 258.004 47.3742C258.416 47.2531 258.73 47.0789 258.945 46.8517C259.16 46.6223 259.268 46.3464 259.268 46.0239Z" fill="#757474"/>
<path d="M260 40.3111C260 40.8002 259.863 41.2167 259.591 41.5608C259.316 41.9049 258.917 42.1678 258.396 42.3495C257.873 42.5313 257.241 42.6222 256.5 42.6222C255.764 42.6222 255.135 42.5313 254.614 42.3495C254.09 42.1656 253.691 41.9016 253.416 41.5575C253.139 41.2113 253 40.7958 253 40.3111C253 39.8264 253.139 39.412 253.416 39.0679C253.691 38.7217 254.09 38.4577 254.614 38.2759C255.135 38.092 255.764 38 256.5 38C257.241 38 257.873 38.0909 258.396 38.2727C258.917 38.4544 259.316 38.7174 259.591 39.0614C259.863 39.4055 260 39.822 260 40.3111ZM259.268 40.3111C259.268 39.8264 259.028 39.4498 258.549 39.1815C258.07 38.9132 257.387 38.779 256.5 38.779C255.91 38.779 255.408 38.8407 254.993 38.964C254.578 39.0852 254.262 39.2605 254.045 39.4899C253.827 39.7171 253.719 39.9908 253.719 40.3111C253.719 40.7915 253.961 41.1669 254.447 41.4374C254.931 41.7079 255.615 41.8432 256.5 41.8432C257.09 41.8432 257.591 41.7826 258.004 41.6614C258.416 41.5402 258.73 41.366 258.945 41.1388C259.16 40.9094 259.268 40.6335 259.268 40.3111Z" fill="#757474"/>
<path d="M133.524 38.4026C134.017 38.1698 134.59 38.1725 135.081 38.41L146.784 44.0646C148.513 44.9003 147.918 47.4999 145.997 47.4999H122.304C120.374 47.4999 119.787 44.8805 121.533 44.0572L133.524 38.4026Z" stroke="#1D1D1D"/>
<path d="M134.266 36.8039C134.386 36.9085 134.54 36.9689 134.697 36.9457C135.438 36.8366 136.494 36.3171 137.03 35.9721C137.629 35.587 138.084 35.0447 138.335 34.418C138.586 33.7912 138.62 33.11 138.433 32.4654C138.247 31.8208 137.848 31.2436 137.29 30.8112C136.732 30.3788 136.043 30.1118 135.313 30.046C134.584 29.9801 133.85 30.1186 133.209 30.4428C132.568 30.767 132.051 31.2614 131.727 31.8599C131.5 32.2801 131.376 32.7375 131.36 33.2009C131.348 33.5307 131.658 33.7558 131.985 33.7108C132.325 33.664 132.549 33.3414 132.601 33.0029C132.636 32.777 132.71 32.5561 132.822 32.349C133.036 31.9535 133.378 31.6268 133.801 31.4126C134.225 31.1984 134.71 31.1069 135.192 31.1504C135.674 31.1939 136.129 31.3704 136.498 31.6561C136.866 31.9418 137.13 32.3231 137.253 32.7491C137.377 33.175 137.354 33.6251 137.188 34.0393C137.023 34.4534 136.722 34.8117 136.326 35.0662C136.037 35.2523 135.482 35.4323 134.536 35.6801C134.029 35.813 133.872 36.4587 134.266 36.8039Z" fill="#1D1D1D"/>
<path d="M133.672 36.5901C133.672 36.1009 134.062 35.6839 134.55 35.7113C134.806 35.7257 134.941 36.0844 134.941 36.0844V38.4158H133.672V36.5901Z" fill="#1D1D1D"/>
</svg>
