<svg width="150" height="91" viewBox="0 0 150 91" fill="none" xmlns="http://www.w3.org/2000/svg">
<rect x="1" y="1.5647" width="148" height="88" rx="3" fill="none" stroke="#1D1D1D" stroke-width="2"/>
<path d="M147.177 77.7415C147.274 77.6438 147.274 77.4856 147.177 77.3879L145.586 75.7969C145.488 75.6993 145.33 75.6993 145.232 75.7969C145.135 75.8946 145.135 76.0529 145.232 76.1505L146.646 77.5647L145.232 78.9789C145.135 79.0765 145.135 79.2348 145.232 79.3325C145.33 79.4301 145.488 79.4301 145.586 79.3325L147.177 77.7415ZM92 77.8147L147 77.8147V77.3147L92 77.3147V77.8147Z" fill="#757474"/>
<path d="M2.82322 77.3879C2.72559 77.4856 2.72559 77.6438 2.82322 77.7415L4.41422 79.3325C4.51184 79.4301 4.67014 79.4301 4.76777 79.3325C4.8654 79.2348 4.8654 79.0765 4.76777 78.9789L3.35355 77.5647L4.76777 76.1505C4.8654 76.0529 4.8654 75.8946 4.76777 75.7969C4.67014 75.6993 4.51184 75.6993 4.41422 75.7969L2.82322 77.3879ZM58 77.3147H3V77.8147H58V77.3147Z" fill="#757474"/>
<path d="M67.4324 72.8113V79.625H66.6387V73.6763H66.6003L65 74.7809V73.9425L66.6387 72.8113H67.4324Z" fill="#757474"/>
<path d="M71.4554 79.7181C70.9732 79.7181 70.5625 79.5817 70.2232 79.3089C69.884 79.0339 69.6247 78.6358 69.4455 78.1145C69.2663 77.5911 69.1767 76.959 69.1767 76.2181C69.1767 75.4818 69.2663 74.853 69.4455 74.3317C69.6269 73.8083 69.8872 73.409 70.2264 73.134C70.5678 72.8568 70.9775 72.7181 71.4554 72.7181C71.9334 72.7181 72.342 72.8568 72.6812 73.134C73.0226 73.409 73.2829 73.8083 73.4622 74.3317C73.6435 74.853 73.7342 75.4818 73.7342 76.2181C73.7342 76.959 73.6446 77.5911 73.4654 78.1145C73.2861 78.6358 73.0269 79.0339 72.6876 79.3089C72.3484 79.5817 71.9376 79.7181 71.4554 79.7181ZM71.4554 78.9862C71.9334 78.9862 72.3046 78.7467 72.5692 78.2676C72.8338 77.7885 72.9661 77.1053 72.9661 76.2181C72.9661 75.6282 72.9053 75.1258 72.7836 74.711C72.6642 74.2962 72.4913 73.9802 72.2652 73.7628C72.0411 73.5455 71.7712 73.4368 71.4554 73.4368C70.9818 73.4368 70.6116 73.6796 70.3449 74.1654C70.0781 74.6489 69.9448 75.3332 69.9448 76.2181C69.9448 76.8081 70.0045 77.3094 70.124 77.7219C70.2435 78.1345 70.4153 78.4483 70.6393 78.6635C70.8655 78.8786 71.1375 78.9862 71.4554 78.9862Z" fill="#757474"/>
<path d="M77.0883 79.7181C76.6061 79.7181 76.1954 79.5817 75.8561 79.3089C75.5169 79.0339 75.2576 78.6358 75.0784 78.1145C74.8992 77.5911 74.8096 76.959 74.8096 76.2181C74.8096 75.4818 74.8992 74.853 75.0784 74.3317C75.2598 73.8083 75.5201 73.409 75.8593 73.134C76.2007 72.8568 76.6104 72.7181 77.0883 72.7181C77.5663 72.7181 77.9749 72.8568 78.3141 73.134C78.6555 73.409 78.9158 73.8083 79.0951 74.3317C79.2764 74.853 79.3671 75.4818 79.3671 76.2181C79.3671 76.959 79.2775 77.5911 79.0983 78.1145C78.919 78.6358 78.6598 79.0339 78.3205 79.3089C77.9813 79.5817 77.5705 79.7181 77.0883 79.7181ZM77.0883 78.9862C77.5663 78.9862 77.9375 78.7467 78.2021 78.2676C78.4667 77.7885 78.599 77.1053 78.599 76.2181C78.599 75.6282 78.5382 75.1258 78.4165 74.711C78.2971 74.2962 78.1242 73.9802 77.8981 73.7628C77.674 73.5455 77.4041 73.4368 77.0883 73.4368C76.6147 73.4368 76.2445 73.6796 75.9778 74.1654C75.711 74.6489 75.5777 75.3332 75.5777 76.2181C75.5777 76.8081 75.6374 77.3094 75.7569 77.7219C75.8764 78.1345 76.0482 78.4483 76.2722 78.6635C76.4984 78.8786 76.7704 78.9862 77.0883 78.9862Z" fill="#757474"/>
<path d="M82.7212 79.7181C82.239 79.7181 81.8283 79.5817 81.489 79.3089C81.1498 79.0339 80.8905 78.6358 80.7113 78.1145C80.5321 77.5911 80.4425 76.959 80.4425 76.2181C80.4425 75.4818 80.5321 74.853 80.7113 74.3317C80.8927 73.8083 81.153 73.409 81.4922 73.134C81.8336 72.8568 82.2433 72.7181 82.7212 72.7181C83.1992 72.7181 83.6078 72.8568 83.947 73.134C84.2884 73.409 84.5487 73.8083 84.728 74.3317C84.9093 74.853 85 75.4818 85 76.2181C85 76.959 84.9104 77.5911 84.7312 78.1145C84.5519 78.6358 84.2927 79.0339 83.9534 79.3089C83.6142 79.5817 83.2034 79.7181 82.7212 79.7181ZM82.7212 78.9862C83.1992 78.9862 83.5704 78.7467 83.835 78.2676C84.0996 77.7885 84.2319 77.1053 84.2319 76.2181C84.2319 75.6282 84.1711 75.1258 84.0494 74.711C83.93 74.2962 83.7571 73.9802 83.531 73.7628C83.3069 73.5455 83.037 73.4368 82.7212 73.4368C82.2476 73.4368 81.8774 73.6796 81.6107 74.1654C81.3439 74.6489 81.2106 75.3332 81.2106 76.2181C81.2106 76.8081 81.2703 77.3094 81.3898 77.7219C81.5093 78.1345 81.6811 78.4483 81.9051 78.6635C82.1313 78.8786 82.4033 78.9862 82.7212 78.9862Z" fill="#757474"/>
<path d="M135.823 87.7415C135.921 87.8391 136.079 87.8391 136.177 87.7415L137.768 86.1505C137.865 86.0529 137.865 85.8946 137.768 85.7969C137.67 85.6993 137.512 85.6993 137.414 85.7969L136 87.2111L134.586 85.7969C134.488 85.6993 134.33 85.6993 134.232 85.7969C134.135 85.8946 134.135 86.0529 134.232 86.1505L135.823 87.7415ZM135.75 57.5647L135.75 87.5647L136.25 87.5647L136.25 57.5647L135.75 57.5647Z" fill="#757474"/>
<path d="M135.927 3.38987C135.829 3.29224 135.671 3.29224 135.573 3.38987L133.982 4.98086C133.885 5.0785 133.885 5.23679 133.982 5.33442C134.08 5.43205 134.238 5.43205 134.336 5.33442L135.75 3.9202L137.164 5.33442C137.262 5.43205 137.42 5.43205 137.518 5.33442C137.615 5.23679 137.615 5.0785 137.518 4.98086L135.927 3.38987ZM136 33.5667V3.56665H135.5V33.5667H136Z" fill="#757474"/>
<path d="M139.156 51.2534C139.152 51.526 139.098 51.7987 138.996 52.0713C138.894 52.344 138.722 52.5928 138.481 52.8179C138.237 53.0429 137.907 53.2236 137.493 53.36C137.076 53.4963 136.552 53.5645 135.922 53.5645C135.319 53.5645 134.785 53.5093 134.319 53.3989C133.851 53.2885 133.457 53.1284 133.138 52.9185C132.816 52.7086 132.572 52.4554 132.406 52.159C132.239 51.8603 132.156 51.5238 132.156 51.1495C132.156 50.7773 132.233 50.4462 132.386 50.1562C132.537 49.8641 132.747 49.6261 133.018 49.4421C133.289 49.2582 133.6 49.1392 133.953 49.0851V49.8771C133.647 49.9507 133.393 50.0935 133.191 50.3055C132.989 50.5176 132.888 50.7989 132.888 51.1495C132.888 51.6645 133.118 52.0702 133.577 52.3667C134.036 52.661 134.68 52.8092 135.51 52.8114V52.7595C135.321 52.6383 135.16 52.4944 135.027 52.3278C134.892 52.159 134.788 51.9729 134.715 51.7695C134.641 51.566 134.605 51.3507 134.605 51.1235C134.605 50.7427 134.702 50.3943 134.898 50.0783C135.091 49.7624 135.358 49.5092 135.699 49.3188C136.039 49.1283 136.428 49.0331 136.867 49.0331C137.289 49.0331 137.675 49.1251 138.025 49.309C138.373 49.493 138.65 49.7516 138.857 50.0848C139.061 50.4159 139.161 50.8054 139.156 51.2534ZM138.424 51.2534C138.424 50.9807 138.354 50.7362 138.215 50.5198C138.075 50.3012 137.887 50.1292 137.652 50.0037C137.417 49.876 137.156 49.8122 136.867 49.8122C136.586 49.8122 136.329 49.8738 136.099 49.9972C135.866 50.1184 135.681 50.2861 135.543 50.5003C135.406 50.7124 135.337 50.9547 135.337 51.2274C135.337 51.433 135.379 51.6245 135.463 51.8019C135.545 51.9794 135.658 52.1352 135.803 52.2693C135.947 52.4013 136.112 52.5052 136.298 52.5809C136.482 52.6567 136.676 52.6945 136.88 52.6945C137.151 52.6945 137.404 52.6329 137.639 52.5095C137.874 52.384 138.064 52.2131 138.208 51.9967C138.352 51.7781 138.424 51.5303 138.424 51.2534Z" fill="#757474"/>
<path d="M139.156 45.5884C139.156 46.0774 139.02 46.494 138.747 46.8381C138.472 47.1821 138.074 47.4451 137.553 47.6268C137.029 47.8086 136.397 47.8995 135.656 47.8995C134.92 47.8995 134.291 47.8086 133.77 47.6268C133.246 47.4429 132.847 47.1789 132.572 46.8348C132.295 46.4886 132.156 46.0731 132.156 45.5884C132.156 45.1037 132.295 44.6893 132.572 44.3452C132.847 43.999 133.246 43.735 133.77 43.5532C134.291 43.3693 134.92 43.2773 135.656 43.2773C136.397 43.2773 137.029 43.3682 137.553 43.5499C138.074 43.7317 138.472 43.9946 138.747 44.3387C139.02 44.6828 139.156 45.0993 139.156 45.5884ZM138.424 45.5884C138.424 45.1037 138.185 44.7271 137.706 44.4588C137.226 44.1905 136.543 44.0563 135.656 44.0563C135.066 44.0563 134.564 44.118 134.149 44.2413C133.734 44.3625 133.418 44.5378 133.201 44.7672C132.984 44.9944 132.875 45.2681 132.875 45.5884C132.875 46.0688 133.118 46.4442 133.603 46.7147C134.087 46.9852 134.771 47.1205 135.656 47.1205C136.246 47.1205 136.747 47.0599 137.16 46.9387C137.572 46.8175 137.886 46.6433 138.101 46.4161C138.317 46.1867 138.424 45.9108 138.424 45.5884Z" fill="#757474"/>
<path d="M139.156 39.8756C139.156 40.3646 139.02 40.7812 138.747 41.1252C138.472 41.4693 138.074 41.7322 137.553 41.914C137.029 42.0958 136.397 42.1867 135.656 42.1867C134.92 42.1867 134.291 42.0958 133.77 41.914C133.246 41.7301 132.847 41.4661 132.572 41.122C132.295 40.7758 132.156 40.3603 132.156 39.8756C132.156 39.3908 132.295 38.9764 132.572 38.6324C132.847 38.2861 133.246 38.0221 133.77 37.8404C134.291 37.6564 134.92 37.5645 135.656 37.5645C136.397 37.5645 137.029 37.6553 137.553 37.8371C138.074 38.0189 138.472 38.2818 138.747 38.6259C139.02 38.9699 139.156 39.3865 139.156 39.8756ZM138.424 39.8756C138.424 39.3908 138.185 39.0143 137.706 38.746C137.226 38.4776 136.543 38.3435 135.656 38.3435C135.066 38.3435 134.564 38.4051 134.149 38.5285C133.734 38.6497 133.418 38.825 133.201 39.0543C132.984 39.2816 132.875 39.5553 132.875 39.8756C132.875 40.356 133.118 40.7314 133.603 41.0019C134.087 41.2724 134.771 41.4076 135.656 41.4076C136.246 41.4076 136.747 41.347 137.16 41.2259C137.572 41.1047 137.886 40.9305 138.101 40.7033C138.317 40.4739 138.424 40.198 138.424 39.8756Z" fill="#757474"/>
<path d="M74.5238 38.9673C75.0174 38.7345 75.5899 38.7372 76.0813 38.9747L87.7836 44.6293C89.5131 45.465 88.9179 48.0646 86.9971 48.0646H63.3039C61.3738 48.0646 60.7871 45.4452 62.5329 44.6219L74.5238 38.9673Z" stroke="#1D1D1D"/>
<path d="M75.2683 37.3686C75.3879 37.4732 75.5421 37.5336 75.6993 37.5104C76.4404 37.4013 77.4959 36.8818 78.0321 36.5368C78.6309 36.1517 79.0862 35.6094 79.3369 34.9827C79.5877 34.3559 79.622 33.6747 79.4352 33.0301C79.2485 32.3855 78.8496 31.8083 78.292 31.3759C77.7344 30.9435 77.0448 30.6765 76.3153 30.6107C75.5859 30.5448 74.8516 30.6833 74.2107 31.0075C73.5698 31.3316 73.0529 31.8261 72.7293 32.4246C72.5021 32.8448 72.3777 33.3022 72.3616 33.7656C72.3501 34.0954 72.6604 34.3205 72.9872 34.2755C73.3266 34.2287 73.5509 33.9061 73.6031 33.5676C73.638 33.3417 73.7122 33.1208 73.8242 32.9137C74.038 32.5182 74.3796 32.1915 74.803 31.9773C75.2265 31.7631 75.7117 31.6716 76.1937 31.7151C76.6757 31.7586 77.1314 31.9351 77.4999 32.2208C77.8683 32.5065 78.1318 32.8878 78.2552 33.3137C78.3786 33.7397 78.356 34.1898 78.1903 34.604C78.0246 35.0181 77.7238 35.3764 77.3281 35.6309C77.0388 35.817 76.4837 35.997 75.5381 36.2448C75.0311 36.3777 74.8736 37.0234 75.2683 37.3686Z" fill="#1D1D1D"/>
<path d="M74.6719 37.1548C74.6719 36.6656 75.062 36.2486 75.5505 36.276C75.8058 36.2904 75.941 36.6491 75.941 36.6491V38.9805H74.6719V37.1548Z" fill="#1D1D1D"/>
</svg>
