<svg width="180" height="91" viewBox="0 0 180 91" fill="none" xmlns="http://www.w3.org/2000/svg">
<rect x="1" y="1.5647" width="178" height="88" rx="3" fill="none" stroke="#1D1D1D" stroke-width="2"/>
<path d="M177.177 77.7415C177.274 77.6438 177.274 77.4856 177.177 77.3879L175.586 75.7969C175.488 75.6993 175.33 75.6993 175.232 75.7969C175.135 75.8946 175.135 76.0529 175.232 76.1505L176.646 77.5647L175.232 78.9789C175.135 79.0765 175.135 79.2348 175.232 79.3325C175.33 79.4301 175.488 79.4301 175.586 79.3325L177.177 77.7415ZM102 77.8147L177 77.8147L177 77.3147L102 77.3147L102 77.8147Z" fill="#757474"/>
<path d="M2.82323 77.3879C2.72559 77.4856 2.72559 77.6438 2.82323 77.7415L4.41422 79.3325C4.51185 79.4301 4.67014 79.4301 4.76777 79.3325C4.86539 79.2348 4.86539 79.0765 4.76777 78.9789L3.35355 77.5647L4.76777 76.1505C4.86539 76.0529 4.86539 75.8946 4.76777 75.7969C4.67014 75.6993 4.51185 75.6993 4.41422 75.7969L2.82323 77.3879ZM78 77.3147L3 77.3147V77.8147L78 77.8147V77.3147Z" fill="#757474"/>
<path d="M82.454 72.8113V79.625H81.6532V73.6763H81.6145L80 74.7809V73.9425L81.6532 72.8113H82.454Z" fill="#757474"/>
<path d="M84.3558 79.625V79.0261L86.5386 76.5641C86.7947 76.2758 87.0057 76.0252 87.1715 75.8122C87.3372 75.5971 87.4599 75.3953 87.5396 75.2067C87.6214 75.016 87.6623 74.8164 87.6623 74.6079C87.6623 74.3683 87.6063 74.1609 87.4943 73.9857C87.3846 73.8105 87.2339 73.6752 87.0423 73.5798C86.8507 73.4845 86.6355 73.4368 86.3965 73.4368C86.1425 73.4368 85.9208 73.4911 85.7314 73.5998C85.5441 73.7063 85.3988 73.856 85.2954 74.0489C85.1943 74.2419 85.1437 74.4681 85.1437 74.7276H84.3817C84.3817 74.3284 84.471 73.978 84.6497 73.6763C84.8283 73.3747 85.0716 73.1396 85.3794 72.971C85.6894 72.8024 86.037 72.7181 86.4223 72.7181C86.8098 72.7181 87.1532 72.8024 87.4524 72.971C87.7516 73.1396 87.9862 73.3669 88.1563 73.653C88.3263 73.9391 88.4114 74.2574 88.4114 74.6079C88.4114 74.8585 88.3672 75.1036 88.279 75.3431C88.1929 75.5805 88.0422 75.8455 87.8269 76.1383C87.6138 76.4288 87.3178 76.7837 86.939 77.2029L85.4537 78.8398V78.893H88.5276V79.625H84.3558Z" fill="#757474"/>
<path d="M92.0181 79.7181C91.5316 79.7181 91.1172 79.5817 90.7749 79.3089C90.4327 79.0339 90.1711 78.6358 89.9903 78.1145C89.8095 77.5911 89.7191 76.959 89.7191 76.2181C89.7191 75.4818 89.8095 74.853 89.9903 74.3317C90.1733 73.8083 90.4359 73.409 90.7782 73.134C91.1226 72.8568 91.5359 72.7181 92.0181 72.7181C92.5003 72.7181 92.9125 72.8568 93.2548 73.134C93.5992 73.409 93.8618 73.8083 94.0426 74.3317C94.2256 74.853 94.3171 75.4818 94.3171 76.2181C94.3171 76.959 94.2267 77.5911 94.0459 78.1145C93.865 78.6358 93.6035 79.0339 93.2612 79.3089C92.919 79.5817 92.5046 79.7181 92.0181 79.7181ZM92.0181 78.9862C92.5003 78.9862 92.8748 78.7467 93.1418 78.2676C93.4087 77.7885 93.5421 77.1053 93.5421 76.2181C93.5421 75.6282 93.4808 75.1258 93.3581 74.711C93.2375 74.2962 93.0632 73.9802 92.835 73.7628C92.609 73.5455 92.3367 73.4368 92.0181 73.4368C91.5402 73.4368 91.1667 73.6796 90.8976 74.1654C90.6286 74.6489 90.494 75.3332 90.494 76.2181C90.494 76.8081 90.5543 77.3094 90.6748 77.7219C90.7954 78.1345 90.9687 78.4483 91.1947 78.6635C91.4229 78.8786 91.6973 78.9862 92.0181 78.9862Z" fill="#757474"/>
<path d="M97.701 79.7181C97.2145 79.7181 96.8001 79.5817 96.4579 79.3089C96.1156 79.0339 95.8541 78.6358 95.6732 78.1145C95.4924 77.5911 95.402 76.959 95.402 76.2181C95.402 75.4818 95.4924 74.853 95.6732 74.3317C95.8562 73.8083 96.1188 73.409 96.4611 73.134C96.8055 72.8568 97.2188 72.7181 97.701 72.7181C98.1832 72.7181 98.5954 72.8568 98.9377 73.134C99.2821 73.409 99.5447 73.8083 99.7255 74.3317C99.9085 74.853 100 75.4818 100 76.2181C100 76.959 99.9096 77.5911 99.7288 78.1145C99.548 78.6358 99.2864 79.0339 98.9441 79.3089C98.6019 79.5817 98.1875 79.7181 97.701 79.7181ZM97.701 78.9862C98.1832 78.9862 98.5577 78.7467 98.8247 78.2676C99.0916 77.7885 99.2251 77.1053 99.2251 76.2181C99.2251 75.6282 99.1637 75.1258 99.041 74.711C98.9205 74.2962 98.7461 73.9802 98.5179 73.7628C98.2919 73.5455 98.0196 73.4368 97.701 73.4368C97.2231 73.4368 96.8496 73.6796 96.5806 74.1654C96.3115 74.6489 96.1769 75.3332 96.1769 76.2181C96.1769 76.8081 96.2372 77.3094 96.3578 77.7219C96.4783 78.1345 96.6516 78.4483 96.8776 78.6635C97.1058 78.8786 97.3803 78.9862 97.701 78.9862Z" fill="#757474"/>
<path d="M167.222 87.7415C167.319 87.8391 167.478 87.8391 167.575 87.7415L169.166 86.1505C169.264 86.0529 169.264 85.8946 169.166 85.7969C169.069 85.6993 168.91 85.6993 168.813 85.7969L167.398 87.2111L165.984 85.7969C165.887 85.6993 165.728 85.6993 165.631 85.7969C165.533 85.8946 165.533 86.0529 165.631 86.1505L167.222 87.7415ZM167.148 57.5647L167.148 87.5647L167.648 87.5647L167.648 57.5647L167.148 57.5647Z" fill="#757474"/>
<path d="M167.274 3.38987C167.177 3.29224 167.019 3.29224 166.921 3.38987L165.33 4.98086C165.232 5.0785 165.232 5.23679 165.33 5.33442C165.428 5.43205 165.586 5.43205 165.683 5.33442L167.098 3.9202L168.512 5.33442C168.61 5.43205 168.768 5.43205 168.865 5.33442C168.963 5.23679 168.963 5.0785 168.865 4.98086L167.274 3.38987ZM167.348 33.5667V3.56665H166.848V33.5667H167.348Z" fill="#757474"/>
<path d="M169.781 51.2534C169.777 51.526 169.723 51.7987 169.621 52.0713C169.519 52.344 169.347 52.5928 169.106 52.8179C168.862 53.0429 168.532 53.2236 168.118 53.36C167.701 53.4963 167.177 53.5645 166.547 53.5645C165.944 53.5645 165.41 53.5093 164.944 53.3989C164.476 53.2885 164.082 53.1284 163.763 52.9185C163.441 52.7086 163.197 52.4554 163.031 52.159C162.864 51.8603 162.781 51.5238 162.781 51.1495C162.781 50.7773 162.858 50.4462 163.011 50.1562C163.162 49.8641 163.372 49.6261 163.643 49.4421C163.914 49.2582 164.225 49.1392 164.578 49.0851V49.8771C164.272 49.9507 164.018 50.0935 163.816 50.3055C163.614 50.5176 163.513 50.7989 163.513 51.1495C163.513 51.6645 163.743 52.0702 164.202 52.3667C164.661 52.661 165.305 52.8092 166.135 52.8114V52.7595C165.946 52.6383 165.785 52.4944 165.652 52.3278C165.517 52.159 165.413 51.9729 165.34 51.7695C165.266 51.566 165.23 51.3507 165.23 51.1235C165.23 50.7427 165.327 50.3943 165.523 50.0783C165.716 49.7624 165.983 49.5092 166.324 49.3188C166.664 49.1283 167.053 49.0331 167.492 49.0331C167.914 49.0331 168.3 49.1251 168.65 49.309C168.998 49.493 169.275 49.7516 169.482 50.0848C169.686 50.4159 169.786 50.8054 169.781 51.2534ZM169.049 51.2534C169.049 50.9807 168.979 50.7362 168.84 50.5198C168.7 50.3012 168.512 50.1292 168.277 50.0037C168.042 49.876 167.781 49.8122 167.492 49.8122C167.211 49.8122 166.954 49.8738 166.724 49.9972C166.491 50.1184 166.306 50.2861 166.168 50.5003C166.031 50.7124 165.962 50.9547 165.962 51.2274C165.962 51.433 166.004 51.6245 166.088 51.8019C166.17 51.9794 166.283 52.1352 166.428 52.2693C166.572 52.4013 166.737 52.5052 166.923 52.5809C167.107 52.6567 167.301 52.6945 167.505 52.6945C167.776 52.6945 168.029 52.6329 168.264 52.5095C168.499 52.384 168.689 52.2131 168.833 51.9967C168.977 51.7781 169.049 51.5303 169.049 51.2534Z" fill="#757474"/>
<path d="M169.781 45.5884C169.781 46.0774 169.645 46.494 169.372 46.8381C169.097 47.1821 168.699 47.4451 168.178 47.6268C167.654 47.8086 167.022 47.8995 166.281 47.8995C165.545 47.8995 164.916 47.8086 164.395 47.6268C163.871 47.4429 163.472 47.1789 163.197 46.8348C162.92 46.4886 162.781 46.0731 162.781 45.5884C162.781 45.1037 162.92 44.6893 163.197 44.3452C163.472 43.999 163.871 43.735 164.395 43.5532C164.916 43.3693 165.545 43.2773 166.281 43.2773C167.022 43.2773 167.654 43.3682 168.178 43.5499C168.699 43.7317 169.097 43.9946 169.372 44.3387C169.645 44.6828 169.781 45.0993 169.781 45.5884ZM169.049 45.5884C169.049 45.1037 168.81 44.7271 168.331 44.4588C167.851 44.1905 167.168 44.0563 166.281 44.0563C165.691 44.0563 165.189 44.118 164.774 44.2413C164.359 44.3625 164.043 44.5378 163.826 44.7672C163.609 44.9944 163.5 45.2681 163.5 45.5884C163.5 46.0688 163.743 46.4442 164.228 46.7147C164.712 46.9852 165.396 47.1205 166.281 47.1205C166.871 47.1205 167.372 47.0599 167.785 46.9387C168.197 46.8175 168.511 46.6433 168.726 46.4161C168.942 46.1867 169.049 45.9108 169.049 45.5884Z" fill="#757474"/>
<path d="M169.781 39.8756C169.781 40.3646 169.645 40.7812 169.372 41.1252C169.097 41.4693 168.699 41.7322 168.178 41.914C167.654 42.0958 167.022 42.1867 166.281 42.1867C165.545 42.1867 164.916 42.0958 164.395 41.914C163.871 41.7301 163.472 41.4661 163.197 41.122C162.92 40.7758 162.781 40.3603 162.781 39.8756C162.781 39.3908 162.92 38.9764 163.197 38.6324C163.472 38.2861 163.871 38.0221 164.395 37.8404C164.916 37.6564 165.545 37.5645 166.281 37.5645C167.022 37.5645 167.654 37.6553 168.178 37.8371C168.699 38.0189 169.097 38.2818 169.372 38.6259C169.645 38.9699 169.781 39.3865 169.781 39.8756ZM169.049 39.8756C169.049 39.3908 168.81 39.0143 168.331 38.746C167.851 38.4776 167.168 38.3435 166.281 38.3435C165.691 38.3435 165.189 38.4051 164.774 38.5285C164.359 38.6497 164.043 38.825 163.826 39.0543C163.609 39.2816 163.5 39.5553 163.5 39.8756C163.5 40.356 163.743 40.7314 164.228 41.0019C164.712 41.2724 165.396 41.4076 166.281 41.4076C166.871 41.4076 167.372 41.347 167.785 41.2259C168.197 41.1047 168.511 40.9305 168.726 40.7033C168.942 40.4739 169.049 40.198 169.049 39.8756Z" fill="#757474"/>
<path d="M89.5238 38.9673C90.0174 38.7345 90.5899 38.7372 91.0813 38.9747L102.784 44.6293C104.513 45.465 103.918 48.0646 101.997 48.0646H78.3039C76.3738 48.0646 75.7871 45.4452 77.5329 44.6219L89.5238 38.9673Z" stroke="#1D1D1D"/>
<path d="M90.2664 37.3686C90.386 37.4732 90.5402 37.5336 90.6973 37.5104C91.4385 37.4013 92.494 36.8818 93.0302 36.5368C93.629 36.1517 94.0842 35.6094 94.335 34.9827C94.5857 34.3559 94.62 33.6747 94.4333 33.0301C94.2466 32.3855 93.8477 31.8083 93.2901 31.3759C92.7325 30.9435 92.0428 30.6765 91.3134 30.6107C90.584 30.5448 89.8496 30.6833 89.2087 31.0075C88.5678 31.3316 88.0509 31.8261 87.7273 32.4246C87.5001 32.8448 87.3758 33.3022 87.3596 33.7656C87.3481 34.0954 87.6584 34.3205 87.9853 34.2755C88.3246 34.2287 88.5489 33.9061 88.6012 33.5676C88.6361 33.3417 88.7102 33.1208 88.8222 32.9137C89.0361 32.5182 89.3776 32.1915 89.8011 31.9773C90.2246 31.7631 90.7098 31.6716 91.1918 31.7151C91.6737 31.7586 92.1295 31.9351 92.4979 32.2208C92.8663 32.5065 93.1299 32.8878 93.2533 33.3137C93.3767 33.7397 93.354 34.1898 93.1883 34.604C93.0226 35.0181 92.7218 35.3764 92.3262 35.6309C92.0368 35.817 91.4817 35.997 90.5362 36.2448C90.0292 36.3777 89.8716 37.0234 90.2664 37.3686Z" fill="#1D1D1D"/>
<path d="M89.6719 37.1548C89.6719 36.6656 90.062 36.2486 90.5505 36.276C90.8058 36.2904 90.941 36.6491 90.941 36.6491V38.9805H89.6719V37.1548Z" fill="#1D1D1D"/>
</svg>
