<svg width="108" height="180" viewBox="0 0 108 180" fill="none" xmlns="http://www.w3.org/2000/svg">
<rect x="1" y="1" width="106" height="178" rx="3" stroke="#1D1D1D" stroke-width="2"/>
<rect x="15.5" y="14.8999" width="35" height="29" rx="3.5" stroke="#1D1D1D"/>
<rect x="57.5" y="14.8999" width="35" height="29" rx="3.5" stroke="#1D1D1D"/>
<path d="M1.19922 58.7998H106.799" stroke="#181818" stroke-linecap="round"/>
<path d="M107.176 75.5996L0.596821 93.0617" stroke="#181818" stroke-linecap="round"/>
<path d="M1.6201 172.023C1.52247 172.121 1.52247 172.279 1.6201 172.377L3.21109 173.968C3.30872 174.065 3.46701 174.065 3.56464 173.968C3.66227 173.87 3.66227 173.712 3.56464 173.614L2.15043 172.2L3.56464 170.786C3.66227 170.688 3.66227 170.53 3.56464 170.432C3.46701 170.335 3.30872 170.335 3.21109 170.432L1.6201 172.023ZM1.79687 172.45L43.7969 172.45L43.7969 171.95L1.79688 171.95L1.79687 172.45Z" fill="#757474"/>
<path d="M106.372 172.377C106.47 172.279 106.47 172.121 106.372 172.023L104.781 170.432C104.683 170.335 104.525 170.335 104.428 170.432C104.33 170.53 104.33 170.688 104.428 170.786L105.842 172.2L104.428 173.614C104.33 173.712 104.33 173.87 104.428 173.968C104.525 174.065 104.683 174.065 104.781 173.968L106.372 172.377ZM64.1953 172.45L106.195 172.45L106.195 171.95L64.1953 171.95L64.1953 172.45Z" fill="#757474"/>
<path d="M49.4685 169.856V173.944H48.988V170.375H48.9648L47.9961 171.038V170.535L48.988 169.856H49.4685Z" fill="#757474"/>
<path d="M50.6096 173.944V173.585L51.9192 172.108C52.0729 171.935 52.1995 171.784 52.299 171.657C52.3984 171.527 52.472 171.406 52.5198 171.293C52.5689 171.179 52.5934 171.059 52.5934 170.934C52.5934 170.79 52.5599 170.666 52.4927 170.561C52.4268 170.455 52.3364 170.374 52.2215 170.317C52.1065 170.26 51.9774 170.231 51.834 170.231C51.6816 170.231 51.5486 170.264 51.4349 170.329C51.3225 170.393 51.2354 170.483 51.1734 170.599C51.1127 170.714 51.0823 170.85 51.0823 171.006H50.6251C50.6251 170.766 50.6787 170.556 50.7859 170.375C50.8931 170.194 51.039 170.053 51.2237 169.952C51.4097 169.851 51.6183 169.8 51.8495 169.8C52.082 169.8 52.288 169.851 52.4675 169.952C52.647 170.053 52.7878 170.189 52.8899 170.361C52.9919 170.533 53.0429 170.724 53.0429 170.934C53.0429 171.084 53.0164 171.231 52.9635 171.375C52.9118 171.517 52.8214 171.676 52.6923 171.852C52.5644 172.026 52.3868 172.239 52.1595 172.491L51.2683 173.473V173.505H53.1127V173.944H50.6096Z" fill="#757474"/>
<path d="M55.2069 174C54.915 174 54.6664 173.918 54.4611 173.755C54.2557 173.589 54.0988 173.351 53.9903 173.038C53.8818 172.724 53.8275 172.345 53.8275 171.9C53.8275 171.458 53.8818 171.081 53.9903 170.768C54.1001 170.454 54.2576 170.215 54.463 170.05C54.6696 169.883 54.9176 169.8 55.2069 169.8C55.4963 169.8 55.7436 169.883 55.949 170.05C56.1556 170.215 56.3132 170.454 56.4217 170.768C56.5315 171.081 56.5863 171.458 56.5863 171.9C56.5863 172.345 56.5321 172.724 56.4236 173.038C56.3151 173.351 56.1582 173.589 55.9528 173.755C55.7475 173.918 55.4988 174 55.2069 174ZM55.2069 173.561C55.4963 173.561 55.721 173.417 55.8811 173.13C56.0413 172.842 56.1214 172.432 56.1214 171.9C56.1214 171.546 56.0846 171.245 56.0109 170.996C55.9386 170.747 55.834 170.557 55.6971 170.427C55.5615 170.296 55.3981 170.231 55.2069 170.231C54.9202 170.231 54.6961 170.377 54.5347 170.668C54.3732 170.959 54.2925 171.369 54.2925 171.9C54.2925 172.254 54.3287 172.555 54.401 172.802C54.4733 173.05 54.5773 173.238 54.7129 173.367C54.8498 173.496 55.0145 173.561 55.2069 173.561Z" fill="#757474"/>
<path d="M58.6167 174C58.3248 174 58.0762 173.918 57.8708 173.755C57.6655 173.589 57.5085 173.351 57.4 173.038C57.2915 172.724 57.2373 172.345 57.2373 171.9C57.2373 171.458 57.2915 171.081 57.4 170.768C57.5098 170.454 57.6674 170.215 57.8727 170.05C58.0794 169.883 58.3274 169.8 58.6167 169.8C58.906 169.8 59.1533 169.883 59.3587 170.05C59.5654 170.215 59.7229 170.454 59.8314 170.768C59.9412 171.081 59.9961 171.458 59.9961 171.9C59.9961 172.345 59.9418 172.724 59.8334 173.038C59.7249 173.351 59.5679 173.589 59.3626 173.755C59.1572 173.918 58.9086 174 58.6167 174ZM58.6167 173.561C58.906 173.561 59.1307 173.417 59.2909 173.13C59.4511 172.842 59.5311 172.432 59.5311 171.9C59.5311 171.546 59.4943 171.245 59.4207 170.996C59.3484 170.747 59.2438 170.557 59.1068 170.427C58.9712 170.296 58.8078 170.231 58.6167 170.231C58.33 170.231 58.1059 170.377 57.9444 170.668C57.783 170.959 57.7023 171.369 57.7023 171.9C57.7023 172.254 57.7384 172.555 57.8108 172.802C57.8831 173.05 57.9871 173.238 58.1227 173.367C58.2596 173.496 58.4243 173.561 58.6167 173.561Z" fill="#757474"/>
<path d="M101.941 96H101.582L100.104 94.7718C99.9315 94.6277 99.7811 94.509 99.6533 94.4157C99.5243 94.3225 99.4031 94.2534 99.29 94.2086C99.1756 94.1626 99.0558 94.1396 98.9307 94.1396C98.787 94.1396 98.6626 94.1711 98.5574 94.2341C98.4523 94.2958 98.3711 94.3806 98.3139 94.4884C98.2567 94.5962 98.2281 94.7173 98.2281 94.8518C98.2281 94.9947 98.2607 95.1195 98.3259 95.226C98.3897 95.3314 98.4796 95.4132 98.5954 95.4713C98.7111 95.5282 98.8469 95.5567 99.0026 95.5567V95.9855C98.763 95.9855 98.5528 95.9352 98.3718 95.8347C98.1908 95.7341 98.0497 95.5973 97.9486 95.4241C97.8474 95.2497 97.7969 95.0541 97.7969 94.8372C97.7969 94.6192 97.8474 94.426 97.9486 94.2577C98.0497 94.0893 98.1861 93.9573 98.3578 93.8616C98.5295 93.7659 98.7204 93.7181 98.9307 93.7181C99.0811 93.7181 99.2281 93.7429 99.3719 93.7926C99.5143 93.841 99.6733 93.9258 99.849 94.0469C100.023 94.1668 100.236 94.3334 100.488 94.5466L101.47 95.3823H101.502V93.6527H101.941V96Z" fill="#757474"/>
<path d="M101.997 91.6887C101.997 91.9625 101.915 92.1956 101.751 92.3882C101.586 92.5808 101.347 92.7279 101.035 92.8297C100.721 92.9314 100.341 92.9823 99.8969 92.9823C99.455 92.9823 99.0778 92.9314 98.765 92.8297C98.451 92.7267 98.2114 92.579 98.0464 92.3864C97.88 92.1926 97.7969 91.96 97.7969 91.6887C97.7969 91.4174 97.88 91.1855 98.0464 90.9929C98.2114 90.7991 98.451 90.6513 98.765 90.5496C99.0778 90.4466 99.455 90.3952 99.8969 90.3952C100.341 90.3952 100.721 90.446 101.035 90.5478C101.347 90.6495 101.586 90.7967 101.751 90.9893C101.915 91.1818 101.997 91.415 101.997 91.6887ZM101.558 91.6887C101.558 91.4174 101.414 91.2067 101.127 91.0565C100.839 90.9063 100.429 90.8312 99.8969 90.8312C99.5429 90.8312 99.2415 90.8657 98.9926 90.9347C98.7437 91.0026 98.5541 91.1007 98.4237 91.2291C98.2933 91.3562 98.2281 91.5095 98.2281 91.6887C98.2281 91.9576 98.3738 92.1678 98.6652 92.3192C98.9553 92.4706 99.3659 92.5463 99.8969 92.5463C100.251 92.5463 100.552 92.5123 100.799 92.4445C101.047 92.3767 101.235 92.2792 101.364 92.152C101.493 92.0236 101.558 91.8692 101.558 91.6887Z" fill="#757474"/>
<path d="M101.997 88.4911C101.997 88.7649 101.915 88.998 101.751 89.1906C101.586 89.3832 101.347 89.5304 101.035 89.6321C100.721 89.7338 100.341 89.7847 99.8969 89.7847C99.455 89.7847 99.0778 89.7338 98.765 89.6321C98.451 89.5291 98.2114 89.3814 98.0464 89.1888C97.88 88.995 97.7969 88.7625 97.7969 88.4911C97.7969 88.2198 97.88 87.9879 98.0464 87.7953C98.2114 87.6015 98.451 87.4537 98.765 87.352C99.0778 87.2491 99.455 87.1976 99.8969 87.1976C100.341 87.1976 100.721 87.2484 101.035 87.3502C101.347 87.4519 101.586 87.5991 101.751 87.7917C101.915 87.9843 101.997 88.2174 101.997 88.4911ZM101.558 88.4911C101.558 88.2198 101.414 88.0091 101.127 87.8589C100.839 87.7087 100.429 87.6336 99.8969 87.6336C99.5429 87.6336 99.2415 87.6681 98.9926 87.7372C98.7437 87.805 98.5541 87.9031 98.4237 88.0315C98.2933 88.1587 98.2281 88.3119 98.2281 88.4911C98.2281 88.76 98.3738 88.9702 98.6652 89.1216C98.9553 89.273 99.3659 89.3487 99.8969 89.3487C100.251 89.3487 100.552 89.3148 100.799 89.2469C101.047 89.1791 101.235 89.0816 101.364 88.9544C101.493 88.826 101.558 88.6716 101.558 88.4911Z" fill="#757474"/>
<path d="M101.997 85.2936C101.997 85.5673 101.915 85.8005 101.751 85.993C101.586 86.1856 101.347 86.3328 101.035 86.4345C100.721 86.5363 100.341 86.5871 99.8969 86.5871C99.455 86.5871 99.0778 86.5363 98.765 86.4345C98.451 86.3316 98.2114 86.1838 98.0464 85.9912C97.88 85.7974 97.7969 85.5649 97.7969 85.2936C97.7969 85.0223 97.88 84.7903 98.0464 84.5977C98.2114 84.4039 98.451 84.2562 98.765 84.1544C99.0778 84.0515 99.455 84 99.8969 84C100.341 84 100.721 84.0509 101.035 84.1526C101.347 84.2544 101.586 84.4015 101.751 84.5941C101.915 84.7867 101.997 85.0198 101.997 85.2936ZM101.558 85.2936C101.558 85.0223 101.414 84.8115 101.127 84.6613C100.839 84.5111 100.429 84.436 99.8969 84.436C99.5429 84.436 99.2415 84.4706 98.9926 84.5396C98.7437 84.6074 98.5541 84.7055 98.4237 84.8339C98.2933 84.9611 98.2281 85.1143 98.2281 85.2936C98.2281 85.5625 98.3738 85.7726 98.6652 85.924C98.9553 86.0754 99.3659 86.1511 99.8969 86.1511C100.251 86.1511 100.552 86.1172 100.799 86.0494C101.047 85.9815 101.235 85.884 101.364 85.7569C101.493 85.6285 101.558 85.474 101.558 85.2936Z" fill="#757474"/>
<path d="M100.019 178.377C100.116 178.474 100.274 178.474 100.372 178.377L101.963 176.786C102.061 176.688 102.061 176.53 101.963 176.432C101.865 176.335 101.707 176.335 101.61 176.432L100.195 177.846L98.7811 176.432C98.6835 176.335 98.5252 176.335 98.4275 176.432C98.3299 176.53 98.3299 176.688 98.4275 176.786L100.019 178.377ZM99.9453 99L99.9453 178.2L100.445 178.2L100.445 99L99.9453 99Z" fill="#757474"/>
<path d="M100.372 1.62337C100.274 1.52574 100.116 1.52574 100.019 1.62337L98.4275 3.21436C98.3299 3.312 98.3299 3.47028 98.4275 3.56792C98.5252 3.66554 98.6835 3.66554 98.7811 3.56792L100.195 2.1537L101.61 3.56792C101.707 3.66554 101.865 3.66554 101.963 3.56792C102.061 3.47028 102.061 3.312 101.963 3.21436L100.372 1.62337ZM100.445 80.4001L100.445 1.80015L99.9453 1.80015L99.9453 80.4001L100.445 80.4001Z" fill="#757474"/>
</svg>
