<svg width="81" height="180" viewBox="0 0 81 180" fill="none" xmlns="http://www.w3.org/2000/svg">
<rect x="1" y="1" width="79" height="178" rx="3" stroke="#181818" stroke-width="2"/>
<rect x="12.5" y="14.8999" width="56" height="29" rx="3.5" stroke="#181818"/>
<path d="M1.19922 58.8H79.7992" stroke="#181818" stroke-linecap="round"/>
<path d="M80.5 75.6001L0.602097 88.9164" stroke="#181818" stroke-linecap="round"/>
<path d="M1.6201 172.623C1.52247 172.721 1.52247 172.879 1.6201 172.977L3.21109 174.568C3.30872 174.665 3.46701 174.665 3.56464 174.568C3.66227 174.47 3.66227 174.312 3.56464 174.214L2.15043 172.8L3.56464 171.386C3.66227 171.288 3.66227 171.13 3.56464 171.032C3.46701 170.935 3.30872 170.935 3.21109 171.032L1.6201 172.623ZM1.79687 173.05L31.7969 173.05L31.7969 172.55L1.79688 172.55L1.79687 173.05Z" fill="#757474"/>
<path d="M79.3721 172.977C79.4697 172.879 79.4697 172.721 79.3721 172.623L77.7811 171.032C77.6835 170.935 77.5252 170.935 77.4275 171.032C77.3299 171.13 77.3299 171.288 77.4275 171.386L78.8418 172.8L77.4275 174.214C77.3299 174.312 77.3299 174.47 77.4275 174.568C77.5252 174.665 77.6835 174.665 77.7811 174.568L79.3721 172.977ZM49.1953 173.05L79.1953 173.05L79.1953 172.55L49.1953 172.55L49.1953 173.05Z" fill="#757474"/>
<path d="M36.7306 169.8C36.8942 169.802 37.0578 169.834 37.2214 169.896C37.3849 169.959 37.5343 170.062 37.6693 170.207C37.8043 170.351 37.9127 170.547 37.9945 170.796C38.0763 171.045 38.1172 171.357 38.1172 171.732C38.1172 172.096 38.0835 172.418 38.016 172.701C37.9497 172.981 37.8537 173.218 37.7277 173.411C37.6031 173.604 37.4512 173.751 37.272 173.85C37.0941 173.95 36.8929 174 36.6682 174C36.4449 174 36.2456 173.955 36.0703 173.864C35.8964 173.772 35.7535 173.645 35.6419 173.483C35.5315 173.319 35.4608 173.13 35.4296 172.914H35.9048C35.9476 173.102 36.0327 173.257 36.1599 173.379C36.2885 173.5 36.4579 173.561 36.6682 173.561C36.976 173.561 37.2188 173.423 37.3966 173.148C37.5758 172.872 37.6654 172.483 37.6654 171.98H37.6342C37.5615 172.092 37.4752 172.188 37.3752 172.269C37.2752 172.351 37.1642 172.413 37.0422 172.457C36.9201 172.501 36.7903 172.523 36.6527 172.523C36.4242 172.523 36.2145 172.465 36.0236 172.349C35.834 172.232 35.6821 172.072 35.5679 171.868C35.4549 171.663 35.3984 171.429 35.3984 171.166C35.3984 170.915 35.453 170.687 35.562 170.479C35.6724 170.27 35.8269 170.104 36.0256 169.98C36.2255 169.856 36.4605 169.796 36.7306 169.8ZM36.7306 170.239C36.567 170.239 36.4196 170.281 36.2885 170.365C36.1586 170.448 36.0554 170.559 35.9788 170.7C35.9035 170.84 35.8659 170.995 35.8659 171.166C35.8659 171.336 35.9022 171.491 35.9749 171.631C36.0489 171.769 36.1495 171.88 36.2768 171.962C36.4053 172.043 36.5514 172.084 36.715 172.084C36.8383 172.084 36.9532 172.059 37.0597 172.01C37.1662 171.959 37.259 171.891 37.3382 171.804C37.4187 171.717 37.4817 171.617 37.5271 171.507C37.5726 171.395 37.5953 171.279 37.5953 171.158C37.5953 170.998 37.5576 170.848 37.4823 170.708C37.4083 170.569 37.3057 170.456 37.1746 170.369C37.0448 170.283 36.8968 170.239 36.7306 170.239Z" fill="#757474"/>
<path d="M40.1841 174C39.8906 174 39.6407 173.918 39.4343 173.755C39.2278 173.59 39.0701 173.351 38.961 173.038C38.8519 172.724 38.7974 172.345 38.7974 171.9C38.7974 171.458 38.8519 171.081 38.961 170.768C39.0714 170.454 39.2298 170.215 39.4362 170.05C39.644 169.883 39.8932 169.8 40.1841 169.8C40.4749 169.8 40.7235 169.883 40.93 170.05C41.1377 170.215 41.2961 170.454 41.4052 170.768C41.5156 171.081 41.5707 171.458 41.5707 171.9C41.5707 172.345 41.5162 172.724 41.4071 173.038C41.2981 173.351 41.1403 173.59 40.9339 173.755C40.7274 173.918 40.4775 174 40.1841 174ZM40.1841 173.561C40.4749 173.561 40.7008 173.417 40.8618 173.13C41.0228 172.842 41.1033 172.432 41.1033 171.9C41.1033 171.546 41.0663 171.245 40.9923 170.996C40.9196 170.747 40.8144 170.557 40.6768 170.427C40.5405 170.297 40.3762 170.231 40.1841 170.231C39.8958 170.231 39.6706 170.377 39.5083 170.669C39.346 170.959 39.2648 171.369 39.2648 171.9C39.2648 172.254 39.3012 172.555 39.3739 172.802C39.4466 173.05 39.5511 173.238 39.6874 173.367C39.8251 173.496 39.9906 173.561 40.1841 173.561Z" fill="#757474"/>
<path d="M43.6118 174C43.3183 174 43.0684 173.918 42.862 173.755C42.6555 173.59 42.4978 173.351 42.3887 173.038C42.2796 172.724 42.2251 172.345 42.2251 171.9C42.2251 171.458 42.2796 171.081 42.3887 170.768C42.4991 170.454 42.6575 170.215 42.8639 170.05C43.0717 169.883 43.3209 169.8 43.6118 169.8C43.9026 169.8 44.1512 169.883 44.3577 170.05C44.5654 170.215 44.7238 170.454 44.8329 170.768C44.9433 171.081 44.9984 171.458 44.9984 171.9C44.9984 172.345 44.9439 172.724 44.8348 173.038C44.7258 173.351 44.568 173.59 44.3616 173.755C44.1551 173.918 43.9052 174 43.6118 174ZM43.6118 173.561C43.9026 173.561 44.1285 173.417 44.2895 173.13C44.4505 172.842 44.531 172.432 44.531 171.9C44.531 171.546 44.494 171.245 44.42 170.996C44.3473 170.747 44.2421 170.557 44.1045 170.427C43.9682 170.297 43.8039 170.231 43.6118 170.231C43.3235 170.231 43.0983 170.377 42.936 170.669C42.7737 170.959 42.6925 171.369 42.6925 171.9C42.6925 172.254 42.7289 172.555 42.8016 172.802C42.8743 173.05 42.9788 173.238 43.1151 173.367C43.2528 173.496 43.4183 173.561 43.6118 173.561Z" fill="#757474"/>
<path d="M74.941 94.8H74.5817L73.1045 93.5719C72.9315 93.4278 72.7811 93.3091 72.6533 93.2158C72.5243 93.1225 72.4031 93.0535 72.29 93.0087C72.1756 92.9627 72.0558 92.9396 71.9307 92.9396C71.787 92.9396 71.6626 92.9711 71.5574 93.0341C71.4523 93.0959 71.3711 93.1807 71.3139 93.2885C71.2567 93.3963 71.2281 93.5174 71.2281 93.6518C71.2281 93.7948 71.2607 93.9195 71.3259 94.0261C71.3897 94.1315 71.4796 94.2132 71.5954 94.2714C71.7111 94.3283 71.8469 94.3567 72.0026 94.3567V94.7855C71.763 94.7855 71.5528 94.7352 71.3718 94.6347C71.1908 94.5342 71.0497 94.3973 70.9486 94.2241C70.8474 94.0497 70.7969 93.8541 70.7969 93.6373C70.7969 93.4193 70.8474 93.2261 70.9486 93.0577C71.0497 92.8894 71.1861 92.7574 71.3578 92.6617C71.5295 92.566 71.7204 92.5181 71.9307 92.5181C72.0811 92.5181 72.2281 92.543 72.3719 92.5926C72.5143 92.6411 72.6733 92.7259 72.849 92.847C73.0233 92.9669 73.2362 93.1334 73.4877 93.3466L74.4699 94.1823H74.5018V92.4527H74.941V94.8Z" fill="#757474"/>
<path d="M74.9969 90.4888C74.9969 90.7625 74.915 90.9957 74.7513 91.1882C74.5863 91.3808 74.3474 91.528 74.0347 91.6297C73.7206 91.7315 73.3414 91.7823 72.8969 91.7823C72.455 91.7823 72.0778 91.7315 71.765 91.6297C71.451 91.5268 71.2114 91.379 71.0464 91.1864C70.88 90.9926 70.7969 90.7601 70.7969 90.4888C70.7969 90.2175 70.88 89.9855 71.0464 89.7929C71.2114 89.5991 71.451 89.4514 71.765 89.3496C72.0778 89.2467 72.455 89.1952 72.8969 89.1952C73.3414 89.1952 73.7206 89.2461 74.0347 89.3478C74.3474 89.4496 74.5863 89.5967 74.7513 89.7893C74.915 89.9819 74.9969 90.215 74.9969 90.4888ZM74.5577 90.4888C74.5577 90.2175 74.414 90.0067 74.1265 89.8565C73.8391 89.7063 73.4292 89.6312 72.8969 89.6312C72.5429 89.6312 72.2415 89.6658 71.9926 89.7348C71.7437 89.8026 71.5541 89.9007 71.4237 90.0291C71.2933 90.1563 71.2281 90.3095 71.2281 90.4888C71.2281 90.7577 71.3738 90.9678 71.6652 91.1192C71.9553 91.2706 72.3659 91.3463 72.8969 91.3463C73.2509 91.3463 73.5516 91.3124 73.7992 91.2446C74.0467 91.1767 74.235 91.0792 74.3641 90.9521C74.4932 90.8237 74.5577 90.6692 74.5577 90.4888Z" fill="#757474"/>
<path d="M74.9969 87.2912C74.9969 87.5649 74.915 87.7981 74.7513 87.9907C74.5863 88.1832 74.3474 88.3304 74.0347 88.4321C73.7206 88.5339 73.3414 88.5848 72.8969 88.5848C72.455 88.5848 72.0778 88.5339 71.765 88.4321C71.451 88.3292 71.2114 88.1814 71.0464 87.9888C70.88 87.7951 70.7969 87.5625 70.7969 87.2912C70.7969 87.0199 70.88 86.7879 71.0464 86.5954C71.2114 86.4016 71.451 86.2538 71.765 86.1521C72.0778 86.0491 72.455 85.9976 72.8969 85.9976C73.3414 85.9976 73.7206 86.0485 74.0347 86.1502C74.3474 86.252 74.5863 86.3991 74.7513 86.5917C74.915 86.7843 74.9969 87.0175 74.9969 87.2912ZM74.5577 87.2912C74.5577 87.0199 74.414 86.8091 74.1265 86.6589C73.8391 86.5088 73.4292 86.4337 72.8969 86.4337C72.5429 86.4337 72.2415 86.4682 71.9926 86.5372C71.7437 86.605 71.5541 86.7032 71.4237 86.8315C71.2933 86.9587 71.2281 87.1119 71.2281 87.2912C71.2281 87.5601 71.3738 87.7702 71.6652 87.9216C71.9553 88.073 72.3659 88.1487 72.8969 88.1487C73.2509 88.1487 73.5516 88.1148 73.7992 88.047C74.0467 87.9792 74.235 87.8817 74.3641 87.7545C74.4932 87.6261 74.5577 87.4717 74.5577 87.2912Z" fill="#757474"/>
<path d="M74.9969 84.0936C74.9969 84.3673 74.915 84.6005 74.7513 84.7931C74.5863 84.9857 74.3474 85.1328 74.0347 85.2346C73.7206 85.3363 73.3414 85.3872 72.8969 85.3872C72.455 85.3872 72.0778 85.3363 71.765 85.2346C71.451 85.1316 71.2114 84.9838 71.0464 84.7913C70.88 84.5975 70.7969 84.3649 70.7969 84.0936C70.7969 83.8223 70.88 83.5904 71.0464 83.3978C71.2114 83.204 71.451 83.0562 71.765 82.9545C72.0778 82.8515 72.455 82.8 72.8969 82.8C73.3414 82.8 73.7206 82.8509 74.0347 82.9527C74.3474 83.0544 74.5863 83.2016 74.7513 83.3941C74.915 83.5867 74.9969 83.8199 74.9969 84.0936ZM74.5577 84.0936C74.5577 83.8223 74.414 83.6116 74.1265 83.4614C73.8391 83.3112 73.4292 83.2361 72.8969 83.2361C72.5429 83.2361 72.2415 83.2706 71.9926 83.3396C71.7437 83.4075 71.5541 83.5056 71.4237 83.634C71.2933 83.7611 71.2281 83.9144 71.2281 84.0936C71.2281 84.3625 71.3738 84.5726 71.6652 84.724C71.9553 84.8754 72.3659 84.9511 72.8969 84.9511C73.2509 84.9511 73.5516 84.9172 73.7992 84.8494C74.0467 84.7816 74.235 84.6841 74.3641 84.5569C74.4932 84.4285 74.5577 84.2741 74.5577 84.0936Z" fill="#757474"/>
<path d="M73.0185 178.377C73.1162 178.474 73.2745 178.474 73.3721 178.377L74.9631 176.786C75.0607 176.688 75.0607 176.53 74.9631 176.432C74.8655 176.335 74.7072 176.335 74.6095 176.432L73.1953 177.846L71.7811 176.432C71.6835 176.335 71.5252 176.335 71.4275 176.432C71.3299 176.53 71.3299 176.688 71.4275 176.786L73.0185 178.377ZM72.9453 99L72.9453 178.2L73.4453 178.2L73.4453 99L72.9453 99Z" fill="#757474"/>
<path d="M73.3721 1.62337C73.2745 1.52574 73.1162 1.52574 73.0185 1.62337L71.4275 3.21436C71.3299 3.312 71.3299 3.47028 71.4275 3.56792C71.5252 3.66554 71.6835 3.66554 71.7811 3.56792L73.1953 2.1537L74.6095 3.56792C74.7072 3.66554 74.8655 3.66554 74.9631 3.56792C75.0607 3.47028 75.0607 3.312 74.9631 3.21436L73.3721 1.62337ZM73.4453 80.4001L73.4453 1.80015L72.9453 1.80015L72.9453 80.4001L73.4453 80.4001Z" fill="#757474"/>
</svg>
