<svg width="162" height="180" viewBox="0 0 162 180" fill="none" xmlns="http://www.w3.org/2000/svg">
<rect x="1" y="1" width="160" height="178" rx="3" stroke="#1D1D1D" stroke-width="2"/>
<rect x="18.5" y="14.8999" width="53" height="29" rx="3.5" stroke="#1D1D1D"/>
<rect x="84.5" y="14.8999" width="53" height="29" rx="3.5" stroke="#1D1D1D"/>
<path d="M0.591797 58.7998H161.392" stroke="#1D1D1D" stroke-linecap="round"/>
<path d="M161.4 66.5996L0.503485 93.9204" stroke="#1D1D1D" stroke-linecap="round"/>
<path d="M76.4633 169.856V173.944H75.9852V170.375H75.962L74.998 171.037V170.534L75.9852 169.856H76.4633Z" fill="#757474"/>
<path d="M78.8636 174C78.5988 174 78.3649 173.951 78.1618 173.854C77.96 173.756 77.8026 173.621 77.6895 173.449C77.5763 173.276 77.5204 173.079 77.5217 172.858C77.5204 172.685 77.5532 172.525 77.62 172.379C77.6869 172.231 77.7781 172.108 77.8938 172.01C78.0108 171.91 78.1412 171.847 78.2852 171.82V171.796C78.0963 171.745 77.9459 171.636 77.8341 171.467C77.7222 171.296 77.667 171.103 77.6682 170.886C77.667 170.678 77.7177 170.492 77.8206 170.329C77.9234 170.165 78.0648 170.036 78.2447 169.942C78.4259 169.847 78.6322 169.8 78.8636 169.8C79.0924 169.8 79.2967 169.847 79.4767 169.942C79.6566 170.036 79.798 170.165 79.9008 170.329C80.0049 170.492 80.0576 170.678 80.0589 170.886C80.0576 171.103 80.0004 171.296 79.8873 171.467C79.7755 171.636 79.627 171.745 79.442 171.796V171.82C79.5846 171.847 79.7132 171.91 79.8275 172.01C79.9419 172.108 80.0332 172.231 80.1013 172.379C80.1694 172.525 80.2041 172.685 80.2054 172.858C80.2041 173.079 80.1463 173.276 80.0319 173.449C79.9188 173.621 79.7614 173.756 79.5596 173.854C79.3591 173.951 79.1271 174 78.8636 174ZM78.8636 173.561C79.0422 173.561 79.1965 173.531 79.3263 173.471C79.4561 173.411 79.5563 173.326 79.627 173.217C79.6977 173.108 79.7337 172.98 79.735 172.834C79.7337 172.68 79.6952 172.543 79.6193 172.425C79.5435 172.306 79.44 172.213 79.3089 172.145C79.1791 172.077 79.0307 172.044 78.8636 172.044C78.6952 172.044 78.5448 172.077 78.4124 172.145C78.2813 172.213 78.1779 172.306 78.102 172.425C78.0275 172.543 77.9909 172.68 77.9921 172.834C77.9909 172.98 78.0249 173.108 78.0943 173.217C78.165 173.326 78.2659 173.411 78.397 173.471C78.5281 173.531 78.6836 173.561 78.8636 173.561ZM78.8636 171.62C79.005 171.62 79.1303 171.591 79.2395 171.533C79.3501 171.474 79.4368 171.392 79.4998 171.287C79.5628 171.182 79.5949 171.059 79.5962 170.918C79.5949 170.779 79.5634 170.659 79.5017 170.556C79.44 170.453 79.3546 170.373 79.2453 170.317C79.1361 170.26 79.0088 170.231 78.8636 170.231C78.7158 170.231 78.5866 170.26 78.4761 170.317C78.3655 170.373 78.28 170.453 78.2196 170.556C78.1592 170.659 78.1297 170.779 78.131 170.918C78.1297 171.059 78.1599 171.182 78.2216 171.287C78.2845 171.392 78.3713 171.474 78.4818 171.533C78.5924 171.591 78.7196 171.62 78.8636 171.62Z" fill="#757474"/>
<path d="M82.2322 174C81.9417 174 81.6943 173.918 81.4899 173.754C81.2856 173.589 81.1294 173.35 81.0214 173.038C80.9135 172.724 80.8595 172.344 80.8595 171.9C80.8595 171.458 80.9135 171.081 81.0214 170.768C81.1307 170.454 81.2875 170.214 81.4918 170.049C81.6975 169.883 81.9443 169.8 82.2322 169.8C82.5201 169.8 82.7662 169.883 82.9706 170.049C83.1762 170.214 83.333 170.454 83.441 170.768C83.5502 171.081 83.6049 171.458 83.6049 171.9C83.6049 172.344 83.5509 172.724 83.4429 173.038C83.335 173.35 83.1788 173.589 82.9744 173.754C82.7701 173.918 82.5226 174 82.2322 174ZM82.2322 173.561C82.5201 173.561 82.7437 173.417 82.9031 173.129C83.0625 172.842 83.1422 172.432 83.1422 171.9C83.1422 171.546 83.1055 171.244 83.0323 170.996C82.9603 170.747 82.8562 170.557 82.7199 170.427C82.585 170.296 82.4224 170.231 82.2322 170.231C81.9468 170.231 81.7238 170.377 81.5632 170.668C81.4025 170.958 81.3222 171.369 81.3222 171.9C81.3222 172.254 81.3582 172.555 81.4301 172.802C81.5021 173.05 81.6056 173.238 81.7405 173.367C81.8768 173.496 82.0407 173.561 82.2322 173.561Z" fill="#757474"/>
<path d="M85.6254 174C85.3349 174 85.0875 173.918 84.8831 173.754C84.6787 173.589 84.5226 173.35 84.4146 173.038C84.3066 172.724 84.2527 172.344 84.2527 171.9C84.2527 171.458 84.3066 171.081 84.4146 170.768C84.5239 170.454 84.6807 170.214 84.885 170.049C85.0907 169.883 85.3374 169.8 85.6254 169.8C85.9133 169.8 86.1594 169.883 86.3638 170.049C86.5694 170.214 86.7262 170.454 86.8342 170.768C86.9434 171.081 86.998 171.458 86.998 171.9C86.998 172.344 86.9441 172.724 86.8361 173.038C86.7281 173.35 86.572 173.589 86.3676 173.754C86.1632 173.918 85.9158 174 85.6254 174ZM85.6254 173.561C85.9133 173.561 86.1369 173.417 86.2963 173.129C86.4557 172.842 86.5353 172.432 86.5353 171.9C86.5353 171.546 86.4987 171.244 86.4254 170.996C86.3535 170.747 86.2494 170.557 86.1131 170.427C85.9782 170.296 85.8156 170.231 85.6254 170.231C85.34 170.231 85.117 170.377 84.9564 170.668C84.7957 170.958 84.7154 171.369 84.7154 171.9C84.7154 172.254 84.7514 172.555 84.8233 172.802C84.8953 173.05 84.9988 173.238 85.1337 173.367C85.27 173.496 85.4338 173.561 85.6254 173.561Z" fill="#757474"/>
<path d="M1.62205 171.931C1.52442 172.029 1.52442 172.187 1.62205 172.285L3.21304 173.876C3.31067 173.973 3.46896 173.973 3.56659 173.876C3.66423 173.778 3.66423 173.62 3.56659 173.522L2.15238 172.108L3.5666 170.694C3.66423 170.596 3.66423 170.438 3.5666 170.34C3.46896 170.243 3.31067 170.243 3.21304 170.34L1.62205 171.931ZM1.79883 172.358L70.7988 172.358L70.7988 171.858L1.79883 171.858L1.79883 172.358Z" fill="#757474"/>
<path d="M160.376 172.376C160.474 172.279 160.474 172.121 160.376 172.023L158.785 170.432C158.687 170.334 158.529 170.334 158.431 170.432C158.334 170.53 158.334 170.688 158.431 170.785L159.846 172.2L158.431 173.614C158.334 173.712 158.334 173.87 158.431 173.967C158.529 174.065 158.687 174.065 158.785 173.967L160.376 172.376ZM91.1992 172.45L160.199 172.45L160.199 171.95L91.1992 171.95L91.1992 172.45Z" fill="#757474"/>
<path d="M155.943 96H155.584L154.106 94.7718C153.933 94.6277 153.783 94.509 153.655 94.4157C153.526 94.3225 153.405 94.2534 153.292 94.2086C153.178 94.1626 153.058 94.1396 152.933 94.1396C152.789 94.1396 152.665 94.1711 152.559 94.2341C152.454 94.2958 152.373 94.3806 152.316 94.4884C152.259 94.5962 152.23 94.7173 152.23 94.8518C152.23 94.9947 152.263 95.1195 152.328 95.226C152.392 95.3314 152.482 95.4132 152.597 95.4713C152.713 95.5282 152.849 95.5567 153.005 95.5567V95.9855C152.765 95.9855 152.555 95.9352 152.374 95.8347C152.193 95.7341 152.052 95.5973 151.951 95.4241C151.849 95.2497 151.799 95.0541 151.799 94.8372C151.799 94.6192 151.849 94.426 151.951 94.2577C152.052 94.0893 152.188 93.9573 152.36 93.8616C152.531 93.7659 152.722 93.7181 152.933 93.7181C153.083 93.7181 153.23 93.7429 153.374 93.7926C153.516 93.841 153.675 93.9258 153.851 94.0469C154.025 94.1668 154.238 94.3334 154.49 94.5466L155.472 95.3823H155.504V93.6527H155.943V96Z" fill="#757474"/>
<path d="M155.999 91.6887C155.999 91.9625 155.917 92.1956 155.753 92.3882C155.588 92.5808 155.349 92.7279 155.037 92.8297C154.723 92.9314 154.343 92.9823 153.899 92.9823C153.457 92.9823 153.08 92.9314 152.767 92.8297C152.453 92.7267 152.213 92.579 152.048 92.3864C151.882 92.1926 151.799 91.96 151.799 91.6887C151.799 91.4174 151.882 91.1855 152.048 90.9929C152.213 90.7991 152.453 90.6513 152.767 90.5496C153.08 90.4466 153.457 90.3952 153.899 90.3952C154.343 90.3952 154.723 90.446 155.037 90.5478C155.349 90.6495 155.588 90.7967 155.753 90.9893C155.917 91.1818 155.999 91.415 155.999 91.6887ZM155.56 91.6887C155.56 91.4174 155.416 91.2067 155.128 91.0565C154.841 90.9063 154.431 90.8312 153.899 90.8312C153.545 90.8312 153.243 90.8657 152.995 90.9347C152.746 91.0026 152.556 91.1007 152.426 91.2291C152.295 91.3562 152.23 91.5095 152.23 91.6887C152.23 91.9576 152.376 92.1678 152.667 92.3192C152.957 92.4706 153.368 92.5463 153.899 92.5463C154.253 92.5463 154.554 92.5123 154.801 92.4445C155.049 92.3767 155.237 92.2792 155.366 92.152C155.495 92.0236 155.56 91.8692 155.56 91.6887Z" fill="#757474"/>
<path d="M155.999 88.4911C155.999 88.7649 155.917 88.998 155.753 89.1906C155.588 89.3832 155.349 89.5304 155.037 89.6321C154.723 89.7338 154.343 89.7847 153.899 89.7847C153.457 89.7847 153.08 89.7338 152.767 89.6321C152.453 89.5291 152.213 89.3814 152.048 89.1888C151.882 88.995 151.799 88.7625 151.799 88.4911C151.799 88.2198 151.882 87.9879 152.048 87.7953C152.213 87.6015 152.453 87.4537 152.767 87.352C153.08 87.2491 153.457 87.1976 153.899 87.1976C154.343 87.1976 154.723 87.2484 155.037 87.3502C155.349 87.4519 155.588 87.5991 155.753 87.7917C155.917 87.9843 155.999 88.2174 155.999 88.4911ZM155.56 88.4911C155.56 88.2198 155.416 88.0091 155.128 87.8589C154.841 87.7087 154.431 87.6336 153.899 87.6336C153.545 87.6336 153.243 87.6681 152.995 87.7372C152.746 87.805 152.556 87.9031 152.426 88.0315C152.295 88.1587 152.23 88.3119 152.23 88.4911C152.23 88.76 152.376 88.9702 152.667 89.1216C152.957 89.273 153.368 89.3487 153.899 89.3487C154.253 89.3487 154.554 89.3148 154.801 89.2469C155.049 89.1791 155.237 89.0816 155.366 88.9544C155.495 88.826 155.56 88.6716 155.56 88.4911Z" fill="#757474"/>
<path d="M155.999 85.2936C155.999 85.5673 155.917 85.8005 155.753 85.993C155.588 86.1856 155.349 86.3328 155.037 86.4345C154.723 86.5363 154.343 86.5871 153.899 86.5871C153.457 86.5871 153.08 86.5363 152.767 86.4345C152.453 86.3316 152.213 86.1838 152.048 85.9912C151.882 85.7974 151.799 85.5649 151.799 85.2936C151.799 85.0223 151.882 84.7903 152.048 84.5977C152.213 84.4039 152.453 84.2562 152.767 84.1544C153.08 84.0515 153.457 84 153.899 84C154.343 84 154.723 84.0509 155.037 84.1526C155.349 84.2544 155.588 84.4015 155.753 84.5941C155.917 84.7867 155.999 85.0198 155.999 85.2936ZM155.56 85.2936C155.56 85.0223 155.416 84.8115 155.128 84.6613C154.841 84.5111 154.431 84.436 153.899 84.436C153.545 84.436 153.243 84.4706 152.995 84.5396C152.746 84.6074 152.556 84.7055 152.426 84.8339C152.295 84.9611 152.23 85.1143 152.23 85.2936C152.23 85.5625 152.376 85.7726 152.667 85.924C152.957 86.0754 153.368 86.1511 153.899 86.1511C154.253 86.1511 154.554 86.1172 154.801 86.0494C155.049 85.9815 155.237 85.884 155.366 85.7569C155.495 85.6285 155.56 85.474 155.56 85.2936Z" fill="#757474"/>
<path d="M154.022 178.377C154.12 178.474 154.278 178.474 154.376 178.377L155.967 176.786C156.065 176.688 156.065 176.53 155.967 176.432C155.869 176.335 155.711 176.335 155.613 176.432L154.199 177.846L152.785 176.432C152.687 176.335 152.529 176.335 152.431 176.432C152.334 176.53 152.334 176.688 152.431 176.786L154.022 178.377ZM153.949 99L153.949 178.2L154.449 178.2L154.449 99L153.949 99Z" fill="#757474"/>
<path d="M154.376 1.62313C154.278 1.5255 154.12 1.5255 154.022 1.62313L152.431 3.21412C152.334 3.31175 152.334 3.47004 152.431 3.56767C152.529 3.6653 152.687 3.6653 152.785 3.56767L154.199 2.15346L155.613 3.56767C155.711 3.6653 155.869 3.6653 155.967 3.56767C156.065 3.47004 156.065 3.31175 155.967 3.21412L154.376 1.62313ZM154.449 80.3999L154.449 1.7999L153.949 1.7999L153.949 80.3999L154.449 80.3999Z" fill="#757474"/>
</svg>
