<svg width="127" height="180" viewBox="0 0 127 180" fill="none" xmlns="http://www.w3.org/2000/svg">
<rect x="2" y="1" width="124" height="178" rx="3" stroke="#1D1D1D" stroke-width="2"/>
<rect x="13.5" y="14.8999" width="47" height="29" rx="3.5" stroke="#1D1D1D"/>
<rect x="67.5" y="14.8999" width="47" height="29" rx="3.5" stroke="#1D1D1D"/>
<path d="M2.19922 58.8H125.799" stroke="#181818" stroke-linecap="round"/>
<path d="M125.801 72.6001L1.46679 93.0221" stroke="#181818" stroke-linecap="round"/>
<path d="M59.4447 169.348V173.436H58.972V169.867H58.9491L57.9961 170.53V170.027L58.972 169.348H59.4447Z" fill="#757474"/>
<path d="M60.4759 172.598V172.19L62.1913 169.348H62.4734V169.979H62.2828L60.9867 172.127V172.159H63.2968V172.598H60.4759ZM62.3133 173.436V169.348H62.7631V173.436H62.3133Z" fill="#757474"/>
<path d="M65.2843 173.492C64.9972 173.492 64.7526 173.41 64.5505 173.246C64.3485 173.081 64.1941 172.843 64.0873 172.53C63.9806 172.216 63.9272 171.836 63.9272 171.392C63.9272 170.95 63.9806 170.573 64.0873 170.26C64.1954 169.946 64.3504 169.707 64.5524 169.542C64.7557 169.375 64.9997 169.292 65.2843 169.292C65.569 169.292 65.8123 169.375 66.0144 169.542C66.2177 169.707 66.3727 169.946 66.4794 170.26C66.5874 170.573 66.6414 170.95 66.6414 171.392C66.6414 171.836 66.5881 172.216 66.4813 172.53C66.3746 172.843 66.2202 173.081 66.0182 173.246C65.8161 173.41 65.5715 173.492 65.2843 173.492ZM65.2843 173.053C65.569 173.053 65.7901 172.909 65.9476 172.622C66.1052 172.334 66.184 171.924 66.184 171.392C66.184 171.038 66.1478 170.737 66.0754 170.488C66.0042 170.239 65.9013 170.049 65.7666 169.919C65.6332 169.788 65.4724 169.723 65.2843 169.723C65.0022 169.723 64.7818 169.869 64.6229 170.16C64.4641 170.45 64.3847 170.861 64.3847 171.392C64.3847 171.746 64.4203 172.047 64.4914 172.294C64.5626 172.542 64.6649 172.73 64.7983 172.859C64.933 172.988 65.095 173.053 65.2843 173.053Z" fill="#757474"/>
<path d="M68.639 173.492C68.3518 173.492 68.1072 173.41 67.9052 173.246C67.7031 173.081 67.5487 172.843 67.442 172.53C67.3353 172.216 67.2819 171.836 67.2819 171.392C67.2819 170.95 67.3353 170.573 67.442 170.26C67.55 169.946 67.705 169.707 67.9071 169.542C68.1104 169.375 68.3544 169.292 68.639 169.292C68.9236 169.292 69.167 169.375 69.369 169.542C69.5723 169.707 69.7273 169.946 69.8341 170.26C69.9421 170.573 69.9961 170.95 69.9961 171.392C69.9961 171.836 69.9427 172.216 69.836 172.53C69.7292 172.843 69.5749 173.081 69.3728 173.246C69.1708 173.41 68.9262 173.492 68.639 173.492ZM68.639 173.053C68.9236 173.053 69.1447 172.909 69.3023 172.622C69.4599 172.334 69.5386 171.924 69.5386 171.392C69.5386 171.038 69.5024 170.737 69.43 170.488C69.3588 170.239 69.2559 170.049 69.1212 169.919C68.9878 169.788 68.8271 169.723 68.639 169.723C68.3569 169.723 68.1364 169.869 67.9776 170.16C67.8188 170.45 67.7393 170.861 67.7393 171.392C67.7393 171.746 67.7749 172.047 67.8461 172.294C67.9172 172.542 68.0195 172.73 68.1529 172.859C68.2876 172.988 68.4497 173.053 68.639 173.053Z" fill="#757474"/>
<path d="M2.6201 171.423C2.52247 171.521 2.52247 171.679 2.6201 171.777L4.21109 173.368C4.30872 173.465 4.46701 173.465 4.56464 173.368C4.66227 173.27 4.66227 173.112 4.56464 173.014L3.15043 171.6L4.56464 170.186C4.66227 170.088 4.66227 169.93 4.56464 169.832C4.46701 169.734 4.30872 169.734 4.21109 169.832L2.6201 171.423ZM2.79687 171.85L53.7969 171.85L53.7969 171.35L2.79688 171.35L2.79687 171.85Z" fill="#757474"/>
<path d="M125.372 171.777C125.47 171.679 125.47 171.521 125.372 171.423L123.781 169.832C123.683 169.734 123.525 169.734 123.428 169.832C123.33 169.93 123.33 170.088 123.428 170.186L124.842 171.6L123.428 173.014C123.33 173.112 123.33 173.27 123.428 173.368C123.525 173.465 123.683 173.465 123.781 173.368L125.372 171.777ZM74.1953 171.85L125.195 171.85L125.195 171.35L74.1953 171.35L74.1953 171.85Z" fill="#757474"/>
<path d="M120.941 96H120.582L119.104 94.7718C118.931 94.6277 118.781 94.509 118.653 94.4157C118.524 94.3225 118.403 94.2534 118.29 94.2086C118.176 94.1626 118.056 94.1396 117.931 94.1396C117.787 94.1396 117.663 94.1711 117.557 94.2341C117.452 94.2958 117.371 94.3806 117.314 94.4884C117.257 94.5962 117.228 94.7173 117.228 94.8518C117.228 94.9947 117.261 95.1195 117.326 95.226C117.39 95.3314 117.48 95.4132 117.595 95.4713C117.711 95.5282 117.847 95.5567 118.003 95.5567V95.9855C117.763 95.9855 117.553 95.9352 117.372 95.8347C117.191 95.7341 117.05 95.5973 116.949 95.4241C116.847 95.2497 116.797 95.0541 116.797 94.8372C116.797 94.6192 116.847 94.426 116.949 94.2577C117.05 94.0893 117.186 93.9573 117.358 93.8616C117.529 93.7659 117.72 93.7181 117.931 93.7181C118.081 93.7181 118.228 93.7429 118.372 93.7926C118.514 93.841 118.673 93.9258 118.849 94.0469C119.023 94.1668 119.236 94.3334 119.488 94.5466L120.47 95.3823H120.502V93.6527H120.941V96Z" fill="#757474"/>
<path d="M120.997 91.6887C120.997 91.9625 120.915 92.1956 120.751 92.3882C120.586 92.5808 120.347 92.7279 120.035 92.8297C119.721 92.9314 119.341 92.9823 118.897 92.9823C118.455 92.9823 118.078 92.9314 117.765 92.8297C117.451 92.7267 117.211 92.579 117.046 92.3864C116.88 92.1926 116.797 91.96 116.797 91.6887C116.797 91.4174 116.88 91.1855 117.046 90.9929C117.211 90.7991 117.451 90.6513 117.765 90.5496C118.078 90.4466 118.455 90.3952 118.897 90.3952C119.341 90.3952 119.721 90.446 120.035 90.5478C120.347 90.6495 120.586 90.7967 120.751 90.9893C120.915 91.1818 120.997 91.415 120.997 91.6887ZM120.558 91.6887C120.558 91.4174 120.414 91.2067 120.127 91.0565C119.839 90.9063 119.429 90.8312 118.897 90.8312C118.543 90.8312 118.241 90.8657 117.993 90.9347C117.744 91.0026 117.554 91.1007 117.424 91.2291C117.293 91.3562 117.228 91.5095 117.228 91.6887C117.228 91.9576 117.374 92.1678 117.665 92.3192C117.955 92.4706 118.366 92.5463 118.897 92.5463C119.251 92.5463 119.552 92.5123 119.799 92.4445C120.047 92.3767 120.235 92.2792 120.364 92.152C120.493 92.0236 120.558 91.8692 120.558 91.6887Z" fill="#757474"/>
<path d="M120.997 88.4911C120.997 88.7649 120.915 88.998 120.751 89.1906C120.586 89.3832 120.347 89.5304 120.035 89.6321C119.721 89.7338 119.341 89.7847 118.897 89.7847C118.455 89.7847 118.078 89.7338 117.765 89.6321C117.451 89.5291 117.211 89.3814 117.046 89.1888C116.88 88.995 116.797 88.7625 116.797 88.4911C116.797 88.2198 116.88 87.9879 117.046 87.7953C117.211 87.6015 117.451 87.4537 117.765 87.352C118.078 87.2491 118.455 87.1976 118.897 87.1976C119.341 87.1976 119.721 87.2484 120.035 87.3502C120.347 87.4519 120.586 87.5991 120.751 87.7917C120.915 87.9843 120.997 88.2174 120.997 88.4911ZM120.558 88.4911C120.558 88.2198 120.414 88.0091 120.127 87.8589C119.839 87.7087 119.429 87.6336 118.897 87.6336C118.543 87.6336 118.241 87.6681 117.993 87.7372C117.744 87.805 117.554 87.9031 117.424 88.0315C117.293 88.1587 117.228 88.3119 117.228 88.4911C117.228 88.76 117.374 88.9702 117.665 89.1216C117.955 89.273 118.366 89.3487 118.897 89.3487C119.251 89.3487 119.552 89.3148 119.799 89.2469C120.047 89.1791 120.235 89.0816 120.364 88.9544C120.493 88.826 120.558 88.6716 120.558 88.4911Z" fill="#757474"/>
<path d="M120.997 85.2936C120.997 85.5673 120.915 85.8005 120.751 85.993C120.586 86.1856 120.347 86.3328 120.035 86.4345C119.721 86.5363 119.341 86.5871 118.897 86.5871C118.455 86.5871 118.078 86.5363 117.765 86.4345C117.451 86.3316 117.211 86.1838 117.046 85.9912C116.88 85.7974 116.797 85.5649 116.797 85.2936C116.797 85.0223 116.88 84.7903 117.046 84.5977C117.211 84.4039 117.451 84.2562 117.765 84.1544C118.078 84.0515 118.455 84 118.897 84C119.341 84 119.721 84.0509 120.035 84.1526C120.347 84.2544 120.586 84.4015 120.751 84.5941C120.915 84.7867 120.997 85.0198 120.997 85.2936ZM120.558 85.2936C120.558 85.0223 120.414 84.8115 120.127 84.6613C119.839 84.5111 119.429 84.436 118.897 84.436C118.543 84.436 118.241 84.4706 117.993 84.5396C117.744 84.6074 117.554 84.7055 117.424 84.8339C117.293 84.9611 117.228 85.1143 117.228 85.2936C117.228 85.5625 117.374 85.7726 117.665 85.924C117.955 86.0754 118.366 86.1511 118.897 86.1511C119.251 86.1511 119.552 86.1172 119.799 86.0494C120.047 85.9815 120.235 85.884 120.364 85.7569C120.493 85.6285 120.558 85.474 120.558 85.2936Z" fill="#757474"/>
<path d="M119.019 178.377C119.116 178.474 119.274 178.474 119.372 178.377L120.963 176.786C121.061 176.688 121.061 176.53 120.963 176.432C120.865 176.335 120.707 176.335 120.61 176.432L119.195 177.846L117.781 176.432C117.683 176.335 117.525 176.335 117.428 176.432C117.33 176.53 117.33 176.688 117.428 176.786L119.019 178.377ZM118.945 99L118.945 178.2L119.445 178.2L119.445 99L118.945 99Z" fill="#757474"/>
<path d="M119.372 1.62337C119.274 1.52574 119.116 1.52574 119.019 1.62337L117.428 3.21436C117.33 3.312 117.33 3.47028 117.428 3.56792C117.525 3.66554 117.683 3.66554 117.781 3.56792L119.195 2.1537L120.61 3.56792C120.707 3.66554 120.865 3.66554 120.963 3.56792C121.061 3.47028 121.061 3.312 120.963 3.21436L119.372 1.62337ZM119.445 80.4001L119.445 1.80015L118.945 1.80015L118.945 80.4001L119.445 80.4001Z" fill="#757474"/>
</svg>
