<svg width="144" height="180" viewBox="0 0 144 180" fill="none" xmlns="http://www.w3.org/2000/svg">
<rect x="1" y="1" width="142" height="178" rx="3" stroke="#1D1D1D" stroke-width="2"/>
<rect x="15.5" y="14.8999" width="53" height="29" rx="3.5" stroke="#1D1D1D"/>
<rect x="75.5" y="14.8999" width="53" height="29" rx="3.5" stroke="#1D1D1D"/>
<path d="M1.19922 58.7998L142.199 58.7998" stroke="#181818" stroke-linecap="round"/>
<path d="M143.398 69L0.598437 93" stroke="#181818" stroke-linecap="round"/>
<path d="M1.62205 171.423C1.52442 171.521 1.52442 171.679 1.62205 171.777L3.21304 173.368C3.31067 173.465 3.46896 173.465 3.56659 173.368C3.66423 173.27 3.66423 173.112 3.56659 173.014L2.15238 171.6L3.5666 170.186C3.66423 170.088 3.66423 169.93 3.5666 169.832C3.46896 169.735 3.31067 169.735 3.21304 169.832L1.62205 171.423ZM1.79883 171.85L61.7988 171.85L61.7988 171.35L1.79883 171.35L1.79883 171.85Z" fill="#757474"/>
<path d="M142.376 171.777C142.474 171.679 142.474 171.521 142.376 171.423L140.785 169.832C140.687 169.735 140.529 169.735 140.431 169.832C140.334 169.93 140.334 170.088 140.431 170.186L141.846 171.6L140.431 173.014C140.334 173.112 140.334 173.27 140.431 173.368C140.529 173.465 140.687 173.465 140.785 173.368L142.376 171.777ZM82.1992 171.85H142.199V171.35H82.1992V171.85Z" fill="#757474"/>
<path d="M67.4601 169.856V173.944H66.9836V170.375H66.9606L66 171.038V170.535L66.9836 169.856H67.4601Z" fill="#757474"/>
<path d="M69.898 174C69.7366 173.997 69.5753 173.965 69.4139 173.904C69.2525 173.843 69.1052 173.74 68.972 173.595C68.8388 173.448 68.7319 173.251 68.6512 173.002C68.5705 172.752 68.5302 172.438 68.5302 172.06C68.5302 171.698 68.5628 171.377 68.6281 171.098C68.6935 170.817 68.7882 170.581 68.9125 170.389C69.0367 170.196 69.1866 170.05 69.362 169.95C69.5388 169.85 69.7379 169.8 69.9595 169.8C70.1798 169.8 70.3757 169.846 70.5474 169.938C70.7203 170.028 70.8612 170.155 70.97 170.317C71.0789 170.479 71.1493 170.666 71.1813 170.878H70.7126C70.669 170.694 70.5845 170.542 70.459 170.421C70.3335 170.3 70.167 170.239 69.9595 170.239C69.6547 170.239 69.4145 170.377 69.2391 170.652C69.0649 170.928 68.9771 171.314 68.9759 171.812H69.0066C69.0783 171.699 69.1635 171.603 69.2621 171.523C69.362 171.442 69.4722 171.379 69.5926 171.335C69.7129 171.291 69.8404 171.269 69.9749 171.269C70.2003 171.269 70.4065 171.328 70.5935 171.445C70.7805 171.561 70.9303 171.721 71.043 171.926C71.1557 172.13 71.2121 172.363 71.2121 172.627C71.2121 172.879 71.1577 173.111 71.0488 173.321C70.9399 173.53 70.7869 173.697 70.5896 173.82C70.3937 173.943 70.1631 174.003 69.898 174ZM69.898 173.561C70.0594 173.561 70.2041 173.519 70.3322 173.435C70.4616 173.351 70.5634 173.239 70.6377 173.098C70.7132 172.957 70.751 172.8 70.751 172.627C70.751 172.458 70.7145 172.304 70.6415 172.165C70.5698 172.026 70.4705 171.915 70.3437 171.832C70.2182 171.75 70.0748 171.708 69.9134 171.708C69.7917 171.708 69.6784 171.734 69.5733 171.784C69.4683 171.833 69.3761 171.901 69.2967 171.988C69.2186 172.074 69.1571 172.173 69.1123 172.285C69.0674 172.396 69.045 172.512 69.045 172.635C69.045 172.797 69.0815 172.949 69.1545 173.09C69.2288 173.231 69.33 173.345 69.4581 173.431C69.5874 173.518 69.7341 173.561 69.898 173.561Z" fill="#757474"/>
<path d="M73.2509 174C72.9615 174 72.7149 173.918 72.5113 173.754C72.3076 173.589 72.152 173.351 72.0444 173.038C71.9368 172.724 71.883 172.344 71.883 171.9C71.883 171.458 71.9368 171.081 72.0444 170.768C72.1533 170.454 72.3095 170.215 72.5132 170.05C72.7181 169.883 72.964 169.8 73.2509 169.8C73.5378 169.8 73.7831 169.883 73.9867 170.05C74.1916 170.215 74.3479 170.454 74.4555 170.768C74.5643 171.081 74.6188 171.458 74.6188 171.9C74.6188 172.344 74.565 172.724 74.4574 173.038C74.3498 173.351 74.1942 173.589 73.9906 173.754C73.7869 173.918 73.5404 174 73.2509 174ZM73.2509 173.561C73.5378 173.561 73.7607 173.417 73.9195 173.13C74.0783 172.842 74.1577 172.432 74.1577 171.9C74.1577 171.546 74.1212 171.245 74.0482 170.996C73.9765 170.747 73.8727 170.557 73.737 170.427C73.6025 170.296 73.4405 170.231 73.2509 170.231C72.9666 170.231 72.7444 170.377 72.5843 170.668C72.4242 170.958 72.3441 171.369 72.3441 171.9C72.3441 172.254 72.38 172.555 72.4517 172.802C72.5234 173.05 72.6265 173.238 72.761 173.367C72.8968 173.496 73.0601 173.561 73.2509 173.561Z" fill="#757474"/>
<path d="M76.6321 174C76.3427 174 76.0961 173.918 75.8925 173.754C75.6889 173.589 75.5332 173.351 75.4257 173.038C75.3181 172.724 75.2643 172.344 75.2643 171.9C75.2643 171.458 75.3181 171.081 75.4257 170.768C75.5345 170.454 75.6908 170.215 75.8944 170.05C76.0993 169.883 76.3452 169.8 76.6321 169.8C76.919 169.8 77.1643 169.883 77.3679 170.05C77.5729 170.215 77.7291 170.454 77.8367 170.768C77.9456 171.081 78 171.458 78 171.9C78 172.344 77.9462 172.724 77.8386 173.038C77.731 173.351 77.5754 173.589 77.3718 173.754C77.1681 173.918 76.9216 174 76.6321 174ZM76.6321 173.561C76.919 173.561 77.1419 173.417 77.3007 173.13C77.4595 172.842 77.5389 172.432 77.5389 171.9C77.5389 171.546 77.5024 171.245 77.4294 170.996C77.3577 170.747 77.254 170.557 77.1182 170.427C76.9837 170.296 76.8217 170.231 76.6321 170.231C76.3478 170.231 76.1256 170.377 75.9655 170.668C75.8054 170.958 75.7254 171.369 75.7254 171.9C75.7254 172.254 75.7612 172.555 75.8329 172.802C75.9047 173.05 76.0078 173.238 76.1422 173.367C76.278 173.496 76.4413 173.561 76.6321 173.561Z" fill="#757474"/>
<path d="M137.941 96H137.582L136.104 94.7718C135.931 94.6277 135.781 94.509 135.653 94.4157C135.524 94.3225 135.403 94.2534 135.29 94.2086C135.176 94.1626 135.056 94.1396 134.931 94.1396C134.787 94.1396 134.663 94.1711 134.557 94.2341C134.452 94.2958 134.371 94.3806 134.314 94.4884C134.257 94.5962 134.228 94.7173 134.228 94.8518C134.228 94.9947 134.261 95.1195 134.326 95.226C134.39 95.3314 134.48 95.4132 134.595 95.4713C134.711 95.5282 134.847 95.5567 135.003 95.5567V95.9855C134.763 95.9855 134.553 95.9352 134.372 95.8347C134.191 95.7341 134.05 95.5973 133.949 95.4241C133.847 95.2497 133.797 95.0541 133.797 94.8372C133.797 94.6192 133.847 94.426 133.949 94.2577C134.05 94.0893 134.186 93.9573 134.358 93.8616C134.529 93.7659 134.72 93.7181 134.931 93.7181C135.081 93.7181 135.228 93.7429 135.372 93.7926C135.514 93.841 135.673 93.9258 135.849 94.0469C136.023 94.1668 136.236 94.3334 136.488 94.5466L137.47 95.3823H137.502V93.6527H137.941V96Z" fill="#757474"/>
<path d="M137.997 91.6887C137.997 91.9625 137.915 92.1956 137.751 92.3882C137.586 92.5808 137.347 92.7279 137.035 92.8297C136.721 92.9314 136.341 92.9823 135.897 92.9823C135.455 92.9823 135.078 92.9314 134.765 92.8297C134.451 92.7267 134.211 92.579 134.046 92.3864C133.88 92.1926 133.797 91.96 133.797 91.6887C133.797 91.4174 133.88 91.1855 134.046 90.9929C134.211 90.7991 134.451 90.6513 134.765 90.5496C135.078 90.4466 135.455 90.3952 135.897 90.3952C136.341 90.3952 136.721 90.446 137.035 90.5478C137.347 90.6495 137.586 90.7967 137.751 90.9893C137.915 91.1818 137.997 91.415 137.997 91.6887ZM137.558 91.6887C137.558 91.4174 137.414 91.2067 137.127 91.0565C136.839 90.9063 136.429 90.8312 135.897 90.8312C135.543 90.8312 135.241 90.8657 134.993 90.9347C134.744 91.0026 134.554 91.1007 134.424 91.2291C134.293 91.3562 134.228 91.5095 134.228 91.6887C134.228 91.9576 134.374 92.1678 134.665 92.3192C134.955 92.4706 135.366 92.5463 135.897 92.5463C136.251 92.5463 136.552 92.5123 136.799 92.4445C137.047 92.3767 137.235 92.2792 137.364 92.152C137.493 92.0236 137.558 91.8692 137.558 91.6887Z" fill="#757474"/>
<path d="M137.997 88.4911C137.997 88.7649 137.915 88.998 137.751 89.1906C137.586 89.3832 137.347 89.5304 137.035 89.6321C136.721 89.7338 136.341 89.7847 135.897 89.7847C135.455 89.7847 135.078 89.7338 134.765 89.6321C134.451 89.5291 134.211 89.3814 134.046 89.1888C133.88 88.995 133.797 88.7625 133.797 88.4911C133.797 88.2198 133.88 87.9879 134.046 87.7953C134.211 87.6015 134.451 87.4537 134.765 87.352C135.078 87.2491 135.455 87.1976 135.897 87.1976C136.341 87.1976 136.721 87.2484 137.035 87.3502C137.347 87.4519 137.586 87.5991 137.751 87.7917C137.915 87.9843 137.997 88.2174 137.997 88.4911ZM137.558 88.4911C137.558 88.2198 137.414 88.0091 137.127 87.8589C136.839 87.7087 136.429 87.6336 135.897 87.6336C135.543 87.6336 135.241 87.6681 134.993 87.7372C134.744 87.805 134.554 87.9031 134.424 88.0315C134.293 88.1587 134.228 88.3119 134.228 88.4911C134.228 88.76 134.374 88.9702 134.665 89.1216C134.955 89.273 135.366 89.3487 135.897 89.3487C136.251 89.3487 136.552 89.3148 136.799 89.2469C137.047 89.1791 137.235 89.0816 137.364 88.9544C137.493 88.826 137.558 88.6716 137.558 88.4911Z" fill="#757474"/>
<path d="M137.997 85.2936C137.997 85.5673 137.915 85.8005 137.751 85.993C137.586 86.1856 137.347 86.3328 137.035 86.4345C136.721 86.5363 136.341 86.5871 135.897 86.5871C135.455 86.5871 135.078 86.5363 134.765 86.4345C134.451 86.3316 134.211 86.1838 134.046 85.9912C133.88 85.7974 133.797 85.5649 133.797 85.2936C133.797 85.0223 133.88 84.7903 134.046 84.5977C134.211 84.4039 134.451 84.2562 134.765 84.1544C135.078 84.0515 135.455 84 135.897 84C136.341 84 136.721 84.0509 137.035 84.1526C137.347 84.2544 137.586 84.4015 137.751 84.5941C137.915 84.7867 137.997 85.0198 137.997 85.2936ZM137.558 85.2936C137.558 85.0223 137.414 84.8115 137.127 84.6613C136.839 84.5111 136.429 84.436 135.897 84.436C135.543 84.436 135.241 84.4706 134.993 84.5396C134.744 84.6074 134.554 84.7055 134.424 84.8339C134.293 84.9611 134.228 85.1143 134.228 85.2936C134.228 85.5625 134.374 85.7726 134.665 85.924C134.955 86.0754 135.366 86.1511 135.897 86.1511C136.251 86.1511 136.552 86.1172 136.799 86.0494C137.047 85.9815 137.235 85.884 137.364 85.7569C137.493 85.6285 137.558 85.474 137.558 85.2936Z" fill="#757474"/>
<path d="M136.019 178.377C136.116 178.474 136.274 178.474 136.372 178.377L137.963 176.786C138.061 176.688 138.061 176.53 137.963 176.432C137.865 176.335 137.707 176.335 137.61 176.432L136.195 177.846L134.781 176.432C134.683 176.335 134.525 176.335 134.428 176.432C134.33 176.53 134.33 176.688 134.428 176.786L136.019 178.377ZM135.945 99L135.945 178.2L136.445 178.2L136.445 99L135.945 99Z" fill="#757474"/>
<path d="M136.372 1.62337C136.274 1.52574 136.116 1.52574 136.019 1.62337L134.428 3.21436C134.33 3.312 134.33 3.47028 134.428 3.56792C134.525 3.66554 134.683 3.66554 134.781 3.56792L136.195 2.1537L137.61 3.56792C137.707 3.66554 137.865 3.66554 137.963 3.56792C138.061 3.47028 138.061 3.312 137.963 3.21436L136.372 1.62337ZM136.445 80.4001L136.445 1.80015L135.945 1.80015L135.945 80.4001L136.445 80.4001Z" fill="#757474"/>
</svg>
