<svg width="120" height="120" viewBox="0 0 120 120" fill="none" xmlns="http://www.w3.org/2000/svg">
<rect x="1" y="1.00366" width="118" height="118" rx="3" stroke="black" stroke-width="2"/>
<path d="M2.82322 106.827C2.72559 106.925 2.72559 107.083 2.82322 107.18L4.41421 108.771C4.51184 108.869 4.67014 108.869 4.76777 108.771C4.8654 108.674 4.8654 108.516 4.76777 108.418L3.35355 107.004L4.76777 105.589C4.8654 105.492 4.8654 105.334 4.76777 105.236C4.67014 105.138 4.51184 105.138 4.41421 105.236L2.82322 106.827ZM3 107.254L48 107.254L48 106.754L3 106.754L3 107.254Z" fill="#757474"/>
<path d="M117.177 107.18C117.274 107.083 117.274 106.925 117.177 106.827L115.586 105.236C115.488 105.138 115.33 105.138 115.232 105.236C115.135 105.334 115.135 105.492 115.232 105.589L116.646 107.004L115.232 108.418C115.135 108.516 115.135 108.674 115.232 108.771C115.33 108.869 115.488 108.869 115.586 108.771L117.177 107.18ZM72 107.254L117 107.254L117 106.754L72 106.754L72 107.254Z" fill="#757474"/>
<path d="M54.2657 110.004C53.8186 110.004 53.4237 109.923 53.0808 109.761C52.7401 109.597 52.4742 109.372 52.2833 109.085C52.0923 108.797 51.9979 108.469 52.0001 108.101C51.9979 107.812 52.0532 107.546 52.1661 107.302C52.2789 107.056 52.433 106.851 52.6283 106.687C52.8258 106.52 53.0461 106.415 53.2891 106.371V106.331C52.9701 106.246 52.7162 106.063 52.5274 105.782C52.3386 105.498 52.2453 105.175 52.2475 104.814C52.2453 104.468 52.331 104.158 52.5046 103.885C52.6782 103.613 52.9169 103.397 53.2207 103.24C53.5267 103.082 53.875 103.004 54.2657 103.004C54.6519 103.004 54.997 103.082 55.3008 103.24C55.6046 103.397 55.8433 103.613 56.0169 103.885C56.1927 104.158 56.2817 104.468 56.2839 104.814C56.2817 105.175 56.1851 105.498 55.9941 105.782C55.8053 106.063 55.5547 106.246 55.2422 106.331V106.371C55.4831 106.415 55.7001 106.52 55.8932 106.687C56.0864 106.851 56.2405 107.056 56.3555 107.302C56.4705 107.546 56.5291 107.812 56.5312 108.101C56.5291 108.469 56.4314 108.797 56.2383 109.085C56.0473 109.372 55.7815 109.597 55.4408 109.761C55.1022 109.923 54.7105 110.004 54.2657 110.004ZM54.2657 109.272C54.5673 109.272 54.8277 109.222 55.0469 109.122C55.2661 109.022 55.4353 108.881 55.5547 108.699C55.6741 108.518 55.7348 108.305 55.737 108.061C55.7348 107.803 55.6697 107.576 55.5417 107.379C55.4136 107.181 55.2389 107.026 55.0176 106.913C54.7984 106.8 54.5478 106.743 54.2657 106.743C53.9814 106.743 53.7275 106.8 53.5039 106.913C53.2826 107.026 53.1079 107.181 52.9799 107.379C52.854 107.576 52.7922 107.803 52.7943 108.061C52.7922 108.305 52.8497 108.518 52.9668 108.699C53.0862 108.881 53.2566 109.022 53.4779 109.122C53.6993 109.222 53.9618 109.272 54.2657 109.272ZM54.2657 106.038C54.5044 106.038 54.716 105.989 54.9004 105.891C55.087 105.794 55.2335 105.657 55.3399 105.482C55.4462 105.307 55.5004 105.102 55.5026 104.867C55.5004 104.636 55.4473 104.435 55.3431 104.265C55.2389 104.092 55.0946 103.959 54.9102 103.865C54.7257 103.77 54.5109 103.722 54.2657 103.722C54.0161 103.722 53.798 103.77 53.6114 103.865C53.4247 103.959 53.2804 104.092 53.1784 104.265C53.0764 104.435 53.0265 104.636 53.0287 104.867C53.0265 105.102 53.0775 105.307 53.1817 105.482C53.288 105.657 53.4345 105.794 53.6211 105.891C53.8078 105.989 54.0226 106.038 54.2657 106.038Z" fill="#757474"/>
<path d="M59.9532 110.004C59.4628 110.004 59.045 109.867 58.7 109.594C58.355 109.319 58.0913 108.921 57.909 108.4C57.7267 107.877 57.6356 107.244 57.6356 106.504C57.6356 105.767 57.7267 105.138 57.909 104.617C58.0935 104.094 58.3582 103.695 58.7033 103.42C59.0505 103.142 59.4671 103.004 59.9532 103.004C60.4393 103.004 60.8549 103.142 61.2 103.42C61.5472 103.695 61.8119 104.094 61.9942 104.617C62.1787 105.138 62.2709 105.767 62.2709 106.504C62.2709 107.244 62.1798 107.877 61.9975 108.4C61.8152 108.921 61.5515 109.319 61.2065 109.594C60.8614 109.867 60.4437 110.004 59.9532 110.004ZM59.9532 109.272C60.4393 109.272 60.8169 109.032 61.086 108.553C61.3551 108.074 61.4897 107.391 61.4897 106.504C61.4897 105.914 61.4278 105.411 61.3041 104.997C61.1826 104.582 61.0068 104.266 60.7768 104.048C60.5489 103.831 60.2744 103.722 59.9532 103.722C59.4715 103.722 59.095 103.965 58.8237 104.451C58.5524 104.934 58.4168 105.619 58.4168 106.504C58.4168 107.094 58.4776 107.595 58.5991 108.007C58.7206 108.42 58.8953 108.734 59.1232 108.949C59.3532 109.164 59.6299 109.272 59.9532 109.272Z" fill="#757474"/>
<path d="M65.6823 110.004C65.1919 110.004 64.7741 109.867 64.4291 109.594C64.084 109.319 63.8204 108.921 63.6381 108.4C63.4558 107.877 63.3646 107.244 63.3646 106.504C63.3646 105.767 63.4558 105.138 63.6381 104.617C63.8225 104.094 64.0873 103.695 64.4323 103.42C64.7796 103.142 65.1962 103.004 65.6823 103.004C66.1684 103.004 66.584 103.142 66.9291 103.42C67.2763 103.695 67.541 104.094 67.7233 104.617C67.9078 105.138 68 105.767 68 106.504C68 107.244 67.9089 107.877 67.7266 108.4C67.5443 108.921 67.2806 109.319 66.9356 109.594C66.5905 109.867 66.1728 110.004 65.6823 110.004ZM65.6823 109.272C66.1684 109.272 66.546 109.032 66.8151 108.553C67.0842 108.074 67.2188 107.391 67.2188 106.504C67.2188 105.914 67.1569 105.411 67.0332 104.997C66.9117 104.582 66.7359 104.266 66.5059 104.048C66.278 103.831 66.0035 103.722 65.6823 103.722C65.2006 103.722 64.824 103.965 64.5528 104.451C64.2815 104.934 64.1459 105.619 64.1459 106.504C64.1459 107.094 64.2067 107.595 64.3282 108.007C64.4497 108.42 64.6244 108.734 64.8523 108.949C65.0823 109.164 65.359 109.272 65.6823 109.272Z" fill="#757474"/>
<line x1="2" y1="24.0037" x2="120" y2="24.0037" stroke="black" stroke-width="2"/>
<line x1="10.5" y1="25.0037" x2="10.5" y2="120.004" stroke="black"/>
<line x1="110.5" y1="25.0037" x2="110.5" y2="120.004" stroke="black"/>
<path d="M96.8232 117.18C96.9209 117.278 97.0791 117.278 97.1768 117.18L98.7678 115.589C98.8654 115.492 98.8654 115.334 98.7678 115.236C98.6701 115.138 98.5118 115.138 98.4142 115.236L97 116.65L95.5858 115.236C95.4882 115.138 95.3299 115.138 95.2322 115.236C95.1346 115.334 95.1346 115.492 95.2322 115.589L96.8232 117.18ZM97.25 117.004L97.25 72.0037L96.75 72.0037L96.75 117.004L97.25 117.004Z" fill="#757474"/>
<path d="M97.1768 2.82688C97.0791 2.72925 96.9209 2.72925 96.8232 2.82688L95.2322 4.41787C95.1346 4.51551 95.1346 4.6738 95.2322 4.77143C95.3299 4.86906 95.4882 4.86906 95.5858 4.77143L97 3.35721L98.4142 4.77143C98.5118 4.86906 98.6701 4.86906 98.7678 4.77143C98.8654 4.6738 98.8654 4.51551 98.7678 4.41787L97.1768 2.82688ZM97.25 48.0037L97.25 3.00366L96.75 3.00366L96.75 48.0037L97.25 48.0037Z" fill="#757474"/>
<path d="M100 65.738C100 66.185 99.919 66.58 99.7571 66.9229C99.593 67.2636 99.3679 67.5294 99.0817 67.7204C98.7934 67.9114 98.4651 68.0058 98.097 68.0036C97.8086 68.0058 97.5425 67.9504 97.2985 67.8376C97.0523 67.7247 96.8471 67.5707 96.683 67.3754C96.5166 67.1779 96.4113 66.9576 96.3669 66.7146H96.327C96.2427 67.0336 96.0597 67.2875 95.778 67.4763C95.4941 67.6651 95.1714 67.7584 94.8099 67.7562C94.4639 67.7584 94.1545 67.6727 93.8817 67.4991C93.6088 67.3254 93.3937 67.0867 93.2362 66.7829C93.0787 66.4769 93 66.1286 93 65.738C93 65.3517 93.0787 65.0067 93.2362 64.7029C93.3937 64.3991 93.6088 64.1603 93.8817 63.9867C94.1545 63.811 94.4639 63.722 94.8099 63.7198C95.1714 63.722 95.4941 63.8185 95.778 64.0095C96.0597 64.1983 96.2427 64.449 96.327 64.7615H96.3669C96.4113 64.5206 96.5166 64.3036 96.683 64.1104C96.8471 63.9173 97.0523 63.7632 97.2985 63.6482C97.5425 63.5332 97.8086 63.4746 98.097 63.4724C98.4651 63.4746 98.7934 63.5722 99.0817 63.7654C99.3679 63.9563 99.593 64.2222 99.7571 64.5629C99.919 64.9014 100 65.2931 100 65.738ZM99.2681 65.738C99.2681 65.4364 99.2182 65.1759 99.1183 64.9568C99.0185 64.7376 98.8777 64.5683 98.6958 64.449C98.5139 64.3296 98.301 64.2688 98.057 64.2667C97.7997 64.2688 97.5724 64.3339 97.375 64.462C97.1776 64.59 97.0223 64.7647 96.9092 64.9861C96.7961 65.2052 96.7395 65.4559 96.7395 65.738C96.7395 66.0223 96.7961 66.2762 96.9092 66.4997C97.0223 66.7211 97.1776 66.8958 97.375 67.0238C97.5724 67.1497 97.7997 67.2115 98.057 67.2093C98.301 67.2115 98.5139 67.154 98.6958 67.0368C98.8777 66.9175 99.0185 66.7471 99.1183 66.5258C99.2182 66.3044 99.2681 66.0418 99.2681 65.738ZM96.0342 65.738C96.0342 65.4993 95.9854 65.2877 95.8878 65.1033C95.7902 64.9166 95.6538 64.7701 95.4786 64.6638C95.3034 64.5575 95.0982 64.5032 94.8631 64.501C94.6324 64.5032 94.4317 64.5564 94.2609 64.6605C94.0879 64.7647 93.9548 64.909 93.8617 65.0935C93.7663 65.2779 93.7186 65.4928 93.7186 65.738C93.7186 65.9876 93.7663 66.2057 93.8617 66.3923C93.9548 66.5789 94.0879 66.7232 94.2609 66.8252C94.4317 66.9272 94.6324 66.9771 94.8631 66.975C95.0982 66.9771 95.3034 66.9261 95.4786 66.822C95.6538 66.7156 95.7902 66.5692 95.8878 66.3825C95.9854 66.1959 96.0342 65.9811 96.0342 65.738Z" fill="#757474"/>
<path d="M100 60.0504C100 60.5409 99.8636 60.9586 99.5908 61.3037C99.3157 61.6487 98.9176 61.9124 98.3964 62.0947C97.8729 62.277 97.2408 62.3681 96.5 62.3681C95.7636 62.3681 95.1348 62.277 94.6136 62.0947C94.0901 61.9102 93.6909 61.6455 93.4159 61.3004C93.1386 60.9532 93 60.5365 93 60.0504C93 59.5643 93.1386 59.1487 93.4159 58.8037C93.6909 58.4565 94.0901 58.1917 94.6136 58.0094C95.1348 57.825 95.7636 57.7327 96.5 57.7327C97.2408 57.7327 97.8729 57.8239 98.3964 58.0062C98.9176 58.1885 99.3157 58.4521 99.5908 58.7972C99.8636 59.1422 100 59.56 100 60.0504ZM99.2681 60.0504C99.2681 59.5643 99.0285 59.1867 98.5494 58.9176C98.0703 58.6485 97.3872 58.514 96.5 58.514C95.91 58.514 95.4076 58.5758 94.9929 58.6995C94.5781 58.8211 94.262 58.9968 94.0447 59.2269C93.8273 59.4547 93.7186 59.7292 93.7186 60.0504C93.7186 60.5322 93.9615 60.9087 94.4472 61.18C94.9308 61.4512 95.615 61.5869 96.5 61.5869C97.09 61.5869 97.5913 61.5261 98.0038 61.4046C98.4163 61.283 98.7302 61.1084 98.9453 60.8805C99.1605 60.6505 99.2681 60.3738 99.2681 60.0504Z" fill="#757474"/>
<path d="M100 54.3213C100 54.8118 99.8636 55.2295 99.5908 55.5746C99.3157 55.9196 98.9176 56.1833 98.3964 56.3656C97.8729 56.5479 97.2408 56.639 96.5 56.639C95.7636 56.639 95.1348 56.5479 94.6136 56.3656C94.0901 56.1811 93.6909 55.9164 93.4159 55.5713C93.1386 55.2241 93 54.8074 93 54.3213C93 53.8352 93.1386 53.4197 93.4159 53.0746C93.6909 52.7274 94.0901 52.4626 94.6136 52.2803C95.1348 52.0959 95.7636 52.0037 96.5 52.0037C97.2408 52.0037 97.8729 52.0948 98.3964 52.2771C98.9176 52.4594 99.3157 52.7231 99.5908 53.0681C99.8636 53.4131 100 53.8309 100 54.3213ZM99.2681 54.3213C99.2681 53.8352 99.0285 53.4576 98.5494 53.1885C98.0703 52.9194 97.3872 52.7849 96.5 52.7849C95.91 52.7849 95.4076 52.8467 94.9929 52.9704C94.5781 53.092 94.262 53.2677 94.0447 53.4978C93.8273 53.7256 93.7186 54.0002 93.7186 54.3213C93.7186 54.8031 93.9615 55.1796 94.4472 55.4509C94.9308 55.7221 95.615 55.8578 96.5 55.8578C97.09 55.8578 97.5913 55.797 98.0038 55.6755C98.4163 55.554 98.7302 55.3793 98.9453 55.1514C99.1605 54.9214 99.2681 54.6447 99.2681 54.3213Z" fill="#757474"/>
</svg>
