<svg width="61" height="60" viewBox="0 0 61 60" fill="none" xmlns="http://www.w3.org/2000/svg">
<rect x="1.5" y="1.00366" width="58" height="58" rx="3" stroke="#181818" stroke-width="2"/>
<path d="M58.6768 49.1804C58.7744 49.0828 58.7744 48.9245 58.6768 48.8269L57.0858 47.2359C56.9882 47.1383 56.8299 47.1383 56.7322 47.2359C56.6346 47.3335 56.6346 47.4918 56.7322 47.5894L58.1464 49.0037L56.7322 50.4179C56.6346 50.5155 56.6346 50.6738 56.7322 50.7714C56.8299 50.8691 56.9882 50.8691 57.0858 50.7714L58.6768 49.1804ZM40.5 49.2537L58.5 49.2537L58.5 48.7537L40.5 48.7537L40.5 49.2537Z" fill="#757474"/>
<path d="M2.32322 48.8269C2.22559 48.9245 2.22559 49.0828 2.32322 49.1804L3.91421 50.7714C4.01184 50.8691 4.17014 50.8691 4.26777 50.7714C4.3654 50.6738 4.3654 50.5155 4.26777 50.4179L2.85355 49.0037L4.26777 47.5894C4.3654 47.4918 4.3654 47.3335 4.26777 47.2359C4.17014 47.1383 4.01184 47.1383 3.91421 47.2359L2.32322 48.8269ZM20.5 48.7537H2.5V49.2537H20.5V48.7537Z" fill="#757474"/>
<path d="M22.5 50.646V49.9673L25.383 45.2296H25.8571V46.281H25.5368L23.3585 49.8608V49.914H27.241V50.646H22.5ZM25.588 52.0433V45.2296H26.344V52.0433H25.588Z" fill="#757474"/>
<path d="M30.5813 52.1365C30.0986 52.1365 29.6875 52.0001 29.348 51.7273C29.0084 51.4522 28.749 51.0541 28.5696 50.5329C28.3902 50.0094 28.3005 49.3773 28.3005 48.6365C28.3005 47.9001 28.3902 47.2713 28.5696 46.7501C28.7511 46.2266 29.0116 45.8274 29.3512 45.5523C29.6929 45.2751 30.1029 45.1365 30.5813 45.1365C31.0597 45.1365 31.4686 45.2751 31.8082 45.5523C32.1499 45.8274 32.4104 46.2266 32.5898 46.7501C32.7713 47.2713 32.8621 47.9001 32.8621 48.6365C32.8621 49.3773 32.7724 50.0094 32.593 50.5329C32.4136 51.0541 32.1541 51.4522 31.8146 51.7273C31.475 52.0001 31.0639 52.1365 30.5813 52.1365ZM30.5813 51.4045C31.0597 51.4045 31.4312 51.165 31.6961 50.6859C31.9609 50.2068 32.0933 49.5237 32.0933 48.6365C32.0933 48.0465 32.0324 47.5441 31.9107 47.1293C31.7911 46.7146 31.6181 46.3985 31.3917 46.1812C31.1675 45.9638 30.8974 45.8551 30.5813 45.8551C30.1072 45.8551 29.7367 46.098 29.4697 46.5837C29.2028 47.0672 29.0693 47.7515 29.0693 48.6365C29.0693 49.2265 29.1291 49.7277 29.2487 50.1403C29.3683 50.5528 29.5402 50.8667 29.7644 51.0818C29.9908 51.297 30.2631 51.4045 30.5813 51.4045Z" fill="#757474"/>
<path d="M36.2192 52.1365C35.7366 52.1365 35.3255 52.0001 34.9859 51.7273C34.6464 51.4522 34.3869 51.0541 34.2075 50.5329C34.0281 50.0094 33.9384 49.3773 33.9384 48.6365C33.9384 47.9001 34.0281 47.2713 34.2075 46.7501C34.389 46.2266 34.6496 45.8274 34.9891 45.5523C35.3308 45.2751 35.7408 45.1365 36.2192 45.1365C36.6976 45.1365 37.1065 45.2751 37.4461 45.5523C37.7878 45.8274 38.0483 46.2266 38.2277 46.7501C38.4092 47.2713 38.5 47.9001 38.5 48.6365C38.5 49.3773 38.4103 50.0094 38.2309 50.5329C38.0515 51.0541 37.7921 51.4522 37.4525 51.7273C37.1129 52.0001 36.7018 52.1365 36.2192 52.1365ZM36.2192 51.4045C36.6976 51.4045 37.0692 51.165 37.334 50.6859C37.5988 50.2068 37.7312 49.5237 37.7312 48.6365C37.7312 48.0465 37.6703 47.5441 37.5486 47.1293C37.429 46.7146 37.256 46.3985 37.0297 46.1812C36.8054 45.9638 36.5353 45.8551 36.2192 45.8551C35.7451 45.8551 35.3746 46.098 35.1076 46.5837C34.8407 47.0672 34.7072 47.7515 34.7072 48.6365C34.7072 49.2265 34.767 49.7277 34.8866 50.1403C35.0062 50.5528 35.1781 50.8667 35.4023 51.0818C35.6287 51.297 35.901 51.4045 36.2192 51.4045Z" fill="#757474"/>
<path d="M49.3232 58.1804C49.4209 58.2781 49.5791 58.2781 49.6768 58.1804L51.2678 56.5894C51.3654 56.4918 51.3654 56.3335 51.2678 56.2359C51.1701 56.1383 51.0118 56.1383 50.9142 56.2359L49.5 57.6501L48.0858 56.2359C47.9882 56.1383 47.8299 56.1383 47.7322 56.2359C47.6346 56.3335 47.6346 56.4918 47.7322 56.5894L49.3232 58.1804ZM49.25 40.0037L49.25 58.0037L49.75 58.0037L49.75 40.0037L49.25 40.0037Z" fill="#757474"/>
<path d="M49.6768 1.82689C49.5791 1.72925 49.4209 1.72925 49.3232 1.82689L47.7322 3.41788C47.6346 3.51551 47.6346 3.6738 47.7322 3.77143C47.8299 3.86906 47.9882 3.86906 48.0858 3.77143L49.5 2.35722L50.9142 3.77143C51.0118 3.86906 51.1701 3.86906 51.2678 3.77143C51.3654 3.6738 51.3654 3.51551 51.2678 3.41788L49.6768 1.82689ZM49.75 20.0037L49.75 2.00366L49.25 2.00366L49.25 20.0037L49.75 20.0037Z" fill="#757474"/>
<path d="M50.6384 38.0037H49.9597L45.2221 35.1206V34.6465H46.2734V34.9669L49.8532 37.1452H49.9065V33.2627H50.6384V38.0037ZM52.0358 34.9156H45.2221V34.1596H52.0358V34.9156Z" fill="#757474"/>
<path d="M52.1289 29.9224C52.1289 30.405 51.9925 30.8161 51.7197 31.1557C51.4447 31.4952 51.0465 31.7547 50.5253 31.9341C50.0018 32.1135 49.3697 32.2032 48.6289 32.2032C47.8925 32.2032 47.2637 32.1135 46.7425 31.9341C46.2191 31.7526 45.8198 31.492 45.5448 31.1525C45.2675 30.8108 45.1289 30.4007 45.1289 29.9224C45.1289 29.444 45.2675 29.035 45.5448 28.6955C45.8198 28.3538 46.2191 28.0933 46.7425 27.9139C47.2637 27.7323 47.8925 27.6416 48.6289 27.6416C49.3697 27.6416 50.0018 27.7313 50.5253 27.9107C51.0465 28.0901 51.4447 28.3495 51.7197 28.6891C51.9925 29.0286 52.1289 29.4397 52.1289 29.9224ZM51.397 29.9224C51.397 29.444 51.1574 29.0724 50.6783 28.8076C50.1992 28.5428 49.5161 28.4104 48.6289 28.4104C48.0389 28.4104 47.5365 28.4713 47.1218 28.593C46.707 28.7126 46.3909 28.8856 46.1736 29.1119C45.9562 29.3362 45.8475 29.6063 45.8475 29.9224C45.8475 30.3965 46.0904 30.767 46.5761 31.0339C47.0597 31.3009 47.7439 31.4344 48.6289 31.4344C49.2189 31.4344 49.7202 31.3746 50.1327 31.255C50.5453 31.1354 50.8591 30.9635 51.0742 30.7392C51.2894 30.5129 51.397 30.2406 51.397 29.9224Z" fill="#757474"/>
<path d="M52.1289 24.2845C52.1289 24.7671 51.9925 25.1782 51.7197 25.5178C51.4447 25.8573 51.0465 26.1168 50.5253 26.2962C50.0018 26.4756 49.3697 26.5653 48.6289 26.5653C47.8925 26.5653 47.2637 26.4756 46.7425 26.2962C46.2191 26.1146 45.8198 25.8541 45.5448 25.5145C45.2675 25.1729 45.1289 24.7628 45.1289 24.2845C45.1289 23.8061 45.2675 23.3971 45.5448 23.0576C45.8198 22.7159 46.2191 22.4553 46.7425 22.2759C47.2637 22.0944 47.8925 22.0037 48.6289 22.0037C49.3697 22.0037 50.0018 22.0934 50.5253 22.2727C51.0465 22.4521 51.4447 22.7116 51.7197 23.0512C51.9925 23.3907 52.1289 23.8018 52.1289 24.2845ZM51.397 24.2845C51.397 23.8061 51.1574 23.4345 50.6783 23.1697C50.1992 22.9049 49.5161 22.7725 48.6289 22.7725C48.0389 22.7725 47.5365 22.8333 47.1218 22.9551C46.707 23.0747 46.3909 23.2476 46.1736 23.474C45.9562 23.6982 45.8475 23.9684 45.8475 24.2845C45.8475 24.7586 46.0904 25.1291 46.5761 25.396C47.0597 25.663 47.7439 25.7964 48.6289 25.7964C49.2189 25.7964 49.7202 25.7366 50.1327 25.6171C50.5453 25.4975 50.8591 25.3256 51.0742 25.1013C51.2894 24.8749 51.397 24.6027 51.397 24.2845Z" fill="#757474"/>
</svg>
