<svg width="121" height="123" viewBox="0 0 121 123" fill="none" xmlns="http://www.w3.org/2000/svg">
<rect x="0.318695" y="1.38043" width="59" height="8.00009" rx="3" transform="matrix(0.847099 0.531435 -0.528404 0.848993 27.6551 82.0391)" stroke="#181818" stroke-width="2"/>
<rect x="0.318695" y="1.38043" width="57" height="48.0004" rx="3" transform="matrix(0.847099 0.531435 -0.528404 0.848993 53.6532 42.0391)" stroke="#181818" stroke-width="2"/>
<rect x="1.875" y="1" width="118" height="58" rx="3" fill="white" stroke="#181818" stroke-width="2"/>
<path d="M106.948 57.1768C107.046 57.2744 107.204 57.2744 107.302 57.1768L108.893 55.5858C108.99 55.4882 108.99 55.3299 108.893 55.2322C108.795 55.1346 108.637 55.1346 108.539 55.2322L107.125 56.6464L105.711 55.2322C105.613 55.1346 105.455 55.1346 105.357 55.2322C105.26 55.3299 105.26 55.4882 105.357 55.5858L106.948 57.1768ZM106.875 39L106.875 57L107.375 57L107.375 39L106.875 39Z" fill="#757474"/>
<path d="M107.302 2.82322C107.204 2.72559 107.046 2.72559 106.948 2.82322L105.357 4.41421C105.26 4.51184 105.26 4.67014 105.357 4.76777C105.455 4.8654 105.613 4.8654 105.711 4.76777L107.125 3.35355L108.539 4.76777C108.637 4.8654 108.795 4.8654 108.893 4.76777C108.99 4.67014 108.99 4.51184 108.893 4.41421L107.302 2.82322ZM107.375 21L107.375 3L106.875 3L106.875 21L107.375 21Z" fill="#757474"/>
<path d="M108.635 38H107.956L103.218 35.117V34.6429H104.269V34.9632L107.849 37.1415H107.903V33.259H108.635V38ZM110.032 34.912H103.218V34.156H110.032V34.912Z" fill="#757474"/>
<path d="M110.125 29.9187C110.125 30.4014 109.989 30.8125 109.716 31.152C109.441 31.4916 109.043 31.751 108.521 31.9304C107.998 32.1098 107.366 32.1995 106.625 32.1995C105.889 32.1995 105.26 32.1098 104.739 31.9304C104.215 31.7489 103.816 31.4884 103.541 31.1488C103.264 30.8071 103.125 30.3971 103.125 29.9187C103.125 29.4403 103.264 29.0314 103.541 28.6918C103.816 28.3501 104.215 28.0896 104.739 27.9102C105.26 27.7287 105.889 27.6379 106.625 27.6379C107.366 27.6379 107.998 27.7276 108.521 27.907C109.043 28.0864 109.441 28.3459 109.716 28.6854C109.989 29.025 110.125 29.4361 110.125 29.9187ZM109.393 29.9187C109.393 29.4403 109.154 29.0688 108.674 28.8039C108.195 28.5391 107.512 28.4067 106.625 28.4067C106.035 28.4067 105.533 28.4676 105.118 28.5893C104.703 28.7089 104.387 28.8819 104.17 29.1083C103.952 29.3325 103.844 29.6026 103.844 29.9187C103.844 30.3928 104.087 30.7633 104.572 31.0303C105.056 31.2972 105.74 31.4307 106.625 31.4307C107.215 31.4307 107.716 31.3709 108.129 31.2513C108.541 31.1317 108.855 30.9598 109.07 30.7356C109.285 30.5092 109.393 30.2369 109.393 29.9187Z" fill="#757474"/>
<path d="M110.125 24.2808C110.125 24.7634 109.989 25.1745 109.716 25.5141C109.441 25.8536 109.043 26.1131 108.521 26.2925C107.998 26.4719 107.366 26.5616 106.625 26.5616C105.889 26.5616 105.26 26.4719 104.739 26.2925C104.215 26.111 103.816 25.8504 103.541 25.5109C103.264 25.1692 103.125 24.7592 103.125 24.2808C103.125 23.8024 103.264 23.3935 103.541 23.0539C103.816 22.7122 104.215 22.4517 104.739 22.2723C105.26 22.0908 105.889 22 106.625 22C107.366 22 107.998 22.0897 108.521 22.2691C109.043 22.4485 109.441 22.7079 109.716 23.0475C109.989 23.3871 110.125 23.7982 110.125 24.2808ZM109.393 24.2808C109.393 23.8024 109.154 23.4308 108.674 23.166C108.195 22.9012 107.512 22.7688 106.625 22.7688C106.035 22.7688 105.533 22.8297 105.118 22.9514C104.703 23.071 104.387 23.244 104.17 23.4703C103.952 23.6946 103.844 23.9647 103.844 24.2808C103.844 24.7549 104.087 25.1254 104.572 25.3924C105.056 25.6593 105.74 25.7928 106.625 25.7928C107.215 25.7928 107.716 25.733 108.129 25.6134C108.541 25.4938 108.855 25.3219 109.07 25.0977C109.285 24.8713 109.393 24.599 109.393 24.2808Z" fill="#757474"/>
<path d="M2.94822 46.8232C2.85059 46.9209 2.85059 47.0791 2.94822 47.1768L4.53921 48.7678C4.63684 48.8654 4.79514 48.8654 4.89277 48.7678C4.9904 48.6701 4.9904 48.5118 4.89277 48.4142L3.47855 47L4.89277 45.5858C4.9904 45.4882 4.9904 45.3299 4.89277 45.2322C4.79514 45.1346 4.63684 45.1346 4.53921 45.2322L2.94822 46.8232ZM3.125 47.25L48.125 47.25L48.125 46.75L3.125 46.75L3.125 47.25Z" fill="#757474"/>
<path d="M117.302 47.1768C117.399 47.0791 117.399 46.9209 117.302 46.8232L115.711 45.2322C115.613 45.1346 115.455 45.1346 115.357 45.2322C115.26 45.3299 115.26 45.4882 115.357 45.5858L116.771 47L115.357 48.4142C115.26 48.5118 115.26 48.6701 115.357 48.7678C115.455 48.8654 115.613 48.8654 115.711 48.7678L117.302 47.1768ZM72.125 47.25L117.125 47.25L117.125 46.75L72.125 46.75L72.125 47.25Z" fill="#757474"/>
<path d="M54.3907 50C53.9436 50 53.5487 49.919 53.2058 49.7571C52.8651 49.593 52.5992 49.3679 52.4083 49.0817C52.2173 48.7934 52.1229 48.4651 52.1251 48.097C52.1229 47.8086 52.1782 47.5425 52.2911 47.2985C52.4039 47.0523 52.558 46.8471 52.7533 46.683C52.9508 46.5166 53.1711 46.4113 53.4141 46.3669V46.327C53.0951 46.2427 52.8412 46.0597 52.6524 45.778C52.4636 45.4941 52.3703 45.1714 52.3725 44.8099C52.3703 44.4639 52.456 44.1545 52.6296 43.8817C52.8032 43.6088 53.0419 43.3937 53.3457 43.2362C53.6517 43.0787 54 43 54.3907 43C54.7769 43 55.122 43.0787 55.4258 43.2362C55.7296 43.3937 55.9683 43.6088 56.1419 43.8817C56.3177 44.1545 56.4067 44.4639 56.4089 44.8099C56.4067 45.1714 56.3101 45.4941 56.1191 45.778C55.9303 46.0597 55.6797 46.2427 55.3672 46.327V46.3669C55.6081 46.4113 55.8251 46.5166 56.0182 46.683C56.2114 46.8471 56.3655 47.0523 56.4805 47.2985C56.5955 47.5425 56.6541 47.8086 56.6562 48.097C56.6541 48.4651 56.5564 48.7934 56.3633 49.0817C56.1723 49.3679 55.9065 49.593 55.5658 49.7571C55.2272 49.919 54.8355 50 54.3907 50ZM54.3907 49.2681C54.6923 49.2681 54.9527 49.2182 55.1719 49.1183C55.3911 49.0185 55.5603 48.8777 55.6797 48.6958C55.7991 48.5139 55.8598 48.301 55.862 48.057C55.8598 47.7997 55.7947 47.5724 55.6667 47.375C55.5386 47.1776 55.3639 47.0223 55.1426 46.9092C54.9234 46.7961 54.6728 46.7395 54.3907 46.7395C54.1064 46.7395 53.8525 46.7961 53.6289 46.9092C53.4076 47.0223 53.2329 47.1776 53.1049 47.375C52.979 47.5724 52.9172 47.7997 52.9193 48.057C52.9172 48.301 52.9747 48.5139 53.0918 48.6958C53.2112 48.8777 53.3816 49.0185 53.6029 49.1183C53.8243 49.2182 54.0868 49.2681 54.3907 49.2681ZM54.3907 46.0342C54.6294 46.0342 54.841 45.9854 55.0254 45.8878C55.212 45.7902 55.3585 45.6538 55.4649 45.4786C55.5712 45.3034 55.6254 45.0982 55.6276 44.8631C55.6254 44.6324 55.5723 44.4317 55.4681 44.2609C55.3639 44.0879 55.2196 43.9548 55.0352 43.8617C54.8507 43.7663 54.6359 43.7186 54.3907 43.7186C54.1411 43.7186 53.923 43.7663 53.7364 43.8617C53.5497 43.9548 53.4054 44.0879 53.3034 44.2609C53.2014 44.4317 53.1515 44.6324 53.1537 44.8631C53.1515 45.0982 53.2025 45.3034 53.3067 45.4786C53.413 45.6538 53.5595 45.7902 53.7461 45.8878C53.9328 45.9854 54.1476 46.0342 54.3907 46.0342Z" fill="#757474"/>
<path d="M60.0782 50C59.5878 50 59.17 49.8636 58.825 49.5908C58.48 49.3157 58.2163 48.9176 58.034 48.3964C57.8517 47.8729 57.7606 47.2408 57.7606 46.5C57.7606 45.7636 57.8517 45.1348 58.034 44.6136C58.2185 44.0901 58.4832 43.6909 58.8283 43.4159C59.1755 43.1386 59.5921 43 60.0782 43C60.5643 43 60.9799 43.1386 61.325 43.4159C61.6722 43.6909 61.9369 44.0901 62.1192 44.6136C62.3037 45.1348 62.3959 45.7636 62.3959 46.5C62.3959 47.2408 62.3048 47.8729 62.1225 48.3964C61.9402 48.9176 61.6765 49.3157 61.3315 49.5908C60.9864 49.8636 60.5687 50 60.0782 50ZM60.0782 49.2681C60.5643 49.2681 60.9419 49.0285 61.211 48.5494C61.4801 48.0703 61.6147 47.3872 61.6147 46.5C61.6147 45.91 61.5528 45.4076 61.4291 44.9929C61.3076 44.5781 61.1318 44.262 60.9018 44.0447C60.6739 43.8273 60.3994 43.7186 60.0782 43.7186C59.5965 43.7186 59.22 43.9615 58.9487 44.4472C58.6774 44.9308 58.5418 45.615 58.5418 46.5C58.5418 47.09 58.6026 47.5913 58.7241 48.0038C58.8456 48.4163 59.0203 48.7302 59.2482 48.9453C59.4782 49.1605 59.7549 49.2681 60.0782 49.2681Z" fill="#757474"/>
<path d="M65.8073 50C65.3169 50 64.8991 49.8636 64.5541 49.5908C64.209 49.3157 63.9454 48.9176 63.7631 48.3964C63.5808 47.8729 63.4896 47.2408 63.4896 46.5C63.4896 45.7636 63.5808 45.1348 63.7631 44.6136C63.9475 44.0901 64.2123 43.6909 64.5573 43.4159C64.9046 43.1386 65.3212 43 65.8073 43C66.2934 43 66.709 43.1386 67.0541 43.4159C67.4013 43.6909 67.666 44.0901 67.8483 44.6136C68.0328 45.1348 68.125 45.7636 68.125 46.5C68.125 47.2408 68.0339 47.8729 67.8516 48.3964C67.6693 48.9176 67.4056 49.3157 67.0606 49.5908C66.7155 49.8636 66.2978 50 65.8073 50ZM65.8073 49.2681C66.2934 49.2681 66.671 49.0285 66.9401 48.5494C67.2092 48.0703 67.3438 47.3872 67.3438 46.5C67.3438 45.91 67.2819 45.4076 67.1582 44.9929C67.0367 44.5781 66.8609 44.262 66.6309 44.0447C66.403 43.8273 66.1285 43.7186 65.8073 43.7186C65.3256 43.7186 64.949 43.9615 64.6778 44.4472C64.4065 44.9308 64.2709 45.615 64.2709 46.5C64.2709 47.09 64.3317 47.5913 64.4532 48.0038C64.5747 48.4163 64.7494 48.7302 64.9773 48.9453C65.2073 49.1605 65.484 49.2681 65.8073 49.2681Z" fill="#757474"/>
<path d="M9.94822 119.177C10.0459 119.274 10.2041 119.274 10.3018 119.177L11.8928 117.586C11.9904 117.488 11.9904 117.33 11.8928 117.232C11.7951 117.135 11.6368 117.135 11.5392 117.232L10.125 118.646L8.71079 117.232C8.61316 117.135 8.45486 117.135 8.35723 117.232C8.2596 117.33 8.2596 117.488 8.35723 117.586L9.94822 119.177ZM10.375 119L10.375 94L9.875 94L9.875 119L10.375 119Z" fill="#757474"/>
<path d="M10.3018 3.82321C10.2041 3.72559 10.0459 3.72559 9.94823 3.82321L8.35724 5.4142C8.2596 5.51183 8.2596 5.67013 8.35724 5.76776C8.45487 5.86539 8.61316 5.86539 8.71079 5.76776L10.125 4.35355L11.5392 5.76776C11.6368 5.86539 11.7951 5.86539 11.8928 5.76776C11.9904 5.67013 11.9904 5.51183 11.8928 5.4142L10.3018 3.82321ZM10.375 69L10.375 3.99999L9.875 3.99999L9.875 69L10.375 69Z" fill="#757474"/>
<path d="M13.125 86.7343C13.125 87.1814 13.044 87.5763 12.8821 87.9192C12.718 88.2599 12.4929 88.5258 12.2067 88.7167C11.9184 88.9077 11.5901 89.0021 11.222 88.9999C10.9336 89.0021 10.6675 88.9468 10.4235 88.8339C10.1773 88.7211 9.97212 88.567 9.80799 88.3717C9.64164 88.1742 9.53628 87.9539 9.49192 87.7109H9.452C9.36771 88.0299 9.18473 88.2838 8.90304 88.4726C8.61914 88.6614 8.29642 88.7547 7.93489 88.7525C7.58888 88.7547 7.27947 88.669 7.00665 88.4954C6.73384 88.3218 6.51869 88.0831 6.36122 87.7793C6.20374 87.4733 6.125 87.125 6.125 86.7343C6.125 86.3481 6.20374 86.003 6.36122 85.6992C6.51869 85.3954 6.73384 85.1567 7.00665 84.9831C7.27947 84.8073 7.58888 84.7183 7.93489 84.7161C8.29642 84.7183 8.61914 84.8149 8.90304 85.0059C9.18473 85.1947 9.36771 85.4453 9.452 85.7578H9.49192C9.53628 85.5169 9.64164 85.2999 9.80799 85.1068C9.97212 84.9136 10.1773 84.7595 10.4235 84.6445C10.6675 84.5295 10.9336 84.4709 11.222 84.4688C11.5901 84.4709 11.9184 84.5686 12.2067 84.7617C12.4929 84.9527 12.718 85.2185 12.8821 85.5592C13.044 85.8978 13.125 86.2895 13.125 86.7343ZM12.3931 86.7343C12.3931 86.4327 12.3432 86.1723 12.2433 85.9531C12.1435 85.7339 12.0027 85.5647 11.8208 85.4453C11.6389 85.3259 11.426 85.2652 11.182 85.263C10.9247 85.2652 10.6974 85.3303 10.5 85.4583C10.3026 85.5864 10.1473 85.7611 10.0342 85.9824C9.9211 86.2016 9.86454 86.4522 9.86454 86.7343C9.86454 87.0186 9.9211 87.2725 10.0342 87.4961C10.1473 87.7174 10.3026 87.8921 10.5 88.0201C10.6974 88.146 10.9247 88.2078 11.182 88.2057C11.426 88.2078 11.6389 88.1503 11.8208 88.0332C12.0027 87.9138 12.1435 87.7434 12.2433 87.5221C12.3432 87.3007 12.3931 87.0382 12.3931 86.7343ZM9.15922 86.7343C9.15922 86.4956 9.11042 86.284 9.01283 86.0996C8.91524 85.913 8.77883 85.7665 8.60361 85.6601C8.42839 85.5538 8.22323 85.4996 7.98812 85.4974C7.75745 85.4996 7.55672 85.5527 7.38593 85.6569C7.21293 85.7611 7.07985 85.9054 6.98669 86.0898C6.89132 86.2743 6.84363 86.4891 6.84363 86.7343C6.84363 86.9839 6.89132 87.202 6.98669 87.3886C7.07985 87.5753 7.21293 87.7196 7.38593 87.8216C7.55672 87.9236 7.75745 87.9735 7.98812 87.9713C8.22323 87.9735 8.42839 87.9225 8.60361 87.8183C8.77883 87.712 8.91524 87.5655 9.01283 87.3789C9.11042 87.1922 9.15922 86.9774 9.15922 86.7343Z" fill="#757474"/>
<path d="M13.125 81.0468C13.125 81.5372 12.9886 81.955 12.7158 82.3C12.4407 82.645 12.0426 82.9087 11.5214 83.091C10.9979 83.2733 10.3658 83.3644 9.625 83.3644C8.88863 83.3644 8.25982 83.2733 7.73859 83.091C7.21515 82.9065 6.81591 82.6418 6.54087 82.2967C6.26362 81.9495 6.125 81.5329 6.125 81.0468C6.125 80.5607 6.26362 80.1451 6.54087 79.8C6.81591 79.4528 7.21515 79.1881 7.73859 79.0058C8.25982 78.8213 8.88863 78.7291 9.625 78.7291C10.3658 78.7291 10.9979 78.8202 11.5214 79.0025C12.0426 79.1848 12.4407 79.4485 12.7158 79.7935C12.9886 80.1386 13.125 80.5563 13.125 81.0468ZM12.3931 81.0468C12.3931 80.5607 12.1535 80.1831 11.6744 79.914C11.1953 79.6449 10.5122 79.5103 9.625 79.5103C9.03501 79.5103 8.53264 79.5722 8.11787 79.6959C7.70311 79.8174 7.38704 79.9932 7.16968 80.2232C6.95231 80.4511 6.84363 80.7256 6.84363 81.0468C6.84363 81.5285 7.0865 81.905 7.57224 82.1763C8.05577 82.4476 8.74002 82.5832 9.625 82.5832C10.215 82.5832 10.7163 82.5224 11.1288 82.4009C11.5413 82.2794 11.8552 82.1047 12.0703 81.8768C12.2855 81.6468 12.3931 81.3701 12.3931 81.0468Z" fill="#757474"/>
<path d="M13.125 75.3177C13.125 75.8081 12.9886 76.2259 12.7158 76.5709C12.4407 76.916 12.0426 77.1796 11.5214 77.3619C10.9979 77.5442 10.3658 77.6354 9.625 77.6354C8.88863 77.6354 8.25982 77.5442 7.73859 77.3619C7.21515 77.1775 6.81591 76.9127 6.54087 76.5677C6.26362 76.2204 6.125 75.8038 6.125 75.3177C6.125 74.8316 6.26362 74.416 6.54087 74.0709C6.81591 73.7237 7.21515 73.459 7.73859 73.2767C8.25982 73.0922 8.88863 73 9.625 73C10.3658 73 10.9979 73.0911 11.5214 73.2734C12.0426 73.4557 12.4407 73.7194 12.7158 74.0644C12.9886 74.4095 13.125 74.8272 13.125 75.3177ZM12.3931 75.3177C12.3931 74.8316 12.1535 74.454 11.6744 74.1849C11.1953 73.9158 10.5122 73.7812 9.625 73.7812C9.03501 73.7812 8.53264 73.8431 8.11787 73.9668C7.70311 74.0883 7.38704 74.2641 7.16968 74.4941C6.95231 74.722 6.84363 74.9965 6.84363 75.3177C6.84363 75.7994 7.0865 76.176 7.57224 76.4472C8.05577 76.7185 8.74002 76.8541 9.625 76.8541C10.215 76.8541 10.7163 76.7933 11.1288 76.6718C11.5413 76.5503 11.8552 76.3756 12.0703 76.1477C12.2855 75.9177 12.3931 75.641 12.3931 75.3177Z" fill="#757474"/>
<line x1="0.125" y1="120.75" x2="120.125" y2="120.75" stroke="#757474" stroke-width="0.5" stroke-dasharray="2 2"/>
</svg>
