<svg width="135" height="75" viewBox="0 0 135 75" fill="none" xmlns="http://www.w3.org/2000/svg">
<rect x="1" y="1.00366" width="133" height="73" rx="3" stroke="#181818" stroke-width="2"/>
<rect x="1" y="70.0037" width="133" height="4" rx="2" fill="#F2F2F2" stroke="#181818" stroke-width="2"/>
<path d="M2.82322 62.8269C2.72559 62.9245 2.72559 63.0828 2.82322 63.1804L4.41421 64.7714C4.51184 64.8691 4.67014 64.8691 4.76777 64.7714C4.8654 64.6738 4.8654 64.5155 4.76777 64.4179L3.35355 63.0037L4.76777 61.5894C4.8654 61.4918 4.8654 61.3335 4.76777 61.2359C4.67014 61.1383 4.51184 61.1383 4.41421 61.2359L2.82322 62.8269ZM3 63.2537L53 63.2537L53 62.7537L3 62.7537L3 63.2537Z" fill="#757474"/>
<path d="M132.177 63.1804C132.274 63.0828 132.274 62.9245 132.177 62.8269L130.586 61.2359C130.488 61.1383 130.33 61.1383 130.232 61.2359C130.135 61.3335 130.135 61.4918 130.232 61.5894L131.646 63.0037L130.232 64.4179C130.135 64.5155 130.135 64.6738 130.232 64.7714C130.33 64.8691 130.488 64.8691 130.586 64.7714L132.177 63.1804ZM82 63.2537L132 63.2537L132 62.7537L82 62.7537L82 63.2537Z" fill="#757474"/>
<path d="M61.2202 58.004C61.4929 58.0062 61.7655 58.0594 62.0382 58.1637C62.3108 58.2679 62.5597 58.4409 62.7848 58.6827C63.0098 58.9222 63.1905 59.2493 63.3268 59.6641C63.4632 60.0788 63.5313 60.5989 63.5313 61.2244C63.5313 61.8298 63.4751 62.3677 63.3625 62.8379C63.2522 63.3059 63.092 63.7006 62.8821 64.0222C62.6744 64.3438 62.4212 64.5878 62.1226 64.7541C61.8261 64.9205 61.4907 65.0037 61.1163 65.0037C60.7441 65.0037 60.412 64.9283 60.1198 64.7774C59.8299 64.6244 59.5918 64.4126 59.4057 64.142C59.2218 63.8692 59.1039 63.5532 59.0519 63.1939H59.8439C59.9154 63.5066 60.0571 63.765 60.2692 63.969C60.4834 64.1708 60.7658 64.2718 61.1163 64.2718C61.6292 64.2718 62.0339 64.0422 62.3303 63.5831C62.6289 63.124 62.7783 62.4753 62.7783 61.6369H62.7263C62.6051 61.8232 62.4612 61.984 62.2946 62.1193C62.128 62.2546 61.943 62.3588 61.7396 62.432C61.5362 62.5052 61.3198 62.5418 61.0904 62.5418C60.7095 62.5418 60.36 62.4453 60.0419 62.2524C59.726 62.0572 59.4728 61.7899 59.2824 61.4506C59.0941 61.109 59 60.7187 59 60.2795C59 59.8626 59.0909 59.4811 59.2727 59.1351C59.4566 58.7869 59.7141 58.5097 60.0452 58.3034C60.3784 58.0971 60.7701 57.9973 61.2202 58.004ZM61.2202 58.7359C60.9476 58.7359 60.7019 58.8057 60.4834 58.9455C60.267 59.083 60.095 59.2693 59.9673 59.5044C59.8418 59.7373 59.779 59.9956 59.779 60.2795C59.779 60.5634 59.8396 60.8218 59.9608 61.0547C60.0841 61.2854 60.2518 61.4694 60.4639 61.607C60.6781 61.7422 60.9216 61.8099 61.1942 61.8099C61.3998 61.8099 61.5913 61.7689 61.7688 61.6868C61.9462 61.6025 62.1009 61.4883 62.2329 61.3441C62.3671 61.1977 62.4721 61.0325 62.5478 60.8484C62.6235 60.6621 62.6614 60.4681 62.6614 60.2662C62.6614 60.0001 62.5987 59.7506 62.4731 59.5177C62.3498 59.2848 62.1788 59.0963 61.9603 58.9521C61.7439 58.808 61.4972 58.7359 61.2202 58.7359Z" fill="#757474"/>
<path d="M66.9761 65.0037C66.487 65.0037 66.0704 64.8673 65.7264 64.5945C65.3823 64.3194 65.1194 63.9213 64.9376 63.4001C64.7558 62.8767 64.665 62.2446 64.665 61.5038C64.665 60.7675 64.7558 60.1387 64.9376 59.6175C65.1216 59.0941 65.3856 58.6948 65.7296 58.4198C66.0759 58.1426 66.4913 58.004 66.9761 58.004C67.4608 58.004 67.8752 58.1426 68.2193 58.4198C68.5655 58.6948 68.8295 59.0941 69.0113 59.6175C69.1952 60.1387 69.2872 60.7675 69.2872 61.5038C69.2872 62.2446 69.1963 62.8767 69.0145 63.4001C68.8327 63.9213 68.5698 64.3194 68.2257 64.5945C67.8817 64.8673 67.4651 65.0037 66.9761 65.0037ZM66.9761 64.2718C67.4608 64.2718 67.8373 64.0322 68.1056 63.5532C68.374 63.0741 68.5081 62.391 68.5081 61.5038C68.5081 60.9139 68.4465 60.4115 68.3231 59.9968C68.2019 59.582 68.0267 59.266 67.7973 59.0486C67.5701 58.8313 67.2963 58.7226 66.9761 58.7226C66.4957 58.7226 66.1202 58.9654 65.8497 59.4512C65.5792 59.9347 65.444 60.6189 65.444 61.5038C65.444 62.0938 65.5046 62.595 65.6258 63.0076C65.7469 63.4201 65.9211 63.7339 66.1483 63.9491C66.3777 64.1642 66.6536 64.2718 66.9761 64.2718Z" fill="#757474"/>
<path d="M72.6889 65.0037C72.1998 65.0037 71.7833 64.8673 71.4392 64.5945C71.0951 64.3194 70.8322 63.9213 70.6505 63.4001C70.4687 62.8767 70.3778 62.2446 70.3778 61.5038C70.3778 60.7675 70.4687 60.1387 70.6505 59.6175C70.8344 59.0941 71.0984 58.6948 71.4425 58.4198C71.7887 58.1426 72.2042 58.004 72.6889 58.004C73.1736 58.004 73.588 58.1426 73.9321 58.4198C74.2783 58.6948 74.5423 59.0941 74.7241 59.6175C74.908 60.1387 75 60.7675 75 61.5038C75 62.2446 74.9091 62.8767 74.7273 63.4001C74.5456 63.9213 74.2826 64.3194 73.9386 64.5945C73.5945 64.8673 73.178 65.0037 72.6889 65.0037ZM72.6889 64.2718C73.1736 64.2718 73.5502 64.0322 73.8185 63.5532C74.0868 63.0741 74.221 62.391 74.221 61.5038C74.221 60.9139 74.1593 60.4115 74.036 59.9968C73.9148 59.582 73.7395 59.266 73.5101 59.0486C73.2829 58.8313 73.0092 58.7226 72.6889 58.7226C72.2085 58.7226 71.8331 58.9654 71.5626 59.4512C71.2921 59.9347 71.1568 60.6189 71.1568 61.5038C71.1568 62.0938 71.2174 62.595 71.3386 63.0076C71.4598 63.4201 71.634 63.7339 71.8612 63.9491C72.0906 64.1642 72.3665 64.2718 72.6889 64.2718Z" fill="#757474"/>
<path d="M121.823 68.1804C121.921 68.2781 122.079 68.2781 122.177 68.1804L123.768 66.5894C123.865 66.4918 123.865 66.3335 123.768 66.2359C123.67 66.1383 123.512 66.1383 123.414 66.2359L122 67.6501L120.586 66.2359C120.488 66.1383 120.33 66.1383 120.232 66.2359C120.135 66.3335 120.135 66.4918 120.232 66.5894L121.823 68.1804ZM121.75 46.0037L121.75 68.0037L122.25 68.0037L122.25 46.0037L121.75 46.0037Z" fill="#757474"/>
<path d="M122.177 2.82689C122.079 2.72925 121.921 2.72925 121.823 2.82689L120.232 4.41788C120.135 4.51551 120.135 4.6738 120.232 4.77143C120.33 4.86906 120.488 4.86906 120.586 4.77143L122 3.35722L123.414 4.77143C123.512 4.86906 123.67 4.86906 123.768 4.77143C123.865 4.6738 123.865 4.51551 123.768 4.41788L122.177 2.82689ZM122.25 25.0037L122.25 3.00366L121.75 3.00366L121.75 25.0037L122.25 25.0037Z" fill="#757474"/>
<path d="M125 41.9052C125 42.2923 124.922 42.641 124.767 42.9511C124.612 43.2613 124.399 43.5098 124.128 43.6968C123.858 43.8838 123.549 43.9861 123.203 44.0037V43.2118C123.512 43.181 123.767 43.0424 123.969 42.7961C124.168 42.5475 124.268 42.2505 124.268 41.9052C124.268 41.628 124.203 41.3817 124.072 41.1661C123.941 40.9483 123.761 40.7779 123.533 40.6547C123.302 40.5293 123.042 40.4666 122.751 40.4666C122.454 40.4666 122.189 40.5315 121.956 40.6613C121.721 40.7889 121.535 40.9648 121.4 41.1892C121.265 41.4136 121.196 41.6698 121.194 41.958C121.192 42.1648 121.224 42.377 121.29 42.5948C121.355 42.8126 121.438 42.9918 121.54 43.1326L121.447 43.8981L118.093 43.4889V39.9783H118.825V42.8027L120.835 43.0402V43.0006C120.724 42.862 120.632 42.6883 120.558 42.4793C120.485 42.2703 120.449 42.0526 120.449 41.826C120.449 41.4125 120.548 41.044 120.748 40.7207C120.946 40.3951 121.216 40.14 121.56 39.9552C121.904 39.7682 122.296 39.6747 122.738 39.6747C123.172 39.6747 123.561 39.7715 123.902 39.9651C124.241 40.1565 124.51 40.4204 124.707 40.757C124.902 41.0935 125 41.4763 125 41.9052Z" fill="#757474"/>
<path d="M125 36.16C125 36.6571 124.864 37.0805 124.591 37.4303C124.316 37.78 123.918 38.0473 123.396 38.232C122.873 38.4168 122.241 38.5092 121.5 38.5092C120.764 38.5092 120.135 38.4168 119.614 38.232C119.09 38.0451 118.691 37.7767 118.416 37.427C118.139 37.075 118 36.6527 118 36.16C118 35.6673 118.139 35.246 118.416 34.8963C118.691 34.5443 119.09 34.276 119.614 34.0912C120.135 33.9042 120.764 33.8107 121.5 33.8107C122.241 33.8107 122.873 33.9031 123.396 34.0879C123.918 34.2727 124.316 34.5399 124.591 34.8897C124.864 35.2394 125 35.6629 125 36.16ZM124.268 36.16C124.268 35.6673 124.029 35.2845 123.549 35.0118C123.07 34.739 122.387 34.6026 121.5 34.6026C120.91 34.6026 120.408 34.6653 119.993 34.7907C119.578 34.9139 119.262 35.092 119.045 35.3252C118.827 35.5562 118.719 35.8344 118.719 36.16C118.719 36.6483 118.962 37.0299 119.447 37.3049C119.931 37.5799 120.615 37.7173 121.5 37.7173C122.09 37.7173 122.591 37.6557 123.004 37.5326C123.416 37.4094 123.73 37.2323 123.945 37.0013C124.16 36.7682 124.268 36.4877 124.268 36.16Z" fill="#757474"/>
<path d="M125 30.3529C125 30.85 124.864 31.2734 124.591 31.6232C124.316 31.9729 123.918 32.2402 123.396 32.425C122.873 32.6097 122.241 32.7021 121.5 32.7021C120.764 32.7021 120.135 32.6097 119.614 32.425C119.09 32.238 118.691 31.9696 118.416 31.6199C118.139 31.2679 118 30.8456 118 30.3529C118 29.8602 118.139 29.4389 118.416 29.0892C118.691 28.7372 119.09 28.4689 119.614 28.2841C120.135 28.0971 120.764 28.0037 121.5 28.0037C122.241 28.0037 122.873 28.096 123.396 28.2808C123.918 28.4656 124.316 28.7328 124.591 29.0826C124.864 29.4323 125 29.8558 125 30.3529ZM124.268 30.3529C124.268 29.8602 124.029 29.4774 123.549 29.2047C123.07 28.9319 122.387 28.7955 121.5 28.7955C120.91 28.7955 120.408 28.8582 119.993 28.9836C119.578 29.1068 119.262 29.285 119.045 29.5181C118.827 29.7491 118.719 30.0273 118.719 30.3529C118.719 30.8412 118.962 31.2229 119.447 31.4978C119.931 31.7728 120.615 31.9102 121.5 31.9102C122.09 31.9102 122.591 31.8487 123.004 31.7255C123.416 31.6023 123.73 31.4252 123.945 31.1943C124.16 30.9611 124.268 30.6806 124.268 30.3529Z" fill="#757474"/>
</svg>
