<svg width="180" height="135" viewBox="0 0 180 135" fill="none" xmlns="http://www.w3.org/2000/svg">
<rect x="1" y="1.00183" width="178" height="133" rx="3" stroke="#181818" stroke-width="2"/>
<path d="M2.82322 99.8251C2.72559 99.9227 2.72559 100.081 2.82322 100.179L4.41421 101.77C4.51184 101.867 4.67014 101.867 4.76777 101.77C4.8654 101.672 4.8654 101.514 4.76777 101.416L3.35355 100.002L4.76777 98.5876C4.8654 98.49 4.8654 98.3317 4.76777 98.2341C4.67014 98.1364 4.51184 98.1364 4.41421 98.2341L2.82322 99.8251ZM3 100.252L103 100.252L103 99.7518L3 99.7518L3 100.252Z" fill="#757474"/>
<path d="M177.177 100.179C177.274 100.081 177.274 99.9227 177.177 99.8251L175.586 98.2341C175.488 98.1364 175.33 98.1364 175.232 98.2341C175.135 98.3317 175.135 98.49 175.232 98.5876L176.646 100.002L175.232 101.416C175.135 101.514 175.135 101.672 175.232 101.77C175.33 101.867 175.488 101.867 175.586 101.77L177.177 100.179ZM127 100.252L177 100.252L177 99.7518L127 99.7518L127 100.252Z" fill="#757474"/>
<path d="M107.454 96.095V102.909H106.653V96.96H106.614L105 98.0646V97.2262L106.653 96.095H107.454Z" fill="#757474"/>
<path d="M109.356 102.909V102.31L111.539 99.8478C111.795 99.5595 112.006 99.3089 112.171 99.0959C112.337 98.8808 112.46 98.679 112.54 98.4904C112.621 98.2997 112.662 98.1001 112.662 97.8916C112.662 97.652 112.606 97.4446 112.494 97.2694C112.385 97.0942 112.234 96.9589 112.042 96.8635C111.851 96.7681 111.635 96.7205 111.397 96.7205C111.143 96.7205 110.921 96.7748 110.731 96.8835C110.544 96.9899 110.399 97.1397 110.295 97.3326C110.194 97.5256 110.144 97.7518 110.144 98.0113H109.382C109.382 97.6121 109.471 97.2617 109.65 96.96C109.828 96.6584 110.072 96.4233 110.379 96.2547C110.689 96.0861 111.037 96.0018 111.422 96.0018C111.81 96.0018 112.153 96.0861 112.452 96.2547C112.752 96.4233 112.986 96.6506 113.156 96.9367C113.326 97.2228 113.411 97.5411 113.411 97.8916C113.411 98.1422 113.367 98.3873 113.279 98.6268C113.193 98.8642 113.042 99.1292 112.827 99.422C112.614 99.7125 112.318 100.067 111.939 100.487L110.454 102.124V102.177H113.528V102.909H109.356Z" fill="#757474"/>
<path d="M117.018 103.002C116.532 103.002 116.117 102.865 115.775 102.593C115.433 102.318 115.171 101.919 114.99 101.398C114.809 100.875 114.719 100.243 114.719 99.5018C114.719 98.7655 114.809 98.1367 114.99 97.6154C115.173 97.092 115.436 96.6927 115.778 96.4177C116.123 96.1405 116.536 96.0018 117.018 96.0018C117.5 96.0018 117.912 96.1405 118.255 96.4177C118.599 96.6927 118.862 97.092 119.043 97.6154C119.226 98.1367 119.317 98.7655 119.317 99.5018C119.317 100.243 119.227 100.875 119.046 101.398C118.865 101.919 118.603 102.318 118.261 102.593C117.919 102.865 117.505 103.002 117.018 103.002ZM117.018 102.27C117.5 102.27 117.875 102.03 118.142 101.551C118.409 101.072 118.542 100.389 118.542 99.5018C118.542 98.9118 118.481 98.4095 118.358 97.9947C118.238 97.5799 118.063 97.2639 117.835 97.0465C117.609 96.8291 117.337 96.7205 117.018 96.7205C116.54 96.7205 116.167 96.9633 115.898 97.4491C115.629 97.9326 115.494 98.6169 115.494 99.5018C115.494 100.092 115.554 100.593 115.675 101.006C115.795 101.418 115.969 101.732 116.195 101.947C116.423 102.162 116.697 102.27 117.018 102.27Z" fill="#757474"/>
<path d="M122.701 103.002C122.215 103.002 121.8 102.865 121.458 102.593C121.116 102.318 120.854 101.919 120.673 101.398C120.492 100.875 120.402 100.243 120.402 99.5018C120.402 98.7655 120.492 98.1367 120.673 97.6154C120.856 97.092 121.119 96.6927 121.461 96.4177C121.806 96.1405 122.219 96.0018 122.701 96.0018C123.183 96.0018 123.595 96.1405 123.938 96.4177C124.282 96.6927 124.545 97.092 124.726 97.6154C124.909 98.1367 125 98.7655 125 99.5018C125 100.243 124.91 100.875 124.729 101.398C124.548 101.919 124.286 102.318 123.944 102.593C123.602 102.865 123.187 103.002 122.701 103.002ZM122.701 102.27C123.183 102.27 123.558 102.03 123.825 101.551C124.092 101.072 124.225 100.389 124.225 99.5018C124.225 98.9118 124.164 98.4095 124.041 97.9947C123.92 97.5799 123.746 97.2639 123.518 97.0465C123.292 96.8291 123.02 96.7205 122.701 96.7205C122.223 96.7205 121.85 96.9633 121.581 97.4491C121.311 97.9326 121.177 98.6169 121.177 99.5018C121.177 100.092 121.237 100.593 121.358 101.006C121.478 101.418 121.652 101.732 121.878 101.947C122.106 102.162 122.38 102.27 122.701 102.27Z" fill="#757474"/>
<rect x="18.5" y="36.5018" width="37" height="56" rx="3.5" stroke="#181818"/>
<line x1="72" y1="135.004" x2="72" y2="1.52588e-05" stroke="#181818"/>
<line x1="79.5027" y1="133.95" x2="93.5027" y2="0.949551" stroke="#181818"/>
<path d="M142.823 132.179C142.921 132.276 143.079 132.276 143.177 132.179L144.768 130.588C144.865 130.49 144.865 130.332 144.768 130.234C144.67 130.136 144.512 130.136 144.414 130.234L143 131.648L141.586 130.234C141.488 130.136 141.33 130.136 141.232 130.234C141.135 130.332 141.135 130.49 141.232 130.588L142.823 132.179ZM143.25 132.002L143.25 82.0019L142.75 82.0019L142.75 132.002L143.25 132.002Z" fill="#757474"/>
<path d="M143.177 2.82517C143.079 2.72754 142.921 2.72754 142.823 2.82517L141.232 4.41617C141.135 4.5138 141.135 4.67209 141.232 4.76972C141.33 4.86735 141.488 4.86735 141.586 4.76972L143 3.3555L144.414 4.76972C144.512 4.86735 144.67 4.86735 144.768 4.76972C144.865 4.67209 144.865 4.5138 144.768 4.41616L143.177 2.82517ZM143.25 53.002L143.25 3.00195L142.75 3.00195L142.75 53.002L143.25 53.002Z" fill="#757474"/>
<path d="M138 73.7817C138.003 73.5091 138.056 73.2364 138.16 72.9638C138.264 72.6911 138.437 72.4423 138.679 72.2172C138.919 71.9921 139.246 71.8115 139.66 71.6751C140.075 71.5388 140.595 71.4706 141.221 71.4706C141.826 71.4706 142.364 71.5269 142.834 71.6394C143.302 71.7498 143.697 71.9099 144.019 72.1198C144.34 72.3276 144.584 72.5807 144.75 72.8794C144.917 73.1758 145 73.5112 145 73.8856C145 74.2578 144.925 74.59 144.774 74.8821C144.621 75.1721 144.409 75.4101 144.138 75.5962C143.866 75.7801 143.549 75.8981 143.19 75.95V75.158C143.503 75.0866 143.761 74.9449 143.965 74.7328C144.167 74.5186 144.268 74.2362 144.268 73.8856C144.268 73.3727 144.039 72.9681 143.579 72.6716C143.12 72.373 142.472 72.2237 141.633 72.2237V72.2756C141.82 72.3968 141.98 72.5407 142.116 72.7073C142.251 72.874 142.355 73.059 142.428 73.2624C142.502 73.4658 142.538 73.6822 142.538 73.9116C142.538 74.2924 142.442 74.6419 142.249 74.96C142.054 75.2759 141.786 75.5291 141.447 75.7196C141.105 75.9078 140.715 76.002 140.276 76.002C139.859 76.002 139.477 75.9111 139.131 75.7293C138.783 75.5454 138.506 75.2878 138.3 74.9568C138.093 74.6235 137.994 74.2318 138 73.7817ZM138.732 73.7817C138.732 74.0544 138.802 74.3 138.942 74.5186C139.079 74.735 139.266 74.907 139.501 75.0347C139.734 75.1602 139.992 75.2229 140.276 75.2229C140.56 75.2229 140.818 75.1623 141.051 75.0412C141.282 74.9178 141.466 74.7501 141.603 74.538C141.739 74.3238 141.806 74.0804 141.806 73.8077C141.806 73.6021 141.765 73.4106 141.683 73.2332C141.599 73.0557 141.485 72.901 141.34 72.769C141.194 72.6348 141.029 72.5299 140.845 72.4542C140.658 72.3784 140.464 72.3405 140.263 72.3405C139.996 72.3405 139.747 72.4033 139.514 72.5288C139.281 72.6522 139.093 72.8231 138.948 73.0417C138.804 73.2581 138.732 73.5048 138.732 73.7817Z" fill="#757474"/>
<path d="M145 68.0259C145 68.5149 144.864 68.9315 144.591 69.2756C144.316 69.6196 143.918 69.8826 143.396 70.0643C142.873 70.2461 142.241 70.337 141.5 70.337C140.764 70.337 140.135 70.2461 139.614 70.0643C139.09 69.8804 138.691 69.6164 138.416 69.2723C138.139 68.9261 138 68.5106 138 68.0259C138 67.5412 138.139 67.1268 138.416 66.7827C138.691 66.4365 139.09 66.1725 139.614 65.9907C140.135 65.8068 140.764 65.7148 141.5 65.7148C142.241 65.7148 142.873 65.8057 143.396 65.9874C143.918 66.1692 144.316 66.4321 144.591 66.7762C144.864 67.1203 145 67.5368 145 68.0259ZM144.268 68.0259C144.268 67.5412 144.029 67.1646 143.549 66.8963C143.07 66.628 142.387 66.4938 141.5 66.4938C140.91 66.4938 140.408 66.5555 139.993 66.6788C139.578 66.8 139.262 66.9753 139.045 67.2047C138.828 67.4319 138.719 67.7056 138.719 68.0259C138.719 68.5063 138.962 68.8817 139.447 69.1522C139.931 69.4227 140.615 69.558 141.5 69.558C142.09 69.558 142.591 69.4974 143.004 69.3762C143.416 69.255 143.73 69.0808 143.945 68.8536C144.161 68.6242 144.268 68.3483 144.268 68.0259Z" fill="#757474"/>
<path d="M145 62.3131C145 62.8021 144.864 63.2187 144.591 63.5627C144.316 63.9068 143.918 64.1697 143.396 64.3515C142.873 64.5333 142.241 64.6242 141.5 64.6242C140.764 64.6242 140.135 64.5333 139.614 64.3515C139.09 64.1676 138.691 63.9036 138.416 63.5595C138.139 63.2133 138 62.7978 138 62.3131C138 61.8283 138.139 61.4139 138.416 61.0699C138.691 60.7236 139.09 60.4596 139.614 60.2779C140.135 60.0939 140.764 60.002 141.5 60.002C142.241 60.002 142.873 60.0928 143.396 60.2746C143.918 60.4564 144.316 60.7193 144.591 61.0634C144.864 61.4074 145 61.824 145 62.3131ZM144.268 62.3131C144.268 61.8283 144.029 61.4518 143.549 61.1835C143.07 60.9151 142.387 60.781 141.5 60.781C140.91 60.781 140.408 60.8426 139.993 60.966C139.578 61.0872 139.262 61.2625 139.045 61.4918C138.828 61.7191 138.719 61.9928 138.719 62.3131C138.719 62.7935 138.962 63.1689 139.447 63.4394C139.931 63.7099 140.615 63.8451 141.5 63.8451C142.09 63.8451 142.591 63.7845 143.004 63.6634C143.416 63.5422 143.73 63.368 143.945 63.1408C144.161 62.9114 144.268 62.6355 144.268 62.3131Z" fill="#757474"/>
</svg>
