<svg width="182" height="152" viewBox="0 0 182 152" fill="none" xmlns="http://www.w3.org/2000/svg">
<rect x="0.318464" y="1.37942" width="59" height="8.00009" rx="3" transform="matrix(0.847488 0.530815 -0.529024 0.848607 54.1533 111.04)" stroke="#181818" stroke-width="2"/>
<rect x="0.318464" y="1.37942" width="57" height="48.0004" rx="3" transform="matrix(0.847488 0.530815 -0.529024 0.848607 80.1533 71.04)" stroke="#181818" stroke-width="2"/>
<rect x="2.375" y="1" width="178" height="88" rx="3" fill="none" stroke="#181818" stroke-width="2"/>
<path d="M3.44822 76.8232C3.35059 76.9209 3.35059 77.0791 3.44822 77.1768L5.03921 78.7678C5.13684 78.8654 5.29514 78.8654 5.39277 78.7678C5.4904 78.6701 5.4904 78.5118 5.39277 78.4142L3.97855 77L5.39277 75.5858C5.4904 75.4882 5.4904 75.3299 5.39277 75.2322C5.29514 75.1346 5.13684 75.1346 5.03921 75.2322L3.44822 76.8232ZM3.625 77.25L73.625 77.25L73.625 76.75L3.625 76.75L3.625 77.25Z" fill="#757474"/>
<path d="M177.802 77.1768C177.899 77.0791 177.899 76.9208 177.802 76.8232L176.211 75.2322C176.113 75.1346 175.955 75.1346 175.857 75.2322C175.76 75.3299 175.76 75.4881 175.857 75.5858L177.271 77L175.857 78.4142C175.76 78.5118 175.76 78.6701 175.857 78.7678C175.955 78.8654 176.113 78.8654 176.211 78.7678L177.802 77.1768ZM107.625 77.25L177.625 77.25L177.625 76.75L107.625 76.75L107.625 77.25Z" fill="#757474"/>
<path d="M83.079 73.0932V79.9068H82.2782V73.9582H82.2395L80.625 75.0627V74.2243L82.2782 73.0932H83.079Z" fill="#757474"/>
<path d="M84.9808 79.9068V79.308L87.1636 76.846C87.4197 76.5577 87.6307 76.307 87.7965 76.0941C87.9622 75.879 88.0849 75.6771 88.1646 75.4886C88.2464 75.2978 88.2873 75.0982 88.2873 74.8897C88.2873 74.6502 88.2313 74.4428 88.1193 74.2676C88.0096 74.0924 87.8589 73.9571 87.6673 73.8617C87.4757 73.7663 87.2605 73.7186 87.0215 73.7186C86.7675 73.7186 86.5458 73.773 86.3564 73.8817C86.1691 73.9881 86.0238 74.1378 85.9204 74.3308C85.8193 74.5238 85.7687 74.75 85.7687 75.0095H85.0067C85.0067 74.6103 85.096 74.2598 85.2747 73.9582C85.4533 73.6565 85.6966 73.4214 86.0044 73.2529C86.3144 73.0843 86.662 73 87.0473 73C87.4348 73 87.7782 73.0843 88.0774 73.2529C88.3766 73.4214 88.6112 73.6488 88.7813 73.9349C88.9513 74.221 89.0364 74.5393 89.0364 74.8897C89.0364 75.1404 88.9922 75.3855 88.904 75.625C88.8179 75.8623 88.6672 76.1274 88.4519 76.4202C88.2388 76.7107 87.9428 77.0656 87.564 77.4848L86.0787 79.1217V79.1749H89.1526V79.9068H84.9808Z" fill="#757474"/>
<path d="M92.6431 80C92.1566 80 91.7422 79.8636 91.3999 79.5908C91.0577 79.3157 90.7961 78.9176 90.6153 78.3964C90.4345 77.8729 90.3441 77.2408 90.3441 76.5C90.3441 75.7636 90.4345 75.1348 90.6153 74.6136C90.7983 74.0901 91.0609 73.6909 91.4032 73.4159C91.7476 73.1386 92.1609 73 92.6431 73C93.1253 73 93.5375 73.1386 93.8798 73.4159C94.2242 73.6909 94.4868 74.0901 94.6676 74.6136C94.8506 75.1348 94.9421 75.7636 94.9421 76.5C94.9421 77.2408 94.8517 77.8729 94.6709 78.3964C94.49 78.9176 94.2285 79.3157 93.8862 79.5908C93.544 79.8636 93.1296 80 92.6431 80ZM92.6431 79.2681C93.1253 79.2681 93.4998 79.0285 93.7668 78.5494C94.0337 78.0703 94.1671 77.3872 94.1671 76.5C94.1671 75.91 94.1058 75.4076 93.9831 74.9929C93.8625 74.5781 93.6882 74.262 93.46 74.0447C93.234 73.8273 92.9617 73.7186 92.6431 73.7186C92.1652 73.7186 91.7917 73.9615 91.5226 74.4472C91.2536 74.9308 91.119 75.615 91.119 76.5C91.119 77.09 91.1793 77.5913 91.2998 78.0038C91.4204 78.4163 91.5937 78.7302 91.8197 78.9453C92.0479 79.1605 92.3223 79.2681 92.6431 79.2681Z" fill="#757474"/>
<path d="M98.326 80C97.8395 80 97.4251 79.8636 97.0829 79.5908C96.7406 79.3157 96.4791 78.9176 96.2982 78.3964C96.1174 77.8729 96.027 77.2408 96.027 76.5C96.027 75.7636 96.1174 75.1348 96.2982 74.6136C96.4812 74.0901 96.7438 73.6909 97.0861 73.4159C97.4305 73.1386 97.8438 73 98.326 73C98.8082 73 99.2204 73.1386 99.5627 73.4159C99.9071 73.6909 100.17 74.0901 100.351 74.6136C100.534 75.1348 100.625 75.7636 100.625 76.5C100.625 77.2408 100.535 77.8729 100.354 78.3964C100.173 78.9176 99.9114 79.3157 99.5691 79.5908C99.2269 79.8636 98.8125 80 98.326 80ZM98.326 79.2681C98.8082 79.2681 99.1827 79.0285 99.4497 78.5494C99.7166 78.0703 99.8501 77.3872 99.8501 76.5C99.8501 75.91 99.7887 75.4076 99.666 74.9929C99.5455 74.5781 99.3711 74.262 99.1429 74.0447C98.9169 73.8273 98.6446 73.7186 98.326 73.7186C97.8481 73.7186 97.4746 73.9615 97.2056 74.4472C96.9365 74.9308 96.8019 75.615 96.8019 76.5C96.8019 77.09 96.8622 77.5913 96.9828 78.0038C97.1033 78.4163 97.2766 78.7302 97.5026 78.9453C97.7308 79.1605 98.0053 79.2681 98.326 79.2681Z" fill="#757474"/>
<path d="M168.448 87.1768C168.546 87.2744 168.704 87.2744 168.802 87.1768L170.393 85.5858C170.49 85.4882 170.49 85.3299 170.393 85.2322C170.295 85.1346 170.137 85.1346 170.039 85.2322L168.625 86.6464L167.211 85.2322C167.113 85.1346 166.955 85.1346 166.857 85.2322C166.76 85.3299 166.76 85.4882 166.857 85.5858L168.448 87.1768ZM168.375 57L168.375 87L168.875 87L168.875 57L168.375 57Z" fill="#757474"/>
<path d="M168.802 2.82323C168.704 2.72559 168.546 2.72559 168.448 2.82323L166.857 4.41422C166.76 4.51185 166.76 4.67014 166.857 4.76777C166.955 4.8654 167.113 4.8654 167.211 4.76777L168.625 3.35356L170.039 4.76777C170.137 4.8654 170.295 4.8654 170.393 4.76777C170.49 4.67014 170.49 4.51185 170.393 4.41422L168.802 2.82323ZM168.875 33V3H168.375V33H168.875Z" fill="#757474"/>
<path d="M170.625 51.6889C170.62 51.9616 170.567 52.2342 170.465 52.5069C170.363 52.7795 170.191 53.0284 169.949 53.2534C169.706 53.4785 169.376 53.6592 168.961 53.7955C168.544 53.9318 168.021 54 167.391 54C166.788 54 166.253 53.9448 165.788 53.8345C165.32 53.7241 164.926 53.564 164.606 53.3541C164.285 53.1442 164.041 52.891 163.875 52.5945C163.708 52.2959 163.625 51.9594 163.625 51.585C163.625 51.2128 163.702 50.8817 163.855 50.5918C164.005 50.2996 164.216 50.0616 164.487 49.8777C164.757 49.6937 165.069 49.5747 165.422 49.5206V50.3126C165.115 50.3862 164.862 50.529 164.66 50.7411C164.458 50.9532 164.357 51.2345 164.357 51.585C164.357 52.1001 164.586 52.5058 165.046 52.8023C165.505 53.0965 166.149 53.2448 166.979 53.2469V53.195C166.79 53.0738 166.629 52.9299 166.496 52.7633C166.361 52.5945 166.257 52.4084 166.183 52.205C166.11 52.0016 166.074 51.7863 166.074 51.5591C166.074 51.1782 166.171 50.8298 166.366 50.5139C166.559 50.1979 166.827 49.9448 167.168 49.7543C167.508 49.5639 167.897 49.4687 168.336 49.4687C168.757 49.4687 169.143 49.5606 169.494 49.7446C169.842 49.9285 170.119 50.1871 170.325 50.5204C170.529 50.8514 170.629 51.241 170.625 51.6889ZM169.893 51.6889C169.893 51.4162 169.823 51.1717 169.683 50.9553C169.544 50.7368 169.356 50.5647 169.121 50.4392C168.886 50.3115 168.624 50.2477 168.336 50.2477C168.054 50.2477 167.798 50.3094 167.567 50.4327C167.335 50.5539 167.149 50.7216 167.012 50.9358C166.874 51.1479 166.806 51.3903 166.806 51.6629C166.806 51.8685 166.848 52.06 166.932 52.2375C167.014 52.4149 167.127 52.5707 167.271 52.7049C167.415 52.8369 167.581 52.9407 167.767 53.0165C167.951 53.0922 168.145 53.1301 168.349 53.1301C168.62 53.1301 168.873 53.0684 169.108 52.9451C169.343 52.8196 169.533 52.6486 169.677 52.4322C169.821 52.2137 169.893 51.9659 169.893 51.6889Z" fill="#757474"/>
<path d="M170.625 46.0239C170.625 46.513 170.488 46.9296 170.216 47.2736C169.941 47.6177 169.542 47.8806 169.021 48.0624C168.498 48.2442 167.866 48.335 167.125 48.335C166.389 48.335 165.76 48.2442 165.239 48.0624C164.715 47.8784 164.316 47.6144 164.041 47.2704C163.764 46.9241 163.625 46.5087 163.625 46.0239C163.625 45.5392 163.764 45.1248 164.041 44.7807C164.316 44.4345 164.715 44.1705 165.239 43.9887C165.76 43.8048 166.389 43.7128 167.125 43.7128C167.866 43.7128 168.498 43.8037 169.021 43.9855C169.542 44.1673 169.941 44.4302 170.216 44.7743C170.488 45.1183 170.625 45.5349 170.625 46.0239ZM169.893 46.0239C169.893 45.5392 169.653 45.1627 169.174 44.8944C168.695 44.626 168.012 44.4919 167.125 44.4919C166.535 44.4919 166.033 44.5535 165.618 44.6769C165.203 44.7981 164.887 44.9733 164.67 45.2027C164.452 45.4299 164.344 45.7037 164.344 46.0239C164.344 46.5043 164.586 46.8798 165.072 47.1503C165.556 47.4208 166.24 47.556 167.125 47.556C167.715 47.556 168.216 47.4954 168.629 47.3742C169.041 47.2531 169.355 47.0789 169.57 46.8517C169.785 46.6223 169.893 46.3464 169.893 46.0239Z" fill="#757474"/>
<path d="M170.625 40.3111C170.625 40.8002 170.488 41.2167 170.216 41.5608C169.941 41.9049 169.542 42.1678 169.021 42.3495C168.498 42.5313 167.866 42.6222 167.125 42.6222C166.389 42.6222 165.76 42.5313 165.239 42.3495C164.715 42.1656 164.316 41.9016 164.041 41.5575C163.764 41.2113 163.625 40.7958 163.625 40.3111C163.625 39.8264 163.764 39.412 164.041 39.0679C164.316 38.7217 164.715 38.4577 165.239 38.2759C165.76 38.092 166.389 38 167.125 38C167.866 38 168.498 38.0909 169.021 38.2727C169.542 38.4544 169.941 38.7174 170.216 39.0614C170.488 39.4055 170.625 39.822 170.625 40.3111ZM169.893 40.3111C169.893 39.8264 169.653 39.4498 169.174 39.1815C168.695 38.9132 168.012 38.779 167.125 38.779C166.535 38.779 166.033 38.8407 165.618 38.964C165.203 39.0852 164.887 39.2605 164.67 39.4899C164.452 39.7171 164.344 39.9908 164.344 40.3111C164.344 40.7915 164.586 41.1669 165.072 41.4374C165.556 41.7079 166.24 41.8432 167.125 41.8432C167.715 41.8432 168.216 41.7826 168.629 41.6614C169.041 41.5402 169.355 41.366 169.57 41.1388C169.785 40.9094 169.893 40.6335 169.893 40.3111Z" fill="#757474"/>
<path d="M15.8018 2.82323C15.7041 2.72559 15.5459 2.72559 15.4482 2.82323L13.8572 4.41422C13.7596 4.51185 13.7596 4.67014 13.8572 4.76777C13.9549 4.86539 14.1132 4.86539 14.2108 4.76777L15.625 3.35355L17.0392 4.76777C17.1368 4.86539 17.2951 4.86539 17.3928 4.76777C17.4904 4.67014 17.4904 4.51185 17.3928 4.41422L15.8018 2.82323ZM15.875 98L15.875 3L15.375 3L15.375 98L15.875 98Z" fill="#757474"/>
<path d="M15.4482 150.177C15.5459 150.274 15.7041 150.274 15.8018 150.177L17.3928 148.586C17.4904 148.488 17.4904 148.33 17.3928 148.232C17.2951 148.135 17.1368 148.135 17.0392 148.232L15.625 149.646L14.2108 148.232C14.1132 148.135 13.9549 148.135 13.8572 148.232C13.7596 148.33 13.7596 148.488 13.8572 148.586L15.4482 150.177ZM15.375 125L15.375 150L15.875 150L15.875 125L15.375 125Z" fill="#757474"/>
<path d="M10.7182 120.568H17.5318V121.361H11.5832V121.4L12.6877 123H11.8493L10.7182 121.361V120.568Z" fill="#757474"/>
<path d="M17.625 116.545C17.625 117.027 17.4886 117.438 17.2158 117.777C16.9407 118.116 16.5426 118.375 16.0214 118.554C15.4979 118.734 14.8658 118.823 14.125 118.823C13.3886 118.823 12.7598 118.734 12.2386 118.554C11.7151 118.373 11.3159 118.113 11.0409 117.774C10.7636 117.432 10.625 117.023 10.625 116.545C10.625 116.067 10.7636 115.658 11.0409 115.319C11.3159 114.977 11.7151 114.717 12.2386 114.538C12.7598 114.356 13.3886 114.266 14.125 114.266C14.8658 114.266 15.4979 114.355 16.0214 114.535C16.5426 114.714 16.9407 114.973 17.2158 115.312C17.4886 115.652 17.625 116.062 17.625 116.545ZM16.8931 116.545C16.8931 116.067 16.6535 115.695 16.1744 115.431C15.6953 115.166 15.0122 115.034 14.125 115.034C13.535 115.034 13.0326 115.095 12.6179 115.216C12.2031 115.336 11.887 115.509 11.6697 115.735C11.4523 115.959 11.3436 116.229 11.3436 116.545C11.3436 117.018 11.5865 117.388 12.0722 117.655C12.5558 117.922 13.24 118.055 14.125 118.055C14.715 118.055 15.2163 117.995 15.6288 117.876C16.0413 117.756 16.3552 117.585 16.5703 117.361C16.7855 117.135 16.8931 116.862 16.8931 116.545Z" fill="#757474"/>
<path d="M17.625 110.912C17.625 111.394 17.4886 111.805 17.2158 112.144C16.9407 112.483 16.5426 112.742 16.0214 112.922C15.4979 113.101 14.8658 113.19 14.125 113.19C13.3886 113.19 12.7598 113.101 12.2386 112.922C11.7151 112.74 11.3159 112.48 11.0409 112.141C10.7636 111.799 10.625 111.39 10.625 110.912C10.625 110.434 10.7636 110.025 11.0409 109.686C11.3159 109.344 11.7151 109.084 12.2386 108.905C12.7598 108.724 13.3886 108.633 14.125 108.633C14.8658 108.633 15.4979 108.723 16.0214 108.902C16.5426 109.081 16.9407 109.34 17.2158 109.679C17.4886 110.019 17.625 110.429 17.625 110.912ZM16.8931 110.912C16.8931 110.434 16.6535 110.062 16.1744 109.798C15.6953 109.533 15.0122 109.401 14.125 109.401C13.535 109.401 13.0326 109.462 12.6179 109.583C12.2031 109.703 11.887 109.876 11.6697 110.102C11.4523 110.326 11.3436 110.596 11.3436 110.912C11.3436 111.385 11.5865 111.756 12.0722 112.022C12.5558 112.289 13.24 112.422 14.125 112.422C14.715 112.422 15.2163 112.363 15.6288 112.243C16.0413 112.124 16.3552 111.952 16.5703 111.728C16.7855 111.502 16.8931 111.23 16.8931 110.912Z" fill="#757474"/>
<path d="M17.625 105.279C17.625 105.761 17.4886 106.172 17.2158 106.511C16.9407 106.85 16.5426 107.109 16.0214 107.289C15.4979 107.468 14.8658 107.558 14.125 107.558C13.3886 107.558 12.7598 107.468 12.2386 107.289C11.7151 107.107 11.3159 106.847 11.0409 106.508C10.7636 106.166 10.625 105.757 10.625 105.279C10.625 104.801 10.7636 104.392 11.0409 104.053C11.3159 103.712 11.7151 103.451 12.2386 103.272C12.7598 103.091 13.3886 103 14.125 103C14.8658 103 15.4979 103.09 16.0214 103.269C16.5426 103.448 16.9407 103.707 17.2158 104.047C17.4886 104.386 17.625 104.797 17.625 105.279ZM16.8931 105.279C16.8931 104.801 16.6535 104.43 16.1744 104.165C15.6953 103.9 15.0122 103.768 14.125 103.768C13.535 103.768 13.0326 103.829 12.6179 103.951C12.2031 104.07 11.887 104.243 11.6697 104.469C11.4523 104.693 11.3436 104.963 11.3436 105.279C11.3436 105.752 11.5865 106.123 12.0722 106.389C12.5558 106.656 13.24 106.789 14.125 106.789C14.715 106.789 15.2163 106.73 15.6288 106.61C16.0413 106.491 16.3552 106.319 16.5703 106.095C16.7855 105.869 16.8931 105.597 16.8931 105.279Z" fill="#757474"/>
<line x1="0.625" y1="150.75" x2="180.625" y2="150.75" stroke="#757474" stroke-width="0.5" stroke-dasharray="2 2"/>
</svg>
