<svg width="136" height="123" viewBox="0 0 136 123" fill="none" xmlns="http://www.w3.org/2000/svg">
<rect x="0.317557" y="1.3755" width="59" height="8" rx="3" transform="matrix(0.848994 0.528403 -0.531436 0.847098 31.6539 82.0425)" stroke="#181818" stroke-width="2"/>
<rect x="0.317557" y="1.3755" width="57" height="48" rx="3" transform="matrix(0.848994 0.528403 -0.531436 0.847098 58.6539 42.0425)" stroke="#181818" stroke-width="2"/>
<rect x="1.875" y="1" width="133" height="58" rx="3" fill="white" stroke="#181818" stroke-width="2"/>
<path d="M2.94822 47.8232C2.85059 47.9209 2.85059 48.0791 2.94822 48.1768L4.53921 49.7678C4.63684 49.8654 4.79514 49.8654 4.89277 49.7678C4.9904 49.6701 4.9904 49.5118 4.89277 49.4142L3.47855 48L4.89277 46.5858C4.9904 46.4882 4.9904 46.3299 4.89277 46.2322C4.79514 46.1346 4.63684 46.1346 4.53921 46.2322L2.94822 47.8232ZM3.125 48.25L53.125 48.25L53.125 47.75L3.125 47.75L3.125 48.25Z" fill="#757474"/>
<path d="M132.302 48.1768C132.399 48.0791 132.399 47.9208 132.302 47.8232L130.711 46.2322C130.613 46.1346 130.455 46.1346 130.357 46.2322C130.26 46.3299 130.26 46.4882 130.357 46.5858L131.771 48L130.357 49.4142C130.26 49.5118 130.26 49.6701 130.357 49.7678C130.455 49.8654 130.613 49.8654 130.711 49.7678L132.302 48.1768ZM82.125 48.25L132.125 48.25L132.125 47.75L82.125 47.75L82.125 48.25Z" fill="#757474"/>
<path d="M63.3452 43.0003C63.6179 43.0025 63.8905 43.0558 64.1632 43.16C64.4358 43.2642 64.6847 43.4372 64.9098 43.679C65.1348 43.9185 65.3155 44.2457 65.4518 44.6604C65.5882 45.0752 65.6563 45.5953 65.6563 46.2207C65.6563 46.8262 65.6001 47.364 65.4875 47.8342C65.3772 48.3022 65.217 48.697 65.0071 49.0186C64.7994 49.3402 64.5462 49.5841 64.2476 49.7505C63.9511 49.9168 63.6157 50 63.2413 50C62.8691 50 62.537 49.9246 62.2448 49.7738C61.9549 49.6207 61.7168 49.4089 61.5307 49.1383C61.3468 48.8655 61.2289 48.5495 61.1769 48.1902H61.9689C62.0404 48.5029 62.1821 48.7613 62.3942 48.9654C62.6084 49.1672 62.8908 49.2681 63.2413 49.2681C63.7542 49.2681 64.1589 49.0385 64.4553 48.5794C64.7539 48.1203 64.9033 47.4716 64.9033 46.6332H64.8513C64.7301 46.8195 64.5862 46.9803 64.4196 47.1156C64.253 47.2509 64.068 47.3552 63.8646 47.4283C63.6612 47.5015 63.4448 47.5381 63.2154 47.5381C62.8345 47.5381 62.485 47.4417 62.1669 47.2487C61.851 47.0535 61.5978 46.7863 61.4074 46.4469C61.2191 46.1054 61.125 45.715 61.125 45.2759C61.125 44.8589 61.2159 44.4774 61.3977 44.1314C61.5816 43.7832 61.8391 43.506 62.1702 43.2997C62.5034 43.0935 62.8951 42.9937 63.3452 43.0003ZM63.3452 43.7322C63.0726 43.7322 62.8269 43.8021 62.6084 43.9418C62.392 44.0793 62.22 44.2656 62.0923 44.5007C61.9668 44.7336 61.904 44.992 61.904 45.2759C61.904 45.5598 61.9646 45.8182 62.0858 46.051C62.2091 46.2817 62.3768 46.4658 62.5889 46.6033C62.8031 46.7386 63.0466 46.8062 63.3192 46.8062C63.5248 46.8062 63.7163 46.7652 63.8938 46.6831C64.0712 46.5989 64.2259 46.4846 64.3579 46.3405C64.4921 46.1941 64.5971 46.0289 64.6728 45.8448C64.7485 45.6585 64.7864 45.4644 64.7864 45.2626C64.7864 44.9964 64.7237 44.7469 64.5981 44.514C64.4748 44.2811 64.3038 44.0926 64.0853 43.9485C63.8689 43.8043 63.6222 43.7322 63.3452 43.7322Z" fill="#757474"/>
<path d="M69.1011 50C68.612 50 68.1954 49.8636 67.8514 49.5908C67.5073 49.3158 67.2444 48.9177 67.0626 48.3965C66.8808 47.873 66.79 47.2409 66.79 46.5002C66.79 45.7638 66.8808 45.135 67.0626 44.6138C67.2466 44.0904 67.5106 43.6912 67.8546 43.4162C68.2009 43.1389 68.6163 43.0003 69.1011 43.0003C69.5858 43.0003 70.0002 43.1389 70.3443 43.4162C70.6905 43.6912 70.9545 44.0904 71.1363 44.6138C71.3202 45.135 71.4122 45.7638 71.4122 46.5002C71.4122 47.2409 71.3213 47.873 71.1395 48.3965C70.9577 48.9177 70.6948 49.3158 70.3507 49.5908C70.0067 49.8636 69.5901 50 69.1011 50ZM69.1011 49.2681C69.5858 49.2681 69.9623 49.0286 70.2306 48.5495C70.499 48.0704 70.6331 47.3873 70.6331 46.5002C70.6331 45.9102 70.5715 45.4078 70.4481 44.9931C70.3269 44.5783 70.1517 44.2623 69.9223 44.0449C69.6951 43.8276 69.4213 43.7189 69.1011 43.7189C68.6207 43.7189 68.2452 43.9618 67.9747 44.4475C67.7042 44.931 67.569 45.6152 67.569 46.5002C67.569 47.0901 67.6296 47.5914 67.7508 48.0039C67.8719 48.4164 68.0461 48.7303 68.2733 48.9454C68.5027 49.1605 68.7786 49.2681 69.1011 49.2681Z" fill="#757474"/>
<path d="M74.8139 50C74.3248 50 73.9083 49.8636 73.5642 49.5908C73.2201 49.3158 72.9572 48.9177 72.7755 48.3965C72.5937 47.873 72.5028 47.2409 72.5028 46.5002C72.5028 45.7638 72.5937 45.135 72.7755 44.6138C72.9594 44.0904 73.2234 43.6912 73.5675 43.4162C73.9137 43.1389 74.3292 43.0003 74.8139 43.0003C75.2986 43.0003 75.713 43.1389 76.0571 43.4162C76.4033 43.6912 76.6673 44.0904 76.8491 44.6138C77.033 45.135 77.125 45.7638 77.125 46.5002C77.125 47.2409 77.0341 47.873 76.8523 48.3965C76.6706 48.9177 76.4076 49.3158 76.0636 49.5908C75.7195 49.8636 75.303 50 74.8139 50ZM74.8139 49.2681C75.2986 49.2681 75.6752 49.0286 75.9435 48.5495C76.2118 48.0704 76.346 47.3873 76.346 46.5002C76.346 45.9102 76.2843 45.4078 76.161 44.9931C76.0398 44.5783 75.8645 44.2623 75.6351 44.0449C75.4079 43.8276 75.1342 43.7189 74.8139 43.7189C74.3335 43.7189 73.9581 43.9618 73.6876 44.4475C73.4171 44.931 73.2818 45.6152 73.2818 46.5002C73.2818 47.0901 73.3424 47.5914 73.4636 48.0039C73.5848 48.4164 73.759 48.7303 73.9862 48.9454C74.2156 49.1605 74.4915 49.2681 74.8139 49.2681Z" fill="#757474"/>
<path d="M121.948 57.1768C122.046 57.2744 122.204 57.2744 122.302 57.1768L123.893 55.5858C123.99 55.4882 123.99 55.3299 123.893 55.2322C123.795 55.1346 123.637 55.1346 123.539 55.2322L122.125 56.6464L120.711 55.2322C120.613 55.1346 120.455 55.1346 120.357 55.2322C120.26 55.3299 120.26 55.4882 120.357 55.5858L121.948 57.1768ZM121.875 39L121.875 57L122.375 57L122.375 39L121.875 39Z" fill="#757474"/>
<path d="M122.302 2.82322C122.204 2.72559 122.046 2.72559 121.948 2.82322L120.357 4.41421C120.26 4.51184 120.26 4.67014 120.357 4.76777C120.455 4.8654 120.613 4.8654 120.711 4.76777L122.125 3.35355L123.539 4.76777C123.637 4.8654 123.795 4.8654 123.893 4.76777C123.99 4.67014 123.99 4.51184 123.893 4.41421L122.302 2.82322ZM122.375 21L122.375 3L121.875 3L121.875 21L122.375 21Z" fill="#757474"/>
<path d="M123.635 38H122.956L118.218 35.117V34.6429H119.269V34.9632L122.849 37.1415H122.903V33.259H123.635V38ZM125.032 34.912H118.218V34.156H125.032V34.912Z" fill="#757474"/>
<path d="M125.125 29.9187C125.125 30.4014 124.989 30.8125 124.716 31.152C124.441 31.4916 124.043 31.751 123.521 31.9304C122.998 32.1098 122.366 32.1995 121.625 32.1995C120.889 32.1995 120.26 32.1098 119.739 31.9304C119.215 31.7489 118.816 31.4884 118.541 31.1488C118.264 30.8071 118.125 30.3971 118.125 29.9187C118.125 29.4403 118.264 29.0314 118.541 28.6918C118.816 28.3501 119.215 28.0896 119.739 27.9102C120.26 27.7287 120.889 27.6379 121.625 27.6379C122.366 27.6379 122.998 27.7276 123.521 27.907C124.043 28.0864 124.441 28.3459 124.716 28.6854C124.989 29.025 125.125 29.4361 125.125 29.9187ZM124.393 29.9187C124.393 29.4403 124.154 29.0688 123.674 28.8039C123.195 28.5391 122.512 28.4067 121.625 28.4067C121.035 28.4067 120.533 28.4676 120.118 28.5893C119.703 28.7089 119.387 28.8819 119.17 29.1083C118.952 29.3325 118.844 29.6026 118.844 29.9187C118.844 30.3928 119.087 30.7633 119.572 31.0303C120.056 31.2972 120.74 31.4307 121.625 31.4307C122.215 31.4307 122.716 31.3709 123.129 31.2513C123.541 31.1317 123.855 30.9598 124.07 30.7356C124.285 30.5092 124.393 30.2369 124.393 29.9187Z" fill="#757474"/>
<path d="M125.125 24.2808C125.125 24.7634 124.989 25.1745 124.716 25.5141C124.441 25.8536 124.043 26.1131 123.521 26.2925C122.998 26.4719 122.366 26.5616 121.625 26.5616C120.889 26.5616 120.26 26.4719 119.739 26.2925C119.215 26.111 118.816 25.8504 118.541 25.5109C118.264 25.1692 118.125 24.7592 118.125 24.2808C118.125 23.8024 118.264 23.3935 118.541 23.0539C118.816 22.7122 119.215 22.4517 119.739 22.2723C120.26 22.0908 120.889 22 121.625 22C122.366 22 122.998 22.0897 123.521 22.2691C124.043 22.4485 124.441 22.7079 124.716 23.0475C124.989 23.3871 125.125 23.7982 125.125 24.2808ZM124.393 24.2808C124.393 23.8024 124.154 23.4308 123.674 23.166C123.195 22.9012 122.512 22.7688 121.625 22.7688C121.035 22.7688 120.533 22.8297 120.118 22.9514C119.703 23.071 119.387 23.244 119.17 23.4703C118.952 23.6946 118.844 23.9647 118.844 24.2808C118.844 24.7549 119.087 25.1254 119.572 25.3924C120.056 25.6593 120.74 25.7928 121.625 25.7928C122.215 25.7928 122.716 25.733 123.129 25.6134C123.541 25.4938 123.855 25.3219 124.07 25.0977C124.285 24.8713 124.393 24.599 124.393 24.2808Z" fill="#757474"/>
<path d="M9.94822 119.177C10.0459 119.274 10.2041 119.274 10.3018 119.177L11.8928 117.586C11.9904 117.488 11.9904 117.33 11.8928 117.232C11.7951 117.135 11.6368 117.135 11.5392 117.232L10.125 118.646L8.71079 117.232C8.61316 117.135 8.45486 117.135 8.35723 117.232C8.2596 117.33 8.2596 117.488 8.35723 117.586L9.94822 119.177ZM10.375 119L10.375 94L9.875 94L9.875 119L10.375 119Z" fill="#757474"/>
<path d="M10.3018 3.82321C10.2041 3.72559 10.0459 3.72559 9.94823 3.82321L8.35724 5.4142C8.2596 5.51183 8.2596 5.67013 8.35724 5.76776C8.45487 5.86539 8.61316 5.86539 8.71079 5.76776L10.125 4.35355L11.5392 5.76776C11.6368 5.86539 11.7951 5.86539 11.8928 5.76776C11.9904 5.67013 11.9904 5.51183 11.8928 5.4142L10.3018 3.82321ZM10.375 69L10.375 3.99999L9.875 3.99999L9.875 69L10.375 69Z" fill="#757474"/>
<path d="M13.125 86.7343C13.125 87.1814 13.044 87.5763 12.8821 87.9192C12.718 88.2599 12.4929 88.5258 12.2067 88.7167C11.9184 88.9077 11.5901 89.0021 11.222 88.9999C10.9336 89.0021 10.6675 88.9468 10.4235 88.8339C10.1773 88.7211 9.97212 88.567 9.80799 88.3717C9.64164 88.1742 9.53628 87.9539 9.49192 87.7109H9.452C9.36771 88.0299 9.18473 88.2838 8.90304 88.4726C8.61914 88.6614 8.29642 88.7547 7.93489 88.7525C7.58888 88.7547 7.27947 88.669 7.00665 88.4954C6.73384 88.3218 6.51869 88.0831 6.36122 87.7793C6.20374 87.4733 6.125 87.125 6.125 86.7343C6.125 86.3481 6.20374 86.003 6.36122 85.6992C6.51869 85.3954 6.73384 85.1567 7.00665 84.9831C7.27947 84.8073 7.58888 84.7183 7.93489 84.7161C8.29642 84.7183 8.61914 84.8149 8.90304 85.0059C9.18473 85.1947 9.36771 85.4453 9.452 85.7578H9.49192C9.53628 85.5169 9.64164 85.2999 9.80799 85.1068C9.97212 84.9136 10.1773 84.7595 10.4235 84.6445C10.6675 84.5295 10.9336 84.4709 11.222 84.4688C11.5901 84.4709 11.9184 84.5686 12.2067 84.7617C12.4929 84.9527 12.718 85.2185 12.8821 85.5592C13.044 85.8978 13.125 86.2895 13.125 86.7343ZM12.3931 86.7343C12.3931 86.4327 12.3432 86.1723 12.2433 85.9531C12.1435 85.7339 12.0027 85.5647 11.8208 85.4453C11.6389 85.3259 11.426 85.2652 11.182 85.263C10.9247 85.2652 10.6974 85.3303 10.5 85.4583C10.3026 85.5864 10.1473 85.7611 10.0342 85.9824C9.9211 86.2016 9.86454 86.4522 9.86454 86.7343C9.86454 87.0186 9.9211 87.2725 10.0342 87.4961C10.1473 87.7174 10.3026 87.8921 10.5 88.0201C10.6974 88.146 10.9247 88.2078 11.182 88.2057C11.426 88.2078 11.6389 88.1503 11.8208 88.0332C12.0027 87.9138 12.1435 87.7434 12.2433 87.5221C12.3432 87.3007 12.3931 87.0382 12.3931 86.7343ZM9.15922 86.7343C9.15922 86.4956 9.11042 86.284 9.01283 86.0996C8.91524 85.913 8.77883 85.7665 8.60361 85.6601C8.42839 85.5538 8.22323 85.4996 7.98812 85.4974C7.75745 85.4996 7.55672 85.5527 7.38593 85.6569C7.21293 85.7611 7.07985 85.9054 6.98669 86.0898C6.89132 86.2743 6.84363 86.4891 6.84363 86.7343C6.84363 86.9839 6.89132 87.202 6.98669 87.3886C7.07985 87.5753 7.21293 87.7196 7.38593 87.8216C7.55672 87.9236 7.75745 87.9735 7.98812 87.9713C8.22323 87.9735 8.42839 87.9225 8.60361 87.8183C8.77883 87.712 8.91524 87.5655 9.01283 87.3789C9.11042 87.1922 9.15922 86.9774 9.15922 86.7343Z" fill="#757474"/>
<path d="M13.125 81.0468C13.125 81.5372 12.9886 81.955 12.7158 82.3C12.4407 82.645 12.0426 82.9087 11.5214 83.091C10.9979 83.2733 10.3658 83.3644 9.625 83.3644C8.88863 83.3644 8.25982 83.2733 7.73859 83.091C7.21515 82.9065 6.81591 82.6418 6.54087 82.2967C6.26362 81.9495 6.125 81.5329 6.125 81.0468C6.125 80.5607 6.26362 80.1451 6.54087 79.8C6.81591 79.4528 7.21515 79.1881 7.73859 79.0058C8.25982 78.8213 8.88863 78.7291 9.625 78.7291C10.3658 78.7291 10.9979 78.8202 11.5214 79.0025C12.0426 79.1848 12.4407 79.4485 12.7158 79.7935C12.9886 80.1386 13.125 80.5563 13.125 81.0468ZM12.3931 81.0468C12.3931 80.5607 12.1535 80.1831 11.6744 79.914C11.1953 79.6449 10.5122 79.5103 9.625 79.5103C9.03501 79.5103 8.53264 79.5722 8.11787 79.6959C7.70311 79.8174 7.38704 79.9932 7.16968 80.2232C6.95231 80.4511 6.84363 80.7256 6.84363 81.0468C6.84363 81.5285 7.0865 81.905 7.57224 82.1763C8.05577 82.4476 8.74002 82.5832 9.625 82.5832C10.215 82.5832 10.7163 82.5224 11.1288 82.4009C11.5413 82.2794 11.8552 82.1047 12.0703 81.8768C12.2855 81.6468 12.3931 81.3701 12.3931 81.0468Z" fill="#757474"/>
<path d="M13.125 75.3177C13.125 75.8081 12.9886 76.2259 12.7158 76.5709C12.4407 76.916 12.0426 77.1796 11.5214 77.3619C10.9979 77.5442 10.3658 77.6354 9.625 77.6354C8.88863 77.6354 8.25982 77.5442 7.73859 77.3619C7.21515 77.1775 6.81591 76.9127 6.54087 76.5677C6.26362 76.2204 6.125 75.8038 6.125 75.3177C6.125 74.8316 6.26362 74.416 6.54087 74.0709C6.81591 73.7237 7.21515 73.459 7.73859 73.2767C8.25982 73.0922 8.88863 73 9.625 73C10.3658 73 10.9979 73.0911 11.5214 73.2734C12.0426 73.4557 12.4407 73.7194 12.7158 74.0644C12.9886 74.4095 13.125 74.8272 13.125 75.3177ZM12.3931 75.3177C12.3931 74.8316 12.1535 74.454 11.6744 74.1849C11.1953 73.9158 10.5122 73.7812 9.625 73.7812C9.03501 73.7812 8.53264 73.8431 8.11787 73.9668C7.70311 74.0883 7.38704 74.2641 7.16968 74.4941C6.95231 74.722 6.84363 74.9965 6.84363 75.3177C6.84363 75.7994 7.0865 76.176 7.57224 76.4472C8.05577 76.7185 8.74002 76.8541 9.625 76.8541C10.215 76.8541 10.7163 76.7934 11.1288 76.6718C11.5413 76.5503 11.8552 76.3756 12.0703 76.1477C12.2855 75.9177 12.3931 75.641 12.3931 75.3177Z" fill="#757474"/>
<line x1="0.125" y1="120.75" x2="135.125" y2="120.75" stroke="#757474" stroke-width="0.5" stroke-dasharray="2 2"/>
</svg>
