<svg width="91" height="90" viewBox="0 0 91 90" fill="none" xmlns="http://www.w3.org/2000/svg">
<rect x="1.5" y="1.00366" width="88" height="88" rx="3" stroke="#181818" stroke-width="2"/>
<path d="M87.6768 77.1804C87.7744 77.0828 87.7744 76.9245 87.6768 76.8269L86.0858 75.2359C85.9882 75.1383 85.8299 75.1383 85.7322 75.2359C85.6346 75.3335 85.6346 75.4918 85.7322 75.5894L87.1464 77.0037L85.7322 78.4179C85.6346 78.5155 85.6346 78.6738 85.7322 78.7714C85.8299 78.8691 85.9882 78.8691 86.0858 78.7714L87.6768 77.1804ZM57.5 77.2537L87.5 77.2537L87.5 76.7537L57.5 76.7537L57.5 77.2537Z" fill="#757474"/>
<path d="M3.32322 76.8269C3.22559 76.9245 3.22559 77.0828 3.32322 77.1804L4.91421 78.7714C5.01184 78.8691 5.17013 78.8691 5.26777 78.7714C5.3654 78.6738 5.3654 78.5155 5.26777 78.4179L3.85355 77.0037L5.26777 75.5894C5.3654 75.4918 5.3654 75.3335 5.26777 75.2359C5.17013 75.1383 5.01184 75.1383 4.91421 75.2359L3.32322 76.8269ZM33.5 76.7537H3.5V77.2537H33.5V76.7537Z" fill="#757474"/>
<path d="M39.8111 79.157C39.5384 79.1525 39.2658 79.0993 38.9931 78.9973C38.7205 78.8952 38.4716 78.7234 38.2466 78.4816C38.0215 78.2376 37.8408 77.9083 37.7045 77.4935C37.5682 77.0765 37.5 76.5531 37.5 75.9232C37.5 75.3199 37.5552 74.7854 37.6655 74.3196C37.7759 73.8516 37.936 73.4579 38.1459 73.1385C38.3558 72.8169 38.609 72.573 38.9055 72.4066C39.2041 72.2403 39.5406 72.1571 39.915 72.1571C40.2872 72.1571 40.6183 72.2336 40.9082 72.3867C41.2004 72.5375 41.4384 72.7482 41.6223 73.0188C41.8063 73.2894 41.9253 73.601 41.9794 73.9536H41.1874C41.1138 73.6476 40.971 73.3936 40.7589 73.1918C40.5468 72.9899 40.2655 72.889 39.915 72.889C39.4 72.889 38.9942 73.1186 38.6977 73.5777C38.4035 74.0368 38.2552 74.6811 38.2531 75.5106H38.305C38.4262 75.3221 38.5701 75.1613 38.7367 75.0282C38.9055 74.8929 39.0916 74.7887 39.295 74.7155C39.4984 74.6423 39.7137 74.6057 39.9409 74.6057C40.3218 74.6057 40.6702 74.7033 40.9861 74.8985C41.3021 75.0915 41.5552 75.3587 41.7457 75.7003C41.9361 76.0396 42.0313 76.4289 42.0313 76.868C42.0313 77.2894 41.9394 77.6754 41.7554 78.0258C41.5715 78.374 41.3129 78.6513 40.9796 78.8575C40.6486 79.0616 40.259 79.1614 39.8111 79.157ZM39.8111 78.425C40.0838 78.425 40.3283 78.3552 40.5447 78.2154C40.7632 78.0757 40.9353 77.8883 41.0608 77.6532C41.1885 77.4181 41.2523 77.1564 41.2523 76.868C41.2523 76.5864 41.1906 76.3302 41.0673 76.0995C40.9461 75.8666 40.7784 75.6814 40.5642 75.5439C40.3521 75.4064 40.1097 75.3376 39.8371 75.3376C39.6315 75.3376 39.44 75.3798 39.2625 75.4641C39.0851 75.5461 38.9293 75.6593 38.7951 75.8034C38.6631 75.9476 38.5593 76.1128 38.4835 76.2991C38.4078 76.4832 38.3699 76.6773 38.3699 76.8813C38.3699 77.1519 38.4316 77.4048 38.5549 77.6399C38.6804 77.875 38.8514 78.0646 39.0678 78.2088C39.2863 78.353 39.5341 78.425 39.8111 78.425Z" fill="#757474"/>
<path d="M45.4761 79.157C44.987 79.157 44.5704 79.0206 44.2264 78.7478C43.8823 78.4727 43.6194 78.0746 43.4376 77.5534C43.2558 77.0299 43.165 76.3978 43.165 75.657C43.165 74.9207 43.2558 74.2919 43.4376 73.7707C43.6216 73.2472 43.8856 72.848 44.2296 72.573C44.5759 72.2957 44.9913 72.1571 45.4761 72.1571C45.9608 72.1571 46.3752 72.2957 46.7193 72.573C47.0655 72.848 47.3295 73.2472 47.5113 73.7707C47.6952 74.2919 47.7872 74.9207 47.7872 75.657C47.7872 76.3978 47.6963 77.0299 47.5145 77.5534C47.3327 78.0746 47.0698 78.4727 46.7257 78.7478C46.3817 79.0206 45.9651 79.157 45.4761 79.157ZM45.4761 78.425C45.9608 78.425 46.3373 78.1855 46.6056 77.7064C46.874 77.2273 47.0081 76.5442 47.0081 75.657C47.0081 75.0671 46.9465 74.5647 46.8231 74.1499C46.7019 73.7352 46.5267 73.4191 46.2973 73.2018C46.0701 72.9844 45.7963 72.8757 45.4761 72.8757C44.9957 72.8757 44.6202 73.1186 44.3497 73.6043C44.0792 74.0878 43.944 74.7721 43.944 75.657C43.944 76.247 44.0046 76.7483 44.1258 77.1608C44.2469 77.5733 44.4211 77.8872 44.6483 78.1023C44.8777 78.3175 45.1536 78.425 45.4761 78.425Z" fill="#757474"/>
<path d="M51.1889 79.157C50.6998 79.157 50.2833 79.0206 49.9392 78.7478C49.5951 78.4727 49.3322 78.0746 49.1505 77.5534C48.9687 77.0299 48.8778 76.3978 48.8778 75.657C48.8778 74.9207 48.9687 74.2919 49.1505 73.7707C49.3344 73.2472 49.5984 72.848 49.9425 72.573C50.2887 72.2957 50.7042 72.1571 51.1889 72.1571C51.6736 72.1571 52.088 72.2957 52.4321 72.573C52.7783 72.848 53.0423 73.2472 53.2241 73.7707C53.408 74.2919 53.5 74.9207 53.5 75.657C53.5 76.3978 53.4091 77.0299 53.2273 77.5534C53.0456 78.0746 52.7826 78.4727 52.4386 78.7478C52.0945 79.0206 51.678 79.157 51.1889 79.157ZM51.1889 78.425C51.6736 78.425 52.0502 78.1855 52.3185 77.7064C52.5868 77.2273 52.721 76.5442 52.721 75.657C52.721 75.0671 52.6593 74.5647 52.536 74.1499C52.4148 73.7352 52.2395 73.4191 52.0101 73.2018C51.7829 72.9844 51.5092 72.8757 51.1889 72.8757C50.7085 72.8757 50.3331 73.1186 50.0626 73.6043C49.7921 74.0878 49.6568 74.7721 49.6568 75.657C49.6568 76.247 49.7174 76.7483 49.8386 77.1608C49.9598 77.5733 50.134 77.8872 50.3612 78.1023C50.5906 78.3175 50.8665 78.425 51.1889 78.425Z" fill="#757474"/>
<path d="M77.5263 87.1804C77.624 87.2781 77.7823 87.2781 77.8799 87.1804L79.4709 85.5895C79.5685 85.4918 79.5685 85.3335 79.4709 85.2359C79.3733 85.1383 79.215 85.1383 79.1173 85.2359L77.7031 86.6501L76.2889 85.2359C76.1913 85.1383 76.033 85.1383 75.9354 85.2359C75.8377 85.3335 75.8377 85.4918 75.9354 85.5895L77.5263 87.1804ZM77.4531 57.0037L77.4531 87.0037L77.9531 87.0037L77.9531 57.0037L77.4531 57.0037Z" fill="#757474"/>
<path d="M77.7315 2.82908C77.6338 2.73145 77.4755 2.73145 77.3779 2.82908L75.7869 4.42007C75.6893 4.5177 75.6893 4.67599 75.7869 4.77362C75.8846 4.87126 76.0428 4.87126 76.1405 4.77362L77.5547 3.35941L78.9689 4.77362C79.0665 4.87126 79.2248 4.87126 79.3225 4.77362C79.4201 4.67599 79.4201 4.5177 79.3225 4.42007L77.7315 2.82908ZM77.8047 33.0059V3.00586H77.3047V33.0059H77.8047Z" fill="#757474"/>
<path d="M79.6561 50.6926C79.6517 50.9652 79.5984 51.2379 79.4964 51.5105C79.3944 51.7832 79.2225 52.032 78.9807 52.2571C78.7368 52.4821 78.4074 52.6628 77.9926 52.7992C77.5757 52.9355 77.0522 53.0037 76.4223 53.0037C75.8191 53.0037 75.2845 52.9485 74.8188 52.8381C74.3508 52.7278 73.9571 52.5676 73.6377 52.3577C73.3161 52.1478 73.0721 51.8946 72.9058 51.5982C72.7394 51.2995 72.6562 50.9631 72.6562 50.5887C72.6562 50.2165 72.7328 49.8854 72.8858 49.5954C73.0366 49.3033 73.2473 49.0653 73.5179 48.8813C73.7885 48.6974 74.1001 48.5784 74.4528 48.5243V49.3163C74.1467 49.3899 73.8928 49.5327 73.6909 49.7447C73.4891 49.9568 73.3882 50.2381 73.3882 50.5887C73.3882 51.1037 73.6177 51.5095 74.0768 51.8059C74.536 52.1002 75.1803 52.2484 76.0098 52.2506V52.1987C75.8213 52.0775 75.6605 51.9336 75.5274 51.767C75.3921 51.5982 75.2879 51.4121 75.2147 51.2087C75.1415 51.0053 75.1049 50.7899 75.1049 50.5627C75.1049 50.1819 75.2025 49.8335 75.3976 49.5175C75.5906 49.2016 75.8579 48.9484 76.1994 48.758C76.5388 48.5676 76.928 48.4723 77.3672 48.4723C77.7886 48.4723 78.1745 48.5643 78.525 48.7482C78.8732 48.9322 79.1504 49.1908 79.3567 49.524C79.5607 49.8551 79.6605 50.2446 79.6561 50.6926ZM78.9242 50.6926C78.9242 50.4199 78.8543 50.1754 78.7146 49.959C78.5749 49.7404 78.3874 49.5684 78.1523 49.4429C77.9172 49.3152 77.6555 49.2514 77.3672 49.2514C77.0855 49.2514 76.8293 49.313 76.5987 49.4364C76.3658 49.5576 76.1806 49.7253 76.0431 49.9395C75.9056 50.1516 75.8368 50.3939 75.8368 50.6666C75.8368 50.8722 75.8789 51.0637 75.9632 51.2411C76.0453 51.4186 76.1584 51.5744 76.3026 51.7085C76.4467 51.8405 76.612 51.9444 76.7983 52.0201C76.9824 52.0959 77.1764 52.1338 77.3805 52.1338C77.6511 52.1338 77.9039 52.0721 78.139 51.9487C78.3741 51.8232 78.5638 51.6523 78.7079 51.4359C78.8521 51.2173 78.9242 50.9695 78.9242 50.6926Z" fill="#757474"/>
<path d="M79.6561 45.0276C79.6561 45.5167 79.5197 45.9332 79.2469 46.2773C78.9719 46.6214 78.5737 46.8843 78.0525 47.066C77.5291 47.2478 76.897 47.3387 76.1562 47.3387C75.4198 47.3387 74.791 47.2478 74.2698 47.066C73.7464 46.8821 73.3471 46.6181 73.0721 46.274C72.7949 45.9278 72.6562 45.5123 72.6562 45.0276C72.6562 44.5429 72.7949 44.1285 73.0721 43.7844C73.3471 43.4382 73.7464 43.1742 74.2698 42.9924C74.791 42.8085 75.4198 42.7165 76.1562 42.7165C76.897 42.7165 77.5291 42.8074 78.0525 42.9892C78.5737 43.1709 78.9719 43.4338 79.2469 43.7779C79.5197 44.122 79.6561 44.5385 79.6561 45.0276ZM78.9242 45.0276C78.9242 44.5429 78.6846 44.1663 78.2056 43.898C77.7265 43.6297 77.0434 43.4955 76.1562 43.4955C75.5662 43.4955 75.0638 43.5572 74.6491 43.6805C74.2343 43.8017 73.9183 43.977 73.7009 44.2064C73.4835 44.4336 73.3749 44.7073 73.3749 45.0276C73.3749 45.508 73.6177 45.8834 74.1035 46.1539C74.587 46.4244 75.2712 46.5597 76.1562 46.5597C76.7462 46.5597 77.2474 46.4991 77.66 46.3779C78.0725 46.2567 78.3863 46.0825 78.6015 45.8553C78.8166 45.6259 78.9242 45.35 78.9242 45.0276Z" fill="#757474"/>
<path d="M79.6561 39.3148C79.6561 39.8038 79.5197 40.2204 79.2469 40.5644C78.9719 40.9085 78.5737 41.1714 78.0525 41.3532C77.5291 41.535 76.897 41.6259 76.1562 41.6259C75.4198 41.6259 74.791 41.535 74.2698 41.3532C73.7464 41.1693 73.3471 40.9053 73.0721 40.5612C72.7949 40.215 72.6562 39.7995 72.6562 39.3148C72.6562 38.83 72.7949 38.4156 73.0721 38.0716C73.3471 37.7253 73.7464 37.4613 74.2698 37.2796C74.791 37.0956 75.4198 37.0037 76.1562 37.0037C76.897 37.0037 77.5291 37.0945 78.0525 37.2763C78.5737 37.4581 78.9719 37.721 79.2469 38.0651C79.5197 38.4091 79.6561 38.8257 79.6561 39.3148ZM78.9242 39.3148C78.9242 38.83 78.6846 38.4535 78.2056 38.1852C77.7265 37.9169 77.0434 37.7827 76.1562 37.7827C75.5662 37.7827 75.0638 37.8444 74.6491 37.9677C74.2343 38.0889 73.9183 38.2642 73.7009 38.4935C73.4835 38.7208 73.3749 38.9945 73.3749 39.3148C73.3749 39.7952 73.6177 40.1706 74.1035 40.4411C74.587 40.7116 75.2712 40.8468 76.1562 40.8468C76.7462 40.8468 77.2474 40.7863 77.66 40.6651C78.0725 40.5439 78.3863 40.3697 78.6015 40.1425C78.8166 39.9131 78.9242 39.6372 78.9242 39.3148Z" fill="#757474"/>
</svg>
