<svg width="55" height="56" viewBox="0 0 55 56" fill="white" xmlns="http://www.w3.org/2000/svg">
<ellipse cx="22.8431" cy="22.383" rx="11.4525" ry="11.4739" fill="#F2F2F2"/>
<path d="M36.378 22.383C36.378 29.872 30.3183 35.9431 22.8433 35.9431C15.3683 35.9431 9.30859 29.872 9.30859 22.383C9.30859 14.8939 15.3683 8.82288 22.8433 8.82288C30.3183 8.82288 36.378 14.8939 36.378 22.383ZM11.4197 22.383C11.4197 28.7039 16.5342 33.828 22.8433 33.828C29.1524 33.828 34.2669 28.7039 34.2669 22.383C34.2669 16.0621 29.1524 10.938 22.8433 10.938C16.5342 10.938 11.4197 16.0621 11.4197 22.383Z" fill="#181818"/>
<path d="M11.3927 23.9476C13.0585 22.6959 17.2924 22.7306 19.2012 22.9045C19.2012 22.9045 22.8451 22.9046 24.9274 23.4261C26.0533 23.708 22.8451 29.6846 22.8451 30.2061C22.8451 30.7277 17.6395 33.3354 17.6395 33.3354C16.0778 33.6831 12.1214 33.9612 10.8721 34.3785C8.26923 34.9 10.0392 36.0474 6.70759 36.4646C3.37597 36.8819 1.50193 35.5954 0.981363 34.9C0.460797 34.2046 0.981363 29.163 0.981363 29.163C0.981363 29.163 1.39782 32.3966 3.06363 32.8138C5.14589 33.3354 6.18703 32.8138 6.70759 30.7277C7.22816 28.6415 9.31042 25.5122 11.3927 23.9476Z" fill="#F2F2F2" stroke="black" stroke-width="1.04113"/>
<path d="M22.8459 38.0293C23.887 33.8569 23.887 33.3354 25.4487 29.6846C27.0104 26.0338 24.4076 22.9045 24.4076 22.9045C24.9281 28.6415 22.3254 29.6846 21.2842 31.7708C20.2431 33.8569 13.9963 32.2923 12.4345 36.4647C10.8728 40.637 10.8728 44.8093 11.3934 45.8524C11.9139 46.8955 21.8047 42.2016 22.8459 38.0293Z" fill="#F2F2F2" stroke="black" stroke-width="1.04113"/>
<path d="M44.1881 40.1153C44.8388 37.5076 40.0236 26.5551 33.2562 24.4691C26.4889 22.383 25.4477 23.9475 25.4477 23.9475C27.53 28.1199 25.4477 29.1629 24.9271 30.7276C24.4066 32.2922 28.5711 37.5076 32.2151 35.943C35.859 34.3784 43.1469 44.2877 44.1881 40.1153Z" fill="#F2F2F2" stroke="black" stroke-width="1.04113"/>
<path d="M31.6921 15.603C29.6098 15.603 26.66 21.5138 25.4453 23.4262C26.1394 23.7739 28.0481 23.4262 28.0481 23.4262C28.0481 23.4262 31.1715 24.9908 32.2127 24.9908C33.2538 24.9908 34.8155 21.1314 37.9389 22.3831C41.0623 23.6348 45.7474 24.9908 45.7474 24.9908C45.7474 24.9908 43.1446 18.7323 37.9389 16.6461C35.3361 15.603 34.295 15.603 31.6922 15.603H31.6921Z" fill="" stroke="black" stroke-width="1.04113"/>
<path d="M22.8439 15.603C24.5097 17.6892 25.2733 21.8615 24.9263 23.4261C24.9263 23.5999 23.0521 23.3218 19.7206 22.9046C15.5561 22.3831 15.0355 18.7322 13.9943 17.6892C12.9532 16.6461 14.5149 12.9952 12.4327 11.4306C10.3504 9.86599 4.62414 2.56439 6.70641 3.08593C8.78867 3.60747 15.4714 2.39523 17.1177 5.6937C18.6794 8.8229 19.7206 8.30139 21.2822 9.86605C22.8439 11.9522 21.1781 13.5168 22.8439 15.603Z" fill="#F2F2F2" stroke="black" stroke-width="1.04113"/>
<path d="M28.0491 16.646C28.0491 18.2107 25.4462 23.4261 24.9256 23.4261C24.9256 23.4261 24.9257 18.7322 24.4051 17.6891C23.8846 16.646 22.3229 11.4306 22.3229 11.4306C21.8023 11.4306 22.92 9.9241 23.3639 8.8229C24.4297 6.17893 23.3639 0.999756 23.3639 0.999756C23.3639 0.999756 25.9668 4.12901 26.4874 4.65055C27.5285 5.34595 29.819 8.40566 30.6519 10.9091C31.6931 14.0383 28.0491 15.0814 28.0491 16.646Z" fill="#F2F2F2" stroke="black" stroke-width="1.04113"/>
<path d="M45.6768 53.1804C45.7744 53.0828 45.7744 52.9245 45.6768 52.8269L44.0858 51.2359C43.9882 51.1383 43.8299 51.1383 43.7322 51.2359C43.6346 51.3335 43.6346 51.4918 43.7322 51.5894L45.1464 53.0037L43.7322 54.4179C43.6346 54.5155 43.6346 54.6738 43.7322 54.7714C43.8299 54.8691 43.9882 54.8691 44.0858 54.7714L45.6768 53.1804ZM32.5 53.2537H45.5V52.7537H32.5V53.2537Z" fill="#757474"/>
<path d="M0.323223 52.8269C0.225592 52.9245 0.225592 53.0828 0.323223 53.1804L1.91421 54.7714C2.01184 54.8691 2.17014 54.8691 2.26777 54.7714C2.3654 54.6738 2.3654 54.5155 2.26777 54.4179L0.853553 53.0037L2.26777 51.5894C2.3654 51.4918 2.3654 51.3335 2.26777 51.2359C2.17014 51.1383 2.01184 51.1383 1.91421 51.2359L0.323223 52.8269ZM13.5 52.7537L0.5 52.7537L0.5 53.2537L13.5 53.2537L13.5 52.7537Z" fill="#757474"/>
<path d="M50.3232 50.1804C50.4209 50.2781 50.5791 50.2781 50.6768 50.1804L52.2678 48.5894C52.3654 48.4918 52.3654 48.3335 52.2678 48.2359C52.1701 48.1383 52.0118 48.1383 51.9142 48.2359L50.5 49.6501L49.0858 48.2359C48.9882 48.1383 48.8299 48.1383 48.7322 48.2359C48.6346 48.3335 48.6346 48.4918 48.7322 48.5894L50.3232 50.1804ZM50.25 37.0037L50.25 50.0037L50.75 50.0037L50.75 37.0037L50.25 37.0037Z" fill="#757474"/>
<path d="M50.6768 0.826885C50.5791 0.729254 50.4209 0.729254 50.3232 0.826885L48.7322 2.41788C48.6346 2.51551 48.6346 2.6738 48.7322 2.77143C48.8299 2.86906 48.9882 2.86906 49.0858 2.77143L50.5 1.35722L51.9142 2.77143C52.0118 2.86906 52.1701 2.86906 52.2678 2.77143C52.3654 2.6738 52.3654 2.51551 52.2678 2.41788L50.6768 0.826885ZM50.75 14.0037L50.75 1.00366L50.25 1.00366L50.25 14.0037L50.75 14.0037Z" fill="#757474"/>
<path d="M16.7556 56.0037C16.3278 56.0037 15.9465 55.9283 15.6116 55.7774C15.2789 55.6266 15.0142 55.417 14.8176 55.1486C14.6232 54.878 14.5173 54.5642 14.5 54.2071H15.3167C15.334 54.4267 15.4074 54.6163 15.5371 54.776C15.6667 54.9335 15.8363 55.0555 16.0459 55.142C16.2555 55.2285 16.4877 55.2717 16.7427 55.2717C17.0279 55.2717 17.2806 55.2207 17.501 55.1187C17.7214 55.0167 17.8942 54.8747 18.0195 54.6928C18.1449 54.511 18.2075 54.3002 18.2075 54.0607C18.2075 53.8101 18.147 53.5894 18.026 53.3986C17.905 53.2057 17.7279 53.0548 17.4945 52.9462C17.2612 52.8375 16.976 52.7831 16.639 52.7831H16.1075V52.0512H16.639C16.9025 52.0512 17.1337 52.0024 17.3325 51.9048C17.5334 51.8072 17.6901 51.6697 17.8024 51.4923C17.9169 51.3148 17.9742 51.1063 17.9742 50.8668C17.9742 50.6361 17.9245 50.4354 17.8251 50.2646C17.7257 50.0938 17.5853 49.9607 17.4038 49.8654C17.2245 49.77 17.0127 49.7223 16.7686 49.7223C16.5396 49.7223 16.3235 49.7655 16.1204 49.852C15.9195 49.9363 15.7553 50.0594 15.6278 50.2213C15.5003 50.381 15.4312 50.574 15.4204 50.8002H14.6426C14.6556 50.4431 14.7603 50.1304 14.957 49.862C15.1536 49.5914 15.4107 49.3807 15.7283 49.2299C16.048 49.0791 16.3991 49.0037 16.7815 49.0037C17.1921 49.0037 17.5442 49.0891 17.8381 49.2598C18.1319 49.4284 18.3577 49.6513 18.5154 49.9286C18.6731 50.2058 18.752 50.5052 18.752 50.8269C18.752 51.2106 18.6537 51.5377 18.4571 51.8083C18.2626 52.0789 17.9979 52.2663 17.6631 52.3706V52.4238C18.0822 52.4948 18.4095 52.6778 18.645 52.9728C18.8805 53.2655 18.9983 53.6282 18.9983 54.0607C18.9983 54.4311 18.9 54.7638 18.7034 55.0588C18.5089 55.3516 18.2432 55.5822 17.9061 55.7508C17.5691 55.9194 17.1856 56.0037 16.7556 56.0037Z" fill="#757474"/>
<path d="M22.4887 56.0037C22.0004 56.0037 21.5845 55.8673 21.2409 55.5944C20.8974 55.3194 20.6349 54.9213 20.4534 54.4001C20.2719 53.8766 20.1812 53.2445 20.1812 52.5037C20.1812 51.7673 20.2719 51.1385 20.4534 50.6173C20.6371 50.0938 20.9006 49.6946 21.2442 49.4195C21.5899 49.1423 22.0047 49.0037 22.4887 49.0037C22.9726 49.0037 23.3864 49.1423 23.7299 49.4195C24.0756 49.6946 24.3392 50.0938 24.5207 50.6173C24.7043 51.1385 24.7961 51.7673 24.7961 52.5037C24.7961 53.2445 24.7054 53.8766 24.5239 54.4001C24.3424 54.9213 24.0799 55.3194 23.7364 55.5944C23.3928 55.8673 22.9769 56.0037 22.4887 56.0037ZM22.4887 55.2717C22.9726 55.2717 23.3486 55.0322 23.6165 54.5531C23.8844 54.074 24.0183 53.3909 24.0183 52.5037C24.0183 51.9137 23.9568 51.4113 23.8336 50.9965C23.7126 50.5818 23.5376 50.2657 23.3086 50.0483C23.0817 49.831 22.8084 49.7223 22.4887 49.7223C22.009 49.7223 21.6342 49.9652 21.3641 50.4509C21.094 50.9344 20.959 51.6187 20.959 52.5037C20.959 53.0936 21.0195 53.5949 21.1405 54.0075C21.2615 54.42 21.4354 54.7339 21.6622 54.949C21.8913 55.1642 22.1667 55.2717 22.4887 55.2717Z" fill="#757474"/>
<path d="M28.1925 56.0037C27.7042 56.0037 27.2883 55.8673 26.9448 55.5944C26.6013 55.3194 26.3388 54.9213 26.1573 54.4001C25.9758 53.8766 25.8851 53.2445 25.8851 52.5037C25.8851 51.7673 25.9758 51.1385 26.1573 50.6173C26.3409 50.0938 26.6045 49.6946 26.948 49.4195C27.2937 49.1423 27.7086 49.0037 28.1925 49.0037C28.6765 49.0037 29.0902 49.1423 29.4338 49.4195C29.7795 49.6946 30.043 50.0938 30.2245 50.6173C30.4082 51.1385 30.5 51.7673 30.5 52.5037C30.5 53.2445 30.4093 53.8766 30.2278 54.4001C30.0463 54.9213 29.7838 55.3194 29.4402 55.5944C29.0967 55.8673 28.6808 56.0037 28.1925 56.0037ZM28.1925 55.2717C28.6765 55.2717 29.0524 55.0322 29.3203 54.5531C29.5882 54.074 29.7222 53.3909 29.7222 52.5037C29.7222 51.9137 29.6606 51.4113 29.5375 50.9965C29.4165 50.5818 29.2415 50.2657 29.0125 50.0483C28.7856 49.831 28.5123 49.7223 28.1925 49.7223C27.7129 49.7223 27.338 49.9652 27.068 50.4509C26.7979 50.9344 26.6629 51.6187 26.6629 52.5037C26.6629 53.0936 26.7233 53.5949 26.8443 54.0075C26.9653 54.42 27.1393 54.7339 27.3661 54.949C27.5951 55.1642 27.8706 55.2717 28.1925 55.2717Z" fill="#757474"/>
<path d="M54.5 30.748C54.5 31.1758 54.4246 31.5572 54.2738 31.8921C54.1229 32.2248 53.9133 32.4894 53.645 32.6861C53.3744 32.8805 53.0605 32.9864 52.7034 33.0037V32.187C52.923 32.1697 53.1126 32.0962 53.2723 31.9666C53.4298 31.837 53.5518 31.6674 53.6383 31.4578C53.7248 31.2482 53.7681 31.016 53.7681 30.761C53.7681 30.4758 53.717 30.223 53.615 30.0026C53.513 29.7823 53.371 29.6094 53.1892 29.4841C53.0073 29.3588 52.7966 29.2961 52.557 29.2961C52.3064 29.2961 52.0857 29.3566 51.895 29.4776C51.702 29.5986 51.5512 29.7758 51.4425 30.0091C51.3338 30.2425 51.2795 30.5277 51.2795 30.8647V31.3962H50.5475V30.8647C50.5475 30.6011 50.4987 30.3699 50.4011 30.1712C50.3035 29.9702 50.166 29.8136 49.9886 29.7013C49.8112 29.5867 49.6027 29.5295 49.3631 29.5295C49.1324 29.5295 48.9317 29.5792 48.7609 29.6786C48.5901 29.778 48.4571 29.9184 48.3617 30.0999C48.2663 30.2792 48.2186 30.4909 48.2186 30.7351C48.2186 30.9641 48.2619 31.1802 48.3484 31.3832C48.4327 31.5842 48.5558 31.7484 48.7177 31.8759C48.8774 32.0033 49.0703 32.0725 49.2966 32.0833V32.8611C48.9395 32.8481 48.6267 32.7433 48.3584 32.5467C48.0878 32.3501 47.8771 32.093 47.7262 31.7754C47.5754 31.4556 47.5 31.1045 47.5 30.7221C47.5 30.3116 47.5854 29.9594 47.7562 29.6656C47.9247 29.3718 48.1477 29.146 48.4249 28.9883C48.7022 28.8305 49.0016 28.7517 49.3232 28.7517C49.7069 28.7517 50.0341 28.85 50.3047 29.0466C50.5753 29.2411 50.7627 29.5057 50.8669 29.8406H50.9202C50.9911 29.4215 51.1741 29.0941 51.4691 28.8586C51.7619 28.6231 52.1245 28.5054 52.557 28.5054C52.9274 28.5054 53.2601 28.6037 53.5551 28.8003C53.8479 28.9947 54.0786 29.2605 54.2471 29.5975C54.4157 29.9346 54.5 30.3181 54.5 30.748Z" fill="#757474"/>
<path d="M54.5 25.015C54.5 25.5033 54.3636 25.9192 54.0908 26.2627C53.8157 26.6063 53.4176 26.8688 52.8964 27.0502C52.3729 27.2317 51.7408 27.3225 51 27.3225C50.2636 27.3225 49.6348 27.2317 49.1136 27.0502C48.5901 26.8666 48.1909 26.603 47.9159 26.2595C47.6386 25.9138 47.5 25.499 47.5 25.015C47.5 24.531 47.6386 24.1173 47.9159 23.7738C48.1909 23.4281 48.5901 23.1645 49.1136 22.983C49.6348 22.7994 50.2636 22.7075 51 22.7075C51.7408 22.7075 52.3729 22.7983 52.8964 22.9798C53.4176 23.1612 53.8157 23.4238 54.0908 23.7673C54.3636 24.1108 54.5 24.5267 54.5 25.015ZM53.7681 25.015C53.7681 24.531 53.5285 24.1551 53.0494 23.8872C52.5703 23.6193 51.8872 23.4853 51 23.4853C50.41 23.4853 49.9076 23.5469 49.4929 23.6701C49.0781 23.791 48.762 23.9661 48.5447 24.1951C48.3273 24.4219 48.2186 24.6952 48.2186 25.015C48.2186 25.4946 48.4615 25.8695 48.9472 26.1396C49.4308 26.4096 50.115 26.5447 51 26.5447C51.59 26.5447 52.0913 26.4842 52.5038 26.3632C52.9163 26.2422 53.2302 26.0683 53.4453 25.8414C53.6605 25.6124 53.7681 25.3369 53.7681 25.015Z" fill="#757474"/>
<path d="M54.5 19.3111C54.5 19.7994 54.3636 20.2153 54.0908 20.5589C53.8157 20.9024 53.4176 21.1649 52.8964 21.3464C52.3729 21.5279 51.7408 21.6186 51 21.6186C50.2636 21.6186 49.6348 21.5279 49.1136 21.3464C48.5901 21.1627 48.1909 20.8991 47.9159 20.5556C47.6386 20.2099 47.5 19.7951 47.5 19.3111C47.5 18.8272 47.6386 18.4134 47.9159 18.0699C48.1909 17.7242 48.5901 17.4606 49.1136 17.2791C49.6348 17.0955 50.2636 17.0037 51 17.0037C51.7408 17.0037 52.3729 17.0944 52.8964 17.2759C53.4176 17.4574 53.8157 17.7199 54.0908 18.0634C54.3636 18.4069 54.5 18.8229 54.5 19.3111ZM53.7681 19.3111C53.7681 18.8272 53.5285 18.4512 53.0494 18.1833C52.5703 17.9154 51.8872 17.7815 51 17.7815C50.41 17.7815 49.9076 17.843 49.4929 17.9662C49.0781 18.0872 48.762 18.2622 48.5447 18.4912C48.3273 18.7181 48.2186 18.9914 48.2186 19.3111C48.2186 19.7908 48.4615 20.1656 48.9472 20.4357C49.4308 20.7058 50.115 20.8408 51 20.8408C51.59 20.8408 52.0913 20.7803 52.5038 20.6593C52.9163 20.5383 53.2302 20.3644 53.4453 20.1375C53.6605 19.9085 53.7681 19.6331 53.7681 19.3111Z" fill="#757474"/>
</svg>
