<svg width="180" height="75" viewBox="0 0 180 75" fill="none" xmlns="http://www.w3.org/2000/svg">
<rect x="1" y="1" width="178" height="73" rx="3" stroke="#181818" stroke-width="2"/>
<rect x="1" y="70" width="178" height="4" rx="2" stroke="#181818" stroke-width="2"/>
<path d="M177.177 63.1768C177.274 63.0791 177.274 62.9208 177.177 62.8232L175.586 61.2322C175.488 61.1346 175.33 61.1346 175.232 61.2322C175.135 61.3299 175.135 61.4881 175.232 61.5858L176.646 63L175.232 64.4142C175.135 64.5118 175.135 64.6701 175.232 64.7678C175.33 64.8654 175.488 64.8654 175.586 64.7678L177.177 63.1768ZM107 63.25L177 63.25L177 62.75L107 62.75L107 63.25Z" fill="#757474"/>
<path d="M2.82323 62.8232C2.72559 62.9209 2.72559 63.0791 2.82323 63.1768L4.41422 64.7678C4.51185 64.8654 4.67014 64.8654 4.76777 64.7678C4.86539 64.6701 4.86539 64.5118 4.76777 64.4142L3.35355 63L4.76777 61.5858C4.86539 61.4882 4.86539 61.3299 4.76777 61.2322C4.67014 61.1346 4.51185 61.1346 4.41422 61.2322L2.82323 62.8232ZM73 62.75L3 62.75V63.25L73 63.25V62.75Z" fill="#757474"/>
<path d="M82.454 58.0932V64.9068H81.6532V58.9582H81.6145L80 60.0627V59.2243L81.6532 58.0932H82.454Z" fill="#757474"/>
<path d="M84.3558 64.9068V64.308L86.5386 61.846C86.7947 61.5577 87.0057 61.307 87.1715 61.0941C87.3372 60.879 87.4599 60.6771 87.5396 60.4886C87.6214 60.2978 87.6623 60.0982 87.6623 59.8897C87.6623 59.6502 87.6063 59.4428 87.4943 59.2676C87.3846 59.0924 87.2339 58.9571 87.0423 58.8617C86.8507 58.7663 86.6355 58.7186 86.3965 58.7186C86.1425 58.7186 85.9208 58.773 85.7314 58.8817C85.5441 58.9881 85.3988 59.1378 85.2954 59.3308C85.1943 59.5238 85.1437 59.75 85.1437 60.0095H84.3817C84.3817 59.6103 84.471 59.2598 84.6497 58.9582C84.8283 58.6565 85.0716 58.4214 85.3794 58.2529C85.6894 58.0843 86.037 58 86.4223 58C86.8098 58 87.1532 58.0843 87.4524 58.2529C87.7516 58.4214 87.9862 58.6488 88.1563 58.9349C88.3263 59.221 88.4114 59.5393 88.4114 59.8897C88.4114 60.1404 88.3672 60.3855 88.279 60.625C88.1929 60.8623 88.0422 61.1274 87.8269 61.4202C87.6138 61.7107 87.3178 62.0656 86.939 62.4848L85.4537 64.1217V64.1749H88.5276V64.9068H84.3558Z" fill="#757474"/>
<path d="M92.0181 65C91.5316 65 91.1172 64.8636 90.7749 64.5908C90.4327 64.3157 90.1711 63.9176 89.9903 63.3964C89.8095 62.8729 89.7191 62.2408 89.7191 61.5C89.7191 60.7636 89.8095 60.1348 89.9903 59.6136C90.1733 59.0901 90.4359 58.6909 90.7782 58.4159C91.1226 58.1386 91.5359 58 92.0181 58C92.5003 58 92.9125 58.1386 93.2548 58.4159C93.5992 58.6909 93.8618 59.0901 94.0426 59.6136C94.2256 60.1348 94.3171 60.7636 94.3171 61.5C94.3171 62.2408 94.2267 62.8729 94.0459 63.3964C93.865 63.9176 93.6035 64.3157 93.2612 64.5908C92.919 64.8636 92.5046 65 92.0181 65ZM92.0181 64.2681C92.5003 64.2681 92.8748 64.0285 93.1418 63.5494C93.4087 63.0703 93.5421 62.3872 93.5421 61.5C93.5421 60.91 93.4808 60.4076 93.3581 59.9929C93.2375 59.5781 93.0632 59.262 92.835 59.0447C92.609 58.8273 92.3367 58.7186 92.0181 58.7186C91.5402 58.7186 91.1667 58.9615 90.8976 59.4472C90.6286 59.9308 90.494 60.615 90.494 61.5C90.494 62.09 90.5543 62.5913 90.6748 63.0038C90.7954 63.4163 90.9687 63.7302 91.1947 63.9453C91.4229 64.1605 91.6973 64.2681 92.0181 64.2681Z" fill="#757474"/>
<path d="M97.701 65C97.2145 65 96.8001 64.8636 96.4579 64.5908C96.1156 64.3157 95.8541 63.9176 95.6732 63.3964C95.4924 62.8729 95.402 62.2408 95.402 61.5C95.402 60.7636 95.4924 60.1348 95.6732 59.6136C95.8562 59.0901 96.1188 58.6909 96.4611 58.4159C96.8055 58.1386 97.2188 58 97.701 58C98.1832 58 98.5954 58.1386 98.9377 58.4159C99.2821 58.6909 99.5447 59.0901 99.7255 59.6136C99.9085 60.1348 100 60.7636 100 61.5C100 62.2408 99.9096 62.8729 99.7288 63.3964C99.548 63.9176 99.2864 64.3157 98.9441 64.5908C98.6019 64.8636 98.1875 65 97.701 65ZM97.701 64.2681C98.1832 64.2681 98.5577 64.0285 98.8247 63.5494C99.0916 63.0703 99.2251 62.3872 99.2251 61.5C99.2251 60.91 99.1637 60.4076 99.041 59.9929C98.9205 59.5781 98.7461 59.262 98.5179 59.0447C98.2919 58.8273 98.0196 58.7186 97.701 58.7186C97.2231 58.7186 96.8496 58.9615 96.5806 59.4472C96.3115 59.9308 96.1769 60.615 96.1769 61.5C96.1769 62.09 96.2372 62.5913 96.3578 63.0038C96.4783 63.4163 96.6516 63.7302 96.8776 63.9453C97.1058 64.1605 97.3803 64.2681 97.701 64.2681Z" fill="#757474"/>
<rect x="174.003" y="28.9974" width="167" height="13" rx="3" transform="rotate(-179.85 174.003 28.9974)" fill="#F2F2F2" stroke="black" stroke-width="2"/>
<path d="M166.823 68.1768C166.921 68.2744 167.079 68.2744 167.177 68.1768L168.768 66.5858C168.865 66.4882 168.865 66.3299 168.768 66.2322C168.67 66.1346 168.512 66.1346 168.414 66.2322L167 67.6464L165.586 66.2322C165.488 66.1346 165.33 66.1346 165.232 66.2322C165.135 66.3299 165.135 66.4882 165.232 66.5858L166.823 68.1768ZM166.75 53L166.75 68L167.25 68L167.25 53L166.75 53Z" fill="#757474"/>
<path d="M167.177 2.82322C167.079 2.72559 166.921 2.72559 166.823 2.82322L165.232 4.41421C165.135 4.51184 165.135 4.67013 165.232 4.76776C165.33 4.8654 165.488 4.8654 165.586 4.76776L167 3.35355L168.414 4.76777C168.512 4.8654 168.67 4.8654 168.768 4.76777C168.865 4.67013 168.865 4.51184 168.768 4.41421L167.177 2.82322ZM167.25 33L167.25 3L166.75 3L166.75 33L167.25 33Z" fill="#757474"/>
<path d="M170 48.9015C170 49.2887 169.922 49.6373 169.767 49.9475C169.612 50.2576 169.399 50.5062 169.128 50.6931C168.858 50.8801 168.549 50.9824 168.203 51V50.2081C168.512 50.1773 168.767 50.0388 168.969 49.7924C169.168 49.5438 169.268 49.2469 169.268 48.9015C169.268 48.6244 169.203 48.378 169.072 48.1624C168.941 47.9447 168.761 47.7742 168.533 47.651C168.302 47.5256 168.042 47.463 167.751 47.463C167.454 47.463 167.189 47.5278 166.956 47.6576C166.721 47.7852 166.535 47.9612 166.4 48.1855C166.265 48.4099 166.196 48.6662 166.194 48.9543C166.192 49.1611 166.224 49.3734 166.29 49.5911C166.355 49.8089 166.438 49.9882 166.54 50.1289L166.447 50.8944L163.093 50.4853V46.9746H163.825V49.799L165.835 50.0366V49.997C165.724 49.8584 165.632 49.6846 165.558 49.4756C165.485 49.2667 165.449 49.0489 165.449 48.8223C165.449 48.4088 165.548 48.0404 165.748 47.717C165.946 47.3915 166.216 47.1363 166.56 46.9515C166.904 46.7646 167.296 46.6711 167.738 46.6711C168.172 46.6711 168.561 46.7679 168.902 46.9614C169.241 47.1528 169.51 47.4168 169.707 47.7533C169.902 48.0899 170 48.4726 170 48.9015Z" fill="#757474"/>
<path d="M170 43.1563C170 43.6534 169.864 44.0769 169.591 44.4266C169.316 44.7764 168.918 45.0436 168.396 45.2284C167.873 45.4132 167.241 45.5055 166.5 45.5055C165.764 45.5055 165.135 45.4132 164.614 45.2284C164.09 45.0414 163.691 44.7731 163.416 44.4233C163.139 44.0714 163 43.649 163 43.1563C163 42.6636 163.139 42.2424 163.416 41.8926C163.691 41.5407 164.09 41.2723 164.614 41.0875C165.135 40.9006 165.764 40.8071 166.5 40.8071C167.241 40.8071 167.873 40.8995 168.396 41.0842C168.918 41.269 169.316 41.5363 169.591 41.886C169.864 42.2358 170 42.6592 170 43.1563ZM169.268 43.1563C169.268 42.6636 169.029 42.2809 168.549 42.0081C168.07 41.7353 167.387 41.599 166.5 41.599C165.91 41.599 165.408 41.6616 164.993 41.787C164.578 41.9102 164.262 42.0884 164.045 42.3215C163.827 42.5525 163.719 42.8308 163.719 43.1563C163.719 43.6446 163.962 44.0263 164.447 44.3012C164.931 44.5762 165.615 44.7137 166.5 44.7137C167.09 44.7137 167.591 44.6521 168.004 44.5289C168.416 44.4057 168.73 44.2286 168.945 43.9977C169.16 43.7645 169.268 43.4841 169.268 43.1563Z" fill="#757474"/>
<path d="M170 37.3492C170 37.8464 169.864 38.2698 169.591 38.6195C169.316 38.9693 168.918 39.2365 168.396 39.4213C167.873 39.6061 167.241 39.6985 166.5 39.6985C165.764 39.6985 165.135 39.6061 164.614 39.4213C164.09 39.2343 163.691 38.966 163.416 38.6162C163.139 38.2643 163 37.842 163 37.3492C163 36.8565 163.139 36.4353 163.416 36.0855C163.691 35.7336 164.09 35.4652 164.614 35.2805C165.135 35.0935 165.764 35 166.5 35C167.241 35 167.873 35.0924 168.396 35.2772C168.918 35.4619 169.316 35.7292 169.591 36.0789C169.864 36.4287 170 36.8521 170 37.3492ZM169.268 37.3492C169.268 36.8565 169.029 36.4738 168.549 36.201C168.07 35.9283 167.387 35.7919 166.5 35.7919C165.91 35.7919 165.408 35.8546 164.993 35.9799C164.578 36.1031 164.262 36.2813 164.045 36.5145C163.827 36.7454 163.719 37.0237 163.719 37.3492C163.719 37.8376 163.962 38.2192 164.447 38.4941C164.931 38.7691 165.615 38.9066 166.5 38.9066C167.09 38.9066 167.591 38.845 168.004 38.7218C168.416 38.5986 168.73 38.4216 168.945 38.1906C169.16 37.9574 169.268 37.677 169.268 37.3492Z" fill="#757474"/>
</svg>
