<svg width="169" height="35" viewBox="0 0 169 35" fill="none" xmlns="http://www.w3.org/2000/svg">
<rect x="1" y="1" width="167" height="13" rx="3" stroke="black" stroke-width="2"/>
<line x1="1.75" y1="32" x2="1.75" y2="13" stroke="#757474" stroke-width="0.5" stroke-dasharray="2 2"/>
<line x1="166.75" y1="32" x2="166.75" y2="13" stroke="#757474" stroke-width="0.5" stroke-dasharray="2 2"/>
<path d="M167.177 32.1768C167.274 32.0792 167.274 31.9209 167.177 31.8232L165.586 30.2322C165.488 30.1346 165.33 30.1346 165.232 30.2322C165.135 30.3299 165.135 30.4882 165.232 30.5858L166.646 32L165.232 33.4142C165.135 33.5119 165.135 33.6701 165.232 33.7678C165.33 33.8654 165.488 33.8654 165.586 33.7678L167.177 32.1768ZM97 32.25L167 32.25L167 31.75L97 31.75L97 32.25Z" fill="#757474"/>
<path d="M1.8232 31.8232C1.72557 31.9209 1.72557 32.0791 1.8232 32.1768L3.41419 33.7678C3.51183 33.8654 3.67011 33.8654 3.76775 33.7678C3.86537 33.6701 3.86537 33.5118 3.76775 33.4142L2.35353 32L3.76775 30.5858C3.86537 30.4882 3.86537 30.3299 3.76775 30.2322C3.67011 30.1346 3.51183 30.1346 3.41419 30.2322L1.8232 31.8232ZM72 31.75L1.99998 31.75V32.25L72 32.25V31.75Z" fill="#757474"/>
<path d="M76.6541 28.0932V34.9067H75.788V28.9582H75.7461L74 30.0627V29.2243L75.788 28.0932H76.6541Z" fill="#757474"/>
<path d="M81.2254 28.0932V34.9067H80.3594V28.9582H80.3174L78.5713 30.0627V29.2243L80.3594 28.0932H81.2254Z" fill="#757474"/>
<path d="M83.2823 34.9067V34.3079L85.6431 31.8459C85.9201 31.5576 86.1483 31.307 86.3276 31.094C86.5068 30.8789 86.6395 30.6771 86.7257 30.4885C86.8142 30.2978 86.8584 30.0982 86.8584 29.8897C86.8584 29.6502 86.7979 29.4428 86.6768 29.2676C86.5581 29.0923 86.3951 28.957 86.1879 28.8617C85.9807 28.7663 85.7479 28.7186 85.4894 28.7186C85.2147 28.7186 84.9749 28.773 84.77 28.8816C84.5675 28.9881 84.4103 29.1378 84.2986 29.3308C84.1892 29.5237 84.1345 29.75 84.1345 30.0095H83.3103C83.3103 29.6102 83.4069 29.2598 83.6001 28.9582C83.7934 28.6565 84.0565 28.4214 84.3894 28.2528C84.7246 28.0843 85.1006 28 85.5174 28C85.9364 28 86.3078 28.0843 86.6314 28.2528C86.955 28.4214 87.2088 28.6488 87.3927 28.9349C87.5766 29.221 87.6686 29.5393 87.6686 29.8897C87.6686 30.1403 87.6209 30.3854 87.5254 30.6249C87.4323 30.8623 87.2693 31.1273 87.0365 31.4201C86.806 31.7106 86.4859 32.0655 86.0761 32.4847L84.4697 34.1215V34.1748H87.7943V34.9067H83.2823Z" fill="#757474"/>
<path d="M91.6113 34.9999C91.318 34.9954 91.0246 34.9422 90.7313 34.8402C90.4379 34.7381 90.1702 34.5662 89.9281 34.3245C89.6859 34.0805 89.4915 33.7512 89.3449 33.3364C89.1982 32.9194 89.1249 32.396 89.1249 31.7661C89.1249 31.1628 89.1842 30.6283 89.303 30.1625C89.4217 29.6945 89.594 29.3008 89.8198 28.9814C90.0456 28.6598 90.318 28.4159 90.637 28.2495C90.9583 28.0832 91.3203 28 91.7231 28C92.1235 28 92.4797 28.0765 92.7917 28.2296C93.106 28.3804 93.3621 28.5911 93.56 28.8617C93.7579 29.1323 93.8859 29.4439 93.9441 29.7965H93.092C93.0129 29.4905 92.8592 29.2365 92.6311 29.0347C92.4029 28.8328 92.1002 28.7319 91.7231 28.7319C91.169 28.7319 90.7324 28.9615 90.4135 29.4206C90.0969 29.8797 89.9374 30.524 89.9351 31.3535H89.9909C90.1213 31.165 90.2761 31.0042 90.4554 30.8711C90.637 30.7358 90.8372 30.6316 91.0561 30.5584C91.2749 30.4852 91.5066 30.4486 91.751 30.4486C92.1608 30.4486 92.5356 30.5462 92.8755 30.7414C93.2154 30.9344 93.4878 31.2016 93.6927 31.5432C93.8976 31.8825 94 32.2718 94 32.7109C94 33.1323 93.9011 33.5183 93.7032 33.8687C93.5053 34.2169 93.2271 34.4942 92.8685 34.7004C92.5123 34.9045 92.0932 35.0043 91.6113 34.9999ZM91.6113 34.2679C91.9047 34.2679 92.1677 34.1981 92.4006 34.0583C92.6357 33.9186 92.8208 33.7312 92.9558 33.4961C93.0932 33.261 93.1619 32.9993 93.1619 32.7109C93.1619 32.4293 93.0955 32.1731 92.9628 31.9424C92.8324 31.7095 92.652 31.5243 92.4215 31.3868C92.1934 31.2493 91.9326 31.1805 91.6393 31.1805C91.4181 31.1805 91.212 31.2227 91.0211 31.307C90.8302 31.389 90.6626 31.5021 90.5183 31.6463C90.3762 31.7905 90.2645 31.9557 90.183 32.142C90.1015 32.3261 90.0608 32.5202 90.0608 32.7242C90.0608 32.9948 90.1271 33.2477 90.2598 33.4828C90.3949 33.7179 90.5788 33.9075 90.8116 34.0517C91.0467 34.1959 91.3133 34.2679 91.6113 34.2679Z" fill="#757474"/>
</svg>
