<svg width="100" height="100" xmlns="http://www.w3.org/2000/svg">
 <g>
  <title>Layer 1</title>
  <g id="svg_1" stroke="null"/>
  <g id="svg_3">
   <mask id="svg_16" fill="white">
    <path id="svg_4" fill-rule="evenodd" clip-rule="evenodd" d="m15.1782,12.0312c0.7357,-1.0019 1.0968,-2.22676 1.0968,-3.8937c0,-4.49422 -3.6433,-8.1375 -8.1375,-8.1375c-4.49422,0 -8.1375,3.64328 -8.1375,8.1375c0,1.58574 0.39216,2.8477 1.11883,3.8937l-0.02812,0l6.69734,8.9688l7.07815,-8.5819c0.0836,-0.0948 0.1634,-0.1915 0.2395,-0.2903l0.0796,-0.0966l-0.0071,0z"/>
   </mask>
   <path id="svg_5" d="m92.08998,92.13079l-0.806,-0.5918l-1.1688,1.5918l1.9748,0l0,-1zm-14.05937,0l0,1l1.91225,0l-1.09096,-1.5705l-0.82129,0.5705zm-0.02812,0l0,-1l-1.99479,0l1.19354,1.5984l0.80125,-0.5984zm6.69734,8.9688l-0.80125,0.5983l0.76218,1.0207l0.81053,-0.9827l-0.77146,-0.6363zm7.07815,-8.5819l-0.75,-0.6615l-0.0109,0.0125l-0.0106,0.0127l0.7715,0.6363zm0.2395,-0.2903l-0.7715,-0.6363l-0.0108,0.0131l-0.0103,0.0134l0.7926,0.6098zm0.0796,-0.0966l0.7714,0.6363l1.3496,-1.6363l-2.121,0l0,1zm0.0897,-3.8937c0,1.51231 -0.3238,2.5132 -0.9028,3.3019l1.6121,1.1837c0.8922,-1.2152 1.2907,-2.66402 1.2907,-4.4856l-2,0zm-7.1375,-7.1375c3.9419,0 7.1375,3.19557 7.1375,7.1375l2,0c0,-5.0465 -4.091,-9.1375 -9.1375,-9.1375l0,2zm-7.1375,7.1375c0,-3.94193 3.19557,-7.1375 7.1375,-7.1375l0,-2c-5.0465,0 -9.1375,4.091 -9.1375,9.1375l2,0zm0.94012,3.3232c-0.59602,-0.858 -0.94012,-1.91484 -0.94012,-3.3232l-2,0c0,1.76311 0.44023,3.2301 1.29754,4.4643l1.64258,-1.1411zm-0.82129,-0.4295l-0.02812,0l0,2l0.02812,0l0,-2zm-0.82937,1.5984l6.69734,8.9687l1.6025,-1.1966l-6.69734,-8.9688l-1.6025,1.1967zm8.27005,9.0067l7.07819,-8.5819l-1.543,-1.2726l-7.07811,8.5819l1.54292,1.2726zm5.75359,-10.1183c-0.0621,0.0807 -0.1276,0.1601 -0.1969,0.2386l1.4999,1.323c0.098,-0.111 0.1921,-0.225 0.2822,-0.3421l-1.5852,-1.2195zm1.564,1.246l0.0796,-0.0965l-1.5429,-1.2725l-0.0796,0.0965l1.5429,1.2725zm-0.6918,-1.7328l-0.0071,0l0,2l0.0071,0l0,-2z" fill="#0F303F" mask="url(#svg_16)"/>
  </g>
  <g>
   <path fill="black" d="m68.04785,13.66147l-46.5429,0c-6.62742,0 -12,5.37259 -12,11.99996l0,62c0,6.6275 5.37258,12 12,12l62,0c6.6274,0 12,-5.3725 12,-12l0,-55.6735l-1,0.9998l0,54.6737c0,6.0752 -4.9249,11 -11,11l-62,0c-6.07513,0 -11,-4.9248 -11,-11l0,-62c0,-6.07509 4.92487,-10.99996 11,-10.99996l45.5427,0l1.0002,-1z" clip-rule="evenodd" fill-rule="evenodd"/>
  </g>
  <g>
   <path fill="black" d="m55.50448,44.62135l-4.43695,15.1642l12.74736,-8.1505l-0.0032,-0.0068c-1.6438,-3.4187 -4.66965,-5.9659 -8.30721,-7.0069zm0.61761,-0.8588c3.7072,1.1621 6.7892,3.7903 8.5193,7.2858l29.6007,-33.7892l-9.5667,-7.30651l-28.5533,33.80991zm41.6484,-29.3732l-2.4712,2.8208l-0.4131,0.5409l-0.0364,-0.0278l-29.6789,33.8785c-0.0948,0.1083 -0.2045,0.2026 -0.3258,0.2801l-13.36656,8.5465c-0.59403,0.3798 -1.34126,-0.1803 -1.14326,-0.857l4.44872,-15.2045c0.05973,-0.2041 0.16147,-0.3935 0.29871,-0.556l32.35389,-38.31027c2.4011,-2.84315 6.6389,-3.23475 9.5203,-0.87975c2.9854,2.43993 3.3542,6.86835 0.8136,9.76852zm-12.4491,-5.20163l9.5811,7.31753l2.2941,-2.6187c2.2562,-2.57547 1.9287,-6.50817 -0.7225,-8.67496c-2.5589,-2.09138 -6.3223,-1.74361 -8.4546,0.78126l-2.6981,3.19487z" clip-rule="evenodd" fill-rule="evenodd"/>
  </g>
 </g>

</svg>