<svg width="32" height="32" viewBox="0 0 32 32" fill="none" xmlns="http://www.w3.org/2000/svg">
<g clip-path="url(#clip0_6037_520)">
<path d="M25.332 10.6666L19.9987 15.9999H23.9987C23.9987 20.4133 20.412 23.9999 15.9987 23.9999C14.652 23.9999 13.372 23.6666 12.2654 23.0666L10.3187 25.0133C11.9587 26.0533 13.9054 26.6666 15.9987 26.6666C21.892 26.6666 26.6654 21.8933 26.6654 15.9999H30.6654L25.332 10.6666ZM7.9987 15.9999C7.9987 11.5866 11.5854 7.99992 15.9987 7.99992C17.3454 7.99992 18.6254 8.33325 19.732 8.93325L21.6787 6.98658C20.0387 5.94658 18.092 5.33325 15.9987 5.33325C10.1054 5.33325 5.33203 10.1066 5.33203 15.9999H1.33203L6.66536 21.3333L11.9987 15.9999H7.9987Z" fill="black"/>
</g>
<defs>
<clipPath id="clip0_6037_520">
<rect width="32" height="32" fill="white"/>
</clipPath>
</defs>
</svg>
