<svg width="51" height="58" viewBox="0 0 51 58" fill="none" xmlns="http://www.w3.org/2000/svg">
    <path fill-rule="evenodd" clip-rule="evenodd"
        d="M6.17339 42.0654L1.73644 57.2296L14.4838 49.0791L14.4806 49.0723C12.8368 45.6536 9.81095 43.1064 6.17339 42.0654ZM6.791 41.2066C10.4982 42.3687 13.5802 44.9969 15.3103 48.4924L44.911 14.7032L35.3443 7.39669L6.791 41.2066ZM48.4394 11.8334L45.9682 14.6542L45.5551 15.1951L45.5187 15.1673L15.8398 49.0458C15.745 49.1541 15.6353 49.2484 15.514 49.3259L2.14744 57.8724C1.55341 58.2522 0.806182 57.6921 1.00418 57.0154L5.4529 41.8109C5.51263 41.6068 5.61437 41.4174 5.75161 41.2549L38.1055 2.94463C40.5066 0.101485 44.7444 -0.290118 47.6258 2.06488C50.6112 4.50481 50.98 8.93323 48.4394 11.8334ZM35.9903 6.63177L45.5714 13.9493L47.8655 11.3306C50.1217 8.75513 49.7942 4.82243 47.143 2.65564C44.5841 0.564263 40.8207 0.912029 38.6884 3.4369L35.9903 6.63177Z"
        fill="black" />
</svg>