<svg width="768" height="612" viewBox="0 0 768 612" fill="none" xmlns="http://www.w3.org/2000/svg">
<path d="M767.353 23.354C767.549 23.1591 767.549 22.8425 767.354 22.6469L764.177 19.4605C763.982 19.265 763.665 19.2645 763.469 19.4595C763.274 19.6545 763.273 19.9711 763.468 20.1666L766.293 22.999L763.461 25.8235C763.265 26.0185 763.265 26.335 763.46 26.5306C763.654 26.7261 763.971 26.7266 764.167 26.5316L767.353 23.354ZM53.647 21.6459C53.4514 21.8409 53.451 22.1575 53.646 22.353L56.8235 25.5394C57.0185 25.735 57.3351 25.7354 57.5306 25.5404C57.7261 25.3454 57.7266 25.0289 57.5316 24.8333L54.7071 22.0009L57.5395 19.1765C57.7351 18.9815 57.7355 18.6649 57.5405 18.4694C57.3456 18.2738 57.029 18.2734 56.8334 18.4684L53.647 21.6459ZM767.001 22.5L54.0008 21.4999L53.9993 22.4999L766.999 23.5L767.001 22.5Z" fill="black"/>
<path d="M402.554 8.65039V9.68945L395.362 9.68945V8.94434L399.819 2.04687L400.852 2.04687L399.744 4.04297L396.798 8.65039L402.554 8.65039ZM401.166 2.04687V12L399.901 12V2.04687L401.166 2.04687ZM409.95 6.23047V7.74805C409.95 8.5638 409.877 9.25195 409.731 9.8125C409.586 10.373 409.376 10.8242 409.103 11.166C408.829 11.5078 408.499 11.7562 408.111 11.9111C407.729 12.0615 407.296 12.1367 406.812 12.1367C406.43 12.1367 406.076 12.0889 405.753 11.9932C405.429 11.8975 405.138 11.7448 404.878 11.5352C404.623 11.321 404.404 11.043 404.222 10.7012C404.039 10.3594 403.9 9.94466 403.805 9.45703C403.709 8.9694 403.661 8.39974 403.661 7.74805V6.23047C403.661 5.41471 403.734 4.73112 403.88 4.17969C404.03 3.62826 404.242 3.1862 404.516 2.85352C404.789 2.51628 405.117 2.27474 405.5 2.12891C405.887 1.98307 406.32 1.91016 406.799 1.91016C407.186 1.91016 407.542 1.95801 407.865 2.05371C408.193 2.14486 408.485 2.29297 408.74 2.49805C408.995 2.69857 409.212 2.96745 409.39 3.30469C409.572 3.63737 409.711 4.04525 409.807 4.52832C409.902 5.01139 409.95 5.57878 409.95 6.23047ZM408.679 7.95312V6.01855C408.679 5.57194 408.651 5.18001 408.597 4.84277C408.547 4.50098 408.471 4.20931 408.371 3.96777C408.271 3.72624 408.143 3.53027 407.988 3.37988C407.838 3.22949 407.662 3.12012 407.462 3.05176C407.266 2.97884 407.045 2.94238 406.799 2.94238C406.498 2.94238 406.231 2.99935 405.999 3.11328C405.767 3.22266 405.571 3.39811 405.411 3.63965C405.256 3.88118 405.138 4.19792 405.056 4.58984C404.974 4.98177 404.933 5.45801 404.933 6.01855V7.95312C404.933 8.39974 404.958 8.79395 405.008 9.13574C405.062 9.47754 405.142 9.77376 405.247 10.0244C405.352 10.2705 405.479 10.4733 405.63 10.6328C405.78 10.7923 405.953 10.9108 406.149 10.9883C406.35 11.0612 406.571 11.0977 406.812 11.0977C407.122 11.0977 407.394 11.0384 407.626 10.9199C407.858 10.8014 408.052 10.6169 408.207 10.3662C408.367 10.111 408.485 9.78516 408.562 9.38867C408.64 8.98763 408.679 8.50911 408.679 7.95312ZM413.177 7.2627L412.165 7.00293L412.664 2.04687L417.771 2.04687V3.21582L413.737 3.21582L413.437 5.92285C413.619 5.81803 413.849 5.72005 414.127 5.62891C414.41 5.53776 414.733 5.49219 415.098 5.49219C415.558 5.49219 415.97 5.57194 416.335 5.73145C416.7 5.88639 417.009 6.1097 417.265 6.40137C417.524 6.69303 417.723 7.04395 417.859 7.4541C417.996 7.86426 418.064 8.32227 418.064 8.82812C418.064 9.30664 417.998 9.74642 417.866 10.1475C417.739 10.5485 417.545 10.8994 417.285 11.2002C417.025 11.4964 416.697 11.7266 416.301 11.8906C415.909 12.0547 415.446 12.1367 414.913 12.1367C414.512 12.1367 414.132 12.082 413.771 11.9727C413.416 11.8587 413.097 11.6878 412.814 11.46C412.536 11.2275 412.309 10.9404 412.131 10.5986C411.958 10.2523 411.848 9.84668 411.803 9.38184L413.006 9.38184C413.061 9.75553 413.17 10.07 413.334 10.3252C413.498 10.5804 413.712 10.7741 413.977 10.9062C414.245 11.0339 414.558 11.0977 414.913 11.0977C415.214 11.0977 415.48 11.0452 415.713 10.9404C415.945 10.8356 416.141 10.6852 416.301 10.4893C416.46 10.2933 416.581 10.0563 416.663 9.77832C416.75 9.50033 416.793 9.18815 416.793 8.8418C416.793 8.52734 416.75 8.23568 416.663 7.9668C416.576 7.69792 416.447 7.46322 416.273 7.2627C416.105 7.06217 415.897 6.90723 415.651 6.79785C415.405 6.68392 415.123 6.62695 414.804 6.62695C414.38 6.62695 414.059 6.68392 413.84 6.79785C413.626 6.91178 413.405 7.06673 413.177 7.2627ZM425.7 6.23047V7.74805C425.7 8.5638 425.627 9.25195 425.481 9.8125C425.336 10.373 425.126 10.8242 424.853 11.166C424.579 11.5078 424.249 11.7562 423.861 11.9111C423.479 12.0615 423.046 12.1367 422.562 12.1367C422.18 12.1367 421.826 12.0889 421.503 11.9932C421.179 11.8975 420.888 11.7448 420.628 11.5352C420.373 11.321 420.154 11.043 419.972 10.7012C419.789 10.3594 419.65 9.94466 419.555 9.45703C419.459 8.9694 419.411 8.39974 419.411 7.74805V6.23047C419.411 5.41471 419.484 4.73112 419.63 4.17969C419.78 3.62826 419.992 3.1862 420.266 2.85352C420.539 2.51628 420.867 2.27474 421.25 2.12891C421.637 1.98307 422.07 1.91016 422.549 1.91016C422.936 1.91016 423.292 1.95801 423.615 2.05371C423.943 2.14486 424.235 2.29297 424.49 2.49805C424.745 2.69857 424.962 2.96745 425.14 3.30469C425.322 3.63737 425.461 4.04525 425.557 4.52832C425.652 5.01139 425.7 5.57878 425.7 6.23047ZM424.429 7.95312V6.01855C424.429 5.57194 424.401 5.18001 424.347 4.84277C424.297 4.50098 424.221 4.20931 424.121 3.96777C424.021 3.72624 423.893 3.53027 423.738 3.37988C423.588 3.22949 423.412 3.12012 423.212 3.05176C423.016 2.97884 422.795 2.94238 422.549 2.94238C422.248 2.94238 421.981 2.99935 421.749 3.11328C421.517 3.22266 421.321 3.39811 421.161 3.63965C421.006 3.88118 420.888 4.19792 420.806 4.58984C420.724 4.98177 420.683 5.45801 420.683 6.01855V7.95312C420.683 8.39974 420.708 8.79395 420.758 9.13574C420.812 9.47754 420.892 9.77376 420.997 10.0244C421.102 10.2705 421.229 10.4733 421.38 10.6328C421.53 10.7923 421.703 10.9108 421.899 10.9883C422.1 11.0612 422.321 11.0977 422.562 11.0977C422.872 11.0977 423.144 11.0384 423.376 10.9199C423.608 10.8014 423.802 10.6169 423.957 10.3662C424.117 10.111 424.235 9.78516 424.312 9.38867C424.39 8.98763 424.429 8.50911 424.429 7.95312Z" fill="black"/>
<path d="M21.6464 609.355C21.8417 609.55 22.1583 609.55 22.3536 609.355L25.5355 606.173C25.7308 605.977 25.7308 605.661 25.5355 605.465C25.3403 605.27 25.0237 605.27 24.8284 605.465L22 608.294L19.1716 605.465C18.9763 605.27 18.6597 605.27 18.4645 605.465C18.2692 605.661 18.2692 605.977 18.4645 606.173L21.6464 609.355ZM22.3536 51.6465C22.1583 51.4512 21.8417 51.4512 21.6464 51.6465L18.4645 54.8285C18.2692 55.0237 18.2692 55.3403 18.4645 55.5356C18.6597 55.7308 18.9763 55.7308 19.1716 55.5356L22 52.7072L24.8284 55.5356C25.0237 55.7308 25.3403 55.7308 25.5355 55.5356C25.7308 55.3403 25.7308 55.0237 25.5355 54.8285L22.3536 51.6465ZM22.5 609.001L22.5 52.0001H21.5L21.5 609.001H22.5Z" fill="black"/>
<path d="M6.40137 344.327L6.40137 343.425C6.40137 342.983 6.32845 342.618 6.18262 342.331C6.03223 342.039 5.82943 341.823 5.57422 341.682C5.31445 341.536 5.02279 341.463 4.69922 341.463C4.31641 341.463 3.99512 341.527 3.73535 341.654C3.47559 341.782 3.27962 341.973 3.14746 342.229C3.0153 342.484 2.94922 342.807 2.94922 343.199C2.94922 343.555 3.01986 343.869 3.16113 344.143C3.29785 344.411 3.49382 344.623 3.74902 344.778C4.00423 344.929 4.30501 345.004 4.65137 345.004L4.65137 346.269C4.14551 346.269 3.68522 346.141 3.27051 345.886C2.85579 345.631 2.52539 345.273 2.2793 344.812C2.0332 344.348 1.91016 343.81 1.91016 343.199C1.91016 342.598 2.01725 342.071 2.23145 341.62C2.44108 341.169 2.75553 340.818 3.1748 340.567C3.58952 340.317 4.10677 340.191 4.72656 340.191C4.97721 340.191 5.24609 340.251 5.5332 340.369C5.81575 340.483 6.08008 340.663 6.32617 340.909C6.57227 341.151 6.77506 341.465 6.93457 341.853C7.08952 342.24 7.16699 342.705 7.16699 343.247L7.16699 344.327L6.40137 344.327ZM7.44043 344.327L6.68164 344.327L6.68164 343.247C6.68164 342.614 6.75684 342.09 6.90723 341.675C7.05762 341.26 7.25814 340.934 7.50879 340.697C7.75944 340.456 8.03516 340.287 8.33594 340.191C8.63216 340.091 8.92839 340.041 9.22461 340.041C9.68945 340.041 10.1019 340.121 10.4619 340.28C10.8219 340.435 11.1273 340.656 11.3779 340.943C11.6286 341.226 11.8177 341.559 11.9453 341.941C12.0729 342.324 12.1367 342.741 12.1367 343.192C12.1367 343.625 12.0752 344.033 11.9521 344.416C11.8291 344.794 11.6514 345.129 11.4189 345.421C11.182 345.713 10.8926 345.94 10.5508 346.104C10.2044 346.269 9.81022 346.351 9.36816 346.351L9.36816 345.086C9.71452 345.086 10.0176 345.011 10.2773 344.86C10.5371 344.705 10.7399 344.487 10.8857 344.204C11.027 343.917 11.0977 343.58 11.0977 343.192C11.0977 342.805 11.0316 342.472 10.8994 342.194C10.7627 341.912 10.5576 341.695 10.2842 341.545C10.0107 341.39 9.66667 341.312 9.25195 341.312C8.83724 341.312 8.49772 341.399 8.2334 341.572C7.96452 341.745 7.76628 341.992 7.63867 342.311C7.50651 342.625 7.44043 342.996 7.44043 343.425L7.44043 344.327ZM6.23047 332.05L7.74805 332.05C8.5638 332.05 9.25195 332.123 9.8125 332.269C10.373 332.414 10.8242 332.624 11.166 332.897C11.5078 333.171 11.7562 333.501 11.9111 333.889C12.0615 334.271 12.1367 334.704 12.1367 335.187C12.1367 335.57 12.0889 335.924 11.9932 336.247C11.8975 336.571 11.7448 336.862 11.5352 337.122C11.321 337.377 11.043 337.596 10.7012 337.778C10.3594 337.961 9.94466 338.1 9.45703 338.195C8.9694 338.291 8.39974 338.339 7.74805 338.339L6.23047 338.339C5.41471 338.339 4.73112 338.266 4.17969 338.12C3.62825 337.97 3.1862 337.758 2.85352 337.484C2.51628 337.211 2.27474 336.883 2.12891 336.5C1.98307 336.113 1.91016 335.68 1.91016 335.201C1.91016 334.814 1.95801 334.458 2.05371 334.135C2.14486 333.807 2.29297 333.515 2.49805 333.26C2.69857 333.005 2.96745 332.788 3.30469 332.61C3.63737 332.428 4.04525 332.289 4.52832 332.193C5.01139 332.098 5.57878 332.05 6.23047 332.05ZM7.95312 333.321L6.01855 333.321C5.57194 333.321 5.18001 333.349 4.84277 333.403C4.50098 333.453 4.20931 333.529 3.96777 333.629C3.72624 333.729 3.53027 333.857 3.37988 334.012C3.22949 334.162 3.12012 334.338 3.05176 334.538C2.97884 334.734 2.94238 334.955 2.94238 335.201C2.94238 335.502 2.99935 335.769 3.11328 336.001C3.22266 336.233 3.39811 336.429 3.63965 336.589C3.88118 336.744 4.19792 336.862 4.58984 336.944C4.98177 337.026 5.45801 337.067 6.01855 337.067L7.95312 337.067C8.39974 337.067 8.79394 337.042 9.13574 336.992C9.47754 336.937 9.77376 336.858 10.0244 336.753C10.2705 336.648 10.4733 336.521 10.6328 336.37C10.7923 336.22 10.9108 336.047 10.9883 335.851C11.0612 335.65 11.0977 335.429 11.0977 335.187C11.0977 334.878 11.0384 334.606 10.9199 334.374C10.8014 334.142 10.6169 333.948 10.3662 333.793C10.111 333.633 9.78516 333.515 9.38867 333.437C8.98763 333.36 8.50911 333.321 7.95312 333.321ZM6.23047 324.175L7.74805 324.175C8.5638 324.175 9.25195 324.248 9.8125 324.394C10.373 324.539 10.8242 324.749 11.166 325.022C11.5078 325.296 11.7562 325.626 11.9111 326.014C12.0615 326.396 12.1367 326.829 12.1367 327.312C12.1367 327.695 12.0889 328.049 11.9932 328.372C11.8975 328.696 11.7448 328.987 11.5352 329.247C11.321 329.502 11.043 329.721 10.7012 329.903C10.3594 330.086 9.94466 330.225 9.45703 330.32C8.9694 330.416 8.39974 330.464 7.74805 330.464L6.23047 330.464C5.41471 330.464 4.73112 330.391 4.17969 330.245C3.62825 330.095 3.1862 329.883 2.85351 329.609C2.51628 329.336 2.27474 329.008 2.12891 328.625C1.98307 328.238 1.91016 327.805 1.91016 327.326C1.91016 326.939 1.95801 326.583 2.05371 326.26C2.14486 325.932 2.29297 325.64 2.49805 325.385C2.69857 325.13 2.96745 324.913 3.30469 324.735C3.63737 324.553 4.04525 324.414 4.52832 324.318C5.01139 324.223 5.57878 324.175 6.23047 324.175ZM7.95312 325.446L6.01855 325.446C5.57194 325.446 5.18001 325.474 4.84277 325.528C4.50098 325.578 4.20931 325.654 3.96777 325.754C3.72624 325.854 3.53027 325.982 3.37988 326.137C3.22949 326.287 3.12012 326.463 3.05176 326.663C2.97884 326.859 2.94238 327.08 2.94238 327.326C2.94238 327.627 2.99935 327.894 3.11328 328.126C3.22266 328.358 3.39811 328.554 3.63965 328.714C3.88118 328.869 4.19792 328.987 4.58984 329.069C4.98177 329.151 5.45801 329.192 6.01855 329.192L7.95312 329.192C8.39974 329.192 8.79394 329.167 9.13574 329.117C9.47754 329.062 9.77376 328.983 10.0244 328.878C10.2705 328.773 10.4733 328.646 10.6328 328.495C10.7923 328.345 10.9108 328.172 10.9883 327.976C11.0612 327.775 11.0977 327.554 11.0977 327.312C11.0977 327.003 11.0384 326.731 10.9199 326.499C10.8014 326.267 10.6169 326.073 10.3662 325.918C10.111 325.758 9.78516 325.64 9.38867 325.562C8.98763 325.485 8.50911 325.446 7.95312 325.446ZM6.23047 316.3L7.74805 316.3C8.5638 316.3 9.25195 316.373 9.8125 316.519C10.373 316.664 10.8242 316.874 11.166 317.147C11.5078 317.421 11.7562 317.751 11.9111 318.139C12.0615 318.521 12.1367 318.954 12.1367 319.437C12.1367 319.82 12.0889 320.174 11.9932 320.497C11.8975 320.821 11.7448 321.112 11.5352 321.372C11.321 321.627 11.043 321.846 10.7012 322.028C10.3594 322.211 9.94466 322.35 9.45703 322.445C8.9694 322.541 8.39974 322.589 7.74805 322.589L6.23047 322.589C5.41471 322.589 4.73112 322.516 4.17969 322.37C3.62825 322.22 3.1862 322.008 2.85351 321.734C2.51627 321.461 2.27474 321.133 2.12891 320.75C1.98307 320.363 1.91016 319.93 1.91016 319.451C1.91016 319.064 1.95801 318.708 2.05371 318.385C2.14486 318.057 2.29297 317.765 2.49805 317.51C2.69857 317.255 2.96745 317.038 3.30469 316.86C3.63737 316.678 4.04525 316.539 4.52832 316.443C5.01139 316.348 5.57877 316.3 6.23047 316.3ZM7.95312 317.571L6.01855 317.571C5.57194 317.571 5.18001 317.599 4.84277 317.653C4.50098 317.703 4.20931 317.779 3.96777 317.879C3.72624 317.979 3.53027 318.107 3.37988 318.262C3.22949 318.412 3.12012 318.588 3.05176 318.788C2.97884 318.984 2.94238 319.205 2.94238 319.451C2.94238 319.752 2.99935 320.019 3.11328 320.251C3.22266 320.483 3.39811 320.679 3.63965 320.839C3.88118 320.994 4.19792 321.112 4.58984 321.194C4.98177 321.276 5.45801 321.317 6.01855 321.317L7.95312 321.317C8.39974 321.317 8.79394 321.292 9.13574 321.242C9.47754 321.187 9.77376 321.108 10.0244 321.003C10.2705 320.898 10.4733 320.771 10.6328 320.62C10.7923 320.47 10.9108 320.297 10.9883 320.101C11.0612 319.9 11.0977 319.679 11.0977 319.437C11.0977 319.128 11.0384 318.856 10.9199 318.624C10.8014 318.392 10.6169 318.198 10.3662 318.043C10.111 317.883 9.78515 317.765 9.38867 317.687C8.98763 317.61 8.50911 317.571 7.95312 317.571Z" fill="black"/>
<rect x="75" y="591" width="342" height="116" rx="3" transform="rotate(-90 75 591)" fill="white" stroke="#1D1D1D" stroke-width="2"/>
<path d="M175.134 251.646C175.036 251.548 174.878 251.548 174.78 251.646L173.189 253.237C173.092 253.334 173.092 253.492 173.189 253.59C173.287 253.688 173.445 253.688 173.543 253.59L174.957 252.176L176.371 253.59C176.469 253.688 176.627 253.688 176.725 253.59C176.822 253.492 176.822 253.334 176.725 253.237L175.134 251.646ZM175.207 398.341L175.207 251.822L174.707 251.822L174.707 398.341L175.207 398.341Z" fill="#757474"/>
<path d="M174.78 588.354C174.878 588.452 175.036 588.452 175.134 588.354L176.725 586.763C176.822 586.666 176.822 586.508 176.725 586.41C176.627 586.312 176.469 586.312 176.371 586.41L174.957 587.824L173.543 586.41C173.445 586.312 173.287 586.312 173.189 586.41C173.092 586.508 173.092 586.666 173.189 586.763L174.78 588.354ZM174.707 441.659L174.707 588.178L175.207 588.178L175.207 441.659L174.707 441.659Z" fill="#757474"/>
<path d="M177.657 432.741L176.872 432.741L173.644 430.133C173.266 429.827 172.937 429.575 172.658 429.377C172.376 429.179 172.112 429.032 171.864 428.937C171.614 428.84 171.353 428.791 171.079 428.791C170.765 428.791 170.493 428.858 170.264 428.991C170.034 429.122 169.856 429.303 169.731 429.531C169.606 429.76 169.544 430.018 169.544 430.303C169.544 430.607 169.615 430.871 169.758 431.098C169.897 431.322 170.093 431.495 170.346 431.619C170.599 431.739 170.896 431.8 171.236 431.8L171.236 432.71C170.713 432.71 170.253 432.604 169.858 432.39C169.462 432.177 169.154 431.886 168.933 431.518C168.712 431.148 168.602 430.733 168.602 430.272C168.602 429.809 168.712 429.399 168.933 429.041C169.154 428.684 169.452 428.404 169.827 428.2C170.202 427.997 170.62 427.896 171.079 427.896C171.408 427.896 171.729 427.948 172.043 428.054C172.354 428.157 172.702 428.337 173.086 428.594C173.467 428.849 173.932 429.202 174.482 429.655L176.628 431.43L176.698 431.43L176.698 427.757L177.657 427.757L177.657 432.741Z" fill="#757474"/>
<path d="M177.779 423.586C177.779 424.168 177.6 424.663 177.243 425.072C176.882 425.481 176.36 425.793 175.677 426.009C174.991 426.225 174.162 426.333 173.19 426.333C172.225 426.333 171.401 426.225 170.717 426.009C170.031 425.791 169.507 425.477 169.147 425.068C168.783 424.656 168.602 424.163 168.602 423.586C168.602 423.01 168.783 422.518 169.147 422.109C169.507 421.697 170.031 421.384 170.717 421.167C171.401 420.949 172.225 420.84 173.19 420.84C174.162 420.84 174.991 420.948 175.677 421.164C176.36 421.38 176.882 421.692 177.243 422.101C177.6 422.51 177.779 423.005 177.779 423.586ZM176.82 423.586C176.82 423.01 176.506 422.563 175.877 422.244C175.249 421.925 174.354 421.765 173.19 421.765C172.417 421.765 171.758 421.839 171.214 421.985C170.671 422.129 170.256 422.338 169.971 422.61C169.686 422.88 169.544 423.206 169.544 423.586C169.544 424.157 169.862 424.604 170.499 424.925C171.133 425.247 172.03 425.407 173.19 425.407C173.964 425.407 174.621 425.335 175.162 425.191C175.703 425.047 176.114 424.84 176.397 424.57C176.679 424.298 176.82 423.97 176.82 423.586Z" fill="#757474"/>
<path d="M177.779 416.796C177.779 417.378 177.6 417.873 177.243 418.282C176.882 418.691 176.36 419.003 175.677 419.219C174.991 419.435 174.162 419.543 173.19 419.543C172.225 419.543 171.401 419.435 170.717 419.219C170.031 419.001 169.507 418.687 169.147 418.278C168.783 417.866 168.602 417.373 168.602 416.796C168.602 416.22 168.783 415.728 169.147 415.319C169.507 414.907 170.031 414.594 170.717 414.378C171.401 414.159 172.225 414.05 173.19 414.05C174.162 414.05 174.991 414.158 175.677 414.374C176.36 414.59 176.882 414.902 177.243 415.311C177.6 415.72 177.779 416.215 177.779 416.796ZM176.82 416.796C176.82 416.22 176.506 415.773 175.877 415.454C175.249 415.135 174.354 414.976 173.19 414.976C172.417 414.976 171.758 415.049 171.214 415.195C170.671 415.339 170.256 415.548 169.971 415.82C169.686 416.09 169.544 416.416 169.544 416.796C169.544 417.367 169.862 417.814 170.499 418.135C171.133 418.457 172.03 418.617 173.19 418.617C173.964 418.617 174.621 418.545 175.162 418.401C175.703 418.257 176.114 418.05 176.397 417.78C176.679 417.508 176.82 417.18 176.82 416.796Z" fill="#757474"/>
<path d="M177.779 410.007C177.779 410.588 177.6 411.083 177.243 411.492C176.882 411.901 176.36 412.213 175.677 412.429C174.991 412.645 174.162 412.753 173.19 412.753C172.225 412.753 171.401 412.645 170.717 412.429C170.031 412.211 169.507 411.897 169.147 411.488C168.783 411.076 168.602 410.583 168.602 410.007C168.602 409.43 168.783 408.938 169.147 408.529C169.507 408.117 170.031 407.804 170.717 407.588C171.401 407.369 172.225 407.26 173.19 407.26C174.162 407.26 174.991 407.368 175.677 407.584C176.36 407.8 176.882 408.112 177.243 408.521C177.6 408.93 177.779 409.425 177.779 410.007ZM176.82 410.007C176.82 409.43 176.506 408.983 175.877 408.664C175.249 408.345 174.354 408.186 173.19 408.186C172.417 408.186 171.758 408.259 171.214 408.406C170.671 408.55 170.256 408.758 169.971 409.031C169.686 409.301 169.544 409.626 169.544 410.007C169.544 410.578 169.862 411.024 170.499 411.345C171.133 411.667 172.03 411.827 173.19 411.827C173.964 411.827 174.621 411.755 175.162 411.611C175.703 411.467 176.114 411.26 176.397 410.99C176.679 410.718 176.82 410.39 176.82 410.007Z" fill="#757474"/>
<path d="M188.244 263.657C188.342 263.56 188.342 263.401 188.244 263.304L186.653 261.713C186.556 261.615 186.398 261.615 186.3 261.713C186.202 261.81 186.202 261.969 186.3 262.066L187.714 263.48L186.3 264.895C186.202 264.992 186.202 265.151 186.3 265.248C186.398 265.346 186.556 265.346 186.653 265.248L188.244 263.657ZM148.734 263.73L188.068 263.73L188.068 263.23L148.734 263.23L148.734 263.73Z" fill="#757474"/>
<path d="M77.7575 263.59C77.6598 263.687 77.6598 263.846 77.7575 263.943L79.3485 265.534C79.4461 265.632 79.6044 265.632 79.702 265.534C79.7996 265.437 79.7996 265.278 79.702 265.181L78.2878 263.767L79.702 262.352C79.7996 262.255 79.7996 262.096 79.702 261.999C79.6044 261.901 79.4461 261.901 79.3485 261.999L77.7575 263.59ZM117.268 263.517L77.9342 263.517L77.9342 264.017L117.268 264.017L117.268 263.517Z" fill="#757474"/>
<path d="M141.772 260.741C142.129 260.746 142.487 260.814 142.844 260.944C143.202 261.074 143.528 261.293 143.823 261.601C144.118 261.912 144.355 262.332 144.534 262.86C144.713 263.391 144.802 264.058 144.802 264.861C144.802 265.63 144.73 266.311 144.585 266.904C144.44 267.5 144.23 268.002 143.955 268.409C143.68 268.818 143.348 269.129 142.959 269.341C142.568 269.553 142.127 269.659 141.636 269.659C141.148 269.659 140.714 269.562 140.333 269.367C139.95 269.175 139.638 268.906 139.397 268.561C139.156 268.217 139 267.82 138.929 267.37L139.967 267.37C140.064 267.76 140.251 268.084 140.529 268.341C140.807 268.598 141.176 268.727 141.636 268.727C142.311 268.727 142.843 268.434 143.232 267.849C143.617 267.264 143.812 266.443 143.815 265.387L143.747 265.387C143.588 265.627 143.399 265.832 143.181 266.001C142.959 266.174 142.715 266.306 142.449 266.4C142.182 266.493 141.9 266.539 141.602 266.539C141.102 266.539 140.646 266.415 140.231 266.166C139.817 265.921 139.485 265.58 139.235 265.145C138.986 264.713 138.861 264.217 138.861 263.657C138.861 263.12 138.982 262.629 139.223 262.182C139.464 261.738 139.803 261.385 140.24 261.122C140.674 260.862 141.185 260.735 141.772 260.741ZM141.772 261.673C141.414 261.673 141.094 261.762 140.81 261.94C140.524 262.118 140.298 262.357 140.133 262.657C139.966 262.956 139.882 263.29 139.882 263.657C139.882 264.016 139.963 264.342 140.125 264.636C140.284 264.933 140.504 265.169 140.785 265.344C141.063 265.519 141.38 265.607 141.738 265.607C142.007 265.607 142.258 265.553 142.491 265.446C142.724 265.341 142.928 265.197 143.104 265.014C143.277 264.83 143.413 264.619 143.512 264.382C143.612 264.147 143.661 263.9 143.661 263.64C143.661 263.295 143.581 262.973 143.419 262.674C143.254 262.374 143.03 262.133 142.746 261.949C142.46 261.765 142.135 261.673 141.772 261.673Z" fill="#757474"/>
<path d="M134.344 260.741C134.986 260.741 135.532 260.915 135.983 261.262C136.434 261.613 136.779 262.12 137.017 262.784C137.255 263.451 137.375 264.256 137.375 265.2C137.375 266.138 137.255 266.939 137.017 267.603C136.776 268.27 136.43 268.779 135.979 269.129C135.525 269.483 134.98 269.659 134.344 269.659C133.709 269.659 133.166 269.483 132.715 269.129C132.261 268.779 131.914 268.27 131.676 267.603C131.435 266.939 131.314 266.138 131.314 265.2C131.314 264.256 131.434 263.451 131.672 262.784C131.91 262.12 132.255 261.613 132.706 261.262C133.157 260.915 133.703 260.741 134.344 260.741ZM134.344 261.673C133.709 261.673 133.215 261.979 132.863 262.589C132.512 263.199 132.336 264.07 132.336 265.2C132.336 265.952 132.417 266.592 132.578 267.12C132.737 267.649 132.967 268.051 133.268 268.328C133.566 268.605 133.925 268.744 134.344 268.744C134.974 268.744 135.467 268.434 135.821 267.815C136.176 267.199 136.353 266.328 136.353 265.2C136.353 264.448 136.274 263.81 136.115 263.284C135.956 262.758 135.728 262.359 135.43 262.085C135.129 261.81 134.767 261.673 134.344 261.673Z" fill="#757474"/>
<path d="M126.854 260.741C127.496 260.741 128.042 260.915 128.493 261.262C128.944 261.613 129.289 262.12 129.527 262.784C129.765 263.451 129.884 264.256 129.884 265.2C129.884 266.138 129.765 266.939 129.527 267.603C129.286 268.27 128.94 268.779 128.489 269.129C128.035 269.483 127.49 269.659 126.854 269.659C126.219 269.659 125.675 269.483 125.224 269.129C124.77 268.779 124.424 268.27 124.186 267.603C123.945 266.939 123.824 266.138 123.824 265.2C123.824 264.256 123.943 263.451 124.182 262.784C124.42 262.12 124.765 261.613 125.216 261.262C125.667 260.915 126.213 260.741 126.854 260.741ZM126.854 261.673C126.219 261.673 125.725 261.979 125.373 262.589C125.022 263.199 124.846 264.07 124.846 265.2C124.846 265.952 124.926 266.592 125.088 267.12C125.247 267.649 125.477 268.051 125.778 268.328C126.076 268.605 126.434 268.744 126.854 268.744C127.484 268.744 127.976 268.434 128.331 267.815C128.686 267.199 128.863 266.328 128.863 265.2C128.863 264.448 128.784 263.81 128.625 263.284C128.466 262.758 128.237 262.359 127.94 262.085C127.639 261.81 127.277 261.673 126.854 261.673Z" fill="#757474"/>
<path d="M124.085 421.685C123.841 421.181 123.844 420.592 124.093 420.091L133.007 402.165C133.857 400.455 136.433 401.061 136.433 402.97L136.433 439.263C136.433 441.182 133.837 441.779 132.999 440.052L124.085 421.685Z" stroke="#1D1D1D"/>
<path d="M122.244 420.942C122.386 420.783 122.468 420.577 122.435 420.367C122.287 419.423 121.611 418.09 121.161 417.411C120.656 416.648 119.945 416.068 119.124 415.749C118.302 415.429 117.409 415.385 116.564 415.623C115.719 415.861 114.962 416.369 114.395 417.08C113.828 417.79 113.478 418.669 113.392 419.598C113.305 420.528 113.487 421.463 113.912 422.28C114.337 423.096 114.985 423.755 115.77 424.167C116.325 424.459 116.931 424.618 117.543 424.636C117.966 424.649 118.255 424.251 118.196 423.832C118.135 423.402 117.727 423.118 117.297 423.058C116.991 423.015 116.691 422.919 116.411 422.772C115.893 422.5 115.464 422.065 115.183 421.525C114.902 420.985 114.783 420.367 114.84 419.753C114.897 419.139 115.128 418.559 115.503 418.089C115.877 417.62 116.377 417.284 116.936 417.127C117.494 416.969 118.084 416.998 118.627 417.209C119.17 417.421 119.64 417.804 119.974 418.308C120.217 418.676 120.453 419.382 120.777 420.583C120.954 421.24 121.788 421.447 122.244 420.942Z" fill="#1D1D1D"/>
<path d="M121.792 421.692C121.251 421.692 120.799 421.261 120.814 420.72C120.816 420.667 120.817 420.617 120.82 420.573C120.839 420.248 121.309 420.075 121.309 420.075L124.367 420.075L124.367 421.692L121.792 421.692Z" fill="#1D1D1D"/>
<rect x="766" y="612" width="20" height="557" transform="rotate(-180 766 612)" fill="black"/>
<rect x="299" y="592" width="58" height="58" rx="3" transform="rotate(-180 299 592)" stroke="#1D1D1D" stroke-width="2"/>
<path d="M241.823 543.823C241.726 543.921 241.726 544.079 241.823 544.177L243.414 545.768C243.512 545.865 243.67 545.865 243.768 545.768C243.865 545.67 243.865 545.512 243.768 545.414L242.354 544L243.768 542.586C243.865 542.488 243.865 542.33 243.768 542.232C243.67 542.135 243.512 542.135 243.414 542.232L241.823 543.823ZM260 543.75L242 543.75V544.25L260 544.25V543.75Z" fill="#757474"/>
<path d="M298.177 544.177C298.274 544.079 298.274 543.921 298.177 543.823L296.586 542.232C296.488 542.135 296.33 542.135 296.232 542.232C296.135 542.33 296.135 542.488 296.232 542.586L297.646 544L296.232 545.414C296.135 545.512 296.135 545.67 296.232 545.768C296.33 545.865 296.488 545.865 296.586 545.768L298.177 544.177ZM280 544.25L298 544.25L298 543.75L280 543.75L280 544.25Z" fill="#757474"/>
<path d="M278 542.358L278 543.036L275.117 547.774L274.643 547.774L274.643 546.723L274.963 546.723L277.141 543.143L277.141 543.09L273.259 543.09L273.259 542.358L278 542.358ZM274.912 540.96L274.912 547.774L274.156 547.774L274.156 540.96L274.912 540.96Z" fill="#757474"/>
<path d="M269.919 540.867C270.401 540.867 270.812 541.004 271.152 541.276C271.492 541.551 271.751 541.95 271.93 542.471C272.11 542.994 272.2 543.626 272.2 544.367C272.2 545.104 272.11 545.732 271.93 546.254C271.749 546.777 271.488 547.176 271.149 547.451C270.807 547.729 270.397 547.867 269.919 547.867C269.44 547.867 269.031 547.729 268.692 547.451C268.35 547.176 268.09 546.777 267.91 546.254C267.729 545.732 267.638 545.104 267.638 544.367C267.638 543.626 267.728 542.994 267.907 542.471C268.086 541.95 268.346 541.551 268.685 541.276C269.025 541.004 269.436 540.867 269.919 540.867ZM269.919 541.599C269.44 541.599 269.069 541.839 268.804 542.318C268.539 542.797 268.407 543.48 268.407 544.367C268.407 544.957 268.468 545.46 268.589 545.874C268.709 546.289 268.882 546.605 269.108 546.823C269.332 547.04 269.603 547.149 269.919 547.149C270.393 547.149 270.763 546.906 271.03 546.42C271.297 545.936 271.431 545.252 271.431 544.367C271.431 543.777 271.371 543.276 271.251 542.863C271.132 542.451 270.96 542.137 270.736 541.922C270.509 541.707 270.237 541.599 269.919 541.599Z" fill="#757474"/>
<path d="M264.281 540.867C264.763 540.867 265.175 541.004 265.514 541.276C265.854 541.551 266.113 541.95 266.293 542.471C266.472 542.994 266.562 543.626 266.562 544.367C266.562 545.104 266.472 545.732 266.293 546.254C266.111 546.777 265.85 547.176 265.511 547.451C265.169 547.729 264.759 547.867 264.281 547.867C263.802 547.867 263.393 547.729 263.054 547.451C262.712 547.176 262.452 546.777 262.272 546.254C262.091 545.732 262 545.104 262 544.367C262 543.626 262.09 542.994 262.269 542.471C262.448 541.95 262.708 541.551 263.048 541.276C263.387 541.004 263.798 540.867 264.281 540.867ZM264.281 541.599C263.802 541.599 263.431 541.839 263.166 542.318C262.901 542.797 262.769 543.48 262.769 544.367C262.769 544.957 262.83 545.46 262.951 545.874C263.071 546.289 263.244 546.605 263.47 546.823C263.695 547.04 263.965 547.149 264.281 547.149C264.755 547.149 265.125 546.906 265.392 546.42C265.659 545.936 265.793 545.252 265.793 544.367C265.793 543.777 265.733 543.276 265.613 542.863C265.494 542.451 265.322 542.137 265.098 541.922C264.871 541.707 264.599 541.599 264.281 541.599Z" fill="#757474"/>
<path d="M251.181 534.823C251.083 534.726 250.925 534.726 250.827 534.823L249.236 536.414C249.139 536.512 249.139 536.67 249.236 536.768C249.334 536.865 249.492 536.865 249.59 536.768L251.004 535.354L252.418 536.768C252.516 536.865 252.674 536.865 252.772 536.768C252.869 536.67 252.869 536.512 252.772 536.414L251.181 534.823ZM251.254 553L251.254 535L250.754 535L250.754 553L251.254 553Z" fill="#757474"/>
<path d="M250.827 591.177C250.925 591.274 251.083 591.274 251.181 591.177L252.772 589.586C252.869 589.488 252.869 589.33 252.772 589.232C252.674 589.135 252.516 589.135 252.418 589.232L251.004 590.646L249.59 589.232C249.492 589.135 249.334 589.135 249.236 589.232C249.139 589.33 249.139 589.488 249.236 589.586L250.827 591.177ZM250.754 573L250.754 591L251.254 591L251.254 573L250.754 573Z" fill="#757474"/>
<path d="M249.865 555L250.544 555L255.282 557.883L255.282 558.357L254.231 558.357L254.231 558.037L250.651 555.859L250.597 555.859L250.597 559.741L249.865 559.741L249.865 555ZM248.468 558.088L255.282 558.088L255.282 558.844L248.468 558.844L248.468 558.088Z" fill="#757474"/>
<path d="M248.375 563.081C248.375 562.599 248.511 562.188 248.784 561.848C249.059 561.508 249.457 561.249 249.979 561.07C250.502 560.89 251.134 560.8 251.875 560.8C252.611 560.8 253.24 560.89 253.761 561.07C254.285 561.251 254.684 561.512 254.959 561.851C255.236 562.193 255.375 562.603 255.375 563.081C255.375 563.56 255.236 563.969 254.959 564.308C254.684 564.65 254.285 564.91 253.761 565.09C253.24 565.271 252.611 565.362 251.875 565.362C251.134 565.362 250.502 565.272 249.979 565.093C249.457 564.914 249.059 564.654 248.784 564.315C248.511 563.975 248.375 563.564 248.375 563.081ZM249.107 563.081C249.107 563.56 249.346 563.931 249.826 564.196C250.305 564.461 250.988 564.593 251.875 564.593C252.465 564.593 252.967 564.532 253.382 564.411C253.797 564.291 254.113 564.118 254.33 563.892C254.548 563.668 254.656 563.397 254.656 563.081C254.656 562.607 254.413 562.237 253.928 561.97C253.444 561.703 252.76 561.569 251.875 561.569C251.285 561.569 250.784 561.629 250.371 561.749C249.959 561.868 249.645 562.04 249.43 562.264C249.215 562.491 249.107 562.763 249.107 563.081Z" fill="#757474"/>
<path d="M248.375 568.719C248.375 568.237 248.511 567.825 248.784 567.486C249.059 567.146 249.457 566.887 249.979 566.707C250.502 566.528 251.134 566.438 251.875 566.438C252.611 566.438 253.24 566.528 253.761 566.707C254.285 566.889 254.684 567.15 254.959 567.489C255.236 567.831 255.375 568.241 255.375 568.719C255.375 569.198 255.236 569.607 254.959 569.946C254.684 570.288 254.285 570.548 253.761 570.728C253.24 570.909 252.611 571 251.875 571C251.134 571 250.502 570.91 249.979 570.731C249.457 570.552 249.059 570.292 248.784 569.952C248.511 569.613 248.375 569.202 248.375 568.719ZM249.107 568.719C249.107 569.198 249.346 569.569 249.826 569.834C250.305 570.099 250.988 570.231 251.875 570.231C252.465 570.231 252.967 570.17 253.382 570.049C253.797 569.929 254.113 569.756 254.33 569.53C254.548 569.305 254.656 569.035 254.656 568.719C254.656 568.245 254.413 567.875 253.928 567.608C253.444 567.341 252.76 567.207 251.875 567.207C251.285 567.207 250.784 567.267 250.371 567.387C249.959 567.506 249.645 567.678 249.43 567.902C249.215 568.129 249.107 568.401 249.107 568.719Z" fill="#757474"/>
<rect x="747" y="55" width="20" height="673" transform="rotate(90 747 55)" fill="black"/>
<rect x="74" y="612" width="20" height="557" transform="rotate(-180 74 612)" fill="black"/>
<rect x="747" y="592" width="20" height="673" transform="rotate(90 747 592)" fill="black"/>
<rect x="746.5" y="85.5" width="19" height="279" fill="white"/>
<rect x="746.5" y="85.5" width="19" height="279" stroke="black"/>
<line x1="753.5" y1="85" x2="753.5" y2="365" stroke="black"/>
<line x1="759.5" y1="85" x2="759.5" y2="365" stroke="black"/>
<rect x="74" y="230" width="20" height="130" transform="rotate(-180 74 230)" fill="white"/>
<line x1="204" y1="99.5" x2="54" y2="99.5" stroke="black"/>
<path d="M204 99C204 166.931 140.872 231 63 231" stroke="black"/>
<rect x="583.313" y="591" width="282.625" height="314.25" rx="3" transform="rotate(-180 583.313 591)" stroke="#1D1D1D" stroke-width="2"/>
<rect x="552.188" y="566.2" width="93.875" height="51.7083" rx="3.5" transform="rotate(-180 552.188 566.2)" stroke="#1D1D1D"/>
<rect x="436.23" y="566.2" width="93.875" height="51.7083" rx="3.5" transform="rotate(-180 436.23 566.2)" stroke="#1D1D1D"/>
<path d="M583.273 488.691L300.757 488.691" stroke="#1D1D1D" stroke-linecap="round"/>
<path d="M300.742 474.987L583.429 426.986" stroke="#1D1D1D" stroke-linecap="round"/>
<path d="M449.973 293.573L449.973 286.39L450.813 286.39L450.813 292.661L450.853 292.661L452.547 291.496L452.547 292.38L450.813 293.573L449.973 293.573Z" fill="#757474"/>
<path d="M445.755 286.292C446.221 286.292 446.632 286.377 446.988 286.548C447.343 286.721 447.619 286.958 447.818 287.26C448.017 287.564 448.115 287.91 448.113 288.298C448.115 288.602 448.058 288.882 447.94 289.14C447.823 289.399 447.662 289.615 447.459 289.788C447.254 289.964 447.024 290.075 446.772 290.122L446.772 290.164C447.104 290.253 447.368 290.445 447.564 290.742C447.761 291.042 447.858 291.382 447.855 291.763C447.858 292.128 447.769 292.454 447.588 292.741C447.407 293.029 447.159 293.256 446.843 293.422C446.524 293.588 446.162 293.671 445.755 293.671C445.353 293.671 444.994 293.588 444.678 293.422C444.362 293.256 444.114 293.029 443.933 292.741C443.75 292.454 443.658 292.128 443.655 291.763C443.658 291.382 443.758 291.042 443.957 290.742C444.153 290.445 444.414 290.253 444.739 290.164L444.739 290.122C444.489 290.075 444.263 289.964 444.062 289.788C443.861 289.615 443.7 289.399 443.581 289.14C443.461 288.882 443.4 288.602 443.398 288.298C443.4 287.91 443.502 287.564 443.703 287.26C443.901 286.958 444.178 286.721 444.533 286.548C444.885 286.377 445.292 286.292 445.755 286.292ZM445.755 287.063C445.441 287.063 445.17 287.116 444.942 287.221C444.714 287.326 444.538 287.475 444.414 287.667C444.29 287.858 444.227 288.083 444.224 288.34C444.227 288.611 444.294 288.851 444.428 289.059C444.561 289.267 444.743 289.431 444.973 289.55C445.201 289.669 445.462 289.729 445.755 289.729C446.051 289.729 446.315 289.669 446.548 289.55C446.778 289.431 446.96 289.267 447.093 289.059C447.224 288.851 447.289 288.611 447.286 288.34C447.289 288.083 447.229 287.858 447.107 287.667C446.983 287.475 446.805 287.326 446.575 287.221C446.345 287.116 446.072 287.063 445.755 287.063ZM445.755 290.472C445.507 290.472 445.287 290.524 445.095 290.627C444.901 290.73 444.748 290.873 444.638 291.058C444.527 291.243 444.47 291.459 444.468 291.707C444.47 291.95 444.526 292.162 444.634 292.342C444.743 292.524 444.893 292.664 445.085 292.763C445.277 292.863 445.5 292.913 445.755 292.913C446.015 292.913 446.242 292.863 446.436 292.763C446.63 292.664 446.781 292.524 446.887 292.342C446.993 292.162 447.045 291.95 447.043 291.707C447.045 291.459 446.992 291.243 446.883 291.058C446.773 290.873 446.62 290.73 446.426 290.627C446.232 290.524 446.008 290.472 445.755 290.472Z" fill="#757474"/>
<path d="M439.837 286.292C440.347 286.292 440.782 286.436 441.141 286.723C441.5 287.013 441.774 287.433 441.964 287.982C442.154 288.534 442.249 289.2 442.249 289.981C442.249 290.758 442.154 291.42 441.964 291.97C441.772 292.522 441.497 292.943 441.138 293.232C440.776 293.525 440.343 293.671 439.837 293.671C439.331 293.671 438.899 293.525 438.54 293.232C438.178 292.943 437.903 292.522 437.713 291.97C437.521 291.42 437.425 290.758 437.425 289.981C437.425 289.2 437.52 288.534 437.71 287.982C437.899 287.433 438.174 287.013 438.533 286.723C438.892 286.436 439.327 286.292 439.837 286.292ZM439.837 287.063C439.331 287.063 438.938 287.316 438.658 287.821C438.378 288.326 438.238 289.046 438.238 289.981C438.238 290.603 438.302 291.133 438.431 291.57C438.558 292.007 438.741 292.34 438.98 292.57C439.217 292.799 439.503 292.913 439.837 292.913C440.338 292.913 440.73 292.657 441.012 292.145C441.295 291.636 441.436 290.914 441.436 289.981C441.436 289.359 441.372 288.831 441.246 288.396C441.12 287.961 440.938 287.63 440.701 287.404C440.461 287.177 440.173 287.063 439.837 287.063Z" fill="#757474"/>
<path d="M433.875 286.292C434.386 286.292 434.82 286.436 435.179 286.723C435.538 287.013 435.813 287.433 436.003 287.982C436.192 288.534 436.287 289.2 436.287 289.981C436.287 290.758 436.192 291.42 436.003 291.97C435.811 292.522 435.535 292.943 435.176 293.232C434.815 293.525 434.381 293.671 433.875 293.671C433.369 293.671 432.937 293.525 432.578 293.232C432.217 292.943 431.941 292.522 431.751 291.97C431.56 291.42 431.464 290.758 431.464 289.981C431.464 289.2 431.558 288.534 431.748 287.982C431.938 287.433 432.212 287.013 432.571 286.723C432.93 286.436 433.365 286.292 433.875 286.292ZM433.875 287.063C433.369 287.063 432.977 287.316 432.697 287.821C432.417 288.326 432.276 289.046 432.276 289.981C432.276 290.603 432.341 291.133 432.47 291.57C432.596 292.007 432.779 292.34 433.018 292.57C433.255 292.799 433.541 292.913 433.875 292.913C434.377 292.913 434.768 292.657 435.051 292.145C435.333 291.636 435.474 290.914 435.474 289.981C435.474 289.359 435.411 288.831 435.284 288.396C435.158 287.961 434.976 287.63 434.739 287.404C434.5 287.177 434.212 287.063 433.875 287.063Z" fill="#757474"/>
<path d="M581.329 289.793C581.427 289.695 581.427 289.537 581.329 289.439L579.738 287.848C579.64 287.751 579.482 287.751 579.385 287.848C579.287 287.946 579.287 288.104 579.385 288.202L580.799 289.616L579.385 291.03C579.287 291.128 579.287 291.286 579.385 291.384C579.482 291.482 579.64 291.482 579.738 291.384L581.329 289.793ZM581.152 289.366L459.923 289.366L459.923 289.866L581.152 289.866L581.152 289.366Z" fill="#757474"/>
<path d="M302.676 289.278C302.578 289.375 302.578 289.534 302.676 289.631L304.267 291.222C304.365 291.32 304.523 291.32 304.621 291.222C304.718 291.125 304.718 290.966 304.621 290.869L303.206 289.455L304.621 288.04C304.718 287.943 304.718 287.784 304.621 287.687C304.523 287.589 304.365 287.589 304.267 287.687L302.676 289.278ZM424.082 289.205L302.853 289.205V289.705L424.082 289.705V289.205Z" fill="#757474"/>
<path d="M310.328 423.333L310.96 423.333L313.555 425.491C313.859 425.744 314.123 425.953 314.348 426.117C314.574 426.28 314.787 426.402 314.986 426.481C315.187 426.561 315.397 426.602 315.617 426.602C315.87 426.602 316.088 426.546 316.273 426.436C316.458 426.327 316.6 426.178 316.701 425.989C316.802 425.8 316.852 425.587 316.852 425.351C316.852 425.099 316.795 424.88 316.68 424.693C316.568 424.508 316.41 424.364 316.206 424.262C316.003 424.162 315.765 424.112 315.491 424.112L315.491 423.359C315.912 423.359 316.281 423.447 316.599 423.624C316.917 423.8 317.165 424.041 317.343 424.345C317.521 424.651 317.609 424.995 317.609 425.376C317.609 425.759 317.521 426.099 317.343 426.394C317.165 426.69 316.925 426.922 316.624 427.09C316.322 427.258 315.987 427.342 315.617 427.342C315.353 427.342 315.095 427.299 314.842 427.211C314.592 427.126 314.313 426.977 314.004 426.765C313.698 426.554 313.324 426.261 312.882 425.887L311.156 424.418L311.1 424.418L311.1 427.457L310.328 427.457L310.328 423.333Z" fill="#757474"/>
<path d="M310.23 430.908C310.23 430.427 310.374 430.017 310.662 429.679C310.952 429.341 311.371 429.082 311.921 428.903C312.472 428.725 313.139 428.635 313.92 428.635C314.696 428.635 315.359 428.725 315.908 428.903C316.46 429.084 316.881 429.344 317.171 429.682C317.463 430.023 317.609 430.431 317.609 430.908C317.609 431.385 317.463 431.792 317.171 432.13C316.881 432.471 316.46 432.73 315.908 432.909C315.359 433.09 314.696 433.181 313.92 433.181C313.139 433.181 312.472 433.091 311.921 432.912C311.371 432.734 310.952 432.475 310.662 432.137C310.374 431.798 310.23 431.389 310.23 430.908ZM311.002 430.908C311.002 431.385 311.254 431.755 311.759 432.019C312.264 432.283 312.985 432.414 313.92 432.414C314.542 432.414 315.071 432.354 315.509 432.233C315.946 432.113 316.279 431.941 316.508 431.715C316.737 431.492 316.852 431.223 316.852 430.908C316.852 430.435 316.596 430.066 316.084 429.8C315.574 429.534 314.853 429.401 313.92 429.401C313.298 429.401 312.769 429.461 312.335 429.58C311.9 429.699 311.569 429.87 311.342 430.094C311.115 430.319 311.002 430.591 311.002 430.908Z" fill="#757474"/>
<path d="M310.23 436.526C310.23 436.045 310.374 435.635 310.662 435.297C310.952 434.959 311.371 434.7 311.921 434.521C312.472 434.342 313.139 434.253 313.92 434.253C314.696 434.253 315.359 434.342 315.908 434.521C316.46 434.702 316.881 434.962 317.171 435.3C317.463 435.641 317.609 436.049 317.609 436.526C317.609 437.002 317.463 437.41 317.171 437.748C316.881 438.089 316.46 438.348 315.908 438.527C315.359 438.708 314.696 438.799 313.92 438.799C313.139 438.799 312.472 438.709 311.921 438.53C311.371 438.352 310.952 438.093 310.662 437.755C310.374 437.416 310.23 437.007 310.23 436.526ZM311.002 436.526C311.002 437.002 311.254 437.373 311.759 437.637C312.264 437.901 312.985 438.032 313.92 438.032C314.542 438.032 315.071 437.972 315.509 437.851C315.946 437.731 316.279 437.559 316.508 437.333C316.737 437.11 316.852 436.841 316.852 436.526C316.852 436.053 316.596 435.684 316.084 435.418C315.574 435.152 314.853 435.019 313.92 435.019C313.298 435.019 312.769 435.079 312.335 435.198C311.9 435.317 311.569 435.488 311.342 435.712C311.115 435.937 311.002 436.209 311.002 436.526Z" fill="#757474"/>
<path d="M310.23 442.144C310.23 441.663 310.374 441.253 310.662 440.915C310.952 440.576 311.371 440.318 311.921 440.139C312.472 439.96 313.139 439.871 313.92 439.871C314.696 439.871 315.359 439.96 315.908 440.139C316.46 440.32 316.881 440.58 317.171 440.918C317.463 441.259 317.609 441.667 317.609 442.144C317.609 442.62 317.463 443.028 317.171 443.366C316.881 443.707 316.46 443.966 315.908 444.145C315.359 444.326 314.696 444.417 313.92 444.417C313.139 444.417 312.472 444.327 311.921 444.148C311.371 443.97 310.952 443.711 310.662 443.373C310.374 443.034 310.23 442.625 310.23 442.144ZM311.002 442.144C311.002 442.62 311.254 442.991 311.759 443.255C312.264 443.518 312.985 443.65 313.92 443.65C314.542 443.65 315.071 443.59 315.509 443.468C315.946 443.349 316.279 443.177 316.508 442.951C316.737 442.728 316.852 442.459 316.852 442.144C316.852 441.671 316.596 441.302 316.084 441.036C315.574 440.77 314.853 440.637 313.92 440.637C313.298 440.637 312.769 440.697 312.335 440.816C311.9 440.935 311.569 441.106 311.342 441.33C311.115 441.555 311.002 441.827 311.002 442.144Z" fill="#757474"/>
<path d="M313.567 278.736C313.47 278.638 313.311 278.638 313.214 278.736L311.623 280.327C311.525 280.424 311.525 280.583 311.623 280.68C311.72 280.778 311.879 280.778 311.976 280.68L313.391 279.266L314.805 280.68C314.902 280.778 315.061 280.778 315.158 280.68C315.256 280.583 315.256 280.424 315.158 280.327L313.567 278.736ZM313.641 418.063L313.641 278.913L313.141 278.913L313.141 418.062L313.641 418.063Z" fill="#757474"/>
<path d="M313.214 589.014C313.311 589.111 313.47 589.111 313.567 589.014L315.158 587.423C315.256 587.325 315.256 587.167 315.158 587.069C315.061 586.972 314.902 586.972 314.805 587.069L313.391 588.483L311.976 587.069C311.879 586.972 311.72 586.972 311.623 587.069C311.525 587.167 311.525 587.325 311.623 587.423L313.214 589.014ZM313.141 450.741L313.141 588.837L313.641 588.837L313.641 450.741L313.141 450.741Z" fill="#757474"/>
<rect x="327" y="74" width="231" height="95" rx="3" stroke="#1D1D1D" stroke-width="2"/>
<rect x="327" y="163.24" width="231" height="5.76" rx="2.88" stroke="#1D1D1D" stroke-width="2"/>
<path d="M555.292 154.657C555.389 154.559 555.389 154.401 555.292 154.303L553.701 152.712C553.603 152.615 553.445 152.615 553.347 152.712C553.25 152.81 553.25 152.968 553.347 153.066L554.761 154.48L553.347 155.894C553.25 155.992 553.25 156.15 553.347 156.248C553.445 156.346 553.603 156.346 553.701 156.248L555.292 154.657ZM464.504 154.73L555.115 154.73L555.115 154.23L464.504 154.23L464.504 154.73Z" fill="#757474"/>
<path d="M329.704 154.303C329.607 154.401 329.607 154.559 329.704 154.657L331.295 156.248C331.393 156.346 331.551 156.346 331.649 156.248C331.746 156.15 331.746 155.992 331.649 155.894L330.235 154.48L331.649 153.066C331.746 152.968 331.746 152.81 331.649 152.712C331.551 152.615 331.393 152.615 331.295 152.712L329.704 154.303ZM420.492 154.23H329.881V154.73H420.492V154.23Z" fill="#757474"/>
<path d="M432.731 148.134V156.947H431.695V149.253H431.645L429.555 150.681V149.597L431.695 148.134H432.731Z" fill="#757474"/>
<path d="M435.193 156.947V156.172L438.019 152.988C438.35 152.615 438.623 152.291 438.838 152.015C439.052 151.737 439.211 151.476 439.314 151.232C439.42 150.986 439.473 150.727 439.473 150.458C439.473 150.148 439.401 149.88 439.256 149.653C439.114 149.426 438.919 149.251 438.671 149.128C438.423 149.005 438.144 148.943 437.835 148.943C437.506 148.943 437.219 149.013 436.974 149.154C436.731 149.292 436.543 149.485 436.409 149.735C436.278 149.984 436.213 150.277 436.213 150.613H435.227C435.227 150.096 435.342 149.643 435.573 149.253C435.805 148.863 436.12 148.559 436.518 148.341C436.919 148.123 437.369 148.014 437.868 148.014C438.37 148.014 438.814 148.123 439.201 148.341C439.589 148.559 439.892 148.853 440.113 149.223C440.333 149.593 440.443 150.004 440.443 150.458C440.443 150.782 440.386 151.099 440.271 151.409C440.16 151.716 439.965 152.058 439.686 152.437C439.41 152.813 439.027 153.272 438.537 153.814L436.614 155.931V156H440.593V156.947H435.193Z" fill="#757474"/>
<path d="M445.111 157.067C444.482 157.067 443.945 156.891 443.502 156.538C443.059 156.182 442.721 155.667 442.487 154.993C442.253 154.316 442.136 153.498 442.136 152.54C442.136 151.588 442.253 150.775 442.487 150.101C442.723 149.424 443.063 148.907 443.506 148.552C443.952 148.193 444.487 148.014 445.111 148.014C445.736 148.014 446.269 148.193 446.712 148.552C447.158 148.907 447.498 149.424 447.732 150.101C447.969 150.775 448.087 151.588 448.087 152.54C448.087 153.498 447.97 154.316 447.736 154.993C447.502 155.667 447.164 156.182 446.721 156.538C446.278 156.891 445.741 157.067 445.111 157.067ZM445.111 156.12C445.736 156.12 446.22 155.811 446.566 155.191C446.911 154.571 447.084 153.688 447.084 152.54C447.084 151.777 447.005 151.128 446.846 150.591C446.69 150.055 446.464 149.646 446.169 149.365C445.876 149.084 445.524 148.943 445.111 148.943C444.493 148.943 444.009 149.257 443.661 149.885C443.313 150.511 443.139 151.396 443.139 152.54C443.139 153.303 443.217 153.952 443.373 154.485C443.529 155.019 443.753 155.425 444.046 155.703C444.341 155.981 444.696 156.12 445.111 156.12Z" fill="#757474"/>
<path d="M452.468 157.067C451.838 157.067 451.302 156.891 450.858 156.538C450.415 156.182 450.077 155.667 449.843 154.993C449.609 154.316 449.492 153.498 449.492 152.54C449.492 151.588 449.609 150.775 449.843 150.101C450.08 149.424 450.42 148.907 450.863 148.552C451.308 148.193 451.843 148.014 452.468 148.014C453.092 148.014 453.625 148.193 454.068 148.552C454.514 148.907 454.854 149.424 455.088 150.101C455.325 150.775 455.444 151.588 455.444 152.54C455.444 153.498 455.327 154.316 455.092 154.993C454.858 155.667 454.52 156.182 454.077 156.538C453.634 156.891 453.097 157.067 452.468 157.067ZM452.468 156.12C453.092 156.12 453.577 155.811 453.922 155.191C454.268 154.571 454.44 153.688 454.44 152.54C454.44 151.777 454.361 151.128 454.202 150.591C454.046 150.055 453.82 149.646 453.525 149.365C453.233 149.084 452.88 148.943 452.468 148.943C451.849 148.943 451.366 149.257 451.017 149.885C450.669 150.511 450.495 151.396 450.495 152.54C450.495 153.303 450.573 153.952 450.729 154.485C450.885 155.019 451.109 155.425 451.402 155.703C451.697 155.981 452.052 156.12 452.468 156.12Z" fill="#757474"/>
<rect x="-0.997372" y="-1.00262" width="216.632" height="17.4" rx="3" transform="matrix(-0.999997 -0.0026196 0.0026241 -0.999997 550.406 110.364)" fill="#F2F2F2" stroke="black" stroke-width="2"/>
<path d="M541.995 161.124C542.093 161.221 542.251 161.221 542.349 161.124L543.94 159.533C544.037 159.435 544.037 159.277 543.94 159.179C543.842 159.081 543.684 159.081 543.586 159.179L542.172 160.593L540.758 159.179C540.66 159.081 540.502 159.081 540.404 159.179C540.306 159.277 540.306 159.435 540.404 159.533L541.995 161.124ZM541.922 141.547L541.922 160.947L542.422 160.947L542.422 141.547L541.922 141.547Z" fill="#757474"/>
<path d="M542.349 76.7032C542.251 76.6055 542.093 76.6055 541.995 76.7032L540.404 78.2941C540.306 78.3918 540.306 78.5501 540.404 78.6477C540.502 78.7453 540.66 78.7453 540.758 78.6477L542.172 77.2335L543.586 78.6477C543.684 78.7453 543.842 78.7453 543.94 78.6477C544.037 78.5501 544.037 78.3918 543.94 78.2941L542.349 76.7032ZM542.422 115.68L542.422 76.8799L541.922 76.8799L541.922 115.68L542.422 115.68Z" fill="#757474"/>
<path d="M546.057 136.246C546.057 136.747 545.957 137.198 545.756 137.599C545.555 138 545.279 138.321 544.929 138.563C544.579 138.805 544.18 138.937 543.732 138.96V137.936C544.131 137.896 544.461 137.717 544.722 137.398C544.981 137.077 545.11 136.693 545.11 136.246C545.11 135.887 545.025 135.569 544.856 135.29C544.686 135.008 544.454 134.788 544.158 134.629C543.859 134.466 543.522 134.385 543.146 134.385C542.761 134.385 542.418 134.469 542.117 134.637C541.812 134.802 541.573 135.03 541.397 135.32C541.222 135.61 541.133 135.942 541.13 136.314C541.128 136.582 541.169 136.856 541.255 137.138C541.339 137.419 541.446 137.651 541.578 137.833L541.458 138.823L537.117 138.294V133.754H538.064V137.407L540.665 137.714V137.663C540.522 137.483 540.403 137.259 540.308 136.988C540.213 136.718 540.166 136.437 540.166 136.143C540.166 135.609 540.295 135.132 540.553 134.714C540.809 134.293 541.159 133.963 541.604 133.724C542.049 133.482 542.557 133.361 543.129 133.361C543.691 133.361 544.194 133.486 544.636 133.737C545.075 133.984 545.423 134.326 545.678 134.761C545.931 135.196 546.057 135.691 546.057 136.246Z" fill="#757474"/>
<path d="M546.057 128.815C546.057 129.458 545.881 130.006 545.527 130.458C545.171 130.911 544.656 131.256 543.981 131.495C543.304 131.734 542.486 131.854 541.527 131.854C540.573 131.854 539.76 131.734 539.085 131.495C538.407 131.253 537.89 130.906 537.534 130.454C537.176 129.999 536.996 129.453 536.996 128.815C536.996 128.178 537.176 127.633 537.534 127.181C537.89 126.726 538.407 126.379 539.085 126.14C539.76 125.898 540.573 125.777 541.527 125.777C542.486 125.777 543.304 125.897 543.981 126.136C544.656 126.375 545.171 126.72 545.527 127.173C545.881 127.625 546.057 128.172 546.057 128.815ZM545.11 128.815C545.11 128.178 544.8 127.683 544.18 127.33C543.559 126.978 542.675 126.801 541.527 126.801C540.763 126.801 540.113 126.882 539.576 127.044C539.039 127.204 538.63 127.434 538.348 127.736C538.067 128.035 537.926 128.394 537.926 128.815C537.926 129.447 538.241 129.941 538.869 130.296C539.495 130.652 540.381 130.83 541.527 130.83C542.29 130.83 542.939 130.75 543.473 130.591C544.007 130.431 544.414 130.202 544.692 129.904C544.971 129.602 545.11 129.239 545.11 128.815Z" fill="#757474"/>
<path d="M546.057 121.305C546.057 121.948 545.881 122.496 545.527 122.948C545.171 123.4 544.656 123.746 543.981 123.985C543.304 124.224 542.486 124.343 541.527 124.343C540.573 124.343 539.76 124.224 539.085 123.985C538.407 123.743 537.89 123.396 537.534 122.944C537.176 122.488 536.996 121.942 536.996 121.305C536.996 120.668 537.176 120.123 537.534 119.671C537.89 119.215 538.407 118.868 539.085 118.629C539.76 118.388 540.573 118.267 541.527 118.267C542.486 118.267 543.304 118.386 543.981 118.625C544.656 118.864 545.171 119.21 545.527 119.662C545.881 120.114 546.057 120.662 546.057 121.305ZM545.11 121.305C545.11 120.668 544.8 120.173 544.18 119.82C543.559 119.467 542.675 119.291 541.527 119.291C540.763 119.291 540.113 119.372 539.576 119.534C539.039 119.693 538.63 119.924 538.348 120.225C538.067 120.524 537.926 120.884 537.926 121.305C537.926 121.937 538.241 122.43 538.869 122.786C539.495 123.141 540.381 123.319 541.527 123.319C542.29 123.319 542.939 123.239 543.473 123.08C544.007 122.921 544.414 122.692 544.692 122.393C544.971 122.092 545.11 121.729 545.11 121.305Z" fill="#757474"/>
<ellipse cx="688.506" cy="121.325" rx="16.3304" ry="16.2721" fill="#F2F2F2"/>
<path d="M707.806 121.325C707.806 131.946 699.165 140.556 688.507 140.556C677.848 140.556 669.207 131.946 669.207 121.325C669.207 110.705 677.848 102.095 688.507 102.095C699.165 102.095 707.806 110.705 707.806 121.325ZM672.217 121.325C672.217 130.29 679.51 137.557 688.507 137.557C697.503 137.557 704.796 130.29 704.796 121.325C704.796 112.361 697.503 105.094 688.507 105.094C679.51 105.094 672.217 112.361 672.217 121.325Z" fill="#1D1D1D"/>
<path d="M672.176 123.545C674.551 121.77 680.588 121.819 683.31 122.066C683.31 122.066 688.506 122.066 691.475 122.805C693.081 123.205 688.506 131.681 688.506 132.421C688.506 133.16 681.083 136.858 681.083 136.858C678.856 137.352 673.215 137.746 671.433 138.338C667.722 139.077 670.246 140.705 665.495 141.296C660.744 141.888 658.072 140.064 657.33 139.077C656.588 138.091 657.33 130.941 657.33 130.941C657.33 130.941 657.924 135.527 660.299 136.119C663.268 136.858 664.753 136.119 665.495 133.16C666.237 130.202 669.207 125.764 672.176 123.545Z" fill="#F2F2F2" stroke="black" stroke-width="1.04113"/>
<path d="M688.509 143.514C689.993 137.597 689.993 136.857 692.22 131.68C694.447 126.502 690.736 122.064 690.736 122.064C691.478 130.201 687.767 131.68 686.282 134.638C684.797 137.597 675.89 135.378 673.663 141.295C671.436 147.212 671.436 153.129 672.178 154.609C672.921 156.088 687.024 149.431 688.509 143.514Z" fill="#F2F2F2" stroke="black" stroke-width="1.04113"/>
<path d="M718.938 146.473C719.866 142.775 713 127.242 703.35 124.284C693.7 121.325 692.216 123.544 692.216 123.544C695.185 129.461 692.216 130.94 691.473 133.159C690.731 135.378 696.669 142.775 701.865 140.556C707.061 138.337 717.453 152.39 718.938 146.473Z" fill="#F2F2F2" stroke="black" stroke-width="1.04113"/>
<path d="M701.126 111.71C698.157 111.71 693.951 120.093 692.219 122.805C693.208 123.298 695.93 122.805 695.93 122.805C695.93 122.805 700.384 125.024 701.869 125.024C703.353 125.024 705.58 119.55 710.034 121.325C714.487 123.1 721.168 125.024 721.168 125.024C721.168 125.024 717.457 116.148 710.034 113.189C706.322 111.71 704.838 111.71 701.126 111.71H701.126Z" fill="#F2F2F2" stroke="black" stroke-width="1.04113"/>
<path d="M688.506 111.71C690.881 114.669 691.97 120.586 691.475 122.805C691.475 123.051 688.803 122.657 684.052 122.065C678.114 121.326 677.372 116.148 675.887 114.669C674.403 113.189 676.63 108.012 673.66 105.793C670.691 103.574 662.526 93.219 665.495 93.9586C668.464 94.6983 677.993 92.9791 680.341 97.6569C682.568 102.095 684.052 101.355 686.279 103.574C688.506 106.533 686.131 108.752 688.506 111.71Z" fill="#F2F2F2" stroke="black" stroke-width="1.04113"/>
<path d="M695.929 113.189C695.929 115.408 692.217 122.805 691.475 122.805C691.475 122.805 691.475 116.148 690.732 114.669C689.99 113.189 687.763 105.793 687.763 105.793C687.021 105.793 688.615 103.656 689.248 102.095C690.768 98.345 689.248 91 689.248 91C689.248 91 692.959 95.4379 693.702 96.1775C695.186 97.1637 698.452 101.503 699.64 105.053C701.125 109.491 695.929 110.97 695.929 113.189Z" fill="#F2F2F2" stroke="black" stroke-width="1.04113"/>
<path d="M721.343 164.922C721.44 164.824 721.44 164.666 721.343 164.568L719.752 162.977C719.654 162.88 719.496 162.88 719.398 162.977C719.301 163.075 719.301 163.233 719.398 163.331L720.812 164.745L719.398 166.159C719.301 166.257 719.301 166.415 719.398 166.513C719.496 166.611 719.654 166.611 719.752 166.513L721.343 164.922ZM702.629 164.995H721.166V164.495H702.629V164.995Z" fill="#757474"/>
<path d="M656.825 164.568C656.728 164.666 656.728 164.824 656.825 164.922L658.416 166.513C658.514 166.611 658.672 166.611 658.77 166.513C658.867 166.415 658.867 166.257 658.77 166.159L657.356 164.745L658.77 163.331C658.867 163.233 658.867 163.075 658.77 162.977C658.672 162.88 658.514 162.88 658.416 162.977L656.825 164.568ZM675.539 164.495L657.002 164.495L657.002 164.995L675.539 164.995L675.539 164.495Z" fill="#757474"/>
<path d="M728.12 160.668C728.218 160.765 728.376 160.765 728.474 160.668L730.065 159.077C730.162 158.979 730.162 158.821 730.065 158.723C729.967 158.625 729.809 158.625 729.711 158.723L728.297 160.137L726.883 158.723C726.785 158.625 726.627 158.625 726.529 158.723C726.431 158.821 726.431 158.979 726.529 159.077L728.12 160.668ZM728.047 142.054L728.047 160.491L728.547 160.491L728.547 142.054L728.047 142.054Z" fill="#757474"/>
<path d="M728.474 90.8231C728.376 90.7255 728.218 90.7255 728.12 90.8231L726.529 92.4141C726.431 92.5118 726.431 92.6701 726.529 92.7677C726.627 92.8653 726.785 92.8653 726.883 92.7677L728.297 91.3535L729.711 92.7677C729.809 92.8653 729.967 92.8653 730.065 92.7677C730.162 92.6701 730.162 92.5118 730.065 92.4141L728.474 90.8231ZM728.547 109.436L728.547 90.9999L728.047 90.9999L728.047 109.436L728.547 109.436Z" fill="#757474"/>
<path d="M680.177 169C679.567 169 679.024 168.893 678.546 168.679C678.072 168.465 677.694 168.168 677.414 167.787C677.137 167.403 676.986 166.958 676.961 166.452H678.125C678.15 166.763 678.255 167.032 678.44 167.258C678.625 167.482 678.866 167.655 679.165 167.778C679.464 167.9 679.795 167.962 680.159 167.962C680.565 167.962 680.926 167.889 681.24 167.744C681.554 167.6 681.801 167.398 681.98 167.141C682.158 166.883 682.248 166.584 682.248 166.244C682.248 165.889 682.161 165.576 681.989 165.305C681.816 165.031 681.564 164.818 681.231 164.663C680.898 164.509 680.492 164.432 680.011 164.432H679.253V163.394H680.011C680.387 163.394 680.716 163.325 681 163.187C681.286 163.048 681.51 162.853 681.67 162.602C681.833 162.35 681.915 162.054 681.915 161.715C681.915 161.387 681.844 161.103 681.702 160.86C681.561 160.618 681.36 160.43 681.102 160.294C680.846 160.159 680.544 160.091 680.196 160.091C679.869 160.091 679.561 160.153 679.272 160.275C678.985 160.395 678.751 160.57 678.569 160.799C678.387 161.026 678.289 161.299 678.273 161.62H677.164C677.183 161.114 677.332 160.67 677.613 160.29C677.893 159.906 678.259 159.607 678.712 159.393C679.168 159.179 679.669 159.072 680.214 159.072C680.8 159.072 681.302 159.193 681.721 159.436C682.14 159.675 682.462 159.991 682.687 160.384C682.911 160.777 683.024 161.202 683.024 161.658C683.024 162.202 682.884 162.666 682.603 163.05C682.326 163.434 681.949 163.699 681.471 163.847V163.923C682.069 164.023 682.536 164.283 682.871 164.701C683.207 165.116 683.375 165.631 683.375 166.244C683.375 166.769 683.235 167.241 682.955 167.66C682.677 168.075 682.298 168.402 681.818 168.641C681.337 168.88 680.79 169 680.177 169Z" fill="#757474"/>
<path d="M688.352 169C687.656 169 687.063 168.806 686.573 168.419C686.083 168.029 685.709 167.465 685.45 166.725C685.191 165.983 685.062 165.087 685.062 164.036C685.062 162.992 685.191 162.1 685.45 161.361C685.712 160.618 686.088 160.052 686.578 159.662C687.071 159.269 687.662 159.072 688.352 159.072C689.042 159.072 689.632 159.269 690.122 159.662C690.615 160.052 690.991 160.618 691.25 161.361C691.512 162.1 691.642 162.992 691.642 164.036C691.642 165.087 691.513 165.983 691.254 166.725C690.995 167.465 690.621 168.029 690.131 168.419C689.641 168.806 689.048 169 688.352 169ZM688.352 167.962C689.042 167.962 689.578 167.622 689.96 166.942C690.342 166.263 690.533 165.294 690.533 164.036C690.533 163.199 690.446 162.487 690.27 161.899C690.097 161.31 689.848 160.862 689.521 160.554C689.198 160.246 688.808 160.091 688.352 160.091C687.668 160.091 687.134 160.436 686.749 161.125C686.364 161.81 686.171 162.781 686.171 164.036C686.171 164.873 686.257 165.583 686.43 166.169C686.602 166.754 686.85 167.199 687.174 167.504C687.5 167.809 687.893 167.962 688.352 167.962Z" fill="#757474"/>
<path d="M696.485 169C695.789 169 695.196 168.806 694.706 168.419C694.216 168.029 693.842 167.465 693.583 166.725C693.325 165.983 693.195 165.087 693.195 164.036C693.195 162.992 693.325 162.1 693.583 161.361C693.845 160.618 694.221 160.052 694.711 159.662C695.204 159.269 695.795 159.072 696.485 159.072C697.176 159.072 697.766 159.269 698.255 159.662C698.748 160.052 699.124 160.618 699.383 161.361C699.645 162.1 699.776 162.992 699.776 164.036C699.776 165.087 699.646 165.983 699.388 166.725C699.129 167.465 698.754 168.029 698.265 168.419C697.775 168.806 697.182 169 696.485 169ZM696.485 167.962C697.176 167.962 697.712 167.622 698.094 166.942C698.476 166.263 698.667 165.294 698.667 164.036C698.667 163.199 698.579 162.487 698.403 161.899C698.231 161.31 697.981 160.862 697.655 160.554C697.331 160.246 696.941 160.091 696.485 160.091C695.802 160.091 695.267 160.436 694.882 161.125C694.497 161.81 694.304 162.781 694.304 164.036C694.304 164.873 694.391 165.583 694.563 166.169C694.736 166.754 694.984 167.199 695.307 167.504C695.634 167.809 696.026 167.962 696.485 167.962Z" fill="#757474"/>
<path d="M734.001 133.183C734.001 133.79 733.893 134.33 733.678 134.805C733.463 135.277 733.164 135.653 732.782 135.931C732.396 136.207 731.948 136.357 731.439 136.382V135.224C731.752 135.199 732.023 135.095 732.25 134.911C732.475 134.727 732.649 134.487 732.772 134.189C732.896 133.892 732.957 133.563 732.957 133.201C732.957 132.797 732.885 132.438 732.739 132.126C732.594 131.813 732.391 131.568 732.132 131.39C731.873 131.213 731.572 131.124 731.23 131.124C730.873 131.124 730.558 131.21 730.286 131.381C730.011 131.553 729.796 131.804 729.641 132.135C729.486 132.466 729.409 132.87 729.409 133.348V134.102H728.365V133.348C728.365 132.975 728.296 132.647 728.156 132.365C728.017 132.08 727.821 131.858 727.568 131.698C727.315 131.536 727.018 131.455 726.676 131.455C726.347 131.455 726.061 131.525 725.818 131.666C725.574 131.807 725.384 132.006 725.248 132.264C725.112 132.518 725.044 132.818 725.044 133.165C725.044 133.489 725.106 133.796 725.229 134.084C725.349 134.369 725.525 134.602 725.756 134.782C725.984 134.963 726.259 135.061 726.581 135.077V136.18C726.072 136.161 725.626 136.013 725.243 135.734C724.858 135.455 724.557 135.09 724.342 134.64C724.127 134.186 724.02 133.689 724.02 133.146C724.02 132.564 724.141 132.065 724.385 131.648C724.625 131.231 724.943 130.911 725.338 130.687C725.734 130.464 726.161 130.352 726.619 130.352C727.166 130.352 727.633 130.491 728.019 130.77C728.405 131.046 728.672 131.421 728.821 131.896H728.896C728.998 131.302 729.259 130.837 729.679 130.503C730.097 130.169 730.614 130.002 731.23 130.002C731.759 130.002 732.233 130.142 732.654 130.421C733.071 130.696 733.4 131.073 733.64 131.551C733.881 132.029 734.001 132.573 734.001 133.183Z" fill="#757474"/>
<path d="M734.001 125.052C734.001 125.745 733.807 126.335 733.417 126.822C733.025 127.309 732.458 127.681 731.714 127.939C730.968 128.196 730.067 128.325 729.01 128.325C727.96 128.325 727.064 128.196 726.32 127.939C725.574 127.678 725.005 127.305 724.613 126.817C724.217 126.327 724.02 125.739 724.02 125.052C724.02 124.366 724.217 123.779 724.613 123.292C725.005 122.802 725.574 122.428 726.32 122.171C727.064 121.91 727.96 121.78 729.01 121.78C730.067 121.78 730.968 121.909 731.714 122.166C732.458 122.424 733.025 122.796 733.417 123.283C733.807 123.77 734.001 124.36 734.001 125.052ZM732.957 125.052C732.957 124.366 732.616 123.833 731.933 123.453C731.249 123.073 730.275 122.883 729.01 122.883C728.169 122.883 727.453 122.97 726.861 123.145C726.27 123.317 725.819 123.565 725.509 123.89C725.199 124.211 725.044 124.599 725.044 125.052C725.044 125.733 725.391 126.264 726.083 126.647C726.773 127.03 727.748 127.222 729.01 127.222C729.852 127.222 730.566 127.136 731.155 126.964C731.743 126.793 732.19 126.546 732.497 126.224C732.804 125.9 732.957 125.509 732.957 125.052Z" fill="#757474"/>
<path d="M734.001 116.963C734.001 117.656 733.807 118.246 733.417 118.733C733.025 119.22 732.458 119.592 731.714 119.85C730.968 120.107 730.067 120.236 729.01 120.236C727.96 120.236 727.064 120.107 726.32 119.85C725.574 119.589 725.005 119.215 724.613 118.728C724.217 118.238 724.02 117.65 724.02 116.963C724.02 116.277 724.217 115.69 724.613 115.203C725.005 114.713 725.574 114.339 726.32 114.082C727.064 113.821 727.96 113.691 729.01 113.691C730.067 113.691 730.968 113.82 731.714 114.077C732.458 114.334 733.025 114.707 733.417 115.194C733.807 115.681 734.001 116.271 734.001 116.963ZM732.957 116.963C732.957 116.277 732.616 115.744 731.933 115.364C731.249 114.984 730.275 114.794 729.01 114.794C728.169 114.794 727.453 114.881 726.861 115.056C726.27 115.228 725.819 115.476 725.509 115.801C725.199 116.122 725.044 116.51 725.044 116.963C725.044 117.644 725.391 118.175 726.083 118.558C726.773 118.941 727.748 119.133 729.01 119.133C729.852 119.133 730.566 119.047 731.155 118.875C731.743 118.704 732.19 118.457 732.497 118.135C732.804 117.811 732.957 117.42 732.957 116.963Z" fill="#757474"/>
<rect x="745" y="591.633" width="133" height="58" rx="3" transform="rotate(-180 745 591.633)" stroke="#1D1D1D" stroke-width="2"/>
<path d="M743.177 544.81C743.274 544.712 743.274 544.554 743.177 544.456L741.586 542.865C741.488 542.767 741.33 542.767 741.232 542.865C741.135 542.963 741.135 543.121 741.232 543.219L742.646 544.633L741.232 546.047C741.135 546.145 741.135 546.303 741.232 546.401C741.33 546.498 741.488 546.498 741.586 546.401L743.177 544.81ZM743 544.383L693 544.383L693 544.883L743 544.883L743 544.383Z" fill="#757474"/>
<path d="M613.823 544.456C613.726 544.554 613.726 544.712 613.823 544.81L615.414 546.401C615.512 546.498 615.67 546.498 615.768 546.401C615.865 546.303 615.865 546.145 615.768 546.047L614.354 544.633L615.768 543.219C615.865 543.121 615.865 542.963 615.768 542.865C615.67 542.767 615.512 542.767 615.414 542.865L613.823 544.456ZM664 544.383L614 544.383L614 544.883L664 544.883L664 544.383Z" fill="#757474"/>
<path d="M682.78 549.633C682.507 549.63 682.234 549.577 681.962 549.473C681.689 549.369 681.44 549.196 681.215 548.954C680.99 548.714 680.81 548.387 680.673 547.972C680.537 547.558 680.469 547.038 680.469 546.412C680.469 545.807 680.525 545.269 680.637 544.799C680.748 544.331 680.908 543.936 681.118 543.614C681.326 543.293 681.579 543.049 681.877 542.882C682.174 542.716 682.509 542.633 682.884 542.633C683.256 542.633 683.588 542.708 683.88 542.859C684.17 543.012 684.408 543.224 684.594 543.494C684.778 543.767 684.896 544.083 684.948 544.443L684.156 544.443C684.085 544.13 683.943 543.872 683.731 543.667C683.517 543.466 683.234 543.365 682.884 543.365C682.371 543.365 681.966 543.594 681.67 544.053C681.371 544.512 681.222 545.161 681.222 546L681.274 546C681.395 545.813 681.539 545.652 681.705 545.517C681.872 545.382 682.057 545.278 682.26 545.204C682.464 545.131 682.68 545.095 682.91 545.095C683.29 545.095 683.64 545.191 683.958 545.384C684.274 545.579 684.527 545.847 684.718 546.186C684.906 546.527 685 546.918 685 547.357C685 547.774 684.909 548.155 684.727 548.501C684.543 548.85 684.286 549.127 683.955 549.333C683.622 549.539 683.23 549.639 682.78 549.633ZM682.78 548.901C683.052 548.901 683.298 548.831 683.517 548.691C683.733 548.553 683.905 548.367 684.033 548.132C684.158 547.899 684.221 547.641 684.221 547.357C684.221 547.073 684.16 546.815 684.039 546.582C683.916 546.351 683.748 546.167 683.536 546.03C683.322 545.894 683.078 545.827 682.806 545.827C682.6 545.827 682.409 545.868 682.231 545.95C682.054 546.034 681.899 546.148 681.767 546.292C681.633 546.439 681.528 546.604 681.452 546.788C681.376 546.974 681.339 547.168 681.339 547.37C681.339 547.636 681.401 547.886 681.527 548.119C681.65 548.352 681.821 548.54 682.04 548.684C682.256 548.829 682.503 548.901 682.78 548.901Z" fill="#757474"/>
<path d="M677.024 542.633C677.513 542.633 677.93 542.769 678.274 543.042C678.618 543.317 678.881 543.715 679.062 544.236C679.244 544.76 679.335 545.392 679.335 546.133C679.335 546.869 679.244 547.498 679.062 548.019C678.878 548.542 678.614 548.942 678.27 549.217C677.924 549.494 677.509 549.632 677.024 549.632C676.539 549.632 676.125 549.494 675.781 549.217C675.435 548.942 675.171 548.542 674.989 548.019C674.805 547.498 674.713 546.869 674.713 546.133C674.713 545.392 674.804 544.76 674.985 544.236C675.167 543.715 675.43 543.317 675.774 543.042C676.118 542.769 676.535 542.633 677.024 542.633ZM677.024 543.365C676.539 543.365 676.163 543.604 675.894 544.083C675.626 544.562 675.492 545.245 675.492 546.133C675.492 546.723 675.554 547.225 675.677 547.64C675.798 548.054 675.973 548.371 676.203 548.588C676.43 548.805 676.704 548.914 677.024 548.914C677.504 548.914 677.88 548.671 678.15 548.185C678.421 547.702 678.556 547.018 678.556 546.133C678.556 545.543 678.495 545.041 678.374 544.629C678.253 544.216 678.079 543.903 677.852 543.687C677.622 543.472 677.346 543.365 677.024 543.365Z" fill="#757474"/>
<path d="M671.311 542.633C671.8 542.633 672.217 542.769 672.561 543.042C672.905 543.317 673.168 543.715 673.35 544.236C673.531 544.76 673.622 545.392 673.622 546.133C673.622 546.869 673.531 547.498 673.35 548.019C673.166 548.542 672.902 548.942 672.558 549.217C672.211 549.494 671.796 549.632 671.311 549.632C670.826 549.632 670.412 549.494 670.068 549.217C669.722 548.942 669.458 548.542 669.276 548.019C669.092 547.498 669 546.869 669 546.133C669 545.392 669.091 544.76 669.273 544.236C669.454 543.715 669.717 543.317 670.061 543.042C670.405 542.769 670.822 542.633 671.311 542.633ZM671.311 543.365C670.826 543.365 670.45 543.604 670.182 544.083C669.913 544.562 669.779 545.245 669.779 546.133C669.779 546.723 669.841 547.225 669.964 547.64C670.085 548.054 670.261 548.371 670.49 548.588C670.717 548.805 670.991 548.914 671.311 548.914C671.792 548.914 672.167 548.671 672.437 548.185C672.708 547.702 672.843 547.018 672.843 546.133C672.843 545.543 672.783 545.041 672.661 544.629C672.54 544.216 672.366 543.903 672.139 543.687C671.909 543.472 671.634 543.365 671.311 543.365Z" fill="#757474"/>
<rect x="707" y="481.633" width="59" height="8" rx="3" transform="rotate(-180 707 481.633)" stroke="#1D1D1D" stroke-width="2"/>
<rect x="706" y="529.633" width="57" height="48" rx="3" transform="rotate(-180 706 529.633)" stroke="#1D1D1D" stroke-width="2"/>
<path d="M623.806 535.456C623.708 535.358 623.55 535.358 623.452 535.456L621.861 537.047C621.764 537.145 621.764 537.303 621.861 537.401C621.959 537.498 622.117 537.498 622.215 537.401L623.629 535.986L625.043 537.401C625.141 537.498 625.299 537.498 625.397 537.401C625.494 537.303 625.494 537.145 625.397 537.047L623.806 535.456ZM623.879 553.633L623.879 535.633L623.379 535.633L623.379 553.633L623.879 553.633Z" fill="#757474"/>
<path d="M623.452 589.81C623.55 589.907 623.708 589.907 623.806 589.81L625.397 588.219C625.494 588.121 625.494 587.963 625.397 587.865C625.299 587.767 625.141 587.767 625.043 587.865L623.629 589.279L622.215 587.865C622.117 587.767 621.959 587.767 621.861 587.865C621.764 587.963 621.764 588.121 621.861 588.219L623.452 589.81ZM623.379 571.633L623.379 589.633L623.879 589.633L623.879 571.633L623.379 571.633Z" fill="#757474"/>
<path d="M622.49 554.633L623.169 554.633L627.907 557.516L627.907 557.99L626.856 557.99L626.856 557.67L623.276 555.491L623.222 555.491L623.222 559.374L622.49 559.374L622.49 554.633ZM621.093 557.721L627.907 557.721L627.907 558.477L621.093 558.477L621.093 557.721Z" fill="#757474"/>
<path d="M621 562.714C621 562.231 621.136 561.82 621.409 561.481C621.684 561.141 622.082 560.882 622.604 560.702C623.127 560.523 623.759 560.433 624.5 560.433C625.236 560.433 625.865 560.523 626.386 560.702C626.91 560.884 627.309 561.144 627.584 561.484C627.861 561.826 628 562.236 628 562.714C628 563.192 627.861 563.601 627.584 563.941C627.309 564.283 626.91 564.543 626.386 564.723C625.865 564.904 625.236 564.995 624.5 564.995C623.759 564.995 623.127 564.905 622.604 564.726C622.082 564.546 621.684 564.287 621.409 563.947C621.136 563.608 621 563.197 621 562.714ZM621.732 562.714C621.732 563.192 621.971 563.564 622.451 563.829C622.93 564.094 623.613 564.226 624.5 564.226C625.09 564.226 625.592 564.165 626.007 564.043C626.422 563.924 626.738 563.751 626.955 563.525C627.173 563.3 627.281 563.03 627.281 562.714C627.281 562.24 627.038 561.869 626.553 561.603C626.069 561.336 625.385 561.202 624.5 561.202C623.91 561.202 623.409 561.262 622.996 561.381C622.584 561.501 622.27 561.673 622.055 561.897C621.84 562.124 621.732 562.396 621.732 562.714Z" fill="#757474"/>
<path d="M621 568.352C621 567.869 621.136 567.458 621.409 567.119C621.684 566.779 622.082 566.52 622.604 566.34C623.127 566.161 623.759 566.071 624.5 566.071C625.236 566.071 625.865 566.161 626.386 566.34C626.91 566.522 627.309 566.782 627.584 567.122C627.861 567.464 628 567.874 628 568.352C628 568.83 627.861 569.239 627.584 569.579C627.309 569.921 626.91 570.181 626.386 570.361C625.865 570.542 625.236 570.633 624.5 570.633C623.759 570.633 623.127 570.543 622.604 570.364C622.082 570.184 621.684 569.925 621.409 569.585C621.136 569.246 621 568.835 621 568.352ZM621.732 568.352C621.732 568.83 621.971 569.202 622.451 569.467C622.93 569.732 623.613 569.864 624.5 569.864C625.09 569.864 625.592 569.803 626.007 569.681C626.422 569.562 626.738 569.389 626.955 569.162C627.173 568.938 627.281 568.668 627.281 568.352C627.281 567.878 627.038 567.507 626.553 567.24C626.069 566.974 625.385 566.84 624.5 566.84C623.91 566.84 623.409 566.9 622.996 567.019C622.584 567.139 622.27 567.311 622.055 567.535C621.84 567.762 621.732 568.034 621.732 568.352Z" fill="#757474"/>
<path d="M736.177 473.456C736.079 473.358 735.921 473.358 735.823 473.456L734.232 475.047C734.135 475.145 734.135 475.303 734.232 475.401C734.33 475.498 734.488 475.498 734.586 475.401L736 473.986L737.414 475.401C737.512 475.498 737.67 475.498 737.768 475.401C737.865 475.303 737.865 475.145 737.768 475.047L736.177 473.456ZM735.75 473.633L735.75 498.633H736.25L736.25 473.633H735.75Z" fill="#757474"/>
<path d="M735.823 588.81C735.921 588.907 736.079 588.907 736.177 588.81L737.768 587.219C737.865 587.121 737.865 586.963 737.768 586.865C737.67 586.767 737.512 586.767 737.414 586.865L736 588.279L734.586 586.865C734.488 586.767 734.33 586.767 734.232 586.865C734.135 586.963 734.135 587.121 734.232 587.219L735.823 588.81ZM735.75 523.633L735.75 588.633L736.25 588.633L736.25 523.633L735.75 523.633Z" fill="#757474"/>
<path d="M733 505.898C733 505.451 733.081 505.056 733.243 504.714C733.407 504.373 733.632 504.107 733.918 503.916C734.207 503.725 734.535 503.631 734.903 503.633C735.191 503.631 735.458 503.686 735.702 503.799C735.948 503.912 736.153 504.066 736.317 504.261C736.483 504.459 736.589 504.679 736.633 504.922L736.673 504.922C736.757 504.603 736.94 504.349 737.222 504.16C737.506 503.971 737.829 503.878 738.19 503.88C738.536 503.878 738.846 503.964 739.118 504.137C739.391 504.311 739.606 504.55 739.764 504.854C739.921 505.16 740 505.508 740 505.898C740 506.285 739.921 506.63 739.764 506.934C739.606 507.237 739.391 507.476 739.118 507.65C738.846 507.826 738.536 507.914 738.19 507.917C737.829 507.914 737.506 507.818 737.222 507.627C736.94 507.438 736.757 507.188 736.673 506.875L736.633 506.875C736.589 507.116 736.483 507.333 736.317 507.526C736.153 507.719 735.948 507.873 735.702 507.988C735.458 508.103 735.191 508.162 734.903 508.164C734.535 508.162 734.207 508.064 733.918 507.871C733.632 507.68 733.407 507.414 733.243 507.074C733.081 506.735 733 506.343 733 505.898ZM733.732 505.898C733.732 506.2 733.782 506.461 733.882 506.68C733.981 506.899 734.122 507.068 734.304 507.188C734.486 507.307 734.699 507.368 734.943 507.37C735.2 507.368 735.428 507.303 735.625 507.174C735.822 507.046 735.978 506.872 736.091 506.65C736.204 506.431 736.26 506.181 736.26 505.898C736.26 505.614 736.204 505.36 736.091 505.137C735.978 504.915 735.822 504.741 735.625 504.613C735.428 504.487 735.2 504.425 734.943 504.427C734.699 504.425 734.486 504.482 734.304 504.6C734.122 504.719 733.981 504.889 733.882 505.111C733.782 505.332 733.732 505.595 733.732 505.898ZM736.966 505.898C736.966 506.137 737.015 506.349 737.112 506.533C737.21 506.72 737.346 506.866 737.521 506.973C737.697 507.079 737.902 507.133 738.137 507.135C738.368 507.133 738.568 507.08 738.739 506.976C738.912 506.872 739.045 506.727 739.138 506.543C739.234 506.359 739.281 506.144 739.281 505.898C739.281 505.649 739.234 505.431 739.138 505.244C739.045 505.058 738.912 504.913 738.739 504.811C738.568 504.709 738.368 504.659 738.137 504.662C737.902 504.659 737.697 504.71 737.521 504.814C737.346 504.921 737.21 505.067 737.112 505.254C737.015 505.441 736.966 505.655 736.966 505.898Z" fill="#757474"/>
<path d="M733 511.586C733 511.096 733.136 510.678 733.409 510.333C733.684 509.988 734.082 509.724 734.604 509.542C735.127 509.36 735.759 509.268 736.5 509.268C737.236 509.268 737.865 509.36 738.386 509.542C738.91 509.726 739.309 509.991 739.584 510.336C739.861 510.683 740 511.1 740 511.586C740 512.072 739.861 512.488 739.584 512.833C739.309 513.18 738.91 513.445 738.386 513.627C737.865 513.811 737.236 513.904 736.5 513.904C735.759 513.904 735.127 513.813 734.604 513.63C734.082 513.448 733.684 513.184 733.409 512.839C733.136 512.494 733 512.076 733 511.586ZM733.732 511.586C733.732 512.072 733.971 512.45 734.451 512.719C734.93 512.988 735.613 513.122 736.5 513.122C737.09 513.122 737.592 513.061 738.007 512.937C738.422 512.815 738.738 512.64 738.955 512.41C739.173 512.182 739.281 511.907 739.281 511.586C739.281 511.104 739.038 510.728 738.553 510.457C738.069 510.185 737.385 510.05 736.5 510.05C735.91 510.05 735.409 510.11 734.996 510.232C734.584 510.353 734.27 510.528 734.055 510.756C733.84 510.986 733.732 511.263 733.732 511.586Z" fill="#757474"/>
<path d="M733 517.315C733 516.825 733.136 516.407 733.409 516.062C733.684 515.717 734.082 515.453 734.604 515.271C735.127 515.089 735.759 514.997 736.5 514.997C737.236 514.997 737.865 515.089 738.386 515.271C738.91 515.455 739.309 515.72 739.584 516.065C739.861 516.412 740 516.829 740 517.315C740 517.801 739.861 518.217 739.584 518.562C739.309 518.909 738.91 519.174 738.386 519.356C737.865 519.541 737.236 519.633 736.5 519.633C735.759 519.633 735.127 519.542 734.604 519.359C734.082 519.177 733.684 518.913 733.409 518.568C733.136 518.223 733 517.806 733 517.315ZM733.732 517.315C733.732 517.801 733.971 518.179 734.451 518.448C734.93 518.717 735.613 518.852 736.5 518.852C737.09 518.852 737.592 518.79 738.007 518.666C738.422 518.545 738.738 518.369 738.955 518.139C739.173 517.911 739.281 517.636 739.281 517.315C739.281 516.833 739.038 516.457 738.553 516.186C738.069 515.914 737.385 515.779 736.5 515.779C735.91 515.779 735.409 515.839 734.996 515.961C734.584 516.083 734.27 516.257 734.055 516.485C733.84 516.715 733.732 516.992 733.732 517.315Z" fill="#757474"/>
<line x1="746" y1="471.883" x2="611" y2="471.883" stroke="#757474" stroke-width="0.5" stroke-dasharray="2 2"/>
</svg>
